M48
; DRILL file KiCad 10.0.3 date 2026-06-03T21:49:35
; FORMAT={-:-/ absolute / metric / decimal}
; #@! TF.CreationDate,2026-06-03T21:49:35+05:30
; #@! TF.GenerationSoftware,Kicad,Pcbnew,10.0.3
; #@! TF.FileFunction,Plated,1,2,PTH
FMAT,2
METRIC
; #@! TA.AperFunction,Plated,PTH,ViaDrill
T1C0.300
; #@! TA.AperFunction,Plated,PTH,ComponentDrill
T2C2.500
; #@! TA.AperFunction,Plated,PTH,ComponentDrill
T3C3.000
%
G90
G05
T1
X173.024Y-146.407
X175.354Y-105.457
X175.454Y-114.247
X175.604Y-94.807
X176.287Y-88.225
X177.17Y-83.429
X179.564Y-77.658
X179.564Y-80.207
X182.044Y-94.138
X186.984Y-94.767
X188.984Y-77.037
X201.462Y-88.263
X217.26Y-139.851
X218.67Y-118.561
X231.155Y-94.03
X231.188Y-81.491
X232.1Y-61.22
X232.22Y-73.801
X250.408Y-155.209
X250.67Y-69.071
X250.78Y-61.82
X251.824Y-156.386
X269.9Y-62.42
X271.3Y-66.16
X289.41Y-64.201
X289.41Y-66.501
X303.78Y-64.911
X304.31Y-67.571
T2
X178.364Y-78.861
X178.364Y-82.261
X203.998Y-77.225
X203.998Y-80.625
T3
X65.499Y-80.231
X65.499Y-99.281
X65.499Y-118.331
X65.499Y-137.381
X71.849Y-82.771
X71.849Y-101.821
X71.849Y-120.871
X71.849Y-139.921
X84.549Y-75.469
X84.549Y-94.571
X84.549Y-113.569
X84.549Y-132.619
X90.899Y-78.009
X90.899Y-97.111
X90.899Y-116.109
X90.899Y-135.159
X103.599Y-71.024
X103.599Y-90.074
X103.599Y-109.124
X103.599Y-128.174
X109.949Y-73.564
X109.949Y-92.614
X109.949Y-111.664
X109.949Y-130.714
X122.649Y-66.261
X122.649Y-85.364
X122.649Y-104.361
X122.649Y-123.411
X125.03Y-144.525
X128.999Y-68.801
X128.999Y-87.904
X128.999Y-106.901
X128.999Y-125.951
X131.38Y-147.065
X141.699Y-70.706
X141.699Y-89.809
X141.699Y-108.806
X141.699Y-127.856
X145.001Y-148.606
X148.049Y-73.246
X148.049Y-92.349
X148.049Y-111.346
X148.049Y-130.396
X150.813Y-152.21
X160.749Y-75.469
X160.749Y-94.519
X160.749Y-113.569
X160.749Y-132.619
X165.021Y-153.17
X167.099Y-78.009
X167.099Y-97.059
X167.099Y-116.109
X167.099Y-135.159
X170.119Y-157.729
X221.472Y-154.251
X225.438Y-74.495
X225.438Y-93.545
X225.438Y-112.595
X225.438Y-131.645
X228.308Y-154.466
X231.787Y-77.035
X231.787Y-96.085
X231.787Y-115.135
X231.787Y-134.185
X241.263Y-148.832
X244.487Y-69.733
X244.487Y-88.782
X244.487Y-107.832
X244.487Y-126.882
X247.957Y-150.231
X250.837Y-72.272
X250.837Y-91.322
X250.837Y-110.372
X250.837Y-129.422
X261.156Y-143.551
X263.537Y-64.97
X263.537Y-84.02
X263.537Y-103.07
X263.537Y-122.12
X267.506Y-146.091
X269.887Y-67.51
X269.887Y-86.56
X269.887Y-105.61
X269.887Y-124.66
X282.587Y-69.415
X282.587Y-88.465
X282.587Y-107.515
X282.587Y-126.565
X288.938Y-71.955
X288.938Y-91.005
X288.938Y-110.055
X288.938Y-129.105
X301.637Y-74.812
X301.637Y-93.862
X301.637Y-112.912
X301.637Y-131.963
X307.988Y-77.352
X307.988Y-96.402
X307.988Y-115.453
X307.988Y-134.502
X320.688Y-79.257
X320.688Y-98.307
X320.688Y-117.358
X320.688Y-136.407
X327.037Y-81.797
X327.037Y-100.847
X327.037Y-119.897
X327.037Y-138.947
M30
