%TF.GenerationSoftware,KiCad,Pcbnew,10.0.3*%
%TF.CreationDate,2026-06-03T21:49:48+05:30*%
%TF.ProjectId,ArxKey,4172784b-6579-42e6-9b69-6361645f7063,rev?*%
%TF.SameCoordinates,Original*%
%TF.FileFunction,Drillmap*%
%TF.FilePolarity,Positive*%
%FSLAX45Y45*%
G04 Gerber Fmt 4.5, Leading zero omitted, Abs format (unit mm)*
G04 Created by KiCad (PCBNEW 10.0.3) date 2026-06-03 21:49:48*
%MOMM*%
%LPD*%
G01*
G04 APERTURE LIST*
%ADD10C,0.050000*%
%ADD11C,0.200000*%
%ADD12C,0.100000*%
%ADD13C,0.250000*%
%ADD14C,0.300000*%
G04 APERTURE END LIST*
D10*
X5442375Y-7381750D02*
X7357375Y-7381750D01*
X5449375Y-15377750D02*
X5442375Y-7381750D01*
X5449375Y-15377750D02*
X7880375Y-15392750D01*
X7357375Y-7381750D02*
X8659375Y-5735750D01*
X7876375Y-14896750D02*
X7880375Y-15392750D01*
X10026375Y-14546750D02*
X10026375Y-14896750D01*
X10026375Y-14896750D02*
X7876375Y-14896750D01*
X11479375Y-14546750D02*
X10026375Y-14546750D01*
X11479375Y-16034750D02*
X11479375Y-14546750D01*
X13267375Y-16309750D02*
X11479375Y-16034750D01*
X15399375Y-16791750D02*
X13267375Y-16309750D01*
X15399375Y-16791750D02*
X17052000Y-17410750D01*
X17991375Y-15300750D02*
X17052000Y-17410750D01*
X18267375Y-5713750D02*
X8659375Y-5735750D01*
X19389375Y-14452750D02*
X17991375Y-15300750D01*
X19437375Y-7065750D02*
X18267375Y-5713750D01*
X19437375Y-7065750D02*
X19440000Y-9426750D01*
X19437375Y-14096750D02*
X19389375Y-14452750D01*
X19440000Y-9426750D02*
X19605000Y-9426750D01*
X19440000Y-9581750D02*
X19440000Y-11051750D01*
X19440000Y-9581750D02*
X19605000Y-9581750D01*
X19440000Y-11051750D02*
X19605000Y-11051750D01*
X19440000Y-11201750D02*
X19440000Y-12686750D01*
X19440000Y-11201750D02*
X19595000Y-11201750D01*
X19440000Y-12686750D02*
X19595000Y-12686750D01*
X19440000Y-12836750D02*
X19437375Y-14096750D01*
X19440000Y-12836750D02*
X19590000Y-12836750D01*
X19590000Y-12836750D02*
X19587875Y-14560750D01*
X19595000Y-11201750D02*
X19595000Y-12686750D01*
X19605000Y-9581750D02*
X19605000Y-11051750D01*
X19611750Y-7042500D02*
X19605000Y-9426750D01*
X20646750Y-5811500D02*
X19611750Y-7042500D01*
X21125750Y-15251500D02*
X19587875Y-14560750D01*
X21125750Y-15251500D02*
X21904750Y-17384500D01*
X21904750Y-17384500D02*
X23853750Y-16604500D01*
X23853750Y-16604500D02*
X25629750Y-16278500D01*
X25629750Y-16278500D02*
X27548750Y-15860500D01*
X27548750Y-14209500D02*
X29380750Y-14209500D01*
X27548750Y-15860500D02*
X27548750Y-14209500D01*
X29380750Y-14209500D02*
X29380750Y-14733500D01*
X29380750Y-14733500D02*
X31296750Y-14733500D01*
X30484750Y-5811500D02*
X20646750Y-5811500D01*
X31296750Y-14733500D02*
X31296750Y-15212500D01*
X31296750Y-15212500D02*
X33488750Y-15212500D01*
X32043750Y-7218500D02*
X30484750Y-5811500D01*
X33488750Y-7218500D02*
X32043750Y-7218500D01*
X33488750Y-15212500D02*
X33488750Y-7218500D01*
D11*
D12*
X17287375Y-14625750D02*
X17317375Y-14655750D01*
X17317375Y-14625750D02*
X17287375Y-14655750D01*
X17520375Y-10530750D02*
X17550375Y-10560750D01*
X17550375Y-10530750D02*
X17520375Y-10560750D01*
X17530375Y-11409750D02*
X17560375Y-11439750D01*
X17560375Y-11409750D02*
X17530375Y-11439750D01*
X17545375Y-9465750D02*
X17575375Y-9495750D01*
X17575375Y-9465750D02*
X17545375Y-9495750D01*
X17613722Y-8807502D02*
X17643722Y-8837502D01*
X17643722Y-8807502D02*
X17613722Y-8837502D01*
X17702036Y-8327933D02*
X17732036Y-8357933D01*
X17732036Y-8327933D02*
X17702036Y-8357933D01*
X17941375Y-7750762D02*
X17971375Y-7780762D01*
X17971375Y-7750762D02*
X17941375Y-7780762D01*
X17941375Y-8005750D02*
X17971375Y-8035750D01*
X17971375Y-8005750D02*
X17941375Y-8035750D01*
X18189375Y-9398750D02*
X18219375Y-9428750D01*
X18219375Y-9398750D02*
X18189375Y-9428750D01*
X18683375Y-9461750D02*
X18713375Y-9491750D01*
X18713375Y-9461750D02*
X18683375Y-9491750D01*
X18883375Y-7688750D02*
X18913375Y-7718750D01*
X18913375Y-7688750D02*
X18883375Y-7718750D01*
X20131250Y-8811318D02*
X20161250Y-8841318D01*
X20161250Y-8811318D02*
X20131250Y-8841318D01*
X21711000Y-13970125D02*
X21741000Y-14000125D01*
X21741000Y-13970125D02*
X21711000Y-14000125D01*
X21852000Y-11841125D02*
X21882000Y-11871125D01*
X21882000Y-11841125D02*
X21852000Y-11871125D01*
X23100521Y-9388007D02*
X23130521Y-9418007D01*
X23130521Y-9388007D02*
X23100521Y-9418007D01*
X23103750Y-8134125D02*
X23133750Y-8164125D01*
X23133750Y-8134125D02*
X23103750Y-8164125D01*
X23195000Y-6107000D02*
X23225000Y-6137000D01*
X23225000Y-6107000D02*
X23195000Y-6137000D01*
X23207000Y-7365125D02*
X23237000Y-7395125D01*
X23237000Y-7365125D02*
X23207000Y-7395125D01*
X25025801Y-15505926D02*
X25055801Y-15535926D01*
X25055801Y-15505926D02*
X25025801Y-15535926D01*
X25052000Y-6892125D02*
X25082000Y-6922125D01*
X25082000Y-6892125D02*
X25052000Y-6922125D01*
X25063000Y-6167000D02*
X25093000Y-6197000D01*
X25093000Y-6167000D02*
X25063000Y-6197000D01*
X25167426Y-15623551D02*
X25197426Y-15653551D01*
X25197426Y-15623551D02*
X25167426Y-15653551D01*
X26975000Y-6227000D02*
X27005000Y-6257000D01*
X27005000Y-6227000D02*
X26975000Y-6257000D01*
X27115000Y-6601000D02*
X27145000Y-6631000D01*
X27145000Y-6601000D02*
X27115000Y-6631000D01*
X28926000Y-6405125D02*
X28956000Y-6435125D01*
X28956000Y-6405125D02*
X28926000Y-6435125D01*
X28926000Y-6635125D02*
X28956000Y-6665125D01*
X28956000Y-6635125D02*
X28926000Y-6665125D01*
X30363000Y-6476125D02*
X30393000Y-6506125D01*
X30393000Y-6476125D02*
X30363000Y-6506125D01*
X30416000Y-6742125D02*
X30446000Y-6772125D01*
X30446000Y-6742125D02*
X30416000Y-6772125D01*
D13*
X17961375Y-7886125D02*
G75*
G02*
X17711375Y-7886125I-125000J0D01*
G01*
X17711375Y-7886125D02*
G75*
G02*
X17961375Y-7886125I125000J0D01*
G01*
X17961375Y-8226125D02*
G75*
G02*
X17711375Y-8226125I-125000J0D01*
G01*
X17711375Y-8226125D02*
G75*
G02*
X17961375Y-8226125I125000J0D01*
G01*
X20524750Y-7722500D02*
G75*
G02*
X20274750Y-7722500I-125000J0D01*
G01*
X20274750Y-7722500D02*
G75*
G02*
X20524750Y-7722500I125000J0D01*
G01*
X20524750Y-8062500D02*
G75*
G02*
X20274750Y-8062500I-125000J0D01*
G01*
X20274750Y-8062500D02*
G75*
G02*
X20524750Y-8062500I125000J0D01*
G01*
D14*
X6549875Y-7873125D02*
X6549875Y-8173125D01*
X6399875Y-8023125D02*
X6699875Y-8023125D01*
X6549875Y-9778125D02*
X6549875Y-10078125D01*
X6399875Y-9928125D02*
X6699875Y-9928125D01*
X6549875Y-11683125D02*
X6549875Y-11983125D01*
X6399875Y-11833125D02*
X6699875Y-11833125D01*
X6549875Y-13588125D02*
X6549875Y-13888125D01*
X6399875Y-13738125D02*
X6699875Y-13738125D01*
X7184875Y-8127125D02*
X7184875Y-8427125D01*
X7034875Y-8277125D02*
X7334875Y-8277125D01*
X7184875Y-10032125D02*
X7184875Y-10332125D01*
X7034875Y-10182125D02*
X7334875Y-10182125D01*
X7184875Y-11937125D02*
X7184875Y-12237125D01*
X7034875Y-12087125D02*
X7334875Y-12087125D01*
X7184875Y-13842125D02*
X7184875Y-14142125D01*
X7034875Y-13992125D02*
X7334875Y-13992125D01*
X8454875Y-7396875D02*
X8454875Y-7696875D01*
X8304875Y-7546875D02*
X8604875Y-7546875D01*
X8454875Y-9307125D02*
X8454875Y-9607125D01*
X8304875Y-9457125D02*
X8604875Y-9457125D01*
X8454875Y-11206875D02*
X8454875Y-11506875D01*
X8304875Y-11356875D02*
X8604875Y-11356875D01*
X8454875Y-13111875D02*
X8454875Y-13411875D01*
X8304875Y-13261875D02*
X8604875Y-13261875D01*
X9089875Y-7650875D02*
X9089875Y-7950875D01*
X8939875Y-7800875D02*
X9239875Y-7800875D01*
X9089875Y-9561125D02*
X9089875Y-9861125D01*
X8939875Y-9711125D02*
X9239875Y-9711125D01*
X9089875Y-11460875D02*
X9089875Y-11760875D01*
X8939875Y-11610875D02*
X9239875Y-11610875D01*
X9089875Y-13365875D02*
X9089875Y-13665875D01*
X8939875Y-13515875D02*
X9239875Y-13515875D01*
X10359875Y-6952375D02*
X10359875Y-7252375D01*
X10209875Y-7102375D02*
X10509875Y-7102375D01*
X10359875Y-8857375D02*
X10359875Y-9157375D01*
X10209875Y-9007375D02*
X10509875Y-9007375D01*
X10359875Y-10762375D02*
X10359875Y-11062375D01*
X10209875Y-10912375D02*
X10509875Y-10912375D01*
X10359875Y-12667375D02*
X10359875Y-12967375D01*
X10209875Y-12817375D02*
X10509875Y-12817375D01*
X10994875Y-7206375D02*
X10994875Y-7506375D01*
X10844875Y-7356375D02*
X11144875Y-7356375D01*
X10994875Y-9111375D02*
X10994875Y-9411375D01*
X10844875Y-9261375D02*
X11144875Y-9261375D01*
X10994875Y-11016375D02*
X10994875Y-11316375D01*
X10844875Y-11166375D02*
X11144875Y-11166375D01*
X10994875Y-12921375D02*
X10994875Y-13221375D01*
X10844875Y-13071375D02*
X11144875Y-13071375D01*
X12264875Y-6476125D02*
X12264875Y-6776125D01*
X12114875Y-6626125D02*
X12414875Y-6626125D01*
X12264875Y-8386375D02*
X12264875Y-8686375D01*
X12114875Y-8536375D02*
X12414875Y-8536375D01*
X12264875Y-10286125D02*
X12264875Y-10586125D01*
X12114875Y-10436125D02*
X12414875Y-10436125D01*
X12264875Y-12191125D02*
X12264875Y-12491125D01*
X12114875Y-12341125D02*
X12414875Y-12341125D01*
X12503000Y-14302500D02*
X12503000Y-14602500D01*
X12353000Y-14452500D02*
X12653000Y-14452500D01*
X12899875Y-6730125D02*
X12899875Y-7030125D01*
X12749875Y-6880125D02*
X13049875Y-6880125D01*
X12899875Y-8640375D02*
X12899875Y-8940375D01*
X12749875Y-8790375D02*
X13049875Y-8790375D01*
X12899875Y-10540125D02*
X12899875Y-10840125D01*
X12749875Y-10690125D02*
X13049875Y-10690125D01*
X12899875Y-12445125D02*
X12899875Y-12745125D01*
X12749875Y-12595125D02*
X13049875Y-12595125D01*
X13138000Y-14556500D02*
X13138000Y-14856500D01*
X12988000Y-14706500D02*
X13288000Y-14706500D01*
X14169875Y-6920625D02*
X14169875Y-7220625D01*
X14019875Y-7070625D02*
X14319875Y-7070625D01*
X14169875Y-8830875D02*
X14169875Y-9130875D01*
X14019875Y-8980875D02*
X14319875Y-8980875D01*
X14169875Y-10730625D02*
X14169875Y-11030625D01*
X14019875Y-10880625D02*
X14319875Y-10880625D01*
X14169875Y-12635625D02*
X14169875Y-12935625D01*
X14019875Y-12785625D02*
X14319875Y-12785625D01*
X14500072Y-14710611D02*
X14500072Y-15010611D01*
X14350072Y-14860611D02*
X14650072Y-14860611D01*
X14804875Y-7174625D02*
X14804875Y-7474625D01*
X14654875Y-7324625D02*
X14954875Y-7324625D01*
X14804875Y-9084875D02*
X14804875Y-9384875D01*
X14654875Y-9234875D02*
X14954875Y-9234875D01*
X14804875Y-10984625D02*
X14804875Y-11284625D01*
X14654875Y-11134625D02*
X14954875Y-11134625D01*
X14804875Y-12889625D02*
X14804875Y-13189625D01*
X14654875Y-13039625D02*
X14954875Y-13039625D01*
X15081318Y-15071019D02*
X15081318Y-15371019D01*
X14931318Y-15221019D02*
X15231318Y-15221019D01*
X16074875Y-7396875D02*
X16074875Y-7696875D01*
X15924875Y-7546875D02*
X16224875Y-7546875D01*
X16074875Y-9301875D02*
X16074875Y-9601875D01*
X15924875Y-9451875D02*
X16224875Y-9451875D01*
X16074875Y-11206875D02*
X16074875Y-11506875D01*
X15924875Y-11356875D02*
X16224875Y-11356875D01*
X16074875Y-13111875D02*
X16074875Y-13411875D01*
X15924875Y-13261875D02*
X16224875Y-13261875D01*
X16502064Y-15167013D02*
X16502064Y-15467013D01*
X16352064Y-15317013D02*
X16652064Y-15317013D01*
X16709875Y-7650875D02*
X16709875Y-7950875D01*
X16559875Y-7800875D02*
X16859875Y-7800875D01*
X16709875Y-9555875D02*
X16709875Y-9855875D01*
X16559875Y-9705875D02*
X16859875Y-9705875D01*
X16709875Y-11460875D02*
X16709875Y-11760875D01*
X16559875Y-11610875D02*
X16859875Y-11610875D01*
X16709875Y-13365875D02*
X16709875Y-13665875D01*
X16559875Y-13515875D02*
X16859875Y-13515875D01*
X17011896Y-15622878D02*
X17011896Y-15922878D01*
X16861896Y-15772878D02*
X17161896Y-15772878D01*
X22147197Y-15275134D02*
X22147197Y-15575134D01*
X21997197Y-15425134D02*
X22297197Y-15425134D01*
X22543750Y-7299500D02*
X22543750Y-7599500D01*
X22393750Y-7449500D02*
X22693750Y-7449500D01*
X22543750Y-9204500D02*
X22543750Y-9504500D01*
X22393750Y-9354500D02*
X22693750Y-9354500D01*
X22543750Y-11109500D02*
X22543750Y-11409500D01*
X22393750Y-11259500D02*
X22693750Y-11259500D01*
X22543750Y-13014500D02*
X22543750Y-13314500D01*
X22393750Y-13164500D02*
X22693750Y-13164500D01*
X22830775Y-15296633D02*
X22830775Y-15596633D01*
X22680775Y-15446633D02*
X22980775Y-15446633D01*
X23178750Y-7553500D02*
X23178750Y-7853500D01*
X23028750Y-7703500D02*
X23328750Y-7703500D01*
X23178750Y-9458500D02*
X23178750Y-9758500D01*
X23028750Y-9608500D02*
X23328750Y-9608500D01*
X23178750Y-11363500D02*
X23178750Y-11663500D01*
X23028750Y-11513500D02*
X23328750Y-11513500D01*
X23178750Y-13268500D02*
X23178750Y-13568500D01*
X23028750Y-13418500D02*
X23328750Y-13418500D01*
X24126271Y-14733199D02*
X24126271Y-15033199D01*
X23976271Y-14883199D02*
X24276271Y-14883199D01*
X24448750Y-6823250D02*
X24448750Y-7123250D01*
X24298750Y-6973250D02*
X24598750Y-6973250D01*
X24448750Y-8728250D02*
X24448750Y-9028250D01*
X24298750Y-8878250D02*
X24598750Y-8878250D01*
X24448750Y-10633250D02*
X24448750Y-10933250D01*
X24298750Y-10783250D02*
X24598750Y-10783250D01*
X24448750Y-12538250D02*
X24448750Y-12838250D01*
X24298750Y-12688250D02*
X24598750Y-12688250D01*
X24795730Y-14873074D02*
X24795730Y-15173074D01*
X24645730Y-15023074D02*
X24945730Y-15023074D01*
X25083750Y-7077250D02*
X25083750Y-7377250D01*
X24933750Y-7227250D02*
X25233750Y-7227250D01*
X25083750Y-8982250D02*
X25083750Y-9282250D01*
X24933750Y-9132250D02*
X25233750Y-9132250D01*
X25083750Y-10887250D02*
X25083750Y-11187250D01*
X24933750Y-11037250D02*
X25233750Y-11037250D01*
X25083750Y-12792250D02*
X25083750Y-13092250D01*
X24933750Y-12942250D02*
X25233750Y-12942250D01*
X26115625Y-14205125D02*
X26115625Y-14505125D01*
X25965625Y-14355125D02*
X26265625Y-14355125D01*
X26353750Y-6347000D02*
X26353750Y-6647000D01*
X26203750Y-6497000D02*
X26503750Y-6497000D01*
X26353750Y-8252000D02*
X26353750Y-8552000D01*
X26203750Y-8402000D02*
X26503750Y-8402000D01*
X26353750Y-10157000D02*
X26353750Y-10457000D01*
X26203750Y-10307000D02*
X26503750Y-10307000D01*
X26353750Y-12062000D02*
X26353750Y-12362000D01*
X26203750Y-12212000D02*
X26503750Y-12212000D01*
X26750625Y-14459125D02*
X26750625Y-14759125D01*
X26600625Y-14609125D02*
X26900625Y-14609125D01*
X26988750Y-6601000D02*
X26988750Y-6901000D01*
X26838750Y-6751000D02*
X27138750Y-6751000D01*
X26988750Y-8506000D02*
X26988750Y-8806000D01*
X26838750Y-8656000D02*
X27138750Y-8656000D01*
X26988750Y-10411000D02*
X26988750Y-10711000D01*
X26838750Y-10561000D02*
X27138750Y-10561000D01*
X26988750Y-12316000D02*
X26988750Y-12616000D01*
X26838750Y-12466000D02*
X27138750Y-12466000D01*
X28258750Y-6791500D02*
X28258750Y-7091500D01*
X28108750Y-6941500D02*
X28408750Y-6941500D01*
X28258750Y-8696500D02*
X28258750Y-8996500D01*
X28108750Y-8846500D02*
X28408750Y-8846500D01*
X28258750Y-10601500D02*
X28258750Y-10901500D01*
X28108750Y-10751500D02*
X28408750Y-10751500D01*
X28258750Y-12506500D02*
X28258750Y-12806500D01*
X28108750Y-12656500D02*
X28408750Y-12656500D01*
X28893750Y-7045500D02*
X28893750Y-7345500D01*
X28743750Y-7195500D02*
X29043750Y-7195500D01*
X28893750Y-8950500D02*
X28893750Y-9250500D01*
X28743750Y-9100500D02*
X29043750Y-9100500D01*
X28893750Y-10855500D02*
X28893750Y-11155500D01*
X28743750Y-11005500D02*
X29043750Y-11005500D01*
X28893750Y-12760500D02*
X28893750Y-13060500D01*
X28743750Y-12910500D02*
X29043750Y-12910500D01*
X30163750Y-7331250D02*
X30163750Y-7631250D01*
X30013750Y-7481250D02*
X30313750Y-7481250D01*
X30163750Y-9236250D02*
X30163750Y-9536250D01*
X30013750Y-9386250D02*
X30313750Y-9386250D01*
X30163750Y-11141250D02*
X30163750Y-11441250D01*
X30013750Y-11291250D02*
X30313750Y-11291250D01*
X30163750Y-13046250D02*
X30163750Y-13346250D01*
X30013750Y-13196250D02*
X30313750Y-13196250D01*
X30798750Y-7585250D02*
X30798750Y-7885250D01*
X30648750Y-7735250D02*
X30948750Y-7735250D01*
X30798750Y-9490250D02*
X30798750Y-9790250D01*
X30648750Y-9640250D02*
X30948750Y-9640250D01*
X30798750Y-11395250D02*
X30798750Y-11695250D01*
X30648750Y-11545250D02*
X30948750Y-11545250D01*
X30798750Y-13300250D02*
X30798750Y-13600250D01*
X30648750Y-13450250D02*
X30948750Y-13450250D01*
X32068750Y-7775750D02*
X32068750Y-8075750D01*
X31918750Y-7925750D02*
X32218750Y-7925750D01*
X32068750Y-9680750D02*
X32068750Y-9980750D01*
X31918750Y-9830750D02*
X32218750Y-9830750D01*
X32068750Y-11585750D02*
X32068750Y-11885750D01*
X31918750Y-11735750D02*
X32218750Y-11735750D01*
X32068750Y-13490750D02*
X32068750Y-13790750D01*
X31918750Y-13640750D02*
X32218750Y-13640750D01*
X32703750Y-8029750D02*
X32703750Y-8329750D01*
X32553750Y-8179750D02*
X32853750Y-8179750D01*
X32703750Y-9934750D02*
X32703750Y-10234750D01*
X32553750Y-10084750D02*
X32853750Y-10084750D01*
X32703750Y-11839750D02*
X32703750Y-12139750D01*
X32553750Y-11989750D02*
X32853750Y-11989750D01*
X32703750Y-13744750D02*
X32703750Y-14044750D01*
X32553750Y-13894750D02*
X32853750Y-13894750D01*
D11*
X5700652Y-17724734D02*
X5700652Y-17524734D01*
X5700652Y-17524734D02*
X5748271Y-17524734D01*
X5748271Y-17524734D02*
X5776842Y-17534258D01*
X5776842Y-17534258D02*
X5795890Y-17553305D01*
X5795890Y-17553305D02*
X5805414Y-17572353D01*
X5805414Y-17572353D02*
X5814937Y-17610448D01*
X5814937Y-17610448D02*
X5814937Y-17639020D01*
X5814937Y-17639020D02*
X5805414Y-17677115D01*
X5805414Y-17677115D02*
X5795890Y-17696162D01*
X5795890Y-17696162D02*
X5776842Y-17715210D01*
X5776842Y-17715210D02*
X5748271Y-17724734D01*
X5748271Y-17724734D02*
X5700652Y-17724734D01*
X5900652Y-17724734D02*
X5900652Y-17591400D01*
X5900652Y-17629496D02*
X5910176Y-17610448D01*
X5910176Y-17610448D02*
X5919699Y-17600924D01*
X5919699Y-17600924D02*
X5938747Y-17591400D01*
X5938747Y-17591400D02*
X5957795Y-17591400D01*
X6024461Y-17724734D02*
X6024461Y-17591400D01*
X6024461Y-17524734D02*
X6014937Y-17534258D01*
X6014937Y-17534258D02*
X6024461Y-17543781D01*
X6024461Y-17543781D02*
X6033985Y-17534258D01*
X6033985Y-17534258D02*
X6024461Y-17524734D01*
X6024461Y-17524734D02*
X6024461Y-17543781D01*
X6148271Y-17724734D02*
X6129223Y-17715210D01*
X6129223Y-17715210D02*
X6119699Y-17696162D01*
X6119699Y-17696162D02*
X6119699Y-17524734D01*
X6253033Y-17724734D02*
X6233985Y-17715210D01*
X6233985Y-17715210D02*
X6224461Y-17696162D01*
X6224461Y-17696162D02*
X6224461Y-17524734D01*
X6481604Y-17724734D02*
X6481604Y-17524734D01*
X6481604Y-17524734D02*
X6548271Y-17667591D01*
X6548271Y-17667591D02*
X6614937Y-17524734D01*
X6614937Y-17524734D02*
X6614937Y-17724734D01*
X6795890Y-17724734D02*
X6795890Y-17619972D01*
X6795890Y-17619972D02*
X6786366Y-17600924D01*
X6786366Y-17600924D02*
X6767318Y-17591400D01*
X6767318Y-17591400D02*
X6729223Y-17591400D01*
X6729223Y-17591400D02*
X6710176Y-17600924D01*
X6795890Y-17715210D02*
X6776842Y-17724734D01*
X6776842Y-17724734D02*
X6729223Y-17724734D01*
X6729223Y-17724734D02*
X6710176Y-17715210D01*
X6710176Y-17715210D02*
X6700652Y-17696162D01*
X6700652Y-17696162D02*
X6700652Y-17677115D01*
X6700652Y-17677115D02*
X6710176Y-17658067D01*
X6710176Y-17658067D02*
X6729223Y-17648543D01*
X6729223Y-17648543D02*
X6776842Y-17648543D01*
X6776842Y-17648543D02*
X6795890Y-17639020D01*
X6891128Y-17591400D02*
X6891128Y-17791400D01*
X6891128Y-17600924D02*
X6910176Y-17591400D01*
X6910176Y-17591400D02*
X6948271Y-17591400D01*
X6948271Y-17591400D02*
X6967318Y-17600924D01*
X6967318Y-17600924D02*
X6976842Y-17610448D01*
X6976842Y-17610448D02*
X6986366Y-17629496D01*
X6986366Y-17629496D02*
X6986366Y-17686639D01*
X6986366Y-17686639D02*
X6976842Y-17705686D01*
X6976842Y-17705686D02*
X6967318Y-17715210D01*
X6967318Y-17715210D02*
X6948271Y-17724734D01*
X6948271Y-17724734D02*
X6910176Y-17724734D01*
X6910176Y-17724734D02*
X6891128Y-17715210D01*
X7072080Y-17705686D02*
X7081604Y-17715210D01*
X7081604Y-17715210D02*
X7072080Y-17724734D01*
X7072080Y-17724734D02*
X7062557Y-17715210D01*
X7062557Y-17715210D02*
X7072080Y-17705686D01*
X7072080Y-17705686D02*
X7072080Y-17724734D01*
X7072080Y-17600924D02*
X7081604Y-17610448D01*
X7081604Y-17610448D02*
X7072080Y-17619972D01*
X7072080Y-17619972D02*
X7062557Y-17610448D01*
X7062557Y-17610448D02*
X7072080Y-17600924D01*
X7072080Y-17600924D02*
X7072080Y-17619972D01*
D12*
X5409875Y-18038250D02*
X5439875Y-18068250D01*
X5439875Y-18038250D02*
X5409875Y-18068250D01*
D11*
X5738747Y-17944734D02*
X5757795Y-17944734D01*
X5757795Y-17944734D02*
X5776842Y-17954258D01*
X5776842Y-17954258D02*
X5786366Y-17963781D01*
X5786366Y-17963781D02*
X5795890Y-17982829D01*
X5795890Y-17982829D02*
X5805414Y-18020924D01*
X5805414Y-18020924D02*
X5805414Y-18068543D01*
X5805414Y-18068543D02*
X5795890Y-18106639D01*
X5795890Y-18106639D02*
X5786366Y-18125686D01*
X5786366Y-18125686D02*
X5776842Y-18135210D01*
X5776842Y-18135210D02*
X5757795Y-18144734D01*
X5757795Y-18144734D02*
X5738747Y-18144734D01*
X5738747Y-18144734D02*
X5719699Y-18135210D01*
X5719699Y-18135210D02*
X5710176Y-18125686D01*
X5710176Y-18125686D02*
X5700652Y-18106639D01*
X5700652Y-18106639D02*
X5691128Y-18068543D01*
X5691128Y-18068543D02*
X5691128Y-18020924D01*
X5691128Y-18020924D02*
X5700652Y-17982829D01*
X5700652Y-17982829D02*
X5710176Y-17963781D01*
X5710176Y-17963781D02*
X5719699Y-17954258D01*
X5719699Y-17954258D02*
X5738747Y-17944734D01*
X5891128Y-18125686D02*
X5900652Y-18135210D01*
X5900652Y-18135210D02*
X5891128Y-18144734D01*
X5891128Y-18144734D02*
X5881604Y-18135210D01*
X5881604Y-18135210D02*
X5891128Y-18125686D01*
X5891128Y-18125686D02*
X5891128Y-18144734D01*
X5967318Y-17944734D02*
X6091128Y-17944734D01*
X6091128Y-17944734D02*
X6024461Y-18020924D01*
X6024461Y-18020924D02*
X6053033Y-18020924D01*
X6053033Y-18020924D02*
X6072080Y-18030448D01*
X6072080Y-18030448D02*
X6081604Y-18039972D01*
X6081604Y-18039972D02*
X6091128Y-18059020D01*
X6091128Y-18059020D02*
X6091128Y-18106639D01*
X6091128Y-18106639D02*
X6081604Y-18125686D01*
X6081604Y-18125686D02*
X6072080Y-18135210D01*
X6072080Y-18135210D02*
X6053033Y-18144734D01*
X6053033Y-18144734D02*
X5995890Y-18144734D01*
X5995890Y-18144734D02*
X5976842Y-18135210D01*
X5976842Y-18135210D02*
X5967318Y-18125686D01*
X6214937Y-17944734D02*
X6233985Y-17944734D01*
X6233985Y-17944734D02*
X6253033Y-17954258D01*
X6253033Y-17954258D02*
X6262557Y-17963781D01*
X6262557Y-17963781D02*
X6272080Y-17982829D01*
X6272080Y-17982829D02*
X6281604Y-18020924D01*
X6281604Y-18020924D02*
X6281604Y-18068543D01*
X6281604Y-18068543D02*
X6272080Y-18106639D01*
X6272080Y-18106639D02*
X6262557Y-18125686D01*
X6262557Y-18125686D02*
X6253033Y-18135210D01*
X6253033Y-18135210D02*
X6233985Y-18144734D01*
X6233985Y-18144734D02*
X6214937Y-18144734D01*
X6214937Y-18144734D02*
X6195890Y-18135210D01*
X6195890Y-18135210D02*
X6186366Y-18125686D01*
X6186366Y-18125686D02*
X6176842Y-18106639D01*
X6176842Y-18106639D02*
X6167318Y-18068543D01*
X6167318Y-18068543D02*
X6167318Y-18020924D01*
X6167318Y-18020924D02*
X6176842Y-17982829D01*
X6176842Y-17982829D02*
X6186366Y-17963781D01*
X6186366Y-17963781D02*
X6195890Y-17954258D01*
X6195890Y-17954258D02*
X6214937Y-17944734D01*
X6405414Y-17944734D02*
X6424461Y-17944734D01*
X6424461Y-17944734D02*
X6443509Y-17954258D01*
X6443509Y-17954258D02*
X6453033Y-17963781D01*
X6453033Y-17963781D02*
X6462557Y-17982829D01*
X6462557Y-17982829D02*
X6472080Y-18020924D01*
X6472080Y-18020924D02*
X6472080Y-18068543D01*
X6472080Y-18068543D02*
X6462557Y-18106639D01*
X6462557Y-18106639D02*
X6453033Y-18125686D01*
X6453033Y-18125686D02*
X6443509Y-18135210D01*
X6443509Y-18135210D02*
X6424461Y-18144734D01*
X6424461Y-18144734D02*
X6405414Y-18144734D01*
X6405414Y-18144734D02*
X6386366Y-18135210D01*
X6386366Y-18135210D02*
X6376842Y-18125686D01*
X6376842Y-18125686D02*
X6367318Y-18106639D01*
X6367318Y-18106639D02*
X6357795Y-18068543D01*
X6357795Y-18068543D02*
X6357795Y-18020924D01*
X6357795Y-18020924D02*
X6367318Y-17982829D01*
X6367318Y-17982829D02*
X6376842Y-17963781D01*
X6376842Y-17963781D02*
X6386366Y-17954258D01*
X6386366Y-17954258D02*
X6405414Y-17944734D01*
X6557795Y-18144734D02*
X6557795Y-18011400D01*
X6557795Y-18030448D02*
X6567318Y-18020924D01*
X6567318Y-18020924D02*
X6586366Y-18011400D01*
X6586366Y-18011400D02*
X6614938Y-18011400D01*
X6614938Y-18011400D02*
X6633985Y-18020924D01*
X6633985Y-18020924D02*
X6643509Y-18039972D01*
X6643509Y-18039972D02*
X6643509Y-18144734D01*
X6643509Y-18039972D02*
X6653033Y-18020924D01*
X6653033Y-18020924D02*
X6672080Y-18011400D01*
X6672080Y-18011400D02*
X6700652Y-18011400D01*
X6700652Y-18011400D02*
X6719699Y-18020924D01*
X6719699Y-18020924D02*
X6729223Y-18039972D01*
X6729223Y-18039972D02*
X6729223Y-18144734D01*
X6824461Y-18144734D02*
X6824461Y-18011400D01*
X6824461Y-18030448D02*
X6833985Y-18020924D01*
X6833985Y-18020924D02*
X6853033Y-18011400D01*
X6853033Y-18011400D02*
X6881604Y-18011400D01*
X6881604Y-18011400D02*
X6900652Y-18020924D01*
X6900652Y-18020924D02*
X6910176Y-18039972D01*
X6910176Y-18039972D02*
X6910176Y-18144734D01*
X6910176Y-18039972D02*
X6919699Y-18020924D01*
X6919699Y-18020924D02*
X6938747Y-18011400D01*
X6938747Y-18011400D02*
X6967318Y-18011400D01*
X6967318Y-18011400D02*
X6986366Y-18020924D01*
X6986366Y-18020924D02*
X6995890Y-18039972D01*
X6995890Y-18039972D02*
X6995890Y-18144734D01*
X7386366Y-17935210D02*
X7214938Y-18192353D01*
X7643509Y-17944734D02*
X7662557Y-17944734D01*
X7662557Y-17944734D02*
X7681604Y-17954258D01*
X7681604Y-17954258D02*
X7691128Y-17963781D01*
X7691128Y-17963781D02*
X7700652Y-17982829D01*
X7700652Y-17982829D02*
X7710176Y-18020924D01*
X7710176Y-18020924D02*
X7710176Y-18068543D01*
X7710176Y-18068543D02*
X7700652Y-18106639D01*
X7700652Y-18106639D02*
X7691128Y-18125686D01*
X7691128Y-18125686D02*
X7681604Y-18135210D01*
X7681604Y-18135210D02*
X7662557Y-18144734D01*
X7662557Y-18144734D02*
X7643509Y-18144734D01*
X7643509Y-18144734D02*
X7624461Y-18135210D01*
X7624461Y-18135210D02*
X7614938Y-18125686D01*
X7614938Y-18125686D02*
X7605414Y-18106639D01*
X7605414Y-18106639D02*
X7595890Y-18068543D01*
X7595890Y-18068543D02*
X7595890Y-18020924D01*
X7595890Y-18020924D02*
X7605414Y-17982829D01*
X7605414Y-17982829D02*
X7614938Y-17963781D01*
X7614938Y-17963781D02*
X7624461Y-17954258D01*
X7624461Y-17954258D02*
X7643509Y-17944734D01*
X7795890Y-18125686D02*
X7805414Y-18135210D01*
X7805414Y-18135210D02*
X7795890Y-18144734D01*
X7795890Y-18144734D02*
X7786366Y-18135210D01*
X7786366Y-18135210D02*
X7795890Y-18125686D01*
X7795890Y-18125686D02*
X7795890Y-18144734D01*
X7929223Y-17944734D02*
X7948271Y-17944734D01*
X7948271Y-17944734D02*
X7967319Y-17954258D01*
X7967319Y-17954258D02*
X7976842Y-17963781D01*
X7976842Y-17963781D02*
X7986366Y-17982829D01*
X7986366Y-17982829D02*
X7995890Y-18020924D01*
X7995890Y-18020924D02*
X7995890Y-18068543D01*
X7995890Y-18068543D02*
X7986366Y-18106639D01*
X7986366Y-18106639D02*
X7976842Y-18125686D01*
X7976842Y-18125686D02*
X7967319Y-18135210D01*
X7967319Y-18135210D02*
X7948271Y-18144734D01*
X7948271Y-18144734D02*
X7929223Y-18144734D01*
X7929223Y-18144734D02*
X7910176Y-18135210D01*
X7910176Y-18135210D02*
X7900652Y-18125686D01*
X7900652Y-18125686D02*
X7891128Y-18106639D01*
X7891128Y-18106639D02*
X7881604Y-18068543D01*
X7881604Y-18068543D02*
X7881604Y-18020924D01*
X7881604Y-18020924D02*
X7891128Y-17982829D01*
X7891128Y-17982829D02*
X7900652Y-17963781D01*
X7900652Y-17963781D02*
X7910176Y-17954258D01*
X7910176Y-17954258D02*
X7929223Y-17944734D01*
X8186366Y-18144734D02*
X8072081Y-18144734D01*
X8129223Y-18144734D02*
X8129223Y-17944734D01*
X8129223Y-17944734D02*
X8110176Y-17973305D01*
X8110176Y-17973305D02*
X8091128Y-17992353D01*
X8091128Y-17992353D02*
X8072081Y-18001877D01*
X8376842Y-18144734D02*
X8262557Y-18144734D01*
X8319700Y-18144734D02*
X8319700Y-17944734D01*
X8319700Y-17944734D02*
X8300652Y-17973305D01*
X8300652Y-17973305D02*
X8281604Y-17992353D01*
X8281604Y-17992353D02*
X8262557Y-18001877D01*
X8491128Y-18030448D02*
X8472081Y-18020924D01*
X8472081Y-18020924D02*
X8462557Y-18011400D01*
X8462557Y-18011400D02*
X8453033Y-17992353D01*
X8453033Y-17992353D02*
X8453033Y-17982829D01*
X8453033Y-17982829D02*
X8462557Y-17963781D01*
X8462557Y-17963781D02*
X8472081Y-17954258D01*
X8472081Y-17954258D02*
X8491128Y-17944734D01*
X8491128Y-17944734D02*
X8529224Y-17944734D01*
X8529224Y-17944734D02*
X8548271Y-17954258D01*
X8548271Y-17954258D02*
X8557795Y-17963781D01*
X8557795Y-17963781D02*
X8567319Y-17982829D01*
X8567319Y-17982829D02*
X8567319Y-17992353D01*
X8567319Y-17992353D02*
X8557795Y-18011400D01*
X8557795Y-18011400D02*
X8548271Y-18020924D01*
X8548271Y-18020924D02*
X8529224Y-18030448D01*
X8529224Y-18030448D02*
X8491128Y-18030448D01*
X8491128Y-18030448D02*
X8472081Y-18039972D01*
X8472081Y-18039972D02*
X8462557Y-18049496D01*
X8462557Y-18049496D02*
X8453033Y-18068543D01*
X8453033Y-18068543D02*
X8453033Y-18106639D01*
X8453033Y-18106639D02*
X8462557Y-18125686D01*
X8462557Y-18125686D02*
X8472081Y-18135210D01*
X8472081Y-18135210D02*
X8491128Y-18144734D01*
X8491128Y-18144734D02*
X8529224Y-18144734D01*
X8529224Y-18144734D02*
X8548271Y-18135210D01*
X8548271Y-18135210D02*
X8557795Y-18125686D01*
X8557795Y-18125686D02*
X8567319Y-18106639D01*
X8567319Y-18106639D02*
X8567319Y-18068543D01*
X8567319Y-18068543D02*
X8557795Y-18049496D01*
X8557795Y-18049496D02*
X8548271Y-18039972D01*
X8548271Y-18039972D02*
X8529224Y-18030448D01*
X8643509Y-17944734D02*
X8643509Y-17982829D01*
X8719700Y-17944734D02*
X8719700Y-17982829D01*
X9014938Y-18220924D02*
X9005414Y-18211400D01*
X9005414Y-18211400D02*
X8986366Y-18182829D01*
X8986366Y-18182829D02*
X8976843Y-18163781D01*
X8976843Y-18163781D02*
X8967319Y-18135210D01*
X8967319Y-18135210D02*
X8957795Y-18087591D01*
X8957795Y-18087591D02*
X8957795Y-18049496D01*
X8957795Y-18049496D02*
X8967319Y-18001877D01*
X8967319Y-18001877D02*
X8976843Y-17973305D01*
X8976843Y-17973305D02*
X8986366Y-17954258D01*
X8986366Y-17954258D02*
X9005414Y-17925686D01*
X9005414Y-17925686D02*
X9014938Y-17916162D01*
X9081605Y-17963781D02*
X9091128Y-17954258D01*
X9091128Y-17954258D02*
X9110176Y-17944734D01*
X9110176Y-17944734D02*
X9157795Y-17944734D01*
X9157795Y-17944734D02*
X9176843Y-17954258D01*
X9176843Y-17954258D02*
X9186366Y-17963781D01*
X9186366Y-17963781D02*
X9195890Y-17982829D01*
X9195890Y-17982829D02*
X9195890Y-18001877D01*
X9195890Y-18001877D02*
X9186366Y-18030448D01*
X9186366Y-18030448D02*
X9072081Y-18144734D01*
X9072081Y-18144734D02*
X9195890Y-18144734D01*
X9310176Y-18030448D02*
X9291128Y-18020924D01*
X9291128Y-18020924D02*
X9281605Y-18011400D01*
X9281605Y-18011400D02*
X9272081Y-17992353D01*
X9272081Y-17992353D02*
X9272081Y-17982829D01*
X9272081Y-17982829D02*
X9281605Y-17963781D01*
X9281605Y-17963781D02*
X9291128Y-17954258D01*
X9291128Y-17954258D02*
X9310176Y-17944734D01*
X9310176Y-17944734D02*
X9348271Y-17944734D01*
X9348271Y-17944734D02*
X9367319Y-17954258D01*
X9367319Y-17954258D02*
X9376843Y-17963781D01*
X9376843Y-17963781D02*
X9386366Y-17982829D01*
X9386366Y-17982829D02*
X9386366Y-17992353D01*
X9386366Y-17992353D02*
X9376843Y-18011400D01*
X9376843Y-18011400D02*
X9367319Y-18020924D01*
X9367319Y-18020924D02*
X9348271Y-18030448D01*
X9348271Y-18030448D02*
X9310176Y-18030448D01*
X9310176Y-18030448D02*
X9291128Y-18039972D01*
X9291128Y-18039972D02*
X9281605Y-18049496D01*
X9281605Y-18049496D02*
X9272081Y-18068543D01*
X9272081Y-18068543D02*
X9272081Y-18106639D01*
X9272081Y-18106639D02*
X9281605Y-18125686D01*
X9281605Y-18125686D02*
X9291128Y-18135210D01*
X9291128Y-18135210D02*
X9310176Y-18144734D01*
X9310176Y-18144734D02*
X9348271Y-18144734D01*
X9348271Y-18144734D02*
X9367319Y-18135210D01*
X9367319Y-18135210D02*
X9376843Y-18125686D01*
X9376843Y-18125686D02*
X9386366Y-18106639D01*
X9386366Y-18106639D02*
X9386366Y-18068543D01*
X9386366Y-18068543D02*
X9376843Y-18049496D01*
X9376843Y-18049496D02*
X9367319Y-18039972D01*
X9367319Y-18039972D02*
X9348271Y-18030448D01*
X9624462Y-18144734D02*
X9624462Y-17944734D01*
X9710176Y-18144734D02*
X9710176Y-18039972D01*
X9710176Y-18039972D02*
X9700652Y-18020924D01*
X9700652Y-18020924D02*
X9681605Y-18011400D01*
X9681605Y-18011400D02*
X9653033Y-18011400D01*
X9653033Y-18011400D02*
X9633986Y-18020924D01*
X9633986Y-18020924D02*
X9624462Y-18030448D01*
X9833986Y-18144734D02*
X9814938Y-18135210D01*
X9814938Y-18135210D02*
X9805414Y-18125686D01*
X9805414Y-18125686D02*
X9795890Y-18106639D01*
X9795890Y-18106639D02*
X9795890Y-18049496D01*
X9795890Y-18049496D02*
X9805414Y-18030448D01*
X9805414Y-18030448D02*
X9814938Y-18020924D01*
X9814938Y-18020924D02*
X9833986Y-18011400D01*
X9833986Y-18011400D02*
X9862557Y-18011400D01*
X9862557Y-18011400D02*
X9881605Y-18020924D01*
X9881605Y-18020924D02*
X9891128Y-18030448D01*
X9891128Y-18030448D02*
X9900652Y-18049496D01*
X9900652Y-18049496D02*
X9900652Y-18106639D01*
X9900652Y-18106639D02*
X9891128Y-18125686D01*
X9891128Y-18125686D02*
X9881605Y-18135210D01*
X9881605Y-18135210D02*
X9862557Y-18144734D01*
X9862557Y-18144734D02*
X9833986Y-18144734D01*
X10014938Y-18144734D02*
X9995890Y-18135210D01*
X9995890Y-18135210D02*
X9986367Y-18116162D01*
X9986367Y-18116162D02*
X9986367Y-17944734D01*
X10167319Y-18135210D02*
X10148271Y-18144734D01*
X10148271Y-18144734D02*
X10110176Y-18144734D01*
X10110176Y-18144734D02*
X10091128Y-18135210D01*
X10091128Y-18135210D02*
X10081605Y-18116162D01*
X10081605Y-18116162D02*
X10081605Y-18039972D01*
X10081605Y-18039972D02*
X10091128Y-18020924D01*
X10091128Y-18020924D02*
X10110176Y-18011400D01*
X10110176Y-18011400D02*
X10148271Y-18011400D01*
X10148271Y-18011400D02*
X10167319Y-18020924D01*
X10167319Y-18020924D02*
X10176843Y-18039972D01*
X10176843Y-18039972D02*
X10176843Y-18059020D01*
X10176843Y-18059020D02*
X10081605Y-18078067D01*
X10253033Y-18135210D02*
X10272081Y-18144734D01*
X10272081Y-18144734D02*
X10310176Y-18144734D01*
X10310176Y-18144734D02*
X10329224Y-18135210D01*
X10329224Y-18135210D02*
X10338748Y-18116162D01*
X10338748Y-18116162D02*
X10338748Y-18106639D01*
X10338748Y-18106639D02*
X10329224Y-18087591D01*
X10329224Y-18087591D02*
X10310176Y-18078067D01*
X10310176Y-18078067D02*
X10281605Y-18078067D01*
X10281605Y-18078067D02*
X10262557Y-18068543D01*
X10262557Y-18068543D02*
X10253033Y-18049496D01*
X10253033Y-18049496D02*
X10253033Y-18039972D01*
X10253033Y-18039972D02*
X10262557Y-18020924D01*
X10262557Y-18020924D02*
X10281605Y-18011400D01*
X10281605Y-18011400D02*
X10310176Y-18011400D01*
X10310176Y-18011400D02*
X10329224Y-18020924D01*
X10405414Y-18220924D02*
X10414938Y-18211400D01*
X10414938Y-18211400D02*
X10433986Y-18182829D01*
X10433986Y-18182829D02*
X10443509Y-18163781D01*
X10443509Y-18163781D02*
X10453033Y-18135210D01*
X10453033Y-18135210D02*
X10462557Y-18087591D01*
X10462557Y-18087591D02*
X10462557Y-18049496D01*
X10462557Y-18049496D02*
X10453033Y-18001877D01*
X10453033Y-18001877D02*
X10443509Y-17973305D01*
X10443509Y-17973305D02*
X10433986Y-17954258D01*
X10433986Y-17954258D02*
X10414938Y-17925686D01*
X10414938Y-17925686D02*
X10405414Y-17916162D01*
X5439875Y-18317250D02*
G75*
G02*
X5239875Y-18317250I-100000J0D01*
G01*
X5239875Y-18317250D02*
G75*
G02*
X5439875Y-18317250I100000J0D01*
G01*
X5691128Y-18227781D02*
X5700652Y-18218258D01*
X5700652Y-18218258D02*
X5719699Y-18208734D01*
X5719699Y-18208734D02*
X5767318Y-18208734D01*
X5767318Y-18208734D02*
X5786366Y-18218258D01*
X5786366Y-18218258D02*
X5795890Y-18227781D01*
X5795890Y-18227781D02*
X5805414Y-18246829D01*
X5805414Y-18246829D02*
X5805414Y-18265877D01*
X5805414Y-18265877D02*
X5795890Y-18294448D01*
X5795890Y-18294448D02*
X5681604Y-18408734D01*
X5681604Y-18408734D02*
X5805414Y-18408734D01*
X5891128Y-18389686D02*
X5900652Y-18399210D01*
X5900652Y-18399210D02*
X5891128Y-18408734D01*
X5891128Y-18408734D02*
X5881604Y-18399210D01*
X5881604Y-18399210D02*
X5891128Y-18389686D01*
X5891128Y-18389686D02*
X5891128Y-18408734D01*
X6081604Y-18208734D02*
X5986366Y-18208734D01*
X5986366Y-18208734D02*
X5976842Y-18303972D01*
X5976842Y-18303972D02*
X5986366Y-18294448D01*
X5986366Y-18294448D02*
X6005414Y-18284924D01*
X6005414Y-18284924D02*
X6053033Y-18284924D01*
X6053033Y-18284924D02*
X6072080Y-18294448D01*
X6072080Y-18294448D02*
X6081604Y-18303972D01*
X6081604Y-18303972D02*
X6091128Y-18323020D01*
X6091128Y-18323020D02*
X6091128Y-18370639D01*
X6091128Y-18370639D02*
X6081604Y-18389686D01*
X6081604Y-18389686D02*
X6072080Y-18399210D01*
X6072080Y-18399210D02*
X6053033Y-18408734D01*
X6053033Y-18408734D02*
X6005414Y-18408734D01*
X6005414Y-18408734D02*
X5986366Y-18399210D01*
X5986366Y-18399210D02*
X5976842Y-18389686D01*
X6214937Y-18208734D02*
X6233985Y-18208734D01*
X6233985Y-18208734D02*
X6253033Y-18218258D01*
X6253033Y-18218258D02*
X6262557Y-18227781D01*
X6262557Y-18227781D02*
X6272080Y-18246829D01*
X6272080Y-18246829D02*
X6281604Y-18284924D01*
X6281604Y-18284924D02*
X6281604Y-18332543D01*
X6281604Y-18332543D02*
X6272080Y-18370639D01*
X6272080Y-18370639D02*
X6262557Y-18389686D01*
X6262557Y-18389686D02*
X6253033Y-18399210D01*
X6253033Y-18399210D02*
X6233985Y-18408734D01*
X6233985Y-18408734D02*
X6214937Y-18408734D01*
X6214937Y-18408734D02*
X6195890Y-18399210D01*
X6195890Y-18399210D02*
X6186366Y-18389686D01*
X6186366Y-18389686D02*
X6176842Y-18370639D01*
X6176842Y-18370639D02*
X6167318Y-18332543D01*
X6167318Y-18332543D02*
X6167318Y-18284924D01*
X6167318Y-18284924D02*
X6176842Y-18246829D01*
X6176842Y-18246829D02*
X6186366Y-18227781D01*
X6186366Y-18227781D02*
X6195890Y-18218258D01*
X6195890Y-18218258D02*
X6214937Y-18208734D01*
X6405414Y-18208734D02*
X6424461Y-18208734D01*
X6424461Y-18208734D02*
X6443509Y-18218258D01*
X6443509Y-18218258D02*
X6453033Y-18227781D01*
X6453033Y-18227781D02*
X6462557Y-18246829D01*
X6462557Y-18246829D02*
X6472080Y-18284924D01*
X6472080Y-18284924D02*
X6472080Y-18332543D01*
X6472080Y-18332543D02*
X6462557Y-18370639D01*
X6462557Y-18370639D02*
X6453033Y-18389686D01*
X6453033Y-18389686D02*
X6443509Y-18399210D01*
X6443509Y-18399210D02*
X6424461Y-18408734D01*
X6424461Y-18408734D02*
X6405414Y-18408734D01*
X6405414Y-18408734D02*
X6386366Y-18399210D01*
X6386366Y-18399210D02*
X6376842Y-18389686D01*
X6376842Y-18389686D02*
X6367318Y-18370639D01*
X6367318Y-18370639D02*
X6357795Y-18332543D01*
X6357795Y-18332543D02*
X6357795Y-18284924D01*
X6357795Y-18284924D02*
X6367318Y-18246829D01*
X6367318Y-18246829D02*
X6376842Y-18227781D01*
X6376842Y-18227781D02*
X6386366Y-18218258D01*
X6386366Y-18218258D02*
X6405414Y-18208734D01*
X6557795Y-18408734D02*
X6557795Y-18275400D01*
X6557795Y-18294448D02*
X6567318Y-18284924D01*
X6567318Y-18284924D02*
X6586366Y-18275400D01*
X6586366Y-18275400D02*
X6614938Y-18275400D01*
X6614938Y-18275400D02*
X6633985Y-18284924D01*
X6633985Y-18284924D02*
X6643509Y-18303972D01*
X6643509Y-18303972D02*
X6643509Y-18408734D01*
X6643509Y-18303972D02*
X6653033Y-18284924D01*
X6653033Y-18284924D02*
X6672080Y-18275400D01*
X6672080Y-18275400D02*
X6700652Y-18275400D01*
X6700652Y-18275400D02*
X6719699Y-18284924D01*
X6719699Y-18284924D02*
X6729223Y-18303972D01*
X6729223Y-18303972D02*
X6729223Y-18408734D01*
X6824461Y-18408734D02*
X6824461Y-18275400D01*
X6824461Y-18294448D02*
X6833985Y-18284924D01*
X6833985Y-18284924D02*
X6853033Y-18275400D01*
X6853033Y-18275400D02*
X6881604Y-18275400D01*
X6881604Y-18275400D02*
X6900652Y-18284924D01*
X6900652Y-18284924D02*
X6910176Y-18303972D01*
X6910176Y-18303972D02*
X6910176Y-18408734D01*
X6910176Y-18303972D02*
X6919699Y-18284924D01*
X6919699Y-18284924D02*
X6938747Y-18275400D01*
X6938747Y-18275400D02*
X6967318Y-18275400D01*
X6967318Y-18275400D02*
X6986366Y-18284924D01*
X6986366Y-18284924D02*
X6995890Y-18303972D01*
X6995890Y-18303972D02*
X6995890Y-18408734D01*
X7386366Y-18199210D02*
X7214938Y-18456353D01*
X7643509Y-18208734D02*
X7662557Y-18208734D01*
X7662557Y-18208734D02*
X7681604Y-18218258D01*
X7681604Y-18218258D02*
X7691128Y-18227781D01*
X7691128Y-18227781D02*
X7700652Y-18246829D01*
X7700652Y-18246829D02*
X7710176Y-18284924D01*
X7710176Y-18284924D02*
X7710176Y-18332543D01*
X7710176Y-18332543D02*
X7700652Y-18370639D01*
X7700652Y-18370639D02*
X7691128Y-18389686D01*
X7691128Y-18389686D02*
X7681604Y-18399210D01*
X7681604Y-18399210D02*
X7662557Y-18408734D01*
X7662557Y-18408734D02*
X7643509Y-18408734D01*
X7643509Y-18408734D02*
X7624461Y-18399210D01*
X7624461Y-18399210D02*
X7614938Y-18389686D01*
X7614938Y-18389686D02*
X7605414Y-18370639D01*
X7605414Y-18370639D02*
X7595890Y-18332543D01*
X7595890Y-18332543D02*
X7595890Y-18284924D01*
X7595890Y-18284924D02*
X7605414Y-18246829D01*
X7605414Y-18246829D02*
X7614938Y-18227781D01*
X7614938Y-18227781D02*
X7624461Y-18218258D01*
X7624461Y-18218258D02*
X7643509Y-18208734D01*
X7795890Y-18389686D02*
X7805414Y-18399210D01*
X7805414Y-18399210D02*
X7795890Y-18408734D01*
X7795890Y-18408734D02*
X7786366Y-18399210D01*
X7786366Y-18399210D02*
X7795890Y-18389686D01*
X7795890Y-18389686D02*
X7795890Y-18408734D01*
X7929223Y-18208734D02*
X7948271Y-18208734D01*
X7948271Y-18208734D02*
X7967319Y-18218258D01*
X7967319Y-18218258D02*
X7976842Y-18227781D01*
X7976842Y-18227781D02*
X7986366Y-18246829D01*
X7986366Y-18246829D02*
X7995890Y-18284924D01*
X7995890Y-18284924D02*
X7995890Y-18332543D01*
X7995890Y-18332543D02*
X7986366Y-18370639D01*
X7986366Y-18370639D02*
X7976842Y-18389686D01*
X7976842Y-18389686D02*
X7967319Y-18399210D01*
X7967319Y-18399210D02*
X7948271Y-18408734D01*
X7948271Y-18408734D02*
X7929223Y-18408734D01*
X7929223Y-18408734D02*
X7910176Y-18399210D01*
X7910176Y-18399210D02*
X7900652Y-18389686D01*
X7900652Y-18389686D02*
X7891128Y-18370639D01*
X7891128Y-18370639D02*
X7881604Y-18332543D01*
X7881604Y-18332543D02*
X7881604Y-18284924D01*
X7881604Y-18284924D02*
X7891128Y-18246829D01*
X7891128Y-18246829D02*
X7900652Y-18227781D01*
X7900652Y-18227781D02*
X7910176Y-18218258D01*
X7910176Y-18218258D02*
X7929223Y-18208734D01*
X8091128Y-18408734D02*
X8129223Y-18408734D01*
X8129223Y-18408734D02*
X8148271Y-18399210D01*
X8148271Y-18399210D02*
X8157795Y-18389686D01*
X8157795Y-18389686D02*
X8176842Y-18361115D01*
X8176842Y-18361115D02*
X8186366Y-18323020D01*
X8186366Y-18323020D02*
X8186366Y-18246829D01*
X8186366Y-18246829D02*
X8176842Y-18227781D01*
X8176842Y-18227781D02*
X8167319Y-18218258D01*
X8167319Y-18218258D02*
X8148271Y-18208734D01*
X8148271Y-18208734D02*
X8110176Y-18208734D01*
X8110176Y-18208734D02*
X8091128Y-18218258D01*
X8091128Y-18218258D02*
X8081604Y-18227781D01*
X8081604Y-18227781D02*
X8072081Y-18246829D01*
X8072081Y-18246829D02*
X8072081Y-18294448D01*
X8072081Y-18294448D02*
X8081604Y-18313496D01*
X8081604Y-18313496D02*
X8091128Y-18323020D01*
X8091128Y-18323020D02*
X8110176Y-18332543D01*
X8110176Y-18332543D02*
X8148271Y-18332543D01*
X8148271Y-18332543D02*
X8167319Y-18323020D01*
X8167319Y-18323020D02*
X8176842Y-18313496D01*
X8176842Y-18313496D02*
X8186366Y-18294448D01*
X8300652Y-18294448D02*
X8281604Y-18284924D01*
X8281604Y-18284924D02*
X8272081Y-18275400D01*
X8272081Y-18275400D02*
X8262557Y-18256353D01*
X8262557Y-18256353D02*
X8262557Y-18246829D01*
X8262557Y-18246829D02*
X8272081Y-18227781D01*
X8272081Y-18227781D02*
X8281604Y-18218258D01*
X8281604Y-18218258D02*
X8300652Y-18208734D01*
X8300652Y-18208734D02*
X8338747Y-18208734D01*
X8338747Y-18208734D02*
X8357795Y-18218258D01*
X8357795Y-18218258D02*
X8367319Y-18227781D01*
X8367319Y-18227781D02*
X8376842Y-18246829D01*
X8376842Y-18246829D02*
X8376842Y-18256353D01*
X8376842Y-18256353D02*
X8367319Y-18275400D01*
X8367319Y-18275400D02*
X8357795Y-18284924D01*
X8357795Y-18284924D02*
X8338747Y-18294448D01*
X8338747Y-18294448D02*
X8300652Y-18294448D01*
X8300652Y-18294448D02*
X8281604Y-18303972D01*
X8281604Y-18303972D02*
X8272081Y-18313496D01*
X8272081Y-18313496D02*
X8262557Y-18332543D01*
X8262557Y-18332543D02*
X8262557Y-18370639D01*
X8262557Y-18370639D02*
X8272081Y-18389686D01*
X8272081Y-18389686D02*
X8281604Y-18399210D01*
X8281604Y-18399210D02*
X8300652Y-18408734D01*
X8300652Y-18408734D02*
X8338747Y-18408734D01*
X8338747Y-18408734D02*
X8357795Y-18399210D01*
X8357795Y-18399210D02*
X8367319Y-18389686D01*
X8367319Y-18389686D02*
X8376842Y-18370639D01*
X8376842Y-18370639D02*
X8376842Y-18332543D01*
X8376842Y-18332543D02*
X8367319Y-18313496D01*
X8367319Y-18313496D02*
X8357795Y-18303972D01*
X8357795Y-18303972D02*
X8338747Y-18294448D01*
X8548271Y-18275400D02*
X8548271Y-18408734D01*
X8500652Y-18199210D02*
X8453033Y-18342067D01*
X8453033Y-18342067D02*
X8576843Y-18342067D01*
X8643509Y-18208734D02*
X8643509Y-18246829D01*
X8719700Y-18208734D02*
X8719700Y-18246829D01*
X9014938Y-18484924D02*
X9005414Y-18475400D01*
X9005414Y-18475400D02*
X8986366Y-18446829D01*
X8986366Y-18446829D02*
X8976843Y-18427781D01*
X8976843Y-18427781D02*
X8967319Y-18399210D01*
X8967319Y-18399210D02*
X8957795Y-18351591D01*
X8957795Y-18351591D02*
X8957795Y-18313496D01*
X8957795Y-18313496D02*
X8967319Y-18265877D01*
X8967319Y-18265877D02*
X8976843Y-18237305D01*
X8976843Y-18237305D02*
X8986366Y-18218258D01*
X8986366Y-18218258D02*
X9005414Y-18189686D01*
X9005414Y-18189686D02*
X9014938Y-18180162D01*
X9176843Y-18275400D02*
X9176843Y-18408734D01*
X9129224Y-18199210D02*
X9081605Y-18342067D01*
X9081605Y-18342067D02*
X9205414Y-18342067D01*
X9433986Y-18408734D02*
X9433986Y-18208734D01*
X9519700Y-18408734D02*
X9519700Y-18303972D01*
X9519700Y-18303972D02*
X9510176Y-18284924D01*
X9510176Y-18284924D02*
X9491128Y-18275400D01*
X9491128Y-18275400D02*
X9462557Y-18275400D01*
X9462557Y-18275400D02*
X9443509Y-18284924D01*
X9443509Y-18284924D02*
X9433986Y-18294448D01*
X9643509Y-18408734D02*
X9624462Y-18399210D01*
X9624462Y-18399210D02*
X9614938Y-18389686D01*
X9614938Y-18389686D02*
X9605414Y-18370639D01*
X9605414Y-18370639D02*
X9605414Y-18313496D01*
X9605414Y-18313496D02*
X9614938Y-18294448D01*
X9614938Y-18294448D02*
X9624462Y-18284924D01*
X9624462Y-18284924D02*
X9643509Y-18275400D01*
X9643509Y-18275400D02*
X9672081Y-18275400D01*
X9672081Y-18275400D02*
X9691128Y-18284924D01*
X9691128Y-18284924D02*
X9700652Y-18294448D01*
X9700652Y-18294448D02*
X9710176Y-18313496D01*
X9710176Y-18313496D02*
X9710176Y-18370639D01*
X9710176Y-18370639D02*
X9700652Y-18389686D01*
X9700652Y-18389686D02*
X9691128Y-18399210D01*
X9691128Y-18399210D02*
X9672081Y-18408734D01*
X9672081Y-18408734D02*
X9643509Y-18408734D01*
X9824462Y-18408734D02*
X9805414Y-18399210D01*
X9805414Y-18399210D02*
X9795890Y-18380162D01*
X9795890Y-18380162D02*
X9795890Y-18208734D01*
X9976843Y-18399210D02*
X9957795Y-18408734D01*
X9957795Y-18408734D02*
X9919700Y-18408734D01*
X9919700Y-18408734D02*
X9900652Y-18399210D01*
X9900652Y-18399210D02*
X9891128Y-18380162D01*
X9891128Y-18380162D02*
X9891128Y-18303972D01*
X9891128Y-18303972D02*
X9900652Y-18284924D01*
X9900652Y-18284924D02*
X9919700Y-18275400D01*
X9919700Y-18275400D02*
X9957795Y-18275400D01*
X9957795Y-18275400D02*
X9976843Y-18284924D01*
X9976843Y-18284924D02*
X9986367Y-18303972D01*
X9986367Y-18303972D02*
X9986367Y-18323020D01*
X9986367Y-18323020D02*
X9891128Y-18342067D01*
X10062557Y-18399210D02*
X10081605Y-18408734D01*
X10081605Y-18408734D02*
X10119700Y-18408734D01*
X10119700Y-18408734D02*
X10138748Y-18399210D01*
X10138748Y-18399210D02*
X10148271Y-18380162D01*
X10148271Y-18380162D02*
X10148271Y-18370639D01*
X10148271Y-18370639D02*
X10138748Y-18351591D01*
X10138748Y-18351591D02*
X10119700Y-18342067D01*
X10119700Y-18342067D02*
X10091128Y-18342067D01*
X10091128Y-18342067D02*
X10072081Y-18332543D01*
X10072081Y-18332543D02*
X10062557Y-18313496D01*
X10062557Y-18313496D02*
X10062557Y-18303972D01*
X10062557Y-18303972D02*
X10072081Y-18284924D01*
X10072081Y-18284924D02*
X10091128Y-18275400D01*
X10091128Y-18275400D02*
X10119700Y-18275400D01*
X10119700Y-18275400D02*
X10138748Y-18284924D01*
X10214938Y-18484924D02*
X10224462Y-18475400D01*
X10224462Y-18475400D02*
X10243509Y-18446829D01*
X10243509Y-18446829D02*
X10253033Y-18427781D01*
X10253033Y-18427781D02*
X10262557Y-18399210D01*
X10262557Y-18399210D02*
X10272081Y-18351591D01*
X10272081Y-18351591D02*
X10272081Y-18313496D01*
X10272081Y-18313496D02*
X10262557Y-18265877D01*
X10262557Y-18265877D02*
X10253033Y-18237305D01*
X10253033Y-18237305D02*
X10243509Y-18218258D01*
X10243509Y-18218258D02*
X10224462Y-18189686D01*
X10224462Y-18189686D02*
X10214938Y-18180162D01*
X5339875Y-18537250D02*
X5339875Y-18737250D01*
X5239875Y-18637250D02*
X5439875Y-18637250D01*
X5681604Y-18528734D02*
X5805414Y-18528734D01*
X5805414Y-18528734D02*
X5738747Y-18604924D01*
X5738747Y-18604924D02*
X5767318Y-18604924D01*
X5767318Y-18604924D02*
X5786366Y-18614448D01*
X5786366Y-18614448D02*
X5795890Y-18623972D01*
X5795890Y-18623972D02*
X5805414Y-18643020D01*
X5805414Y-18643020D02*
X5805414Y-18690639D01*
X5805414Y-18690639D02*
X5795890Y-18709686D01*
X5795890Y-18709686D02*
X5786366Y-18719210D01*
X5786366Y-18719210D02*
X5767318Y-18728734D01*
X5767318Y-18728734D02*
X5710176Y-18728734D01*
X5710176Y-18728734D02*
X5691128Y-18719210D01*
X5691128Y-18719210D02*
X5681604Y-18709686D01*
X5891128Y-18709686D02*
X5900652Y-18719210D01*
X5900652Y-18719210D02*
X5891128Y-18728734D01*
X5891128Y-18728734D02*
X5881604Y-18719210D01*
X5881604Y-18719210D02*
X5891128Y-18709686D01*
X5891128Y-18709686D02*
X5891128Y-18728734D01*
X6024461Y-18528734D02*
X6043509Y-18528734D01*
X6043509Y-18528734D02*
X6062557Y-18538258D01*
X6062557Y-18538258D02*
X6072080Y-18547781D01*
X6072080Y-18547781D02*
X6081604Y-18566829D01*
X6081604Y-18566829D02*
X6091128Y-18604924D01*
X6091128Y-18604924D02*
X6091128Y-18652543D01*
X6091128Y-18652543D02*
X6081604Y-18690639D01*
X6081604Y-18690639D02*
X6072080Y-18709686D01*
X6072080Y-18709686D02*
X6062557Y-18719210D01*
X6062557Y-18719210D02*
X6043509Y-18728734D01*
X6043509Y-18728734D02*
X6024461Y-18728734D01*
X6024461Y-18728734D02*
X6005414Y-18719210D01*
X6005414Y-18719210D02*
X5995890Y-18709686D01*
X5995890Y-18709686D02*
X5986366Y-18690639D01*
X5986366Y-18690639D02*
X5976842Y-18652543D01*
X5976842Y-18652543D02*
X5976842Y-18604924D01*
X5976842Y-18604924D02*
X5986366Y-18566829D01*
X5986366Y-18566829D02*
X5995890Y-18547781D01*
X5995890Y-18547781D02*
X6005414Y-18538258D01*
X6005414Y-18538258D02*
X6024461Y-18528734D01*
X6214937Y-18528734D02*
X6233985Y-18528734D01*
X6233985Y-18528734D02*
X6253033Y-18538258D01*
X6253033Y-18538258D02*
X6262557Y-18547781D01*
X6262557Y-18547781D02*
X6272080Y-18566829D01*
X6272080Y-18566829D02*
X6281604Y-18604924D01*
X6281604Y-18604924D02*
X6281604Y-18652543D01*
X6281604Y-18652543D02*
X6272080Y-18690639D01*
X6272080Y-18690639D02*
X6262557Y-18709686D01*
X6262557Y-18709686D02*
X6253033Y-18719210D01*
X6253033Y-18719210D02*
X6233985Y-18728734D01*
X6233985Y-18728734D02*
X6214937Y-18728734D01*
X6214937Y-18728734D02*
X6195890Y-18719210D01*
X6195890Y-18719210D02*
X6186366Y-18709686D01*
X6186366Y-18709686D02*
X6176842Y-18690639D01*
X6176842Y-18690639D02*
X6167318Y-18652543D01*
X6167318Y-18652543D02*
X6167318Y-18604924D01*
X6167318Y-18604924D02*
X6176842Y-18566829D01*
X6176842Y-18566829D02*
X6186366Y-18547781D01*
X6186366Y-18547781D02*
X6195890Y-18538258D01*
X6195890Y-18538258D02*
X6214937Y-18528734D01*
X6405414Y-18528734D02*
X6424461Y-18528734D01*
X6424461Y-18528734D02*
X6443509Y-18538258D01*
X6443509Y-18538258D02*
X6453033Y-18547781D01*
X6453033Y-18547781D02*
X6462557Y-18566829D01*
X6462557Y-18566829D02*
X6472080Y-18604924D01*
X6472080Y-18604924D02*
X6472080Y-18652543D01*
X6472080Y-18652543D02*
X6462557Y-18690639D01*
X6462557Y-18690639D02*
X6453033Y-18709686D01*
X6453033Y-18709686D02*
X6443509Y-18719210D01*
X6443509Y-18719210D02*
X6424461Y-18728734D01*
X6424461Y-18728734D02*
X6405414Y-18728734D01*
X6405414Y-18728734D02*
X6386366Y-18719210D01*
X6386366Y-18719210D02*
X6376842Y-18709686D01*
X6376842Y-18709686D02*
X6367318Y-18690639D01*
X6367318Y-18690639D02*
X6357795Y-18652543D01*
X6357795Y-18652543D02*
X6357795Y-18604924D01*
X6357795Y-18604924D02*
X6367318Y-18566829D01*
X6367318Y-18566829D02*
X6376842Y-18547781D01*
X6376842Y-18547781D02*
X6386366Y-18538258D01*
X6386366Y-18538258D02*
X6405414Y-18528734D01*
X6557795Y-18728734D02*
X6557795Y-18595400D01*
X6557795Y-18614448D02*
X6567318Y-18604924D01*
X6567318Y-18604924D02*
X6586366Y-18595400D01*
X6586366Y-18595400D02*
X6614938Y-18595400D01*
X6614938Y-18595400D02*
X6633985Y-18604924D01*
X6633985Y-18604924D02*
X6643509Y-18623972D01*
X6643509Y-18623972D02*
X6643509Y-18728734D01*
X6643509Y-18623972D02*
X6653033Y-18604924D01*
X6653033Y-18604924D02*
X6672080Y-18595400D01*
X6672080Y-18595400D02*
X6700652Y-18595400D01*
X6700652Y-18595400D02*
X6719699Y-18604924D01*
X6719699Y-18604924D02*
X6729223Y-18623972D01*
X6729223Y-18623972D02*
X6729223Y-18728734D01*
X6824461Y-18728734D02*
X6824461Y-18595400D01*
X6824461Y-18614448D02*
X6833985Y-18604924D01*
X6833985Y-18604924D02*
X6853033Y-18595400D01*
X6853033Y-18595400D02*
X6881604Y-18595400D01*
X6881604Y-18595400D02*
X6900652Y-18604924D01*
X6900652Y-18604924D02*
X6910176Y-18623972D01*
X6910176Y-18623972D02*
X6910176Y-18728734D01*
X6910176Y-18623972D02*
X6919699Y-18604924D01*
X6919699Y-18604924D02*
X6938747Y-18595400D01*
X6938747Y-18595400D02*
X6967318Y-18595400D01*
X6967318Y-18595400D02*
X6986366Y-18604924D01*
X6986366Y-18604924D02*
X6995890Y-18623972D01*
X6995890Y-18623972D02*
X6995890Y-18728734D01*
X7386366Y-18519210D02*
X7214938Y-18776353D01*
X7643509Y-18528734D02*
X7662557Y-18528734D01*
X7662557Y-18528734D02*
X7681604Y-18538258D01*
X7681604Y-18538258D02*
X7691128Y-18547781D01*
X7691128Y-18547781D02*
X7700652Y-18566829D01*
X7700652Y-18566829D02*
X7710176Y-18604924D01*
X7710176Y-18604924D02*
X7710176Y-18652543D01*
X7710176Y-18652543D02*
X7700652Y-18690639D01*
X7700652Y-18690639D02*
X7691128Y-18709686D01*
X7691128Y-18709686D02*
X7681604Y-18719210D01*
X7681604Y-18719210D02*
X7662557Y-18728734D01*
X7662557Y-18728734D02*
X7643509Y-18728734D01*
X7643509Y-18728734D02*
X7624461Y-18719210D01*
X7624461Y-18719210D02*
X7614938Y-18709686D01*
X7614938Y-18709686D02*
X7605414Y-18690639D01*
X7605414Y-18690639D02*
X7595890Y-18652543D01*
X7595890Y-18652543D02*
X7595890Y-18604924D01*
X7595890Y-18604924D02*
X7605414Y-18566829D01*
X7605414Y-18566829D02*
X7614938Y-18547781D01*
X7614938Y-18547781D02*
X7624461Y-18538258D01*
X7624461Y-18538258D02*
X7643509Y-18528734D01*
X7795890Y-18709686D02*
X7805414Y-18719210D01*
X7805414Y-18719210D02*
X7795890Y-18728734D01*
X7795890Y-18728734D02*
X7786366Y-18719210D01*
X7786366Y-18719210D02*
X7795890Y-18709686D01*
X7795890Y-18709686D02*
X7795890Y-18728734D01*
X7995890Y-18728734D02*
X7881604Y-18728734D01*
X7938747Y-18728734D02*
X7938747Y-18528734D01*
X7938747Y-18528734D02*
X7919700Y-18557305D01*
X7919700Y-18557305D02*
X7900652Y-18576353D01*
X7900652Y-18576353D02*
X7881604Y-18585877D01*
X8186366Y-18728734D02*
X8072081Y-18728734D01*
X8129223Y-18728734D02*
X8129223Y-18528734D01*
X8129223Y-18528734D02*
X8110176Y-18557305D01*
X8110176Y-18557305D02*
X8091128Y-18576353D01*
X8091128Y-18576353D02*
X8072081Y-18585877D01*
X8300652Y-18614448D02*
X8281604Y-18604924D01*
X8281604Y-18604924D02*
X8272081Y-18595400D01*
X8272081Y-18595400D02*
X8262557Y-18576353D01*
X8262557Y-18576353D02*
X8262557Y-18566829D01*
X8262557Y-18566829D02*
X8272081Y-18547781D01*
X8272081Y-18547781D02*
X8281604Y-18538258D01*
X8281604Y-18538258D02*
X8300652Y-18528734D01*
X8300652Y-18528734D02*
X8338747Y-18528734D01*
X8338747Y-18528734D02*
X8357795Y-18538258D01*
X8357795Y-18538258D02*
X8367319Y-18547781D01*
X8367319Y-18547781D02*
X8376842Y-18566829D01*
X8376842Y-18566829D02*
X8376842Y-18576353D01*
X8376842Y-18576353D02*
X8367319Y-18595400D01*
X8367319Y-18595400D02*
X8357795Y-18604924D01*
X8357795Y-18604924D02*
X8338747Y-18614448D01*
X8338747Y-18614448D02*
X8300652Y-18614448D01*
X8300652Y-18614448D02*
X8281604Y-18623972D01*
X8281604Y-18623972D02*
X8272081Y-18633496D01*
X8272081Y-18633496D02*
X8262557Y-18652543D01*
X8262557Y-18652543D02*
X8262557Y-18690639D01*
X8262557Y-18690639D02*
X8272081Y-18709686D01*
X8272081Y-18709686D02*
X8281604Y-18719210D01*
X8281604Y-18719210D02*
X8300652Y-18728734D01*
X8300652Y-18728734D02*
X8338747Y-18728734D01*
X8338747Y-18728734D02*
X8357795Y-18719210D01*
X8357795Y-18719210D02*
X8367319Y-18709686D01*
X8367319Y-18709686D02*
X8376842Y-18690639D01*
X8376842Y-18690639D02*
X8376842Y-18652543D01*
X8376842Y-18652543D02*
X8367319Y-18633496D01*
X8367319Y-18633496D02*
X8357795Y-18623972D01*
X8357795Y-18623972D02*
X8338747Y-18614448D01*
X8567319Y-18728734D02*
X8453033Y-18728734D01*
X8510176Y-18728734D02*
X8510176Y-18528734D01*
X8510176Y-18528734D02*
X8491128Y-18557305D01*
X8491128Y-18557305D02*
X8472081Y-18576353D01*
X8472081Y-18576353D02*
X8453033Y-18585877D01*
X8643509Y-18528734D02*
X8643509Y-18566829D01*
X8719700Y-18528734D02*
X8719700Y-18566829D01*
X9014938Y-18804924D02*
X9005414Y-18795400D01*
X9005414Y-18795400D02*
X8986366Y-18766829D01*
X8986366Y-18766829D02*
X8976843Y-18747781D01*
X8976843Y-18747781D02*
X8967319Y-18719210D01*
X8967319Y-18719210D02*
X8957795Y-18671591D01*
X8957795Y-18671591D02*
X8957795Y-18633496D01*
X8957795Y-18633496D02*
X8967319Y-18585877D01*
X8967319Y-18585877D02*
X8976843Y-18557305D01*
X8976843Y-18557305D02*
X8986366Y-18538258D01*
X8986366Y-18538258D02*
X9005414Y-18509686D01*
X9005414Y-18509686D02*
X9014938Y-18500162D01*
X9195890Y-18728734D02*
X9081605Y-18728734D01*
X9138747Y-18728734D02*
X9138747Y-18528734D01*
X9138747Y-18528734D02*
X9119700Y-18557305D01*
X9119700Y-18557305D02*
X9100652Y-18576353D01*
X9100652Y-18576353D02*
X9081605Y-18585877D01*
X9319700Y-18528734D02*
X9338747Y-18528734D01*
X9338747Y-18528734D02*
X9357795Y-18538258D01*
X9357795Y-18538258D02*
X9367319Y-18547781D01*
X9367319Y-18547781D02*
X9376843Y-18566829D01*
X9376843Y-18566829D02*
X9386366Y-18604924D01*
X9386366Y-18604924D02*
X9386366Y-18652543D01*
X9386366Y-18652543D02*
X9376843Y-18690639D01*
X9376843Y-18690639D02*
X9367319Y-18709686D01*
X9367319Y-18709686D02*
X9357795Y-18719210D01*
X9357795Y-18719210D02*
X9338747Y-18728734D01*
X9338747Y-18728734D02*
X9319700Y-18728734D01*
X9319700Y-18728734D02*
X9300652Y-18719210D01*
X9300652Y-18719210D02*
X9291128Y-18709686D01*
X9291128Y-18709686D02*
X9281605Y-18690639D01*
X9281605Y-18690639D02*
X9272081Y-18652543D01*
X9272081Y-18652543D02*
X9272081Y-18604924D01*
X9272081Y-18604924D02*
X9281605Y-18566829D01*
X9281605Y-18566829D02*
X9291128Y-18547781D01*
X9291128Y-18547781D02*
X9300652Y-18538258D01*
X9300652Y-18538258D02*
X9319700Y-18528734D01*
X9500652Y-18614448D02*
X9481605Y-18604924D01*
X9481605Y-18604924D02*
X9472081Y-18595400D01*
X9472081Y-18595400D02*
X9462557Y-18576353D01*
X9462557Y-18576353D02*
X9462557Y-18566829D01*
X9462557Y-18566829D02*
X9472081Y-18547781D01*
X9472081Y-18547781D02*
X9481605Y-18538258D01*
X9481605Y-18538258D02*
X9500652Y-18528734D01*
X9500652Y-18528734D02*
X9538747Y-18528734D01*
X9538747Y-18528734D02*
X9557795Y-18538258D01*
X9557795Y-18538258D02*
X9567319Y-18547781D01*
X9567319Y-18547781D02*
X9576843Y-18566829D01*
X9576843Y-18566829D02*
X9576843Y-18576353D01*
X9576843Y-18576353D02*
X9567319Y-18595400D01*
X9567319Y-18595400D02*
X9557795Y-18604924D01*
X9557795Y-18604924D02*
X9538747Y-18614448D01*
X9538747Y-18614448D02*
X9500652Y-18614448D01*
X9500652Y-18614448D02*
X9481605Y-18623972D01*
X9481605Y-18623972D02*
X9472081Y-18633496D01*
X9472081Y-18633496D02*
X9462557Y-18652543D01*
X9462557Y-18652543D02*
X9462557Y-18690639D01*
X9462557Y-18690639D02*
X9472081Y-18709686D01*
X9472081Y-18709686D02*
X9481605Y-18719210D01*
X9481605Y-18719210D02*
X9500652Y-18728734D01*
X9500652Y-18728734D02*
X9538747Y-18728734D01*
X9538747Y-18728734D02*
X9557795Y-18719210D01*
X9557795Y-18719210D02*
X9567319Y-18709686D01*
X9567319Y-18709686D02*
X9576843Y-18690639D01*
X9576843Y-18690639D02*
X9576843Y-18652543D01*
X9576843Y-18652543D02*
X9567319Y-18633496D01*
X9567319Y-18633496D02*
X9557795Y-18623972D01*
X9557795Y-18623972D02*
X9538747Y-18614448D01*
X9814938Y-18728734D02*
X9814938Y-18528734D01*
X9900652Y-18728734D02*
X9900652Y-18623972D01*
X9900652Y-18623972D02*
X9891128Y-18604924D01*
X9891128Y-18604924D02*
X9872081Y-18595400D01*
X9872081Y-18595400D02*
X9843509Y-18595400D01*
X9843509Y-18595400D02*
X9824462Y-18604924D01*
X9824462Y-18604924D02*
X9814938Y-18614448D01*
X10024462Y-18728734D02*
X10005414Y-18719210D01*
X10005414Y-18719210D02*
X9995890Y-18709686D01*
X9995890Y-18709686D02*
X9986367Y-18690639D01*
X9986367Y-18690639D02*
X9986367Y-18633496D01*
X9986367Y-18633496D02*
X9995890Y-18614448D01*
X9995890Y-18614448D02*
X10005414Y-18604924D01*
X10005414Y-18604924D02*
X10024462Y-18595400D01*
X10024462Y-18595400D02*
X10053033Y-18595400D01*
X10053033Y-18595400D02*
X10072081Y-18604924D01*
X10072081Y-18604924D02*
X10081605Y-18614448D01*
X10081605Y-18614448D02*
X10091128Y-18633496D01*
X10091128Y-18633496D02*
X10091128Y-18690639D01*
X10091128Y-18690639D02*
X10081605Y-18709686D01*
X10081605Y-18709686D02*
X10072081Y-18719210D01*
X10072081Y-18719210D02*
X10053033Y-18728734D01*
X10053033Y-18728734D02*
X10024462Y-18728734D01*
X10205414Y-18728734D02*
X10186367Y-18719210D01*
X10186367Y-18719210D02*
X10176843Y-18700162D01*
X10176843Y-18700162D02*
X10176843Y-18528734D01*
X10357795Y-18719210D02*
X10338748Y-18728734D01*
X10338748Y-18728734D02*
X10300652Y-18728734D01*
X10300652Y-18728734D02*
X10281605Y-18719210D01*
X10281605Y-18719210D02*
X10272081Y-18700162D01*
X10272081Y-18700162D02*
X10272081Y-18623972D01*
X10272081Y-18623972D02*
X10281605Y-18604924D01*
X10281605Y-18604924D02*
X10300652Y-18595400D01*
X10300652Y-18595400D02*
X10338748Y-18595400D01*
X10338748Y-18595400D02*
X10357795Y-18604924D01*
X10357795Y-18604924D02*
X10367319Y-18623972D01*
X10367319Y-18623972D02*
X10367319Y-18643020D01*
X10367319Y-18643020D02*
X10272081Y-18662067D01*
X10443509Y-18719210D02*
X10462557Y-18728734D01*
X10462557Y-18728734D02*
X10500652Y-18728734D01*
X10500652Y-18728734D02*
X10519700Y-18719210D01*
X10519700Y-18719210D02*
X10529224Y-18700162D01*
X10529224Y-18700162D02*
X10529224Y-18690639D01*
X10529224Y-18690639D02*
X10519700Y-18671591D01*
X10519700Y-18671591D02*
X10500652Y-18662067D01*
X10500652Y-18662067D02*
X10472081Y-18662067D01*
X10472081Y-18662067D02*
X10453033Y-18652543D01*
X10453033Y-18652543D02*
X10443509Y-18633496D01*
X10443509Y-18633496D02*
X10443509Y-18623972D01*
X10443509Y-18623972D02*
X10453033Y-18604924D01*
X10453033Y-18604924D02*
X10472081Y-18595400D01*
X10472081Y-18595400D02*
X10500652Y-18595400D01*
X10500652Y-18595400D02*
X10519700Y-18604924D01*
X10595890Y-18804924D02*
X10605414Y-18795400D01*
X10605414Y-18795400D02*
X10624462Y-18766829D01*
X10624462Y-18766829D02*
X10633986Y-18747781D01*
X10633986Y-18747781D02*
X10643509Y-18719210D01*
X10643509Y-18719210D02*
X10653033Y-18671591D01*
X10653033Y-18671591D02*
X10653033Y-18633496D01*
X10653033Y-18633496D02*
X10643509Y-18585877D01*
X10643509Y-18585877D02*
X10633986Y-18557305D01*
X10633986Y-18557305D02*
X10624462Y-18538258D01*
X10624462Y-18538258D02*
X10605414Y-18509686D01*
X10605414Y-18509686D02*
X10595890Y-18500162D01*
M02*
