%TF.GenerationSoftware,KiCad,Pcbnew,10.0.3*%
%TF.CreationDate,2026-06-03T21:49:48+05:30*%
%TF.ProjectId,ArxKey,4172784b-6579-42e6-9b69-6361645f7063,rev?*%
%TF.SameCoordinates,Original*%
%TF.FileFunction,NonPlated,1,2,NPTH,Drill*%
%TF.FilePolarity,Positive*%
%FSLAX46Y46*%
G04 Gerber Fmt 4.6, Leading zero omitted, Abs format (unit mm)*
G04 Created by KiCad (PCBNEW 10.0.3) date 2026-06-03 21:49:48*
%MOMM*%
%LPD*%
G01*
G04 APERTURE LIST*
%TA.AperFunction,ComponentDrill*%
%ADD10C,0.500000*%
%TD*%
%TA.AperFunction,ComponentDrill*%
%ADD11C,1.750000*%
%TD*%
%TA.AperFunction,ComponentDrill*%
%ADD12C,3.200000*%
%TD*%
%TA.AperFunction,ComponentDrill*%
%ADD13C,3.987800*%
%TD*%
G04 APERTURE END LIST*
D10*
%TO.C,H7*%
X194300000Y-126867500D03*
X194300000Y-127617500D03*
X194300000Y-128367500D03*
%TO.C,H6*%
X194400000Y-110517500D03*
X194400000Y-111267500D03*
X194400000Y-112017500D03*
%TO.C,H5*%
X194500000Y-94267500D03*
X194500000Y-95017500D03*
X194500000Y-95767500D03*
%TO.C,H7*%
X195800000Y-126867500D03*
X195800000Y-127617500D03*
X195800000Y-128367500D03*
%TO.C,H6*%
X195900000Y-110517500D03*
X195900000Y-111267500D03*
X195900000Y-112017500D03*
%TO.C,H5*%
X196000000Y-94267500D03*
X196000000Y-95017500D03*
X196000000Y-95767500D03*
D11*
%TO.C,SW10*%
X62958750Y-85311250D03*
%TO.C,SW18*%
X62958750Y-104361250D03*
%TO.C,SW30*%
X62958750Y-123411250D03*
%TO.C,SW42*%
X62958750Y-142461250D03*
%TO.C,SW10*%
X73118750Y-85311250D03*
%TO.C,SW18*%
X73118750Y-104361250D03*
%TO.C,SW30*%
X73118750Y-123411250D03*
%TO.C,SW42*%
X73118750Y-142461250D03*
%TO.C,SW9*%
X82008750Y-80548750D03*
%TO.C,SW17*%
X82008750Y-99651250D03*
%TO.C,SW29*%
X82008750Y-118648750D03*
%TO.C,SW41*%
X82008750Y-137698750D03*
%TO.C,SW9*%
X92168750Y-80548750D03*
%TO.C,SW17*%
X92168750Y-99651250D03*
%TO.C,SW29*%
X92168750Y-118648750D03*
%TO.C,SW41*%
X92168750Y-137698750D03*
%TO.C,SW6*%
X101058750Y-76103750D03*
%TO.C,SW16*%
X101058750Y-95153750D03*
%TO.C,SW28*%
X101058750Y-114203750D03*
%TO.C,SW40*%
X101058750Y-133253750D03*
%TO.C,SW6*%
X111218750Y-76103750D03*
%TO.C,SW16*%
X111218750Y-95153750D03*
%TO.C,SW28*%
X111218750Y-114203750D03*
%TO.C,SW40*%
X111218750Y-133253750D03*
%TO.C,SW5*%
X120108750Y-71341250D03*
%TO.C,SW15*%
X120108750Y-90443750D03*
%TO.C,SW27*%
X120108750Y-109441250D03*
%TO.C,SW39*%
X120108750Y-128491250D03*
%TO.C,SW50*%
X122490000Y-149605000D03*
%TO.C,SW5*%
X130268750Y-71341250D03*
%TO.C,SW15*%
X130268750Y-90443750D03*
%TO.C,SW27*%
X130268750Y-109441250D03*
%TO.C,SW39*%
X130268750Y-128491250D03*
%TO.C,SW50*%
X132650000Y-149605000D03*
%TO.C,SW3*%
X139158750Y-75786250D03*
%TO.C,SW14*%
X139158750Y-94888750D03*
%TO.C,SW26*%
X139158750Y-113886250D03*
%TO.C,SW38*%
X139158750Y-132936250D03*
%TO.C,SW49*%
X141617177Y-153167867D03*
%TO.C,SW3*%
X149318750Y-75786250D03*
%TO.C,SW14*%
X149318750Y-94888750D03*
%TO.C,SW26*%
X149318750Y-113886250D03*
%TO.C,SW38*%
X149318750Y-132936250D03*
%TO.C,SW49*%
X151622823Y-154932133D03*
%TO.C,SW1*%
X158208750Y-80548750D03*
%TO.C,SW13*%
X158208750Y-99598750D03*
%TO.C,SW25*%
X158208750Y-118648750D03*
%TO.C,SW37*%
X158208750Y-137698750D03*
%TO.C,SW53*%
X160896362Y-157075037D03*
%TO.C,SW1*%
X168368750Y-80548750D03*
%TO.C,SW13*%
X168368750Y-99598750D03*
%TO.C,SW25*%
X168368750Y-118648750D03*
%TO.C,SW37*%
X168368750Y-137698750D03*
%TO.C,SW53*%
X170443638Y-160549963D03*
%TO.C,SW54*%
X220822611Y-159893712D03*
%TO.C,SW12*%
X222897500Y-79575000D03*
%TO.C,SW24*%
X222897500Y-98625000D03*
%TO.C,SW36*%
X222897500Y-117675000D03*
%TO.C,SW48*%
X222897500Y-136725000D03*
%TO.C,SW54*%
X230369889Y-156418788D03*
%TO.C,SW12*%
X233057500Y-79575000D03*
%TO.C,SW24*%
X233057500Y-98625000D03*
%TO.C,SW36*%
X233057500Y-117675000D03*
%TO.C,SW48*%
X233057500Y-136725000D03*
%TO.C,SW51*%
X239643427Y-154275883D03*
%TO.C,SW11*%
X241947500Y-74812500D03*
%TO.C,SW23*%
X241947500Y-93862500D03*
%TO.C,SW35*%
X241947500Y-112912500D03*
%TO.C,SW47*%
X241947500Y-131962500D03*
%TO.C,SW51*%
X249649073Y-152511617D03*
%TO.C,SW11*%
X252107500Y-74812500D03*
%TO.C,SW23*%
X252107500Y-93862500D03*
%TO.C,SW35*%
X252107500Y-112912500D03*
%TO.C,SW47*%
X252107500Y-131962500D03*
%TO.C,SW52*%
X258616250Y-148631250D03*
%TO.C,SW8*%
X260997500Y-70050000D03*
%TO.C,SW22*%
X260997500Y-89100000D03*
%TO.C,SW34*%
X260997500Y-108150000D03*
%TO.C,SW46*%
X260997500Y-127200000D03*
%TO.C,SW52*%
X268776250Y-148631250D03*
%TO.C,SW8*%
X271157500Y-70050000D03*
%TO.C,SW22*%
X271157500Y-89100000D03*
%TO.C,SW34*%
X271157500Y-108150000D03*
%TO.C,SW46*%
X271157500Y-127200000D03*
%TO.C,SW7*%
X280047500Y-74495000D03*
%TO.C,SW21*%
X280047500Y-93545000D03*
%TO.C,SW33*%
X280047500Y-112595000D03*
%TO.C,SW45*%
X280047500Y-131645000D03*
%TO.C,SW7*%
X290207500Y-74495000D03*
%TO.C,SW21*%
X290207500Y-93545000D03*
%TO.C,SW33*%
X290207500Y-112595000D03*
%TO.C,SW45*%
X290207500Y-131645000D03*
%TO.C,SW4*%
X299097500Y-79892500D03*
%TO.C,SW20*%
X299097500Y-98942500D03*
%TO.C,SW32*%
X299097500Y-117992500D03*
%TO.C,SW44*%
X299097500Y-137042500D03*
%TO.C,SW4*%
X309257500Y-79892500D03*
%TO.C,SW20*%
X309257500Y-98942500D03*
%TO.C,SW32*%
X309257500Y-117992500D03*
%TO.C,SW44*%
X309257500Y-137042500D03*
%TO.C,SW2*%
X318147500Y-84337500D03*
%TO.C,SW19*%
X318147500Y-103387500D03*
%TO.C,SW31*%
X318147500Y-122437500D03*
%TO.C,SW43*%
X318147500Y-141487500D03*
%TO.C,SW2*%
X328307500Y-84337500D03*
%TO.C,SW19*%
X328307500Y-103387500D03*
%TO.C,SW31*%
X328307500Y-122437500D03*
%TO.C,SW43*%
X328307500Y-141487500D03*
D12*
%TO.C,H1*%
X179957500Y-117580000D03*
%TO.C,H3*%
X184720000Y-129486250D03*
%TO.C,H4*%
X206116250Y-127850000D03*
%TO.C,H2*%
X210878750Y-115943750D03*
D13*
%TO.C,SW10*%
X68038750Y-85311250D03*
%TO.C,SW18*%
X68038750Y-104361250D03*
%TO.C,SW30*%
X68038750Y-123411250D03*
%TO.C,SW42*%
X68038750Y-142461250D03*
%TO.C,SW9*%
X87088750Y-80548750D03*
%TO.C,SW17*%
X87088750Y-99651250D03*
%TO.C,SW29*%
X87088750Y-118648750D03*
%TO.C,SW41*%
X87088750Y-137698750D03*
%TO.C,SW6*%
X106138750Y-76103750D03*
%TO.C,SW16*%
X106138750Y-95153750D03*
%TO.C,SW28*%
X106138750Y-114203750D03*
%TO.C,SW40*%
X106138750Y-133253750D03*
%TO.C,SW5*%
X125188750Y-71341250D03*
%TO.C,SW15*%
X125188750Y-90443750D03*
%TO.C,SW27*%
X125188750Y-109441250D03*
%TO.C,SW39*%
X125188750Y-128491250D03*
%TO.C,SW50*%
X127570000Y-149605000D03*
%TO.C,SW3*%
X144238750Y-75786250D03*
%TO.C,SW14*%
X144238750Y-94888750D03*
%TO.C,SW26*%
X144238750Y-113886250D03*
%TO.C,SW38*%
X144238750Y-132936250D03*
%TO.C,SW49*%
X146620000Y-154050000D03*
%TO.C,SW1*%
X163288750Y-80548750D03*
%TO.C,SW13*%
X163288750Y-99598750D03*
%TO.C,SW25*%
X163288750Y-118648750D03*
%TO.C,SW37*%
X163288750Y-137698750D03*
%TO.C,SW53*%
X165670000Y-158812500D03*
%TO.C,SW54*%
X225596250Y-158156250D03*
%TO.C,SW12*%
X227977500Y-79575000D03*
%TO.C,SW24*%
X227977500Y-98625000D03*
%TO.C,SW36*%
X227977500Y-117675000D03*
%TO.C,SW48*%
X227977500Y-136725000D03*
%TO.C,SW51*%
X244646250Y-153393750D03*
%TO.C,SW11*%
X247027500Y-74812500D03*
%TO.C,SW23*%
X247027500Y-93862500D03*
%TO.C,SW35*%
X247027500Y-112912500D03*
%TO.C,SW47*%
X247027500Y-131962500D03*
%TO.C,SW52*%
X263696250Y-148631250D03*
%TO.C,SW8*%
X266077500Y-70050000D03*
%TO.C,SW22*%
X266077500Y-89100000D03*
%TO.C,SW34*%
X266077500Y-108150000D03*
%TO.C,SW46*%
X266077500Y-127200000D03*
%TO.C,SW7*%
X285127500Y-74495000D03*
%TO.C,SW21*%
X285127500Y-93545000D03*
%TO.C,SW33*%
X285127500Y-112595000D03*
%TO.C,SW45*%
X285127500Y-131645000D03*
%TO.C,SW4*%
X304177500Y-79892500D03*
%TO.C,SW20*%
X304177500Y-98942500D03*
%TO.C,SW32*%
X304177500Y-117992500D03*
%TO.C,SW44*%
X304177500Y-137042500D03*
%TO.C,SW2*%
X323227500Y-84337500D03*
%TO.C,SW19*%
X323227500Y-103387500D03*
%TO.C,SW31*%
X323227500Y-122437500D03*
%TO.C,SW43*%
X323227500Y-141487500D03*
M02*
