%TF.GenerationSoftware,KiCad,Pcbnew,10.0.3*%
%TF.CreationDate,2026-06-03T21:49:48+05:30*%
%TF.ProjectId,ArxKey,4172784b-6579-42e6-9b69-6361645f7063,rev?*%
%TF.SameCoordinates,Original*%
%TF.FileFunction,Plated,1,2,PTH,Drill*%
%TF.FilePolarity,Positive*%
%FSLAX46Y46*%
G04 Gerber Fmt 4.6, Leading zero omitted, Abs format (unit mm)*
G04 Created by KiCad (PCBNEW 10.0.3) date 2026-06-03 21:49:48*
%MOMM*%
%LPD*%
G01*
G04 APERTURE LIST*
%TA.AperFunction,ViaDrill*%
%ADD10C,0.300000*%
%TD*%
%TA.AperFunction,ComponentDrill*%
%ADD11C,2.500000*%
%TD*%
%TA.AperFunction,ComponentDrill*%
%ADD12C,3.000000*%
%TD*%
G04 APERTURE END LIST*
D10*
X173023750Y-146407500D03*
X175353750Y-105457500D03*
X175453750Y-114247500D03*
X175603750Y-94807500D03*
X176287219Y-88225024D03*
X177170359Y-83429329D03*
X179563750Y-77657618D03*
X179563750Y-80207500D03*
X182043750Y-94137500D03*
X186983750Y-94767500D03*
X188983750Y-77037500D03*
X201462500Y-88263181D03*
X217260000Y-139851250D03*
X218670000Y-118561250D03*
X231155215Y-94030073D03*
X231187500Y-81491250D03*
X232100000Y-61220000D03*
X232220000Y-73801250D03*
X250408014Y-155209264D03*
X250670000Y-69071250D03*
X250780000Y-61820000D03*
X251824265Y-156385515D03*
X269900000Y-62420000D03*
X271300000Y-66160000D03*
X289410000Y-64201250D03*
X289410000Y-66501250D03*
X303780000Y-64911250D03*
X304310000Y-67571250D03*
D11*
%TO.C,U1*%
X178363750Y-78861250D03*
X178363750Y-82261250D03*
%TO.C,U2*%
X203997500Y-77225000D03*
X203997500Y-80625000D03*
D12*
%TO.C,SW10*%
X65498750Y-80231250D03*
%TO.C,SW18*%
X65498750Y-99281250D03*
%TO.C,SW30*%
X65498750Y-118331250D03*
%TO.C,SW42*%
X65498750Y-137381250D03*
%TO.C,SW10*%
X71848750Y-82771250D03*
%TO.C,SW18*%
X71848750Y-101821250D03*
%TO.C,SW30*%
X71848750Y-120871250D03*
%TO.C,SW42*%
X71848750Y-139921250D03*
%TO.C,SW9*%
X84548750Y-75468750D03*
%TO.C,SW17*%
X84548750Y-94571250D03*
%TO.C,SW29*%
X84548750Y-113568750D03*
%TO.C,SW41*%
X84548750Y-132618750D03*
%TO.C,SW9*%
X90898750Y-78008750D03*
%TO.C,SW17*%
X90898750Y-97111250D03*
%TO.C,SW29*%
X90898750Y-116108750D03*
%TO.C,SW41*%
X90898750Y-135158750D03*
%TO.C,SW6*%
X103598750Y-71023750D03*
%TO.C,SW16*%
X103598750Y-90073750D03*
%TO.C,SW28*%
X103598750Y-109123750D03*
%TO.C,SW40*%
X103598750Y-128173750D03*
%TO.C,SW6*%
X109948750Y-73563750D03*
%TO.C,SW16*%
X109948750Y-92613750D03*
%TO.C,SW28*%
X109948750Y-111663750D03*
%TO.C,SW40*%
X109948750Y-130713750D03*
%TO.C,SW5*%
X122648750Y-66261250D03*
%TO.C,SW15*%
X122648750Y-85363750D03*
%TO.C,SW27*%
X122648750Y-104361250D03*
%TO.C,SW39*%
X122648750Y-123411250D03*
%TO.C,SW50*%
X125030000Y-144525000D03*
%TO.C,SW5*%
X128998750Y-68801250D03*
%TO.C,SW15*%
X128998750Y-87903750D03*
%TO.C,SW27*%
X128998750Y-106901250D03*
%TO.C,SW39*%
X128998750Y-125951250D03*
%TO.C,SW50*%
X131380000Y-147065000D03*
%TO.C,SW3*%
X141698750Y-70706250D03*
%TO.C,SW14*%
X141698750Y-89808750D03*
%TO.C,SW26*%
X141698750Y-108806250D03*
%TO.C,SW38*%
X141698750Y-127856250D03*
%TO.C,SW49*%
X145000721Y-148606110D03*
%TO.C,SW3*%
X148048750Y-73246250D03*
%TO.C,SW14*%
X148048750Y-92348750D03*
%TO.C,SW26*%
X148048750Y-111346250D03*
%TO.C,SW38*%
X148048750Y-130396250D03*
%TO.C,SW49*%
X150813184Y-152210188D03*
%TO.C,SW1*%
X160748750Y-75468750D03*
%TO.C,SW13*%
X160748750Y-94518750D03*
%TO.C,SW25*%
X160748750Y-113568750D03*
%TO.C,SW37*%
X160748750Y-132618750D03*
%TO.C,SW53*%
X165020643Y-153170130D03*
%TO.C,SW1*%
X167098750Y-78008750D03*
%TO.C,SW13*%
X167098750Y-97058750D03*
%TO.C,SW25*%
X167098750Y-116108750D03*
%TO.C,SW37*%
X167098750Y-135158750D03*
%TO.C,SW53*%
X170118960Y-157728777D03*
%TO.C,SW54*%
X221471967Y-154251343D03*
%TO.C,SW12*%
X225437500Y-74495000D03*
%TO.C,SW24*%
X225437500Y-93545000D03*
%TO.C,SW36*%
X225437500Y-112595000D03*
%TO.C,SW48*%
X225437500Y-131645000D03*
%TO.C,SW54*%
X228307748Y-154466334D03*
%TO.C,SW12*%
X231787500Y-77035000D03*
%TO.C,SW24*%
X231787500Y-96085000D03*
%TO.C,SW36*%
X231787500Y-115135000D03*
%TO.C,SW48*%
X231787500Y-134185000D03*
%TO.C,SW51*%
X241262706Y-148831993D03*
%TO.C,SW11*%
X244487500Y-69732500D03*
%TO.C,SW23*%
X244487500Y-88782500D03*
%TO.C,SW35*%
X244487500Y-107832500D03*
%TO.C,SW47*%
X244487500Y-126882500D03*
%TO.C,SW51*%
X247957301Y-150230739D03*
%TO.C,SW11*%
X250837500Y-72272500D03*
%TO.C,SW23*%
X250837500Y-91322500D03*
%TO.C,SW35*%
X250837500Y-110372500D03*
%TO.C,SW47*%
X250837500Y-129422500D03*
%TO.C,SW52*%
X261156250Y-143551250D03*
%TO.C,SW8*%
X263537500Y-64970000D03*
%TO.C,SW22*%
X263537500Y-84020000D03*
%TO.C,SW34*%
X263537500Y-103070000D03*
%TO.C,SW46*%
X263537500Y-122120000D03*
%TO.C,SW52*%
X267506250Y-146091250D03*
%TO.C,SW8*%
X269887500Y-67510000D03*
%TO.C,SW22*%
X269887500Y-86560000D03*
%TO.C,SW34*%
X269887500Y-105610000D03*
%TO.C,SW46*%
X269887500Y-124660000D03*
%TO.C,SW7*%
X282587500Y-69415000D03*
%TO.C,SW21*%
X282587500Y-88465000D03*
%TO.C,SW33*%
X282587500Y-107515000D03*
%TO.C,SW45*%
X282587500Y-126565000D03*
%TO.C,SW7*%
X288937500Y-71955000D03*
%TO.C,SW21*%
X288937500Y-91005000D03*
%TO.C,SW33*%
X288937500Y-110055000D03*
%TO.C,SW45*%
X288937500Y-129105000D03*
%TO.C,SW4*%
X301637500Y-74812500D03*
%TO.C,SW20*%
X301637500Y-93862500D03*
%TO.C,SW32*%
X301637500Y-112912500D03*
%TO.C,SW44*%
X301637500Y-131962500D03*
%TO.C,SW4*%
X307987500Y-77352500D03*
%TO.C,SW20*%
X307987500Y-96402500D03*
%TO.C,SW32*%
X307987500Y-115452500D03*
%TO.C,SW44*%
X307987500Y-134502500D03*
%TO.C,SW2*%
X320687500Y-79257500D03*
%TO.C,SW19*%
X320687500Y-98307500D03*
%TO.C,SW31*%
X320687500Y-117357500D03*
%TO.C,SW43*%
X320687500Y-136407500D03*
%TO.C,SW2*%
X327037500Y-81797500D03*
%TO.C,SW19*%
X327037500Y-100847500D03*
%TO.C,SW31*%
X327037500Y-119897500D03*
%TO.C,SW43*%
X327037500Y-138947500D03*
M02*
