M48
; DRILL file KiCad 10.0.3 date 2026-06-03T21:49:35
; FORMAT={-:-/ absolute / metric / decimal}
; #@! TF.CreationDate,2026-06-03T21:49:35+05:30
; #@! TF.GenerationSoftware,Kicad,Pcbnew,10.0.3
; #@! TF.FileFunction,NonPlated,1,2,NPTH
FMAT,2
METRIC
; #@! TA.AperFunction,NonPlated,NPTH,ComponentDrill
T1C0.500
; #@! TA.AperFunction,NonPlated,NPTH,ComponentDrill
T2C1.750
; #@! TA.AperFunction,NonPlated,NPTH,ComponentDrill
T3C3.200
; #@! TA.AperFunction,NonPlated,NPTH,ComponentDrill
T4C3.988
%
G90
G05
T1
X194.3Y-126.867
X194.3Y-127.617
X194.3Y-128.368
X194.4Y-110.517
X194.4Y-111.267
X194.4Y-112.017
X194.5Y-94.267
X194.5Y-95.017
X194.5Y-95.767
X195.8Y-126.867
X195.8Y-127.617
X195.8Y-128.368
X195.9Y-110.517
X195.9Y-111.267
X195.9Y-112.017
X196.0Y-94.267
X196.0Y-95.017
X196.0Y-95.767
T2
X62.959Y-85.311
X62.959Y-104.361
X62.959Y-123.411
X62.959Y-142.461
X73.119Y-85.311
X73.119Y-104.361
X73.119Y-123.411
X73.119Y-142.461
X82.009Y-80.549
X82.009Y-99.651
X82.009Y-118.649
X82.009Y-137.699
X92.169Y-80.549
X92.169Y-99.651
X92.169Y-118.649
X92.169Y-137.699
X101.059Y-76.104
X101.059Y-95.154
X101.059Y-114.204
X101.059Y-133.254
X111.219Y-76.104
X111.219Y-95.154
X111.219Y-114.204
X111.219Y-133.254
X120.109Y-71.341
X120.109Y-90.444
X120.109Y-109.441
X120.109Y-128.491
X122.49Y-149.605
X130.269Y-71.341
X130.269Y-90.444
X130.269Y-109.441
X130.269Y-128.491
X132.65Y-149.605
X139.159Y-75.786
X139.159Y-94.889
X139.159Y-113.886
X139.159Y-132.936
X141.617Y-153.168
X149.319Y-75.786
X149.319Y-94.889
X149.319Y-113.886
X149.319Y-132.936
X151.623Y-154.932
X158.209Y-80.549
X158.209Y-99.599
X158.209Y-118.649
X158.209Y-137.699
X160.896Y-157.075
X168.369Y-80.549
X168.369Y-99.599
X168.369Y-118.649
X168.369Y-137.699
X170.444Y-160.55
X220.823Y-159.894
X222.897Y-79.575
X222.897Y-98.625
X222.897Y-117.675
X222.897Y-136.725
X230.37Y-156.419
X233.057Y-79.575
X233.057Y-98.625
X233.057Y-117.675
X233.057Y-136.725
X239.643Y-154.276
X241.947Y-74.812
X241.947Y-93.862
X241.947Y-112.912
X241.947Y-131.963
X249.649Y-152.512
X252.107Y-74.812
X252.107Y-93.862
X252.107Y-112.912
X252.107Y-131.963
X258.616Y-148.631
X260.998Y-70.05
X260.998Y-89.1
X260.998Y-108.15
X260.998Y-127.2
X268.776Y-148.631
X271.157Y-70.05
X271.157Y-89.1
X271.157Y-108.15
X271.157Y-127.2
X280.048Y-74.495
X280.048Y-93.545
X280.048Y-112.595
X280.048Y-131.645
X290.207Y-74.495
X290.207Y-93.545
X290.207Y-112.595
X290.207Y-131.645
X299.097Y-79.892
X299.097Y-98.942
X299.097Y-117.992
X299.097Y-137.042
X309.257Y-79.892
X309.257Y-98.942
X309.257Y-117.992
X309.257Y-137.042
X318.147Y-84.337
X318.147Y-103.387
X318.147Y-122.438
X318.147Y-141.487
X328.308Y-84.337
X328.308Y-103.387
X328.308Y-122.438
X328.308Y-141.487
T3
X179.957Y-117.58
X184.72Y-129.486
X206.116Y-127.85
X210.879Y-115.944
T4
X68.039Y-85.311
X68.039Y-104.361
X68.039Y-123.411
X68.039Y-142.461
X87.089Y-80.549
X87.089Y-99.651
X87.089Y-118.649
X87.089Y-137.699
X106.139Y-76.104
X106.139Y-95.154
X106.139Y-114.204
X106.139Y-133.254
X125.189Y-71.341
X125.189Y-90.444
X125.189Y-109.441
X125.189Y-128.491
X127.57Y-149.605
X144.239Y-75.786
X144.239Y-94.889
X144.239Y-113.886
X144.239Y-132.936
X146.62Y-154.05
X163.289Y-80.549
X163.289Y-99.599
X163.289Y-118.649
X163.289Y-137.699
X165.67Y-158.812
X225.596Y-158.156
X227.977Y-79.575
X227.977Y-98.625
X227.977Y-117.675
X227.977Y-136.725
X244.646Y-153.394
X247.027Y-74.812
X247.027Y-93.862
X247.027Y-112.912
X247.027Y-131.963
X263.696Y-148.631
X266.077Y-70.05
X266.077Y-89.1
X266.077Y-108.15
X266.077Y-127.2
X285.127Y-74.495
X285.127Y-93.545
X285.127Y-112.595
X285.127Y-131.645
X304.178Y-79.892
X304.178Y-98.942
X304.178Y-117.992
X304.178Y-137.042
X323.227Y-84.337
X323.227Y-103.387
X323.227Y-122.438
X323.227Y-141.487
M30
