%TF.GenerationSoftware,KiCad,Pcbnew,10.0.3*%
%TF.CreationDate,2026-06-04T12:35:39+05:30*%
%TF.ProjectId,ArxKey,4172784b-6579-42e6-9b69-6361645f7063,rev?*%
%TF.SameCoordinates,Original*%
%TF.FileFunction,Drillmap*%
%TF.FilePolarity,Positive*%
%FSLAX45Y45*%
G04 Gerber Fmt 4.5, Leading zero omitted, Abs format (unit mm)*
G04 Created by KiCad (PCBNEW 10.0.3) date 2026-06-04 12:35:39*
%MOMM*%
%LPD*%
G01*
G04 APERTURE LIST*
%ADD10C,0.050000*%
%ADD11C,0.200000*%
%ADD12C,0.100000*%
%ADD13C,0.175000*%
%ADD14C,0.320000*%
%ADD15C,0.398780*%
G04 APERTURE END LIST*
D10*
X5442375Y-7381750D02*
X7357375Y-7381750D01*
X5449375Y-15377750D02*
X5442375Y-7381750D01*
X5449375Y-15377750D02*
X7880375Y-15392750D01*
X7357375Y-7381750D02*
X8659375Y-5735750D01*
X7876375Y-14896750D02*
X7880375Y-15392750D01*
X10026375Y-14546750D02*
X10026375Y-14896750D01*
X10026375Y-14896750D02*
X7876375Y-14896750D01*
X11479375Y-14546750D02*
X10026375Y-14546750D01*
X11479375Y-16034750D02*
X11479375Y-14546750D01*
X13267375Y-16309750D02*
X11479375Y-16034750D01*
X15399375Y-16791750D02*
X13267375Y-16309750D01*
X15399375Y-16791750D02*
X17052000Y-17410750D01*
X17991375Y-15300750D02*
X17052000Y-17410750D01*
X18267375Y-5713750D02*
X8659375Y-5735750D01*
X19389375Y-14452750D02*
X17991375Y-15300750D01*
X19437375Y-7065750D02*
X18267375Y-5713750D01*
X19437375Y-7065750D02*
X19440000Y-9426750D01*
X19437375Y-14096750D02*
X19389375Y-14452750D01*
X19440000Y-9426750D02*
X19605000Y-9426750D01*
X19440000Y-9581750D02*
X19440000Y-11051750D01*
X19440000Y-9581750D02*
X19605000Y-9581750D01*
X19440000Y-11051750D02*
X19605000Y-11051750D01*
X19440000Y-11201750D02*
X19440000Y-12686750D01*
X19440000Y-11201750D02*
X19595000Y-11201750D01*
X19440000Y-12686750D02*
X19595000Y-12686750D01*
X19440000Y-12836750D02*
X19437375Y-14096750D01*
X19440000Y-12836750D02*
X19590000Y-12836750D01*
X19590000Y-12836750D02*
X19587875Y-14560750D01*
X19595000Y-11201750D02*
X19595000Y-12686750D01*
X19605000Y-9581750D02*
X19605000Y-11051750D01*
X19611750Y-7042500D02*
X19605000Y-9426750D01*
X20646750Y-5811500D02*
X19611750Y-7042500D01*
X21125750Y-15251500D02*
X19587875Y-14560750D01*
X21125750Y-15251500D02*
X21904750Y-17384500D01*
X21904750Y-17384500D02*
X23853750Y-16604500D01*
X23853750Y-16604500D02*
X25629750Y-16278500D01*
X25629750Y-16278500D02*
X27548750Y-15860500D01*
X27548750Y-14209500D02*
X29380750Y-14209500D01*
X27548750Y-15860500D02*
X27548750Y-14209500D01*
X29380750Y-14209500D02*
X29380750Y-14733500D01*
X29380750Y-14733500D02*
X31296750Y-14733500D01*
X30484750Y-5811500D02*
X20646750Y-5811500D01*
X31296750Y-14733500D02*
X31296750Y-15212500D01*
X31296750Y-15212500D02*
X33488750Y-15212500D01*
X32043750Y-7218500D02*
X30484750Y-5811500D01*
X33488750Y-7218500D02*
X32043750Y-7218500D01*
X33488750Y-15212500D02*
X33488750Y-7218500D01*
D11*
D12*
X19405000Y-12661750D02*
X19455000Y-12711750D01*
X19455000Y-12661750D02*
X19405000Y-12711750D01*
X19405000Y-12736750D02*
X19455000Y-12786750D01*
X19455000Y-12736750D02*
X19405000Y-12786750D01*
X19405000Y-12811750D02*
X19455000Y-12861750D01*
X19455000Y-12811750D02*
X19405000Y-12861750D01*
X19415000Y-11026750D02*
X19465000Y-11076750D01*
X19465000Y-11026750D02*
X19415000Y-11076750D01*
X19415000Y-11101750D02*
X19465000Y-11151750D01*
X19465000Y-11101750D02*
X19415000Y-11151750D01*
X19415000Y-11176750D02*
X19465000Y-11226750D01*
X19465000Y-11176750D02*
X19415000Y-11226750D01*
X19425000Y-9401750D02*
X19475000Y-9451750D01*
X19475000Y-9401750D02*
X19425000Y-9451750D01*
X19425000Y-9476750D02*
X19475000Y-9526750D01*
X19475000Y-9476750D02*
X19425000Y-9526750D01*
X19425000Y-9551750D02*
X19475000Y-9601750D01*
X19475000Y-9551750D02*
X19425000Y-9601750D01*
X19555000Y-12661750D02*
X19605000Y-12711750D01*
X19605000Y-12661750D02*
X19555000Y-12711750D01*
X19555000Y-12736750D02*
X19605000Y-12786750D01*
X19605000Y-12736750D02*
X19555000Y-12786750D01*
X19555000Y-12811750D02*
X19605000Y-12861750D01*
X19605000Y-12811750D02*
X19555000Y-12861750D01*
X19565000Y-11026750D02*
X19615000Y-11076750D01*
X19615000Y-11026750D02*
X19565000Y-11076750D01*
X19565000Y-11101750D02*
X19615000Y-11151750D01*
X19615000Y-11101750D02*
X19565000Y-11151750D01*
X19565000Y-11176750D02*
X19615000Y-11226750D01*
X19615000Y-11176750D02*
X19565000Y-11226750D01*
X19575000Y-9401750D02*
X19625000Y-9451750D01*
X19625000Y-9401750D02*
X19575000Y-9451750D01*
X19575000Y-9476750D02*
X19625000Y-9526750D01*
X19625000Y-9476750D02*
X19575000Y-9526750D01*
X19575000Y-9551750D02*
X19625000Y-9601750D01*
X19625000Y-9551750D02*
X19575000Y-9601750D01*
D13*
X6383375Y-8531125D02*
G75*
G02*
X6208375Y-8531125I-87500J0D01*
G01*
X6208375Y-8531125D02*
G75*
G02*
X6383375Y-8531125I87500J0D01*
G01*
X6383375Y-10436125D02*
G75*
G02*
X6208375Y-10436125I-87500J0D01*
G01*
X6208375Y-10436125D02*
G75*
G02*
X6383375Y-10436125I87500J0D01*
G01*
X6383375Y-12341125D02*
G75*
G02*
X6208375Y-12341125I-87500J0D01*
G01*
X6208375Y-12341125D02*
G75*
G02*
X6383375Y-12341125I87500J0D01*
G01*
X6383375Y-14246125D02*
G75*
G02*
X6208375Y-14246125I-87500J0D01*
G01*
X6208375Y-14246125D02*
G75*
G02*
X6383375Y-14246125I87500J0D01*
G01*
X7399375Y-8531125D02*
G75*
G02*
X7224375Y-8531125I-87500J0D01*
G01*
X7224375Y-8531125D02*
G75*
G02*
X7399375Y-8531125I87500J0D01*
G01*
X7399375Y-10436125D02*
G75*
G02*
X7224375Y-10436125I-87500J0D01*
G01*
X7224375Y-10436125D02*
G75*
G02*
X7399375Y-10436125I87500J0D01*
G01*
X7399375Y-12341125D02*
G75*
G02*
X7224375Y-12341125I-87500J0D01*
G01*
X7224375Y-12341125D02*
G75*
G02*
X7399375Y-12341125I87500J0D01*
G01*
X7399375Y-14246125D02*
G75*
G02*
X7224375Y-14246125I-87500J0D01*
G01*
X7224375Y-14246125D02*
G75*
G02*
X7399375Y-14246125I87500J0D01*
G01*
X8288375Y-8054875D02*
G75*
G02*
X8113375Y-8054875I-87500J0D01*
G01*
X8113375Y-8054875D02*
G75*
G02*
X8288375Y-8054875I87500J0D01*
G01*
X8288375Y-9965125D02*
G75*
G02*
X8113375Y-9965125I-87500J0D01*
G01*
X8113375Y-9965125D02*
G75*
G02*
X8288375Y-9965125I87500J0D01*
G01*
X8288375Y-11864875D02*
G75*
G02*
X8113375Y-11864875I-87500J0D01*
G01*
X8113375Y-11864875D02*
G75*
G02*
X8288375Y-11864875I87500J0D01*
G01*
X8288375Y-13769875D02*
G75*
G02*
X8113375Y-13769875I-87500J0D01*
G01*
X8113375Y-13769875D02*
G75*
G02*
X8288375Y-13769875I87500J0D01*
G01*
X9304375Y-8054875D02*
G75*
G02*
X9129375Y-8054875I-87500J0D01*
G01*
X9129375Y-8054875D02*
G75*
G02*
X9304375Y-8054875I87500J0D01*
G01*
X9304375Y-9965125D02*
G75*
G02*
X9129375Y-9965125I-87500J0D01*
G01*
X9129375Y-9965125D02*
G75*
G02*
X9304375Y-9965125I87500J0D01*
G01*
X9304375Y-11864875D02*
G75*
G02*
X9129375Y-11864875I-87500J0D01*
G01*
X9129375Y-11864875D02*
G75*
G02*
X9304375Y-11864875I87500J0D01*
G01*
X9304375Y-13769875D02*
G75*
G02*
X9129375Y-13769875I-87500J0D01*
G01*
X9129375Y-13769875D02*
G75*
G02*
X9304375Y-13769875I87500J0D01*
G01*
X10193375Y-7610375D02*
G75*
G02*
X10018375Y-7610375I-87500J0D01*
G01*
X10018375Y-7610375D02*
G75*
G02*
X10193375Y-7610375I87500J0D01*
G01*
X10193375Y-9515375D02*
G75*
G02*
X10018375Y-9515375I-87500J0D01*
G01*
X10018375Y-9515375D02*
G75*
G02*
X10193375Y-9515375I87500J0D01*
G01*
X10193375Y-11420375D02*
G75*
G02*
X10018375Y-11420375I-87500J0D01*
G01*
X10018375Y-11420375D02*
G75*
G02*
X10193375Y-11420375I87500J0D01*
G01*
X10193375Y-13325375D02*
G75*
G02*
X10018375Y-13325375I-87500J0D01*
G01*
X10018375Y-13325375D02*
G75*
G02*
X10193375Y-13325375I87500J0D01*
G01*
X11209375Y-7610375D02*
G75*
G02*
X11034375Y-7610375I-87500J0D01*
G01*
X11034375Y-7610375D02*
G75*
G02*
X11209375Y-7610375I87500J0D01*
G01*
X11209375Y-9515375D02*
G75*
G02*
X11034375Y-9515375I-87500J0D01*
G01*
X11034375Y-9515375D02*
G75*
G02*
X11209375Y-9515375I87500J0D01*
G01*
X11209375Y-11420375D02*
G75*
G02*
X11034375Y-11420375I-87500J0D01*
G01*
X11034375Y-11420375D02*
G75*
G02*
X11209375Y-11420375I87500J0D01*
G01*
X11209375Y-13325375D02*
G75*
G02*
X11034375Y-13325375I-87500J0D01*
G01*
X11034375Y-13325375D02*
G75*
G02*
X11209375Y-13325375I87500J0D01*
G01*
X12098375Y-7134125D02*
G75*
G02*
X11923375Y-7134125I-87500J0D01*
G01*
X11923375Y-7134125D02*
G75*
G02*
X12098375Y-7134125I87500J0D01*
G01*
X12098375Y-9044375D02*
G75*
G02*
X11923375Y-9044375I-87500J0D01*
G01*
X11923375Y-9044375D02*
G75*
G02*
X12098375Y-9044375I87500J0D01*
G01*
X12098375Y-10944125D02*
G75*
G02*
X11923375Y-10944125I-87500J0D01*
G01*
X11923375Y-10944125D02*
G75*
G02*
X12098375Y-10944125I87500J0D01*
G01*
X12098375Y-12849125D02*
G75*
G02*
X11923375Y-12849125I-87500J0D01*
G01*
X11923375Y-12849125D02*
G75*
G02*
X12098375Y-12849125I87500J0D01*
G01*
X12336500Y-14960500D02*
G75*
G02*
X12161500Y-14960500I-87500J0D01*
G01*
X12161500Y-14960500D02*
G75*
G02*
X12336500Y-14960500I87500J0D01*
G01*
X13114375Y-7134125D02*
G75*
G02*
X12939375Y-7134125I-87500J0D01*
G01*
X12939375Y-7134125D02*
G75*
G02*
X13114375Y-7134125I87500J0D01*
G01*
X13114375Y-9044375D02*
G75*
G02*
X12939375Y-9044375I-87500J0D01*
G01*
X12939375Y-9044375D02*
G75*
G02*
X13114375Y-9044375I87500J0D01*
G01*
X13114375Y-10944125D02*
G75*
G02*
X12939375Y-10944125I-87500J0D01*
G01*
X12939375Y-10944125D02*
G75*
G02*
X13114375Y-10944125I87500J0D01*
G01*
X13114375Y-12849125D02*
G75*
G02*
X12939375Y-12849125I-87500J0D01*
G01*
X12939375Y-12849125D02*
G75*
G02*
X13114375Y-12849125I87500J0D01*
G01*
X13352500Y-14960500D02*
G75*
G02*
X13177500Y-14960500I-87500J0D01*
G01*
X13177500Y-14960500D02*
G75*
G02*
X13352500Y-14960500I87500J0D01*
G01*
X14003375Y-7578625D02*
G75*
G02*
X13828375Y-7578625I-87500J0D01*
G01*
X13828375Y-7578625D02*
G75*
G02*
X14003375Y-7578625I87500J0D01*
G01*
X14003375Y-9488875D02*
G75*
G02*
X13828375Y-9488875I-87500J0D01*
G01*
X13828375Y-9488875D02*
G75*
G02*
X14003375Y-9488875I87500J0D01*
G01*
X14003375Y-11388625D02*
G75*
G02*
X13828375Y-11388625I-87500J0D01*
G01*
X13828375Y-11388625D02*
G75*
G02*
X14003375Y-11388625I87500J0D01*
G01*
X14003375Y-13293625D02*
G75*
G02*
X13828375Y-13293625I-87500J0D01*
G01*
X13828375Y-13293625D02*
G75*
G02*
X14003375Y-13293625I87500J0D01*
G01*
X14249218Y-15316787D02*
G75*
G02*
X14074218Y-15316787I-87500J0D01*
G01*
X14074218Y-15316787D02*
G75*
G02*
X14249218Y-15316787I87500J0D01*
G01*
X15019375Y-7578625D02*
G75*
G02*
X14844375Y-7578625I-87500J0D01*
G01*
X14844375Y-7578625D02*
G75*
G02*
X15019375Y-7578625I87500J0D01*
G01*
X15019375Y-9488875D02*
G75*
G02*
X14844375Y-9488875I-87500J0D01*
G01*
X14844375Y-9488875D02*
G75*
G02*
X15019375Y-9488875I87500J0D01*
G01*
X15019375Y-11388625D02*
G75*
G02*
X14844375Y-11388625I-87500J0D01*
G01*
X14844375Y-11388625D02*
G75*
G02*
X15019375Y-11388625I87500J0D01*
G01*
X15019375Y-13293625D02*
G75*
G02*
X14844375Y-13293625I-87500J0D01*
G01*
X14844375Y-13293625D02*
G75*
G02*
X15019375Y-13293625I87500J0D01*
G01*
X15249782Y-15493213D02*
G75*
G02*
X15074782Y-15493213I-87500J0D01*
G01*
X15074782Y-15493213D02*
G75*
G02*
X15249782Y-15493213I87500J0D01*
G01*
X15908375Y-8054875D02*
G75*
G02*
X15733375Y-8054875I-87500J0D01*
G01*
X15733375Y-8054875D02*
G75*
G02*
X15908375Y-8054875I87500J0D01*
G01*
X15908375Y-9959875D02*
G75*
G02*
X15733375Y-9959875I-87500J0D01*
G01*
X15733375Y-9959875D02*
G75*
G02*
X15908375Y-9959875I87500J0D01*
G01*
X15908375Y-11864875D02*
G75*
G02*
X15733375Y-11864875I-87500J0D01*
G01*
X15733375Y-11864875D02*
G75*
G02*
X15908375Y-11864875I87500J0D01*
G01*
X15908375Y-13769875D02*
G75*
G02*
X15733375Y-13769875I-87500J0D01*
G01*
X15733375Y-13769875D02*
G75*
G02*
X15908375Y-13769875I87500J0D01*
G01*
X16177136Y-15707504D02*
G75*
G02*
X16002136Y-15707504I-87500J0D01*
G01*
X16002136Y-15707504D02*
G75*
G02*
X16177136Y-15707504I87500J0D01*
G01*
X16924375Y-8054875D02*
G75*
G02*
X16749375Y-8054875I-87500J0D01*
G01*
X16749375Y-8054875D02*
G75*
G02*
X16924375Y-8054875I87500J0D01*
G01*
X16924375Y-9959875D02*
G75*
G02*
X16749375Y-9959875I-87500J0D01*
G01*
X16749375Y-9959875D02*
G75*
G02*
X16924375Y-9959875I87500J0D01*
G01*
X16924375Y-11864875D02*
G75*
G02*
X16749375Y-11864875I-87500J0D01*
G01*
X16749375Y-11864875D02*
G75*
G02*
X16924375Y-11864875I87500J0D01*
G01*
X16924375Y-13769875D02*
G75*
G02*
X16749375Y-13769875I-87500J0D01*
G01*
X16749375Y-13769875D02*
G75*
G02*
X16924375Y-13769875I87500J0D01*
G01*
X17131864Y-16054996D02*
G75*
G02*
X16956864Y-16054996I-87500J0D01*
G01*
X16956864Y-16054996D02*
G75*
G02*
X17131864Y-16054996I87500J0D01*
G01*
X22169761Y-15989371D02*
G75*
G02*
X21994761Y-15989371I-87500J0D01*
G01*
X21994761Y-15989371D02*
G75*
G02*
X22169761Y-15989371I87500J0D01*
G01*
X22377250Y-7957500D02*
G75*
G02*
X22202250Y-7957500I-87500J0D01*
G01*
X22202250Y-7957500D02*
G75*
G02*
X22377250Y-7957500I87500J0D01*
G01*
X22377250Y-9862500D02*
G75*
G02*
X22202250Y-9862500I-87500J0D01*
G01*
X22202250Y-9862500D02*
G75*
G02*
X22377250Y-9862500I87500J0D01*
G01*
X22377250Y-11767500D02*
G75*
G02*
X22202250Y-11767500I-87500J0D01*
G01*
X22202250Y-11767500D02*
G75*
G02*
X22377250Y-11767500I87500J0D01*
G01*
X22377250Y-13672500D02*
G75*
G02*
X22202250Y-13672500I-87500J0D01*
G01*
X22202250Y-13672500D02*
G75*
G02*
X22377250Y-13672500I87500J0D01*
G01*
X23124489Y-15641879D02*
G75*
G02*
X22949489Y-15641879I-87500J0D01*
G01*
X22949489Y-15641879D02*
G75*
G02*
X23124489Y-15641879I87500J0D01*
G01*
X23393250Y-7957500D02*
G75*
G02*
X23218250Y-7957500I-87500J0D01*
G01*
X23218250Y-7957500D02*
G75*
G02*
X23393250Y-7957500I87500J0D01*
G01*
X23393250Y-9862500D02*
G75*
G02*
X23218250Y-9862500I-87500J0D01*
G01*
X23218250Y-9862500D02*
G75*
G02*
X23393250Y-9862500I87500J0D01*
G01*
X23393250Y-11767500D02*
G75*
G02*
X23218250Y-11767500I-87500J0D01*
G01*
X23218250Y-11767500D02*
G75*
G02*
X23393250Y-11767500I87500J0D01*
G01*
X23393250Y-13672500D02*
G75*
G02*
X23218250Y-13672500I-87500J0D01*
G01*
X23218250Y-13672500D02*
G75*
G02*
X23393250Y-13672500I87500J0D01*
G01*
X24051843Y-15427588D02*
G75*
G02*
X23876843Y-15427588I-87500J0D01*
G01*
X23876843Y-15427588D02*
G75*
G02*
X24051843Y-15427588I87500J0D01*
G01*
X24282250Y-7481250D02*
G75*
G02*
X24107250Y-7481250I-87500J0D01*
G01*
X24107250Y-7481250D02*
G75*
G02*
X24282250Y-7481250I87500J0D01*
G01*
X24282250Y-9386250D02*
G75*
G02*
X24107250Y-9386250I-87500J0D01*
G01*
X24107250Y-9386250D02*
G75*
G02*
X24282250Y-9386250I87500J0D01*
G01*
X24282250Y-11291250D02*
G75*
G02*
X24107250Y-11291250I-87500J0D01*
G01*
X24107250Y-11291250D02*
G75*
G02*
X24282250Y-11291250I87500J0D01*
G01*
X24282250Y-13196250D02*
G75*
G02*
X24107250Y-13196250I-87500J0D01*
G01*
X24107250Y-13196250D02*
G75*
G02*
X24282250Y-13196250I87500J0D01*
G01*
X25052407Y-15251162D02*
G75*
G02*
X24877407Y-15251162I-87500J0D01*
G01*
X24877407Y-15251162D02*
G75*
G02*
X25052407Y-15251162I87500J0D01*
G01*
X25298250Y-7481250D02*
G75*
G02*
X25123250Y-7481250I-87500J0D01*
G01*
X25123250Y-7481250D02*
G75*
G02*
X25298250Y-7481250I87500J0D01*
G01*
X25298250Y-9386250D02*
G75*
G02*
X25123250Y-9386250I-87500J0D01*
G01*
X25123250Y-9386250D02*
G75*
G02*
X25298250Y-9386250I87500J0D01*
G01*
X25298250Y-11291250D02*
G75*
G02*
X25123250Y-11291250I-87500J0D01*
G01*
X25123250Y-11291250D02*
G75*
G02*
X25298250Y-11291250I87500J0D01*
G01*
X25298250Y-13196250D02*
G75*
G02*
X25123250Y-13196250I-87500J0D01*
G01*
X25123250Y-13196250D02*
G75*
G02*
X25298250Y-13196250I87500J0D01*
G01*
X25949125Y-14863125D02*
G75*
G02*
X25774125Y-14863125I-87500J0D01*
G01*
X25774125Y-14863125D02*
G75*
G02*
X25949125Y-14863125I87500J0D01*
G01*
X26187250Y-7005000D02*
G75*
G02*
X26012250Y-7005000I-87500J0D01*
G01*
X26012250Y-7005000D02*
G75*
G02*
X26187250Y-7005000I87500J0D01*
G01*
X26187250Y-8910000D02*
G75*
G02*
X26012250Y-8910000I-87500J0D01*
G01*
X26012250Y-8910000D02*
G75*
G02*
X26187250Y-8910000I87500J0D01*
G01*
X26187250Y-10815000D02*
G75*
G02*
X26012250Y-10815000I-87500J0D01*
G01*
X26012250Y-10815000D02*
G75*
G02*
X26187250Y-10815000I87500J0D01*
G01*
X26187250Y-12720000D02*
G75*
G02*
X26012250Y-12720000I-87500J0D01*
G01*
X26012250Y-12720000D02*
G75*
G02*
X26187250Y-12720000I87500J0D01*
G01*
X26965125Y-14863125D02*
G75*
G02*
X26790125Y-14863125I-87500J0D01*
G01*
X26790125Y-14863125D02*
G75*
G02*
X26965125Y-14863125I87500J0D01*
G01*
X27203250Y-7005000D02*
G75*
G02*
X27028250Y-7005000I-87500J0D01*
G01*
X27028250Y-7005000D02*
G75*
G02*
X27203250Y-7005000I87500J0D01*
G01*
X27203250Y-8910000D02*
G75*
G02*
X27028250Y-8910000I-87500J0D01*
G01*
X27028250Y-8910000D02*
G75*
G02*
X27203250Y-8910000I87500J0D01*
G01*
X27203250Y-10815000D02*
G75*
G02*
X27028250Y-10815000I-87500J0D01*
G01*
X27028250Y-10815000D02*
G75*
G02*
X27203250Y-10815000I87500J0D01*
G01*
X27203250Y-12720000D02*
G75*
G02*
X27028250Y-12720000I-87500J0D01*
G01*
X27028250Y-12720000D02*
G75*
G02*
X27203250Y-12720000I87500J0D01*
G01*
X28092250Y-7449500D02*
G75*
G02*
X27917250Y-7449500I-87500J0D01*
G01*
X27917250Y-7449500D02*
G75*
G02*
X28092250Y-7449500I87500J0D01*
G01*
X28092250Y-9354500D02*
G75*
G02*
X27917250Y-9354500I-87500J0D01*
G01*
X27917250Y-9354500D02*
G75*
G02*
X28092250Y-9354500I87500J0D01*
G01*
X28092250Y-11259500D02*
G75*
G02*
X27917250Y-11259500I-87500J0D01*
G01*
X27917250Y-11259500D02*
G75*
G02*
X28092250Y-11259500I87500J0D01*
G01*
X28092250Y-13164500D02*
G75*
G02*
X27917250Y-13164500I-87500J0D01*
G01*
X27917250Y-13164500D02*
G75*
G02*
X28092250Y-13164500I87500J0D01*
G01*
X29108250Y-7449500D02*
G75*
G02*
X28933250Y-7449500I-87500J0D01*
G01*
X28933250Y-7449500D02*
G75*
G02*
X29108250Y-7449500I87500J0D01*
G01*
X29108250Y-9354500D02*
G75*
G02*
X28933250Y-9354500I-87500J0D01*
G01*
X28933250Y-9354500D02*
G75*
G02*
X29108250Y-9354500I87500J0D01*
G01*
X29108250Y-11259500D02*
G75*
G02*
X28933250Y-11259500I-87500J0D01*
G01*
X28933250Y-11259500D02*
G75*
G02*
X29108250Y-11259500I87500J0D01*
G01*
X29108250Y-13164500D02*
G75*
G02*
X28933250Y-13164500I-87500J0D01*
G01*
X28933250Y-13164500D02*
G75*
G02*
X29108250Y-13164500I87500J0D01*
G01*
X29997250Y-7989250D02*
G75*
G02*
X29822250Y-7989250I-87500J0D01*
G01*
X29822250Y-7989250D02*
G75*
G02*
X29997250Y-7989250I87500J0D01*
G01*
X29997250Y-9894250D02*
G75*
G02*
X29822250Y-9894250I-87500J0D01*
G01*
X29822250Y-9894250D02*
G75*
G02*
X29997250Y-9894250I87500J0D01*
G01*
X29997250Y-11799250D02*
G75*
G02*
X29822250Y-11799250I-87500J0D01*
G01*
X29822250Y-11799250D02*
G75*
G02*
X29997250Y-11799250I87500J0D01*
G01*
X29997250Y-13704250D02*
G75*
G02*
X29822250Y-13704250I-87500J0D01*
G01*
X29822250Y-13704250D02*
G75*
G02*
X29997250Y-13704250I87500J0D01*
G01*
X31013250Y-7989250D02*
G75*
G02*
X30838250Y-7989250I-87500J0D01*
G01*
X30838250Y-7989250D02*
G75*
G02*
X31013250Y-7989250I87500J0D01*
G01*
X31013250Y-9894250D02*
G75*
G02*
X30838250Y-9894250I-87500J0D01*
G01*
X30838250Y-9894250D02*
G75*
G02*
X31013250Y-9894250I87500J0D01*
G01*
X31013250Y-11799250D02*
G75*
G02*
X30838250Y-11799250I-87500J0D01*
G01*
X30838250Y-11799250D02*
G75*
G02*
X31013250Y-11799250I87500J0D01*
G01*
X31013250Y-13704250D02*
G75*
G02*
X30838250Y-13704250I-87500J0D01*
G01*
X30838250Y-13704250D02*
G75*
G02*
X31013250Y-13704250I87500J0D01*
G01*
X31902250Y-8433750D02*
G75*
G02*
X31727250Y-8433750I-87500J0D01*
G01*
X31727250Y-8433750D02*
G75*
G02*
X31902250Y-8433750I87500J0D01*
G01*
X31902250Y-10338750D02*
G75*
G02*
X31727250Y-10338750I-87500J0D01*
G01*
X31727250Y-10338750D02*
G75*
G02*
X31902250Y-10338750I87500J0D01*
G01*
X31902250Y-12243750D02*
G75*
G02*
X31727250Y-12243750I-87500J0D01*
G01*
X31727250Y-12243750D02*
G75*
G02*
X31902250Y-12243750I87500J0D01*
G01*
X31902250Y-14148750D02*
G75*
G02*
X31727250Y-14148750I-87500J0D01*
G01*
X31727250Y-14148750D02*
G75*
G02*
X31902250Y-14148750I87500J0D01*
G01*
X32918250Y-8433750D02*
G75*
G02*
X32743250Y-8433750I-87500J0D01*
G01*
X32743250Y-8433750D02*
G75*
G02*
X32918250Y-8433750I87500J0D01*
G01*
X32918250Y-10338750D02*
G75*
G02*
X32743250Y-10338750I-87500J0D01*
G01*
X32743250Y-10338750D02*
G75*
G02*
X32918250Y-10338750I87500J0D01*
G01*
X32918250Y-12243750D02*
G75*
G02*
X32743250Y-12243750I-87500J0D01*
G01*
X32743250Y-12243750D02*
G75*
G02*
X32918250Y-12243750I87500J0D01*
G01*
X32918250Y-14148750D02*
G75*
G02*
X32743250Y-14148750I-87500J0D01*
G01*
X32743250Y-14148750D02*
G75*
G02*
X32918250Y-14148750I87500J0D01*
G01*
D14*
X17995750Y-11598000D02*
X17995750Y-11918000D01*
X17835750Y-11758000D02*
X18155750Y-11758000D01*
X18472000Y-12788625D02*
X18472000Y-13108625D01*
X18312000Y-12948625D02*
X18632000Y-12948625D01*
X20611625Y-12625000D02*
X20611625Y-12945000D01*
X20451625Y-12785000D02*
X20771625Y-12785000D01*
X21087875Y-11434375D02*
X21087875Y-11754375D01*
X20927875Y-11594375D02*
X21247875Y-11594375D01*
D15*
X6944866Y-8672116D02*
X6944866Y-8390134D01*
X6662884Y-8390134D01*
X6662884Y-8672116D01*
X6944866Y-8672116D01*
X6944866Y-10577116D02*
X6944866Y-10295134D01*
X6662884Y-10295134D01*
X6662884Y-10577116D01*
X6944866Y-10577116D01*
X6944866Y-12482116D02*
X6944866Y-12200134D01*
X6662884Y-12200134D01*
X6662884Y-12482116D01*
X6944866Y-12482116D01*
X6944866Y-14387116D02*
X6944866Y-14105134D01*
X6662884Y-14105134D01*
X6662884Y-14387116D01*
X6944866Y-14387116D01*
X8849866Y-8195866D02*
X8849866Y-7913884D01*
X8567884Y-7913884D01*
X8567884Y-8195866D01*
X8849866Y-8195866D01*
X8849866Y-10106116D02*
X8849866Y-9824134D01*
X8567884Y-9824134D01*
X8567884Y-10106116D01*
X8849866Y-10106116D01*
X8849866Y-12005866D02*
X8849866Y-11723884D01*
X8567884Y-11723884D01*
X8567884Y-12005866D01*
X8849866Y-12005866D01*
X8849866Y-13910866D02*
X8849866Y-13628884D01*
X8567884Y-13628884D01*
X8567884Y-13910866D01*
X8849866Y-13910866D01*
X10754866Y-7751366D02*
X10754866Y-7469384D01*
X10472884Y-7469384D01*
X10472884Y-7751366D01*
X10754866Y-7751366D01*
X10754866Y-9656366D02*
X10754866Y-9374384D01*
X10472884Y-9374384D01*
X10472884Y-9656366D01*
X10754866Y-9656366D01*
X10754866Y-11561366D02*
X10754866Y-11279384D01*
X10472884Y-11279384D01*
X10472884Y-11561366D01*
X10754866Y-11561366D01*
X10754866Y-13466366D02*
X10754866Y-13184384D01*
X10472884Y-13184384D01*
X10472884Y-13466366D01*
X10754866Y-13466366D01*
X12659866Y-7275116D02*
X12659866Y-6993134D01*
X12377884Y-6993134D01*
X12377884Y-7275116D01*
X12659866Y-7275116D01*
X12659866Y-9185366D02*
X12659866Y-8903384D01*
X12377884Y-8903384D01*
X12377884Y-9185366D01*
X12659866Y-9185366D01*
X12659866Y-11085116D02*
X12659866Y-10803134D01*
X12377884Y-10803134D01*
X12377884Y-11085116D01*
X12659866Y-11085116D01*
X12659866Y-12990116D02*
X12659866Y-12708134D01*
X12377884Y-12708134D01*
X12377884Y-12990116D01*
X12659866Y-12990116D01*
X12897991Y-15101491D02*
X12897991Y-14819509D01*
X12616009Y-14819509D01*
X12616009Y-15101491D01*
X12897991Y-15101491D01*
X14564866Y-7719616D02*
X14564866Y-7437634D01*
X14282884Y-7437634D01*
X14282884Y-7719616D01*
X14564866Y-7719616D01*
X14564866Y-9629866D02*
X14564866Y-9347884D01*
X14282884Y-9347884D01*
X14282884Y-9629866D01*
X14564866Y-9629866D01*
X14564866Y-11529616D02*
X14564866Y-11247634D01*
X14282884Y-11247634D01*
X14282884Y-11529616D01*
X14564866Y-11529616D01*
X14564866Y-13434616D02*
X14564866Y-13152634D01*
X14282884Y-13152634D01*
X14282884Y-13434616D01*
X14564866Y-13434616D01*
X14802991Y-15545991D02*
X14802991Y-15264009D01*
X14521009Y-15264009D01*
X14521009Y-15545991D01*
X14802991Y-15545991D01*
X16469866Y-8195866D02*
X16469866Y-7913884D01*
X16187884Y-7913884D01*
X16187884Y-8195866D01*
X16469866Y-8195866D01*
X16469866Y-10100866D02*
X16469866Y-9818884D01*
X16187884Y-9818884D01*
X16187884Y-10100866D01*
X16469866Y-10100866D01*
X16469866Y-12005866D02*
X16469866Y-11723884D01*
X16187884Y-11723884D01*
X16187884Y-12005866D01*
X16469866Y-12005866D01*
X16469866Y-13910866D02*
X16469866Y-13628884D01*
X16187884Y-13628884D01*
X16187884Y-13910866D01*
X16469866Y-13910866D01*
X16707991Y-16022241D02*
X16707991Y-15740259D01*
X16426009Y-15740259D01*
X16426009Y-16022241D01*
X16707991Y-16022241D01*
X22700616Y-15956616D02*
X22700616Y-15674634D01*
X22418634Y-15674634D01*
X22418634Y-15956616D01*
X22700616Y-15956616D01*
X22938741Y-8098491D02*
X22938741Y-7816509D01*
X22656759Y-7816509D01*
X22656759Y-8098491D01*
X22938741Y-8098491D01*
X22938741Y-10003491D02*
X22938741Y-9721509D01*
X22656759Y-9721509D01*
X22656759Y-10003491D01*
X22938741Y-10003491D01*
X22938741Y-11908491D02*
X22938741Y-11626509D01*
X22656759Y-11626509D01*
X22656759Y-11908491D01*
X22938741Y-11908491D01*
X22938741Y-13813491D02*
X22938741Y-13531509D01*
X22656759Y-13531509D01*
X22656759Y-13813491D01*
X22938741Y-13813491D01*
X24605616Y-15480366D02*
X24605616Y-15198384D01*
X24323634Y-15198384D01*
X24323634Y-15480366D01*
X24605616Y-15480366D01*
X24843741Y-7622241D02*
X24843741Y-7340259D01*
X24561759Y-7340259D01*
X24561759Y-7622241D01*
X24843741Y-7622241D01*
X24843741Y-9527241D02*
X24843741Y-9245259D01*
X24561759Y-9245259D01*
X24561759Y-9527241D01*
X24843741Y-9527241D01*
X24843741Y-11432241D02*
X24843741Y-11150259D01*
X24561759Y-11150259D01*
X24561759Y-11432241D01*
X24843741Y-11432241D01*
X24843741Y-13337241D02*
X24843741Y-13055259D01*
X24561759Y-13055259D01*
X24561759Y-13337241D01*
X24843741Y-13337241D01*
X26510616Y-15004116D02*
X26510616Y-14722134D01*
X26228634Y-14722134D01*
X26228634Y-15004116D01*
X26510616Y-15004116D01*
X26748741Y-7145991D02*
X26748741Y-6864009D01*
X26466759Y-6864009D01*
X26466759Y-7145991D01*
X26748741Y-7145991D01*
X26748741Y-9050991D02*
X26748741Y-8769009D01*
X26466759Y-8769009D01*
X26466759Y-9050991D01*
X26748741Y-9050991D01*
X26748741Y-10955991D02*
X26748741Y-10674009D01*
X26466759Y-10674009D01*
X26466759Y-10955991D01*
X26748741Y-10955991D01*
X26748741Y-12860991D02*
X26748741Y-12579009D01*
X26466759Y-12579009D01*
X26466759Y-12860991D01*
X26748741Y-12860991D01*
X28653741Y-7590491D02*
X28653741Y-7308509D01*
X28371759Y-7308509D01*
X28371759Y-7590491D01*
X28653741Y-7590491D01*
X28653741Y-9495491D02*
X28653741Y-9213509D01*
X28371759Y-9213509D01*
X28371759Y-9495491D01*
X28653741Y-9495491D01*
X28653741Y-11400491D02*
X28653741Y-11118509D01*
X28371759Y-11118509D01*
X28371759Y-11400491D01*
X28653741Y-11400491D01*
X28653741Y-13305491D02*
X28653741Y-13023509D01*
X28371759Y-13023509D01*
X28371759Y-13305491D01*
X28653741Y-13305491D01*
X30558741Y-8130241D02*
X30558741Y-7848259D01*
X30276759Y-7848259D01*
X30276759Y-8130241D01*
X30558741Y-8130241D01*
X30558741Y-10035241D02*
X30558741Y-9753259D01*
X30276759Y-9753259D01*
X30276759Y-10035241D01*
X30558741Y-10035241D01*
X30558741Y-11940241D02*
X30558741Y-11658259D01*
X30276759Y-11658259D01*
X30276759Y-11940241D01*
X30558741Y-11940241D01*
X30558741Y-13845241D02*
X30558741Y-13563259D01*
X30276759Y-13563259D01*
X30276759Y-13845241D01*
X30558741Y-13845241D01*
X32463741Y-8574741D02*
X32463741Y-8292759D01*
X32181759Y-8292759D01*
X32181759Y-8574741D01*
X32463741Y-8574741D01*
X32463741Y-10479741D02*
X32463741Y-10197759D01*
X32181759Y-10197759D01*
X32181759Y-10479741D01*
X32463741Y-10479741D01*
X32463741Y-12384741D02*
X32463741Y-12102759D01*
X32181759Y-12102759D01*
X32181759Y-12384741D01*
X32463741Y-12384741D01*
X32463741Y-14289741D02*
X32463741Y-14007759D01*
X32181759Y-14007759D01*
X32181759Y-14289741D01*
X32463741Y-14289741D01*
D11*
X5700652Y-17724734D02*
X5700652Y-17524734D01*
X5700652Y-17524734D02*
X5748271Y-17524734D01*
X5748271Y-17524734D02*
X5776842Y-17534258D01*
X5776842Y-17534258D02*
X5795890Y-17553305D01*
X5795890Y-17553305D02*
X5805414Y-17572353D01*
X5805414Y-17572353D02*
X5814937Y-17610448D01*
X5814937Y-17610448D02*
X5814937Y-17639020D01*
X5814937Y-17639020D02*
X5805414Y-17677115D01*
X5805414Y-17677115D02*
X5795890Y-17696162D01*
X5795890Y-17696162D02*
X5776842Y-17715210D01*
X5776842Y-17715210D02*
X5748271Y-17724734D01*
X5748271Y-17724734D02*
X5700652Y-17724734D01*
X5900652Y-17724734D02*
X5900652Y-17591400D01*
X5900652Y-17629496D02*
X5910176Y-17610448D01*
X5910176Y-17610448D02*
X5919699Y-17600924D01*
X5919699Y-17600924D02*
X5938747Y-17591400D01*
X5938747Y-17591400D02*
X5957795Y-17591400D01*
X6024461Y-17724734D02*
X6024461Y-17591400D01*
X6024461Y-17524734D02*
X6014937Y-17534258D01*
X6014937Y-17534258D02*
X6024461Y-17543781D01*
X6024461Y-17543781D02*
X6033985Y-17534258D01*
X6033985Y-17534258D02*
X6024461Y-17524734D01*
X6024461Y-17524734D02*
X6024461Y-17543781D01*
X6148271Y-17724734D02*
X6129223Y-17715210D01*
X6129223Y-17715210D02*
X6119699Y-17696162D01*
X6119699Y-17696162D02*
X6119699Y-17524734D01*
X6253033Y-17724734D02*
X6233985Y-17715210D01*
X6233985Y-17715210D02*
X6224461Y-17696162D01*
X6224461Y-17696162D02*
X6224461Y-17524734D01*
X6481604Y-17724734D02*
X6481604Y-17524734D01*
X6481604Y-17524734D02*
X6548271Y-17667591D01*
X6548271Y-17667591D02*
X6614937Y-17524734D01*
X6614937Y-17524734D02*
X6614937Y-17724734D01*
X6795890Y-17724734D02*
X6795890Y-17619972D01*
X6795890Y-17619972D02*
X6786366Y-17600924D01*
X6786366Y-17600924D02*
X6767318Y-17591400D01*
X6767318Y-17591400D02*
X6729223Y-17591400D01*
X6729223Y-17591400D02*
X6710176Y-17600924D01*
X6795890Y-17715210D02*
X6776842Y-17724734D01*
X6776842Y-17724734D02*
X6729223Y-17724734D01*
X6729223Y-17724734D02*
X6710176Y-17715210D01*
X6710176Y-17715210D02*
X6700652Y-17696162D01*
X6700652Y-17696162D02*
X6700652Y-17677115D01*
X6700652Y-17677115D02*
X6710176Y-17658067D01*
X6710176Y-17658067D02*
X6729223Y-17648543D01*
X6729223Y-17648543D02*
X6776842Y-17648543D01*
X6776842Y-17648543D02*
X6795890Y-17639020D01*
X6891128Y-17591400D02*
X6891128Y-17791400D01*
X6891128Y-17600924D02*
X6910176Y-17591400D01*
X6910176Y-17591400D02*
X6948271Y-17591400D01*
X6948271Y-17591400D02*
X6967318Y-17600924D01*
X6967318Y-17600924D02*
X6976842Y-17610448D01*
X6976842Y-17610448D02*
X6986366Y-17629496D01*
X6986366Y-17629496D02*
X6986366Y-17686639D01*
X6986366Y-17686639D02*
X6976842Y-17705686D01*
X6976842Y-17705686D02*
X6967318Y-17715210D01*
X6967318Y-17715210D02*
X6948271Y-17724734D01*
X6948271Y-17724734D02*
X6910176Y-17724734D01*
X6910176Y-17724734D02*
X6891128Y-17715210D01*
X7072080Y-17705686D02*
X7081604Y-17715210D01*
X7081604Y-17715210D02*
X7072080Y-17724734D01*
X7072080Y-17724734D02*
X7062557Y-17715210D01*
X7062557Y-17715210D02*
X7072080Y-17705686D01*
X7072080Y-17705686D02*
X7072080Y-17724734D01*
X7072080Y-17600924D02*
X7081604Y-17610448D01*
X7081604Y-17610448D02*
X7072080Y-17619972D01*
X7072080Y-17619972D02*
X7062557Y-17610448D01*
X7062557Y-17610448D02*
X7072080Y-17600924D01*
X7072080Y-17600924D02*
X7072080Y-17619972D01*
D12*
X5389875Y-18028250D02*
X5439875Y-18078250D01*
X5439875Y-18028250D02*
X5389875Y-18078250D01*
D11*
X5738747Y-17944734D02*
X5757795Y-17944734D01*
X5757795Y-17944734D02*
X5776842Y-17954258D01*
X5776842Y-17954258D02*
X5786366Y-17963781D01*
X5786366Y-17963781D02*
X5795890Y-17982829D01*
X5795890Y-17982829D02*
X5805414Y-18020924D01*
X5805414Y-18020924D02*
X5805414Y-18068543D01*
X5805414Y-18068543D02*
X5795890Y-18106639D01*
X5795890Y-18106639D02*
X5786366Y-18125686D01*
X5786366Y-18125686D02*
X5776842Y-18135210D01*
X5776842Y-18135210D02*
X5757795Y-18144734D01*
X5757795Y-18144734D02*
X5738747Y-18144734D01*
X5738747Y-18144734D02*
X5719699Y-18135210D01*
X5719699Y-18135210D02*
X5710176Y-18125686D01*
X5710176Y-18125686D02*
X5700652Y-18106639D01*
X5700652Y-18106639D02*
X5691128Y-18068543D01*
X5691128Y-18068543D02*
X5691128Y-18020924D01*
X5691128Y-18020924D02*
X5700652Y-17982829D01*
X5700652Y-17982829D02*
X5710176Y-17963781D01*
X5710176Y-17963781D02*
X5719699Y-17954258D01*
X5719699Y-17954258D02*
X5738747Y-17944734D01*
X5891128Y-18125686D02*
X5900652Y-18135210D01*
X5900652Y-18135210D02*
X5891128Y-18144734D01*
X5891128Y-18144734D02*
X5881604Y-18135210D01*
X5881604Y-18135210D02*
X5891128Y-18125686D01*
X5891128Y-18125686D02*
X5891128Y-18144734D01*
X6081604Y-17944734D02*
X5986366Y-17944734D01*
X5986366Y-17944734D02*
X5976842Y-18039972D01*
X5976842Y-18039972D02*
X5986366Y-18030448D01*
X5986366Y-18030448D02*
X6005414Y-18020924D01*
X6005414Y-18020924D02*
X6053033Y-18020924D01*
X6053033Y-18020924D02*
X6072080Y-18030448D01*
X6072080Y-18030448D02*
X6081604Y-18039972D01*
X6081604Y-18039972D02*
X6091128Y-18059020D01*
X6091128Y-18059020D02*
X6091128Y-18106639D01*
X6091128Y-18106639D02*
X6081604Y-18125686D01*
X6081604Y-18125686D02*
X6072080Y-18135210D01*
X6072080Y-18135210D02*
X6053033Y-18144734D01*
X6053033Y-18144734D02*
X6005414Y-18144734D01*
X6005414Y-18144734D02*
X5986366Y-18135210D01*
X5986366Y-18135210D02*
X5976842Y-18125686D01*
X6214937Y-17944734D02*
X6233985Y-17944734D01*
X6233985Y-17944734D02*
X6253033Y-17954258D01*
X6253033Y-17954258D02*
X6262557Y-17963781D01*
X6262557Y-17963781D02*
X6272080Y-17982829D01*
X6272080Y-17982829D02*
X6281604Y-18020924D01*
X6281604Y-18020924D02*
X6281604Y-18068543D01*
X6281604Y-18068543D02*
X6272080Y-18106639D01*
X6272080Y-18106639D02*
X6262557Y-18125686D01*
X6262557Y-18125686D02*
X6253033Y-18135210D01*
X6253033Y-18135210D02*
X6233985Y-18144734D01*
X6233985Y-18144734D02*
X6214937Y-18144734D01*
X6214937Y-18144734D02*
X6195890Y-18135210D01*
X6195890Y-18135210D02*
X6186366Y-18125686D01*
X6186366Y-18125686D02*
X6176842Y-18106639D01*
X6176842Y-18106639D02*
X6167318Y-18068543D01*
X6167318Y-18068543D02*
X6167318Y-18020924D01*
X6167318Y-18020924D02*
X6176842Y-17982829D01*
X6176842Y-17982829D02*
X6186366Y-17963781D01*
X6186366Y-17963781D02*
X6195890Y-17954258D01*
X6195890Y-17954258D02*
X6214937Y-17944734D01*
X6405414Y-17944734D02*
X6424461Y-17944734D01*
X6424461Y-17944734D02*
X6443509Y-17954258D01*
X6443509Y-17954258D02*
X6453033Y-17963781D01*
X6453033Y-17963781D02*
X6462557Y-17982829D01*
X6462557Y-17982829D02*
X6472080Y-18020924D01*
X6472080Y-18020924D02*
X6472080Y-18068543D01*
X6472080Y-18068543D02*
X6462557Y-18106639D01*
X6462557Y-18106639D02*
X6453033Y-18125686D01*
X6453033Y-18125686D02*
X6443509Y-18135210D01*
X6443509Y-18135210D02*
X6424461Y-18144734D01*
X6424461Y-18144734D02*
X6405414Y-18144734D01*
X6405414Y-18144734D02*
X6386366Y-18135210D01*
X6386366Y-18135210D02*
X6376842Y-18125686D01*
X6376842Y-18125686D02*
X6367318Y-18106639D01*
X6367318Y-18106639D02*
X6357795Y-18068543D01*
X6357795Y-18068543D02*
X6357795Y-18020924D01*
X6357795Y-18020924D02*
X6367318Y-17982829D01*
X6367318Y-17982829D02*
X6376842Y-17963781D01*
X6376842Y-17963781D02*
X6386366Y-17954258D01*
X6386366Y-17954258D02*
X6405414Y-17944734D01*
X6557795Y-18144734D02*
X6557795Y-18011400D01*
X6557795Y-18030448D02*
X6567318Y-18020924D01*
X6567318Y-18020924D02*
X6586366Y-18011400D01*
X6586366Y-18011400D02*
X6614938Y-18011400D01*
X6614938Y-18011400D02*
X6633985Y-18020924D01*
X6633985Y-18020924D02*
X6643509Y-18039972D01*
X6643509Y-18039972D02*
X6643509Y-18144734D01*
X6643509Y-18039972D02*
X6653033Y-18020924D01*
X6653033Y-18020924D02*
X6672080Y-18011400D01*
X6672080Y-18011400D02*
X6700652Y-18011400D01*
X6700652Y-18011400D02*
X6719699Y-18020924D01*
X6719699Y-18020924D02*
X6729223Y-18039972D01*
X6729223Y-18039972D02*
X6729223Y-18144734D01*
X6824461Y-18144734D02*
X6824461Y-18011400D01*
X6824461Y-18030448D02*
X6833985Y-18020924D01*
X6833985Y-18020924D02*
X6853033Y-18011400D01*
X6853033Y-18011400D02*
X6881604Y-18011400D01*
X6881604Y-18011400D02*
X6900652Y-18020924D01*
X6900652Y-18020924D02*
X6910176Y-18039972D01*
X6910176Y-18039972D02*
X6910176Y-18144734D01*
X6910176Y-18039972D02*
X6919699Y-18020924D01*
X6919699Y-18020924D02*
X6938747Y-18011400D01*
X6938747Y-18011400D02*
X6967318Y-18011400D01*
X6967318Y-18011400D02*
X6986366Y-18020924D01*
X6986366Y-18020924D02*
X6995890Y-18039972D01*
X6995890Y-18039972D02*
X6995890Y-18144734D01*
X7386366Y-17935210D02*
X7214938Y-18192353D01*
X7643509Y-17944734D02*
X7662557Y-17944734D01*
X7662557Y-17944734D02*
X7681604Y-17954258D01*
X7681604Y-17954258D02*
X7691128Y-17963781D01*
X7691128Y-17963781D02*
X7700652Y-17982829D01*
X7700652Y-17982829D02*
X7710176Y-18020924D01*
X7710176Y-18020924D02*
X7710176Y-18068543D01*
X7710176Y-18068543D02*
X7700652Y-18106639D01*
X7700652Y-18106639D02*
X7691128Y-18125686D01*
X7691128Y-18125686D02*
X7681604Y-18135210D01*
X7681604Y-18135210D02*
X7662557Y-18144734D01*
X7662557Y-18144734D02*
X7643509Y-18144734D01*
X7643509Y-18144734D02*
X7624461Y-18135210D01*
X7624461Y-18135210D02*
X7614938Y-18125686D01*
X7614938Y-18125686D02*
X7605414Y-18106639D01*
X7605414Y-18106639D02*
X7595890Y-18068543D01*
X7595890Y-18068543D02*
X7595890Y-18020924D01*
X7595890Y-18020924D02*
X7605414Y-17982829D01*
X7605414Y-17982829D02*
X7614938Y-17963781D01*
X7614938Y-17963781D02*
X7624461Y-17954258D01*
X7624461Y-17954258D02*
X7643509Y-17944734D01*
X7795890Y-18125686D02*
X7805414Y-18135210D01*
X7805414Y-18135210D02*
X7795890Y-18144734D01*
X7795890Y-18144734D02*
X7786366Y-18135210D01*
X7786366Y-18135210D02*
X7795890Y-18125686D01*
X7795890Y-18125686D02*
X7795890Y-18144734D01*
X7929223Y-17944734D02*
X7948271Y-17944734D01*
X7948271Y-17944734D02*
X7967319Y-17954258D01*
X7967319Y-17954258D02*
X7976842Y-17963781D01*
X7976842Y-17963781D02*
X7986366Y-17982829D01*
X7986366Y-17982829D02*
X7995890Y-18020924D01*
X7995890Y-18020924D02*
X7995890Y-18068543D01*
X7995890Y-18068543D02*
X7986366Y-18106639D01*
X7986366Y-18106639D02*
X7976842Y-18125686D01*
X7976842Y-18125686D02*
X7967319Y-18135210D01*
X7967319Y-18135210D02*
X7948271Y-18144734D01*
X7948271Y-18144734D02*
X7929223Y-18144734D01*
X7929223Y-18144734D02*
X7910176Y-18135210D01*
X7910176Y-18135210D02*
X7900652Y-18125686D01*
X7900652Y-18125686D02*
X7891128Y-18106639D01*
X7891128Y-18106639D02*
X7881604Y-18068543D01*
X7881604Y-18068543D02*
X7881604Y-18020924D01*
X7881604Y-18020924D02*
X7891128Y-17982829D01*
X7891128Y-17982829D02*
X7900652Y-17963781D01*
X7900652Y-17963781D02*
X7910176Y-17954258D01*
X7910176Y-17954258D02*
X7929223Y-17944734D01*
X8186366Y-18144734D02*
X8072081Y-18144734D01*
X8129223Y-18144734D02*
X8129223Y-17944734D01*
X8129223Y-17944734D02*
X8110176Y-17973305D01*
X8110176Y-17973305D02*
X8091128Y-17992353D01*
X8091128Y-17992353D02*
X8072081Y-18001877D01*
X8281604Y-18144734D02*
X8319700Y-18144734D01*
X8319700Y-18144734D02*
X8338747Y-18135210D01*
X8338747Y-18135210D02*
X8348271Y-18125686D01*
X8348271Y-18125686D02*
X8367319Y-18097115D01*
X8367319Y-18097115D02*
X8376842Y-18059020D01*
X8376842Y-18059020D02*
X8376842Y-17982829D01*
X8376842Y-17982829D02*
X8367319Y-17963781D01*
X8367319Y-17963781D02*
X8357795Y-17954258D01*
X8357795Y-17954258D02*
X8338747Y-17944734D01*
X8338747Y-17944734D02*
X8300652Y-17944734D01*
X8300652Y-17944734D02*
X8281604Y-17954258D01*
X8281604Y-17954258D02*
X8272081Y-17963781D01*
X8272081Y-17963781D02*
X8262557Y-17982829D01*
X8262557Y-17982829D02*
X8262557Y-18030448D01*
X8262557Y-18030448D02*
X8272081Y-18049496D01*
X8272081Y-18049496D02*
X8281604Y-18059020D01*
X8281604Y-18059020D02*
X8300652Y-18068543D01*
X8300652Y-18068543D02*
X8338747Y-18068543D01*
X8338747Y-18068543D02*
X8357795Y-18059020D01*
X8357795Y-18059020D02*
X8367319Y-18049496D01*
X8367319Y-18049496D02*
X8376842Y-18030448D01*
X8443509Y-17944734D02*
X8576843Y-17944734D01*
X8576843Y-17944734D02*
X8491128Y-18144734D01*
X8643509Y-17944734D02*
X8643509Y-17982829D01*
X8719700Y-17944734D02*
X8719700Y-17982829D01*
X9014938Y-18220924D02*
X9005414Y-18211400D01*
X9005414Y-18211400D02*
X8986366Y-18182829D01*
X8986366Y-18182829D02*
X8976843Y-18163781D01*
X8976843Y-18163781D02*
X8967319Y-18135210D01*
X8967319Y-18135210D02*
X8957795Y-18087591D01*
X8957795Y-18087591D02*
X8957795Y-18049496D01*
X8957795Y-18049496D02*
X8967319Y-18001877D01*
X8967319Y-18001877D02*
X8976843Y-17973305D01*
X8976843Y-17973305D02*
X8986366Y-17954258D01*
X8986366Y-17954258D02*
X9005414Y-17925686D01*
X9005414Y-17925686D02*
X9014938Y-17916162D01*
X9195890Y-18144734D02*
X9081605Y-18144734D01*
X9138747Y-18144734D02*
X9138747Y-17944734D01*
X9138747Y-17944734D02*
X9119700Y-17973305D01*
X9119700Y-17973305D02*
X9100652Y-17992353D01*
X9100652Y-17992353D02*
X9081605Y-18001877D01*
X9310176Y-18030448D02*
X9291128Y-18020924D01*
X9291128Y-18020924D02*
X9281605Y-18011400D01*
X9281605Y-18011400D02*
X9272081Y-17992353D01*
X9272081Y-17992353D02*
X9272081Y-17982829D01*
X9272081Y-17982829D02*
X9281605Y-17963781D01*
X9281605Y-17963781D02*
X9291128Y-17954258D01*
X9291128Y-17954258D02*
X9310176Y-17944734D01*
X9310176Y-17944734D02*
X9348271Y-17944734D01*
X9348271Y-17944734D02*
X9367319Y-17954258D01*
X9367319Y-17954258D02*
X9376843Y-17963781D01*
X9376843Y-17963781D02*
X9386366Y-17982829D01*
X9386366Y-17982829D02*
X9386366Y-17992353D01*
X9386366Y-17992353D02*
X9376843Y-18011400D01*
X9376843Y-18011400D02*
X9367319Y-18020924D01*
X9367319Y-18020924D02*
X9348271Y-18030448D01*
X9348271Y-18030448D02*
X9310176Y-18030448D01*
X9310176Y-18030448D02*
X9291128Y-18039972D01*
X9291128Y-18039972D02*
X9281605Y-18049496D01*
X9281605Y-18049496D02*
X9272081Y-18068543D01*
X9272081Y-18068543D02*
X9272081Y-18106639D01*
X9272081Y-18106639D02*
X9281605Y-18125686D01*
X9281605Y-18125686D02*
X9291128Y-18135210D01*
X9291128Y-18135210D02*
X9310176Y-18144734D01*
X9310176Y-18144734D02*
X9348271Y-18144734D01*
X9348271Y-18144734D02*
X9367319Y-18135210D01*
X9367319Y-18135210D02*
X9376843Y-18125686D01*
X9376843Y-18125686D02*
X9386366Y-18106639D01*
X9386366Y-18106639D02*
X9386366Y-18068543D01*
X9386366Y-18068543D02*
X9376843Y-18049496D01*
X9376843Y-18049496D02*
X9367319Y-18039972D01*
X9367319Y-18039972D02*
X9348271Y-18030448D01*
X9624462Y-18144734D02*
X9624462Y-17944734D01*
X9710176Y-18144734D02*
X9710176Y-18039972D01*
X9710176Y-18039972D02*
X9700652Y-18020924D01*
X9700652Y-18020924D02*
X9681605Y-18011400D01*
X9681605Y-18011400D02*
X9653033Y-18011400D01*
X9653033Y-18011400D02*
X9633986Y-18020924D01*
X9633986Y-18020924D02*
X9624462Y-18030448D01*
X9833986Y-18144734D02*
X9814938Y-18135210D01*
X9814938Y-18135210D02*
X9805414Y-18125686D01*
X9805414Y-18125686D02*
X9795890Y-18106639D01*
X9795890Y-18106639D02*
X9795890Y-18049496D01*
X9795890Y-18049496D02*
X9805414Y-18030448D01*
X9805414Y-18030448D02*
X9814938Y-18020924D01*
X9814938Y-18020924D02*
X9833986Y-18011400D01*
X9833986Y-18011400D02*
X9862557Y-18011400D01*
X9862557Y-18011400D02*
X9881605Y-18020924D01*
X9881605Y-18020924D02*
X9891128Y-18030448D01*
X9891128Y-18030448D02*
X9900652Y-18049496D01*
X9900652Y-18049496D02*
X9900652Y-18106639D01*
X9900652Y-18106639D02*
X9891128Y-18125686D01*
X9891128Y-18125686D02*
X9881605Y-18135210D01*
X9881605Y-18135210D02*
X9862557Y-18144734D01*
X9862557Y-18144734D02*
X9833986Y-18144734D01*
X10014938Y-18144734D02*
X9995890Y-18135210D01*
X9995890Y-18135210D02*
X9986367Y-18116162D01*
X9986367Y-18116162D02*
X9986367Y-17944734D01*
X10167319Y-18135210D02*
X10148271Y-18144734D01*
X10148271Y-18144734D02*
X10110176Y-18144734D01*
X10110176Y-18144734D02*
X10091128Y-18135210D01*
X10091128Y-18135210D02*
X10081605Y-18116162D01*
X10081605Y-18116162D02*
X10081605Y-18039972D01*
X10081605Y-18039972D02*
X10091128Y-18020924D01*
X10091128Y-18020924D02*
X10110176Y-18011400D01*
X10110176Y-18011400D02*
X10148271Y-18011400D01*
X10148271Y-18011400D02*
X10167319Y-18020924D01*
X10167319Y-18020924D02*
X10176843Y-18039972D01*
X10176843Y-18039972D02*
X10176843Y-18059020D01*
X10176843Y-18059020D02*
X10081605Y-18078067D01*
X10253033Y-18135210D02*
X10272081Y-18144734D01*
X10272081Y-18144734D02*
X10310176Y-18144734D01*
X10310176Y-18144734D02*
X10329224Y-18135210D01*
X10329224Y-18135210D02*
X10338748Y-18116162D01*
X10338748Y-18116162D02*
X10338748Y-18106639D01*
X10338748Y-18106639D02*
X10329224Y-18087591D01*
X10329224Y-18087591D02*
X10310176Y-18078067D01*
X10310176Y-18078067D02*
X10281605Y-18078067D01*
X10281605Y-18078067D02*
X10262557Y-18068543D01*
X10262557Y-18068543D02*
X10253033Y-18049496D01*
X10253033Y-18049496D02*
X10253033Y-18039972D01*
X10253033Y-18039972D02*
X10262557Y-18020924D01*
X10262557Y-18020924D02*
X10281605Y-18011400D01*
X10281605Y-18011400D02*
X10310176Y-18011400D01*
X10310176Y-18011400D02*
X10329224Y-18020924D01*
X10405414Y-18220924D02*
X10414938Y-18211400D01*
X10414938Y-18211400D02*
X10433986Y-18182829D01*
X10433986Y-18182829D02*
X10443509Y-18163781D01*
X10443509Y-18163781D02*
X10453033Y-18135210D01*
X10453033Y-18135210D02*
X10462557Y-18087591D01*
X10462557Y-18087591D02*
X10462557Y-18049496D01*
X10462557Y-18049496D02*
X10453033Y-18001877D01*
X10453033Y-18001877D02*
X10443509Y-17973305D01*
X10443509Y-17973305D02*
X10433986Y-17954258D01*
X10433986Y-17954258D02*
X10414938Y-17925686D01*
X10414938Y-17925686D02*
X10405414Y-17916162D01*
X10767319Y-18220924D02*
X10757795Y-18211400D01*
X10757795Y-18211400D02*
X10738748Y-18182829D01*
X10738748Y-18182829D02*
X10729224Y-18163781D01*
X10729224Y-18163781D02*
X10719700Y-18135210D01*
X10719700Y-18135210D02*
X10710176Y-18087591D01*
X10710176Y-18087591D02*
X10710176Y-18049496D01*
X10710176Y-18049496D02*
X10719700Y-18001877D01*
X10719700Y-18001877D02*
X10729224Y-17973305D01*
X10729224Y-17973305D02*
X10738748Y-17954258D01*
X10738748Y-17954258D02*
X10757795Y-17925686D01*
X10757795Y-17925686D02*
X10767319Y-17916162D01*
X10843509Y-18011400D02*
X10843509Y-18144734D01*
X10843509Y-18030448D02*
X10853033Y-18020924D01*
X10853033Y-18020924D02*
X10872081Y-18011400D01*
X10872081Y-18011400D02*
X10900652Y-18011400D01*
X10900652Y-18011400D02*
X10919700Y-18020924D01*
X10919700Y-18020924D02*
X10929224Y-18039972D01*
X10929224Y-18039972D02*
X10929224Y-18144734D01*
X11053033Y-18144734D02*
X11033986Y-18135210D01*
X11033986Y-18135210D02*
X11024462Y-18125686D01*
X11024462Y-18125686D02*
X11014938Y-18106639D01*
X11014938Y-18106639D02*
X11014938Y-18049496D01*
X11014938Y-18049496D02*
X11024462Y-18030448D01*
X11024462Y-18030448D02*
X11033986Y-18020924D01*
X11033986Y-18020924D02*
X11053033Y-18011400D01*
X11053033Y-18011400D02*
X11081605Y-18011400D01*
X11081605Y-18011400D02*
X11100652Y-18020924D01*
X11100652Y-18020924D02*
X11110176Y-18030448D01*
X11110176Y-18030448D02*
X11119700Y-18049496D01*
X11119700Y-18049496D02*
X11119700Y-18106639D01*
X11119700Y-18106639D02*
X11110176Y-18125686D01*
X11110176Y-18125686D02*
X11100652Y-18135210D01*
X11100652Y-18135210D02*
X11081605Y-18144734D01*
X11081605Y-18144734D02*
X11053033Y-18144734D01*
X11176843Y-18011400D02*
X11253033Y-18011400D01*
X11205414Y-17944734D02*
X11205414Y-18116162D01*
X11205414Y-18116162D02*
X11214938Y-18135210D01*
X11214938Y-18135210D02*
X11233986Y-18144734D01*
X11233986Y-18144734D02*
X11253033Y-18144734D01*
X11472081Y-18011400D02*
X11472081Y-18211400D01*
X11472081Y-18020924D02*
X11491128Y-18011400D01*
X11491128Y-18011400D02*
X11529224Y-18011400D01*
X11529224Y-18011400D02*
X11548271Y-18020924D01*
X11548271Y-18020924D02*
X11557795Y-18030448D01*
X11557795Y-18030448D02*
X11567319Y-18049496D01*
X11567319Y-18049496D02*
X11567319Y-18106639D01*
X11567319Y-18106639D02*
X11557795Y-18125686D01*
X11557795Y-18125686D02*
X11548271Y-18135210D01*
X11548271Y-18135210D02*
X11529224Y-18144734D01*
X11529224Y-18144734D02*
X11491128Y-18144734D01*
X11491128Y-18144734D02*
X11472081Y-18135210D01*
X11681605Y-18144734D02*
X11662557Y-18135210D01*
X11662557Y-18135210D02*
X11653033Y-18116162D01*
X11653033Y-18116162D02*
X11653033Y-17944734D01*
X11843509Y-18144734D02*
X11843509Y-18039972D01*
X11843509Y-18039972D02*
X11833986Y-18020924D01*
X11833986Y-18020924D02*
X11814938Y-18011400D01*
X11814938Y-18011400D02*
X11776843Y-18011400D01*
X11776843Y-18011400D02*
X11757795Y-18020924D01*
X11843509Y-18135210D02*
X11824462Y-18144734D01*
X11824462Y-18144734D02*
X11776843Y-18144734D01*
X11776843Y-18144734D02*
X11757795Y-18135210D01*
X11757795Y-18135210D02*
X11748271Y-18116162D01*
X11748271Y-18116162D02*
X11748271Y-18097115D01*
X11748271Y-18097115D02*
X11757795Y-18078067D01*
X11757795Y-18078067D02*
X11776843Y-18068543D01*
X11776843Y-18068543D02*
X11824462Y-18068543D01*
X11824462Y-18068543D02*
X11843509Y-18059020D01*
X11910176Y-18011400D02*
X11986367Y-18011400D01*
X11938748Y-17944734D02*
X11938748Y-18116162D01*
X11938748Y-18116162D02*
X11948271Y-18135210D01*
X11948271Y-18135210D02*
X11967319Y-18144734D01*
X11967319Y-18144734D02*
X11986367Y-18144734D01*
X12129224Y-18135210D02*
X12110176Y-18144734D01*
X12110176Y-18144734D02*
X12072081Y-18144734D01*
X12072081Y-18144734D02*
X12053033Y-18135210D01*
X12053033Y-18135210D02*
X12043509Y-18116162D01*
X12043509Y-18116162D02*
X12043509Y-18039972D01*
X12043509Y-18039972D02*
X12053033Y-18020924D01*
X12053033Y-18020924D02*
X12072081Y-18011400D01*
X12072081Y-18011400D02*
X12110176Y-18011400D01*
X12110176Y-18011400D02*
X12129224Y-18020924D01*
X12129224Y-18020924D02*
X12138748Y-18039972D01*
X12138748Y-18039972D02*
X12138748Y-18059020D01*
X12138748Y-18059020D02*
X12043509Y-18078067D01*
X12310176Y-18144734D02*
X12310176Y-17944734D01*
X12310176Y-18135210D02*
X12291129Y-18144734D01*
X12291129Y-18144734D02*
X12253033Y-18144734D01*
X12253033Y-18144734D02*
X12233986Y-18135210D01*
X12233986Y-18135210D02*
X12224462Y-18125686D01*
X12224462Y-18125686D02*
X12214938Y-18106639D01*
X12214938Y-18106639D02*
X12214938Y-18049496D01*
X12214938Y-18049496D02*
X12224462Y-18030448D01*
X12224462Y-18030448D02*
X12233986Y-18020924D01*
X12233986Y-18020924D02*
X12253033Y-18011400D01*
X12253033Y-18011400D02*
X12291129Y-18011400D01*
X12291129Y-18011400D02*
X12310176Y-18020924D01*
X12386367Y-18220924D02*
X12395890Y-18211400D01*
X12395890Y-18211400D02*
X12414938Y-18182829D01*
X12414938Y-18182829D02*
X12424462Y-18163781D01*
X12424462Y-18163781D02*
X12433986Y-18135210D01*
X12433986Y-18135210D02*
X12443509Y-18087591D01*
X12443509Y-18087591D02*
X12443509Y-18049496D01*
X12443509Y-18049496D02*
X12433986Y-18001877D01*
X12433986Y-18001877D02*
X12424462Y-17973305D01*
X12424462Y-17973305D02*
X12414938Y-17954258D01*
X12414938Y-17954258D02*
X12395890Y-17925686D01*
X12395890Y-17925686D02*
X12386367Y-17916162D01*
D13*
X5439875Y-18317250D02*
G75*
G02*
X5264875Y-18317250I-87500J0D01*
G01*
X5264875Y-18317250D02*
G75*
G02*
X5439875Y-18317250I87500J0D01*
G01*
D11*
X5805414Y-18408734D02*
X5691128Y-18408734D01*
X5748271Y-18408734D02*
X5748271Y-18208734D01*
X5748271Y-18208734D02*
X5729223Y-18237305D01*
X5729223Y-18237305D02*
X5710176Y-18256353D01*
X5710176Y-18256353D02*
X5691128Y-18265877D01*
X5891128Y-18389686D02*
X5900652Y-18399210D01*
X5900652Y-18399210D02*
X5891128Y-18408734D01*
X5891128Y-18408734D02*
X5881604Y-18399210D01*
X5881604Y-18399210D02*
X5891128Y-18389686D01*
X5891128Y-18389686D02*
X5891128Y-18408734D01*
X5967318Y-18208734D02*
X6100652Y-18208734D01*
X6100652Y-18208734D02*
X6014937Y-18408734D01*
X6272080Y-18208734D02*
X6176842Y-18208734D01*
X6176842Y-18208734D02*
X6167318Y-18303972D01*
X6167318Y-18303972D02*
X6176842Y-18294448D01*
X6176842Y-18294448D02*
X6195890Y-18284924D01*
X6195890Y-18284924D02*
X6243509Y-18284924D01*
X6243509Y-18284924D02*
X6262557Y-18294448D01*
X6262557Y-18294448D02*
X6272080Y-18303972D01*
X6272080Y-18303972D02*
X6281604Y-18323020D01*
X6281604Y-18323020D02*
X6281604Y-18370639D01*
X6281604Y-18370639D02*
X6272080Y-18389686D01*
X6272080Y-18389686D02*
X6262557Y-18399210D01*
X6262557Y-18399210D02*
X6243509Y-18408734D01*
X6243509Y-18408734D02*
X6195890Y-18408734D01*
X6195890Y-18408734D02*
X6176842Y-18399210D01*
X6176842Y-18399210D02*
X6167318Y-18389686D01*
X6405414Y-18208734D02*
X6424461Y-18208734D01*
X6424461Y-18208734D02*
X6443509Y-18218258D01*
X6443509Y-18218258D02*
X6453033Y-18227781D01*
X6453033Y-18227781D02*
X6462557Y-18246829D01*
X6462557Y-18246829D02*
X6472080Y-18284924D01*
X6472080Y-18284924D02*
X6472080Y-18332543D01*
X6472080Y-18332543D02*
X6462557Y-18370639D01*
X6462557Y-18370639D02*
X6453033Y-18389686D01*
X6453033Y-18389686D02*
X6443509Y-18399210D01*
X6443509Y-18399210D02*
X6424461Y-18408734D01*
X6424461Y-18408734D02*
X6405414Y-18408734D01*
X6405414Y-18408734D02*
X6386366Y-18399210D01*
X6386366Y-18399210D02*
X6376842Y-18389686D01*
X6376842Y-18389686D02*
X6367318Y-18370639D01*
X6367318Y-18370639D02*
X6357795Y-18332543D01*
X6357795Y-18332543D02*
X6357795Y-18284924D01*
X6357795Y-18284924D02*
X6367318Y-18246829D01*
X6367318Y-18246829D02*
X6376842Y-18227781D01*
X6376842Y-18227781D02*
X6386366Y-18218258D01*
X6386366Y-18218258D02*
X6405414Y-18208734D01*
X6557795Y-18408734D02*
X6557795Y-18275400D01*
X6557795Y-18294448D02*
X6567318Y-18284924D01*
X6567318Y-18284924D02*
X6586366Y-18275400D01*
X6586366Y-18275400D02*
X6614938Y-18275400D01*
X6614938Y-18275400D02*
X6633985Y-18284924D01*
X6633985Y-18284924D02*
X6643509Y-18303972D01*
X6643509Y-18303972D02*
X6643509Y-18408734D01*
X6643509Y-18303972D02*
X6653033Y-18284924D01*
X6653033Y-18284924D02*
X6672080Y-18275400D01*
X6672080Y-18275400D02*
X6700652Y-18275400D01*
X6700652Y-18275400D02*
X6719699Y-18284924D01*
X6719699Y-18284924D02*
X6729223Y-18303972D01*
X6729223Y-18303972D02*
X6729223Y-18408734D01*
X6824461Y-18408734D02*
X6824461Y-18275400D01*
X6824461Y-18294448D02*
X6833985Y-18284924D01*
X6833985Y-18284924D02*
X6853033Y-18275400D01*
X6853033Y-18275400D02*
X6881604Y-18275400D01*
X6881604Y-18275400D02*
X6900652Y-18284924D01*
X6900652Y-18284924D02*
X6910176Y-18303972D01*
X6910176Y-18303972D02*
X6910176Y-18408734D01*
X6910176Y-18303972D02*
X6919699Y-18284924D01*
X6919699Y-18284924D02*
X6938747Y-18275400D01*
X6938747Y-18275400D02*
X6967318Y-18275400D01*
X6967318Y-18275400D02*
X6986366Y-18284924D01*
X6986366Y-18284924D02*
X6995890Y-18303972D01*
X6995890Y-18303972D02*
X6995890Y-18408734D01*
X7386366Y-18199210D02*
X7214938Y-18456353D01*
X7643509Y-18208734D02*
X7662557Y-18208734D01*
X7662557Y-18208734D02*
X7681604Y-18218258D01*
X7681604Y-18218258D02*
X7691128Y-18227781D01*
X7691128Y-18227781D02*
X7700652Y-18246829D01*
X7700652Y-18246829D02*
X7710176Y-18284924D01*
X7710176Y-18284924D02*
X7710176Y-18332543D01*
X7710176Y-18332543D02*
X7700652Y-18370639D01*
X7700652Y-18370639D02*
X7691128Y-18389686D01*
X7691128Y-18389686D02*
X7681604Y-18399210D01*
X7681604Y-18399210D02*
X7662557Y-18408734D01*
X7662557Y-18408734D02*
X7643509Y-18408734D01*
X7643509Y-18408734D02*
X7624461Y-18399210D01*
X7624461Y-18399210D02*
X7614938Y-18389686D01*
X7614938Y-18389686D02*
X7605414Y-18370639D01*
X7605414Y-18370639D02*
X7595890Y-18332543D01*
X7595890Y-18332543D02*
X7595890Y-18284924D01*
X7595890Y-18284924D02*
X7605414Y-18246829D01*
X7605414Y-18246829D02*
X7614938Y-18227781D01*
X7614938Y-18227781D02*
X7624461Y-18218258D01*
X7624461Y-18218258D02*
X7643509Y-18208734D01*
X7795890Y-18389686D02*
X7805414Y-18399210D01*
X7805414Y-18399210D02*
X7795890Y-18408734D01*
X7795890Y-18408734D02*
X7786366Y-18399210D01*
X7786366Y-18399210D02*
X7795890Y-18389686D01*
X7795890Y-18389686D02*
X7795890Y-18408734D01*
X7929223Y-18208734D02*
X7948271Y-18208734D01*
X7948271Y-18208734D02*
X7967319Y-18218258D01*
X7967319Y-18218258D02*
X7976842Y-18227781D01*
X7976842Y-18227781D02*
X7986366Y-18246829D01*
X7986366Y-18246829D02*
X7995890Y-18284924D01*
X7995890Y-18284924D02*
X7995890Y-18332543D01*
X7995890Y-18332543D02*
X7986366Y-18370639D01*
X7986366Y-18370639D02*
X7976842Y-18389686D01*
X7976842Y-18389686D02*
X7967319Y-18399210D01*
X7967319Y-18399210D02*
X7948271Y-18408734D01*
X7948271Y-18408734D02*
X7929223Y-18408734D01*
X7929223Y-18408734D02*
X7910176Y-18399210D01*
X7910176Y-18399210D02*
X7900652Y-18389686D01*
X7900652Y-18389686D02*
X7891128Y-18370639D01*
X7891128Y-18370639D02*
X7881604Y-18332543D01*
X7881604Y-18332543D02*
X7881604Y-18284924D01*
X7881604Y-18284924D02*
X7891128Y-18246829D01*
X7891128Y-18246829D02*
X7900652Y-18227781D01*
X7900652Y-18227781D02*
X7910176Y-18218258D01*
X7910176Y-18218258D02*
X7929223Y-18208734D01*
X8167319Y-18208734D02*
X8129223Y-18208734D01*
X8129223Y-18208734D02*
X8110176Y-18218258D01*
X8110176Y-18218258D02*
X8100652Y-18227781D01*
X8100652Y-18227781D02*
X8081604Y-18256353D01*
X8081604Y-18256353D02*
X8072081Y-18294448D01*
X8072081Y-18294448D02*
X8072081Y-18370639D01*
X8072081Y-18370639D02*
X8081604Y-18389686D01*
X8081604Y-18389686D02*
X8091128Y-18399210D01*
X8091128Y-18399210D02*
X8110176Y-18408734D01*
X8110176Y-18408734D02*
X8148271Y-18408734D01*
X8148271Y-18408734D02*
X8167319Y-18399210D01*
X8167319Y-18399210D02*
X8176842Y-18389686D01*
X8176842Y-18389686D02*
X8186366Y-18370639D01*
X8186366Y-18370639D02*
X8186366Y-18323020D01*
X8186366Y-18323020D02*
X8176842Y-18303972D01*
X8176842Y-18303972D02*
X8167319Y-18294448D01*
X8167319Y-18294448D02*
X8148271Y-18284924D01*
X8148271Y-18284924D02*
X8110176Y-18284924D01*
X8110176Y-18284924D02*
X8091128Y-18294448D01*
X8091128Y-18294448D02*
X8081604Y-18303972D01*
X8081604Y-18303972D02*
X8072081Y-18323020D01*
X8300652Y-18294448D02*
X8281604Y-18284924D01*
X8281604Y-18284924D02*
X8272081Y-18275400D01*
X8272081Y-18275400D02*
X8262557Y-18256353D01*
X8262557Y-18256353D02*
X8262557Y-18246829D01*
X8262557Y-18246829D02*
X8272081Y-18227781D01*
X8272081Y-18227781D02*
X8281604Y-18218258D01*
X8281604Y-18218258D02*
X8300652Y-18208734D01*
X8300652Y-18208734D02*
X8338747Y-18208734D01*
X8338747Y-18208734D02*
X8357795Y-18218258D01*
X8357795Y-18218258D02*
X8367319Y-18227781D01*
X8367319Y-18227781D02*
X8376842Y-18246829D01*
X8376842Y-18246829D02*
X8376842Y-18256353D01*
X8376842Y-18256353D02*
X8367319Y-18275400D01*
X8367319Y-18275400D02*
X8357795Y-18284924D01*
X8357795Y-18284924D02*
X8338747Y-18294448D01*
X8338747Y-18294448D02*
X8300652Y-18294448D01*
X8300652Y-18294448D02*
X8281604Y-18303972D01*
X8281604Y-18303972D02*
X8272081Y-18313496D01*
X8272081Y-18313496D02*
X8262557Y-18332543D01*
X8262557Y-18332543D02*
X8262557Y-18370639D01*
X8262557Y-18370639D02*
X8272081Y-18389686D01*
X8272081Y-18389686D02*
X8281604Y-18399210D01*
X8281604Y-18399210D02*
X8300652Y-18408734D01*
X8300652Y-18408734D02*
X8338747Y-18408734D01*
X8338747Y-18408734D02*
X8357795Y-18399210D01*
X8357795Y-18399210D02*
X8367319Y-18389686D01*
X8367319Y-18389686D02*
X8376842Y-18370639D01*
X8376842Y-18370639D02*
X8376842Y-18332543D01*
X8376842Y-18332543D02*
X8367319Y-18313496D01*
X8367319Y-18313496D02*
X8357795Y-18303972D01*
X8357795Y-18303972D02*
X8338747Y-18294448D01*
X8472081Y-18408734D02*
X8510176Y-18408734D01*
X8510176Y-18408734D02*
X8529224Y-18399210D01*
X8529224Y-18399210D02*
X8538747Y-18389686D01*
X8538747Y-18389686D02*
X8557795Y-18361115D01*
X8557795Y-18361115D02*
X8567319Y-18323020D01*
X8567319Y-18323020D02*
X8567319Y-18246829D01*
X8567319Y-18246829D02*
X8557795Y-18227781D01*
X8557795Y-18227781D02*
X8548271Y-18218258D01*
X8548271Y-18218258D02*
X8529224Y-18208734D01*
X8529224Y-18208734D02*
X8491128Y-18208734D01*
X8491128Y-18208734D02*
X8472081Y-18218258D01*
X8472081Y-18218258D02*
X8462557Y-18227781D01*
X8462557Y-18227781D02*
X8453033Y-18246829D01*
X8453033Y-18246829D02*
X8453033Y-18294448D01*
X8453033Y-18294448D02*
X8462557Y-18313496D01*
X8462557Y-18313496D02*
X8472081Y-18323020D01*
X8472081Y-18323020D02*
X8491128Y-18332543D01*
X8491128Y-18332543D02*
X8529224Y-18332543D01*
X8529224Y-18332543D02*
X8548271Y-18323020D01*
X8548271Y-18323020D02*
X8557795Y-18313496D01*
X8557795Y-18313496D02*
X8567319Y-18294448D01*
X8643509Y-18208734D02*
X8643509Y-18246829D01*
X8719700Y-18208734D02*
X8719700Y-18246829D01*
X9014938Y-18484924D02*
X9005414Y-18475400D01*
X9005414Y-18475400D02*
X8986366Y-18446829D01*
X8986366Y-18446829D02*
X8976843Y-18427781D01*
X8976843Y-18427781D02*
X8967319Y-18399210D01*
X8967319Y-18399210D02*
X8957795Y-18351591D01*
X8957795Y-18351591D02*
X8957795Y-18313496D01*
X8957795Y-18313496D02*
X8967319Y-18265877D01*
X8967319Y-18265877D02*
X8976843Y-18237305D01*
X8976843Y-18237305D02*
X8986366Y-18218258D01*
X8986366Y-18218258D02*
X9005414Y-18189686D01*
X9005414Y-18189686D02*
X9014938Y-18180162D01*
X9195890Y-18408734D02*
X9081605Y-18408734D01*
X9138747Y-18408734D02*
X9138747Y-18208734D01*
X9138747Y-18208734D02*
X9119700Y-18237305D01*
X9119700Y-18237305D02*
X9100652Y-18256353D01*
X9100652Y-18256353D02*
X9081605Y-18265877D01*
X9319700Y-18208734D02*
X9338747Y-18208734D01*
X9338747Y-18208734D02*
X9357795Y-18218258D01*
X9357795Y-18218258D02*
X9367319Y-18227781D01*
X9367319Y-18227781D02*
X9376843Y-18246829D01*
X9376843Y-18246829D02*
X9386366Y-18284924D01*
X9386366Y-18284924D02*
X9386366Y-18332543D01*
X9386366Y-18332543D02*
X9376843Y-18370639D01*
X9376843Y-18370639D02*
X9367319Y-18389686D01*
X9367319Y-18389686D02*
X9357795Y-18399210D01*
X9357795Y-18399210D02*
X9338747Y-18408734D01*
X9338747Y-18408734D02*
X9319700Y-18408734D01*
X9319700Y-18408734D02*
X9300652Y-18399210D01*
X9300652Y-18399210D02*
X9291128Y-18389686D01*
X9291128Y-18389686D02*
X9281605Y-18370639D01*
X9281605Y-18370639D02*
X9272081Y-18332543D01*
X9272081Y-18332543D02*
X9272081Y-18284924D01*
X9272081Y-18284924D02*
X9281605Y-18246829D01*
X9281605Y-18246829D02*
X9291128Y-18227781D01*
X9291128Y-18227781D02*
X9300652Y-18218258D01*
X9300652Y-18218258D02*
X9319700Y-18208734D01*
X9500652Y-18294448D02*
X9481605Y-18284924D01*
X9481605Y-18284924D02*
X9472081Y-18275400D01*
X9472081Y-18275400D02*
X9462557Y-18256353D01*
X9462557Y-18256353D02*
X9462557Y-18246829D01*
X9462557Y-18246829D02*
X9472081Y-18227781D01*
X9472081Y-18227781D02*
X9481605Y-18218258D01*
X9481605Y-18218258D02*
X9500652Y-18208734D01*
X9500652Y-18208734D02*
X9538747Y-18208734D01*
X9538747Y-18208734D02*
X9557795Y-18218258D01*
X9557795Y-18218258D02*
X9567319Y-18227781D01*
X9567319Y-18227781D02*
X9576843Y-18246829D01*
X9576843Y-18246829D02*
X9576843Y-18256353D01*
X9576843Y-18256353D02*
X9567319Y-18275400D01*
X9567319Y-18275400D02*
X9557795Y-18284924D01*
X9557795Y-18284924D02*
X9538747Y-18294448D01*
X9538747Y-18294448D02*
X9500652Y-18294448D01*
X9500652Y-18294448D02*
X9481605Y-18303972D01*
X9481605Y-18303972D02*
X9472081Y-18313496D01*
X9472081Y-18313496D02*
X9462557Y-18332543D01*
X9462557Y-18332543D02*
X9462557Y-18370639D01*
X9462557Y-18370639D02*
X9472081Y-18389686D01*
X9472081Y-18389686D02*
X9481605Y-18399210D01*
X9481605Y-18399210D02*
X9500652Y-18408734D01*
X9500652Y-18408734D02*
X9538747Y-18408734D01*
X9538747Y-18408734D02*
X9557795Y-18399210D01*
X9557795Y-18399210D02*
X9567319Y-18389686D01*
X9567319Y-18389686D02*
X9576843Y-18370639D01*
X9576843Y-18370639D02*
X9576843Y-18332543D01*
X9576843Y-18332543D02*
X9567319Y-18313496D01*
X9567319Y-18313496D02*
X9557795Y-18303972D01*
X9557795Y-18303972D02*
X9538747Y-18294448D01*
X9814938Y-18408734D02*
X9814938Y-18208734D01*
X9900652Y-18408734D02*
X9900652Y-18303972D01*
X9900652Y-18303972D02*
X9891128Y-18284924D01*
X9891128Y-18284924D02*
X9872081Y-18275400D01*
X9872081Y-18275400D02*
X9843509Y-18275400D01*
X9843509Y-18275400D02*
X9824462Y-18284924D01*
X9824462Y-18284924D02*
X9814938Y-18294448D01*
X10024462Y-18408734D02*
X10005414Y-18399210D01*
X10005414Y-18399210D02*
X9995890Y-18389686D01*
X9995890Y-18389686D02*
X9986367Y-18370639D01*
X9986367Y-18370639D02*
X9986367Y-18313496D01*
X9986367Y-18313496D02*
X9995890Y-18294448D01*
X9995890Y-18294448D02*
X10005414Y-18284924D01*
X10005414Y-18284924D02*
X10024462Y-18275400D01*
X10024462Y-18275400D02*
X10053033Y-18275400D01*
X10053033Y-18275400D02*
X10072081Y-18284924D01*
X10072081Y-18284924D02*
X10081605Y-18294448D01*
X10081605Y-18294448D02*
X10091128Y-18313496D01*
X10091128Y-18313496D02*
X10091128Y-18370639D01*
X10091128Y-18370639D02*
X10081605Y-18389686D01*
X10081605Y-18389686D02*
X10072081Y-18399210D01*
X10072081Y-18399210D02*
X10053033Y-18408734D01*
X10053033Y-18408734D02*
X10024462Y-18408734D01*
X10205414Y-18408734D02*
X10186367Y-18399210D01*
X10186367Y-18399210D02*
X10176843Y-18380162D01*
X10176843Y-18380162D02*
X10176843Y-18208734D01*
X10357795Y-18399210D02*
X10338748Y-18408734D01*
X10338748Y-18408734D02*
X10300652Y-18408734D01*
X10300652Y-18408734D02*
X10281605Y-18399210D01*
X10281605Y-18399210D02*
X10272081Y-18380162D01*
X10272081Y-18380162D02*
X10272081Y-18303972D01*
X10272081Y-18303972D02*
X10281605Y-18284924D01*
X10281605Y-18284924D02*
X10300652Y-18275400D01*
X10300652Y-18275400D02*
X10338748Y-18275400D01*
X10338748Y-18275400D02*
X10357795Y-18284924D01*
X10357795Y-18284924D02*
X10367319Y-18303972D01*
X10367319Y-18303972D02*
X10367319Y-18323020D01*
X10367319Y-18323020D02*
X10272081Y-18342067D01*
X10443509Y-18399210D02*
X10462557Y-18408734D01*
X10462557Y-18408734D02*
X10500652Y-18408734D01*
X10500652Y-18408734D02*
X10519700Y-18399210D01*
X10519700Y-18399210D02*
X10529224Y-18380162D01*
X10529224Y-18380162D02*
X10529224Y-18370639D01*
X10529224Y-18370639D02*
X10519700Y-18351591D01*
X10519700Y-18351591D02*
X10500652Y-18342067D01*
X10500652Y-18342067D02*
X10472081Y-18342067D01*
X10472081Y-18342067D02*
X10453033Y-18332543D01*
X10453033Y-18332543D02*
X10443509Y-18313496D01*
X10443509Y-18313496D02*
X10443509Y-18303972D01*
X10443509Y-18303972D02*
X10453033Y-18284924D01*
X10453033Y-18284924D02*
X10472081Y-18275400D01*
X10472081Y-18275400D02*
X10500652Y-18275400D01*
X10500652Y-18275400D02*
X10519700Y-18284924D01*
X10595890Y-18484924D02*
X10605414Y-18475400D01*
X10605414Y-18475400D02*
X10624462Y-18446829D01*
X10624462Y-18446829D02*
X10633986Y-18427781D01*
X10633986Y-18427781D02*
X10643509Y-18399210D01*
X10643509Y-18399210D02*
X10653033Y-18351591D01*
X10653033Y-18351591D02*
X10653033Y-18313496D01*
X10653033Y-18313496D02*
X10643509Y-18265877D01*
X10643509Y-18265877D02*
X10633986Y-18237305D01*
X10633986Y-18237305D02*
X10624462Y-18218258D01*
X10624462Y-18218258D02*
X10605414Y-18189686D01*
X10605414Y-18189686D02*
X10595890Y-18180162D01*
X10957795Y-18484924D02*
X10948271Y-18475400D01*
X10948271Y-18475400D02*
X10929224Y-18446829D01*
X10929224Y-18446829D02*
X10919700Y-18427781D01*
X10919700Y-18427781D02*
X10910176Y-18399210D01*
X10910176Y-18399210D02*
X10900652Y-18351591D01*
X10900652Y-18351591D02*
X10900652Y-18313496D01*
X10900652Y-18313496D02*
X10910176Y-18265877D01*
X10910176Y-18265877D02*
X10919700Y-18237305D01*
X10919700Y-18237305D02*
X10929224Y-18218258D01*
X10929224Y-18218258D02*
X10948271Y-18189686D01*
X10948271Y-18189686D02*
X10957795Y-18180162D01*
X11033986Y-18275400D02*
X11033986Y-18408734D01*
X11033986Y-18294448D02*
X11043509Y-18284924D01*
X11043509Y-18284924D02*
X11062557Y-18275400D01*
X11062557Y-18275400D02*
X11091129Y-18275400D01*
X11091129Y-18275400D02*
X11110176Y-18284924D01*
X11110176Y-18284924D02*
X11119700Y-18303972D01*
X11119700Y-18303972D02*
X11119700Y-18408734D01*
X11243509Y-18408734D02*
X11224462Y-18399210D01*
X11224462Y-18399210D02*
X11214938Y-18389686D01*
X11214938Y-18389686D02*
X11205414Y-18370639D01*
X11205414Y-18370639D02*
X11205414Y-18313496D01*
X11205414Y-18313496D02*
X11214938Y-18294448D01*
X11214938Y-18294448D02*
X11224462Y-18284924D01*
X11224462Y-18284924D02*
X11243509Y-18275400D01*
X11243509Y-18275400D02*
X11272081Y-18275400D01*
X11272081Y-18275400D02*
X11291128Y-18284924D01*
X11291128Y-18284924D02*
X11300652Y-18294448D01*
X11300652Y-18294448D02*
X11310176Y-18313496D01*
X11310176Y-18313496D02*
X11310176Y-18370639D01*
X11310176Y-18370639D02*
X11300652Y-18389686D01*
X11300652Y-18389686D02*
X11291128Y-18399210D01*
X11291128Y-18399210D02*
X11272081Y-18408734D01*
X11272081Y-18408734D02*
X11243509Y-18408734D01*
X11367319Y-18275400D02*
X11443509Y-18275400D01*
X11395890Y-18208734D02*
X11395890Y-18380162D01*
X11395890Y-18380162D02*
X11405414Y-18399210D01*
X11405414Y-18399210D02*
X11424462Y-18408734D01*
X11424462Y-18408734D02*
X11443509Y-18408734D01*
X11662557Y-18275400D02*
X11662557Y-18475400D01*
X11662557Y-18284924D02*
X11681605Y-18275400D01*
X11681605Y-18275400D02*
X11719700Y-18275400D01*
X11719700Y-18275400D02*
X11738748Y-18284924D01*
X11738748Y-18284924D02*
X11748271Y-18294448D01*
X11748271Y-18294448D02*
X11757795Y-18313496D01*
X11757795Y-18313496D02*
X11757795Y-18370639D01*
X11757795Y-18370639D02*
X11748271Y-18389686D01*
X11748271Y-18389686D02*
X11738748Y-18399210D01*
X11738748Y-18399210D02*
X11719700Y-18408734D01*
X11719700Y-18408734D02*
X11681605Y-18408734D01*
X11681605Y-18408734D02*
X11662557Y-18399210D01*
X11872081Y-18408734D02*
X11853033Y-18399210D01*
X11853033Y-18399210D02*
X11843509Y-18380162D01*
X11843509Y-18380162D02*
X11843509Y-18208734D01*
X12033986Y-18408734D02*
X12033986Y-18303972D01*
X12033986Y-18303972D02*
X12024462Y-18284924D01*
X12024462Y-18284924D02*
X12005414Y-18275400D01*
X12005414Y-18275400D02*
X11967319Y-18275400D01*
X11967319Y-18275400D02*
X11948271Y-18284924D01*
X12033986Y-18399210D02*
X12014938Y-18408734D01*
X12014938Y-18408734D02*
X11967319Y-18408734D01*
X11967319Y-18408734D02*
X11948271Y-18399210D01*
X11948271Y-18399210D02*
X11938748Y-18380162D01*
X11938748Y-18380162D02*
X11938748Y-18361115D01*
X11938748Y-18361115D02*
X11948271Y-18342067D01*
X11948271Y-18342067D02*
X11967319Y-18332543D01*
X11967319Y-18332543D02*
X12014938Y-18332543D01*
X12014938Y-18332543D02*
X12033986Y-18323020D01*
X12100652Y-18275400D02*
X12176843Y-18275400D01*
X12129224Y-18208734D02*
X12129224Y-18380162D01*
X12129224Y-18380162D02*
X12138748Y-18399210D01*
X12138748Y-18399210D02*
X12157795Y-18408734D01*
X12157795Y-18408734D02*
X12176843Y-18408734D01*
X12319700Y-18399210D02*
X12300652Y-18408734D01*
X12300652Y-18408734D02*
X12262557Y-18408734D01*
X12262557Y-18408734D02*
X12243509Y-18399210D01*
X12243509Y-18399210D02*
X12233986Y-18380162D01*
X12233986Y-18380162D02*
X12233986Y-18303972D01*
X12233986Y-18303972D02*
X12243509Y-18284924D01*
X12243509Y-18284924D02*
X12262557Y-18275400D01*
X12262557Y-18275400D02*
X12300652Y-18275400D01*
X12300652Y-18275400D02*
X12319700Y-18284924D01*
X12319700Y-18284924D02*
X12329224Y-18303972D01*
X12329224Y-18303972D02*
X12329224Y-18323020D01*
X12329224Y-18323020D02*
X12233986Y-18342067D01*
X12500652Y-18408734D02*
X12500652Y-18208734D01*
X12500652Y-18399210D02*
X12481605Y-18408734D01*
X12481605Y-18408734D02*
X12443509Y-18408734D01*
X12443509Y-18408734D02*
X12424462Y-18399210D01*
X12424462Y-18399210D02*
X12414938Y-18389686D01*
X12414938Y-18389686D02*
X12405414Y-18370639D01*
X12405414Y-18370639D02*
X12405414Y-18313496D01*
X12405414Y-18313496D02*
X12414938Y-18294448D01*
X12414938Y-18294448D02*
X12424462Y-18284924D01*
X12424462Y-18284924D02*
X12443509Y-18275400D01*
X12443509Y-18275400D02*
X12481605Y-18275400D01*
X12481605Y-18275400D02*
X12500652Y-18284924D01*
X12576843Y-18484924D02*
X12586367Y-18475400D01*
X12586367Y-18475400D02*
X12605414Y-18446829D01*
X12605414Y-18446829D02*
X12614938Y-18427781D01*
X12614938Y-18427781D02*
X12624462Y-18399210D01*
X12624462Y-18399210D02*
X12633986Y-18351591D01*
X12633986Y-18351591D02*
X12633986Y-18313496D01*
X12633986Y-18313496D02*
X12624462Y-18265877D01*
X12624462Y-18265877D02*
X12614938Y-18237305D01*
X12614938Y-18237305D02*
X12605414Y-18218258D01*
X12605414Y-18218258D02*
X12586367Y-18189686D01*
X12586367Y-18189686D02*
X12576843Y-18180162D01*
X5339875Y-18512250D02*
X5339875Y-18712250D01*
X5239875Y-18612250D02*
X5439875Y-18612250D01*
X5681604Y-18503734D02*
X5805414Y-18503734D01*
X5805414Y-18503734D02*
X5738747Y-18579924D01*
X5738747Y-18579924D02*
X5767318Y-18579924D01*
X5767318Y-18579924D02*
X5786366Y-18589448D01*
X5786366Y-18589448D02*
X5795890Y-18598972D01*
X5795890Y-18598972D02*
X5805414Y-18618020D01*
X5805414Y-18618020D02*
X5805414Y-18665639D01*
X5805414Y-18665639D02*
X5795890Y-18684686D01*
X5795890Y-18684686D02*
X5786366Y-18694210D01*
X5786366Y-18694210D02*
X5767318Y-18703734D01*
X5767318Y-18703734D02*
X5710176Y-18703734D01*
X5710176Y-18703734D02*
X5691128Y-18694210D01*
X5691128Y-18694210D02*
X5681604Y-18684686D01*
X5891128Y-18684686D02*
X5900652Y-18694210D01*
X5900652Y-18694210D02*
X5891128Y-18703734D01*
X5891128Y-18703734D02*
X5881604Y-18694210D01*
X5881604Y-18694210D02*
X5891128Y-18684686D01*
X5891128Y-18684686D02*
X5891128Y-18703734D01*
X5976842Y-18522781D02*
X5986366Y-18513258D01*
X5986366Y-18513258D02*
X6005414Y-18503734D01*
X6005414Y-18503734D02*
X6053033Y-18503734D01*
X6053033Y-18503734D02*
X6072080Y-18513258D01*
X6072080Y-18513258D02*
X6081604Y-18522781D01*
X6081604Y-18522781D02*
X6091128Y-18541829D01*
X6091128Y-18541829D02*
X6091128Y-18560877D01*
X6091128Y-18560877D02*
X6081604Y-18589448D01*
X6081604Y-18589448D02*
X5967318Y-18703734D01*
X5967318Y-18703734D02*
X6091128Y-18703734D01*
X6214937Y-18503734D02*
X6233985Y-18503734D01*
X6233985Y-18503734D02*
X6253033Y-18513258D01*
X6253033Y-18513258D02*
X6262557Y-18522781D01*
X6262557Y-18522781D02*
X6272080Y-18541829D01*
X6272080Y-18541829D02*
X6281604Y-18579924D01*
X6281604Y-18579924D02*
X6281604Y-18627543D01*
X6281604Y-18627543D02*
X6272080Y-18665639D01*
X6272080Y-18665639D02*
X6262557Y-18684686D01*
X6262557Y-18684686D02*
X6253033Y-18694210D01*
X6253033Y-18694210D02*
X6233985Y-18703734D01*
X6233985Y-18703734D02*
X6214937Y-18703734D01*
X6214937Y-18703734D02*
X6195890Y-18694210D01*
X6195890Y-18694210D02*
X6186366Y-18684686D01*
X6186366Y-18684686D02*
X6176842Y-18665639D01*
X6176842Y-18665639D02*
X6167318Y-18627543D01*
X6167318Y-18627543D02*
X6167318Y-18579924D01*
X6167318Y-18579924D02*
X6176842Y-18541829D01*
X6176842Y-18541829D02*
X6186366Y-18522781D01*
X6186366Y-18522781D02*
X6195890Y-18513258D01*
X6195890Y-18513258D02*
X6214937Y-18503734D01*
X6405414Y-18503734D02*
X6424461Y-18503734D01*
X6424461Y-18503734D02*
X6443509Y-18513258D01*
X6443509Y-18513258D02*
X6453033Y-18522781D01*
X6453033Y-18522781D02*
X6462557Y-18541829D01*
X6462557Y-18541829D02*
X6472080Y-18579924D01*
X6472080Y-18579924D02*
X6472080Y-18627543D01*
X6472080Y-18627543D02*
X6462557Y-18665639D01*
X6462557Y-18665639D02*
X6453033Y-18684686D01*
X6453033Y-18684686D02*
X6443509Y-18694210D01*
X6443509Y-18694210D02*
X6424461Y-18703734D01*
X6424461Y-18703734D02*
X6405414Y-18703734D01*
X6405414Y-18703734D02*
X6386366Y-18694210D01*
X6386366Y-18694210D02*
X6376842Y-18684686D01*
X6376842Y-18684686D02*
X6367318Y-18665639D01*
X6367318Y-18665639D02*
X6357795Y-18627543D01*
X6357795Y-18627543D02*
X6357795Y-18579924D01*
X6357795Y-18579924D02*
X6367318Y-18541829D01*
X6367318Y-18541829D02*
X6376842Y-18522781D01*
X6376842Y-18522781D02*
X6386366Y-18513258D01*
X6386366Y-18513258D02*
X6405414Y-18503734D01*
X6557795Y-18703734D02*
X6557795Y-18570400D01*
X6557795Y-18589448D02*
X6567318Y-18579924D01*
X6567318Y-18579924D02*
X6586366Y-18570400D01*
X6586366Y-18570400D02*
X6614938Y-18570400D01*
X6614938Y-18570400D02*
X6633985Y-18579924D01*
X6633985Y-18579924D02*
X6643509Y-18598972D01*
X6643509Y-18598972D02*
X6643509Y-18703734D01*
X6643509Y-18598972D02*
X6653033Y-18579924D01*
X6653033Y-18579924D02*
X6672080Y-18570400D01*
X6672080Y-18570400D02*
X6700652Y-18570400D01*
X6700652Y-18570400D02*
X6719699Y-18579924D01*
X6719699Y-18579924D02*
X6729223Y-18598972D01*
X6729223Y-18598972D02*
X6729223Y-18703734D01*
X6824461Y-18703734D02*
X6824461Y-18570400D01*
X6824461Y-18589448D02*
X6833985Y-18579924D01*
X6833985Y-18579924D02*
X6853033Y-18570400D01*
X6853033Y-18570400D02*
X6881604Y-18570400D01*
X6881604Y-18570400D02*
X6900652Y-18579924D01*
X6900652Y-18579924D02*
X6910176Y-18598972D01*
X6910176Y-18598972D02*
X6910176Y-18703734D01*
X6910176Y-18598972D02*
X6919699Y-18579924D01*
X6919699Y-18579924D02*
X6938747Y-18570400D01*
X6938747Y-18570400D02*
X6967318Y-18570400D01*
X6967318Y-18570400D02*
X6986366Y-18579924D01*
X6986366Y-18579924D02*
X6995890Y-18598972D01*
X6995890Y-18598972D02*
X6995890Y-18703734D01*
X7386366Y-18494210D02*
X7214938Y-18751353D01*
X7643509Y-18503734D02*
X7662557Y-18503734D01*
X7662557Y-18503734D02*
X7681604Y-18513258D01*
X7681604Y-18513258D02*
X7691128Y-18522781D01*
X7691128Y-18522781D02*
X7700652Y-18541829D01*
X7700652Y-18541829D02*
X7710176Y-18579924D01*
X7710176Y-18579924D02*
X7710176Y-18627543D01*
X7710176Y-18627543D02*
X7700652Y-18665639D01*
X7700652Y-18665639D02*
X7691128Y-18684686D01*
X7691128Y-18684686D02*
X7681604Y-18694210D01*
X7681604Y-18694210D02*
X7662557Y-18703734D01*
X7662557Y-18703734D02*
X7643509Y-18703734D01*
X7643509Y-18703734D02*
X7624461Y-18694210D01*
X7624461Y-18694210D02*
X7614938Y-18684686D01*
X7614938Y-18684686D02*
X7605414Y-18665639D01*
X7605414Y-18665639D02*
X7595890Y-18627543D01*
X7595890Y-18627543D02*
X7595890Y-18579924D01*
X7595890Y-18579924D02*
X7605414Y-18541829D01*
X7605414Y-18541829D02*
X7614938Y-18522781D01*
X7614938Y-18522781D02*
X7624461Y-18513258D01*
X7624461Y-18513258D02*
X7643509Y-18503734D01*
X7795890Y-18684686D02*
X7805414Y-18694210D01*
X7805414Y-18694210D02*
X7795890Y-18703734D01*
X7795890Y-18703734D02*
X7786366Y-18694210D01*
X7786366Y-18694210D02*
X7795890Y-18684686D01*
X7795890Y-18684686D02*
X7795890Y-18703734D01*
X7995890Y-18703734D02*
X7881604Y-18703734D01*
X7938747Y-18703734D02*
X7938747Y-18503734D01*
X7938747Y-18503734D02*
X7919700Y-18532305D01*
X7919700Y-18532305D02*
X7900652Y-18551353D01*
X7900652Y-18551353D02*
X7881604Y-18560877D01*
X8072081Y-18522781D02*
X8081604Y-18513258D01*
X8081604Y-18513258D02*
X8100652Y-18503734D01*
X8100652Y-18503734D02*
X8148271Y-18503734D01*
X8148271Y-18503734D02*
X8167319Y-18513258D01*
X8167319Y-18513258D02*
X8176842Y-18522781D01*
X8176842Y-18522781D02*
X8186366Y-18541829D01*
X8186366Y-18541829D02*
X8186366Y-18560877D01*
X8186366Y-18560877D02*
X8176842Y-18589448D01*
X8176842Y-18589448D02*
X8062557Y-18703734D01*
X8062557Y-18703734D02*
X8186366Y-18703734D01*
X8357795Y-18503734D02*
X8319700Y-18503734D01*
X8319700Y-18503734D02*
X8300652Y-18513258D01*
X8300652Y-18513258D02*
X8291128Y-18522781D01*
X8291128Y-18522781D02*
X8272081Y-18551353D01*
X8272081Y-18551353D02*
X8262557Y-18589448D01*
X8262557Y-18589448D02*
X8262557Y-18665639D01*
X8262557Y-18665639D02*
X8272081Y-18684686D01*
X8272081Y-18684686D02*
X8281604Y-18694210D01*
X8281604Y-18694210D02*
X8300652Y-18703734D01*
X8300652Y-18703734D02*
X8338747Y-18703734D01*
X8338747Y-18703734D02*
X8357795Y-18694210D01*
X8357795Y-18694210D02*
X8367319Y-18684686D01*
X8367319Y-18684686D02*
X8376842Y-18665639D01*
X8376842Y-18665639D02*
X8376842Y-18618020D01*
X8376842Y-18618020D02*
X8367319Y-18598972D01*
X8367319Y-18598972D02*
X8357795Y-18589448D01*
X8357795Y-18589448D02*
X8338747Y-18579924D01*
X8338747Y-18579924D02*
X8300652Y-18579924D01*
X8300652Y-18579924D02*
X8281604Y-18589448D01*
X8281604Y-18589448D02*
X8272081Y-18598972D01*
X8272081Y-18598972D02*
X8262557Y-18618020D01*
X8500652Y-18503734D02*
X8519700Y-18503734D01*
X8519700Y-18503734D02*
X8538747Y-18513258D01*
X8538747Y-18513258D02*
X8548271Y-18522781D01*
X8548271Y-18522781D02*
X8557795Y-18541829D01*
X8557795Y-18541829D02*
X8567319Y-18579924D01*
X8567319Y-18579924D02*
X8567319Y-18627543D01*
X8567319Y-18627543D02*
X8557795Y-18665639D01*
X8557795Y-18665639D02*
X8548271Y-18684686D01*
X8548271Y-18684686D02*
X8538747Y-18694210D01*
X8538747Y-18694210D02*
X8519700Y-18703734D01*
X8519700Y-18703734D02*
X8500652Y-18703734D01*
X8500652Y-18703734D02*
X8481604Y-18694210D01*
X8481604Y-18694210D02*
X8472081Y-18684686D01*
X8472081Y-18684686D02*
X8462557Y-18665639D01*
X8462557Y-18665639D02*
X8453033Y-18627543D01*
X8453033Y-18627543D02*
X8453033Y-18579924D01*
X8453033Y-18579924D02*
X8462557Y-18541829D01*
X8462557Y-18541829D02*
X8472081Y-18522781D01*
X8472081Y-18522781D02*
X8481604Y-18513258D01*
X8481604Y-18513258D02*
X8500652Y-18503734D01*
X8643509Y-18503734D02*
X8643509Y-18541829D01*
X8719700Y-18503734D02*
X8719700Y-18541829D01*
X9014938Y-18779924D02*
X9005414Y-18770400D01*
X9005414Y-18770400D02*
X8986366Y-18741829D01*
X8986366Y-18741829D02*
X8976843Y-18722781D01*
X8976843Y-18722781D02*
X8967319Y-18694210D01*
X8967319Y-18694210D02*
X8957795Y-18646591D01*
X8957795Y-18646591D02*
X8957795Y-18608496D01*
X8957795Y-18608496D02*
X8967319Y-18560877D01*
X8967319Y-18560877D02*
X8976843Y-18532305D01*
X8976843Y-18532305D02*
X8986366Y-18513258D01*
X8986366Y-18513258D02*
X9005414Y-18484686D01*
X9005414Y-18484686D02*
X9014938Y-18475162D01*
X9176843Y-18570400D02*
X9176843Y-18703734D01*
X9129224Y-18494210D02*
X9081605Y-18637067D01*
X9081605Y-18637067D02*
X9205414Y-18637067D01*
X9433986Y-18703734D02*
X9433986Y-18503734D01*
X9519700Y-18703734D02*
X9519700Y-18598972D01*
X9519700Y-18598972D02*
X9510176Y-18579924D01*
X9510176Y-18579924D02*
X9491128Y-18570400D01*
X9491128Y-18570400D02*
X9462557Y-18570400D01*
X9462557Y-18570400D02*
X9443509Y-18579924D01*
X9443509Y-18579924D02*
X9433986Y-18589448D01*
X9643509Y-18703734D02*
X9624462Y-18694210D01*
X9624462Y-18694210D02*
X9614938Y-18684686D01*
X9614938Y-18684686D02*
X9605414Y-18665639D01*
X9605414Y-18665639D02*
X9605414Y-18608496D01*
X9605414Y-18608496D02*
X9614938Y-18589448D01*
X9614938Y-18589448D02*
X9624462Y-18579924D01*
X9624462Y-18579924D02*
X9643509Y-18570400D01*
X9643509Y-18570400D02*
X9672081Y-18570400D01*
X9672081Y-18570400D02*
X9691128Y-18579924D01*
X9691128Y-18579924D02*
X9700652Y-18589448D01*
X9700652Y-18589448D02*
X9710176Y-18608496D01*
X9710176Y-18608496D02*
X9710176Y-18665639D01*
X9710176Y-18665639D02*
X9700652Y-18684686D01*
X9700652Y-18684686D02*
X9691128Y-18694210D01*
X9691128Y-18694210D02*
X9672081Y-18703734D01*
X9672081Y-18703734D02*
X9643509Y-18703734D01*
X9824462Y-18703734D02*
X9805414Y-18694210D01*
X9805414Y-18694210D02*
X9795890Y-18675162D01*
X9795890Y-18675162D02*
X9795890Y-18503734D01*
X9976843Y-18694210D02*
X9957795Y-18703734D01*
X9957795Y-18703734D02*
X9919700Y-18703734D01*
X9919700Y-18703734D02*
X9900652Y-18694210D01*
X9900652Y-18694210D02*
X9891128Y-18675162D01*
X9891128Y-18675162D02*
X9891128Y-18598972D01*
X9891128Y-18598972D02*
X9900652Y-18579924D01*
X9900652Y-18579924D02*
X9919700Y-18570400D01*
X9919700Y-18570400D02*
X9957795Y-18570400D01*
X9957795Y-18570400D02*
X9976843Y-18579924D01*
X9976843Y-18579924D02*
X9986367Y-18598972D01*
X9986367Y-18598972D02*
X9986367Y-18618020D01*
X9986367Y-18618020D02*
X9891128Y-18637067D01*
X10062557Y-18694210D02*
X10081605Y-18703734D01*
X10081605Y-18703734D02*
X10119700Y-18703734D01*
X10119700Y-18703734D02*
X10138748Y-18694210D01*
X10138748Y-18694210D02*
X10148271Y-18675162D01*
X10148271Y-18675162D02*
X10148271Y-18665639D01*
X10148271Y-18665639D02*
X10138748Y-18646591D01*
X10138748Y-18646591D02*
X10119700Y-18637067D01*
X10119700Y-18637067D02*
X10091128Y-18637067D01*
X10091128Y-18637067D02*
X10072081Y-18627543D01*
X10072081Y-18627543D02*
X10062557Y-18608496D01*
X10062557Y-18608496D02*
X10062557Y-18598972D01*
X10062557Y-18598972D02*
X10072081Y-18579924D01*
X10072081Y-18579924D02*
X10091128Y-18570400D01*
X10091128Y-18570400D02*
X10119700Y-18570400D01*
X10119700Y-18570400D02*
X10138748Y-18579924D01*
X10214938Y-18779924D02*
X10224462Y-18770400D01*
X10224462Y-18770400D02*
X10243509Y-18741829D01*
X10243509Y-18741829D02*
X10253033Y-18722781D01*
X10253033Y-18722781D02*
X10262557Y-18694210D01*
X10262557Y-18694210D02*
X10272081Y-18646591D01*
X10272081Y-18646591D02*
X10272081Y-18608496D01*
X10272081Y-18608496D02*
X10262557Y-18560877D01*
X10262557Y-18560877D02*
X10253033Y-18532305D01*
X10253033Y-18532305D02*
X10243509Y-18513258D01*
X10243509Y-18513258D02*
X10224462Y-18484686D01*
X10224462Y-18484686D02*
X10214938Y-18475162D01*
X10576843Y-18779924D02*
X10567319Y-18770400D01*
X10567319Y-18770400D02*
X10548271Y-18741829D01*
X10548271Y-18741829D02*
X10538748Y-18722781D01*
X10538748Y-18722781D02*
X10529224Y-18694210D01*
X10529224Y-18694210D02*
X10519700Y-18646591D01*
X10519700Y-18646591D02*
X10519700Y-18608496D01*
X10519700Y-18608496D02*
X10529224Y-18560877D01*
X10529224Y-18560877D02*
X10538748Y-18532305D01*
X10538748Y-18532305D02*
X10548271Y-18513258D01*
X10548271Y-18513258D02*
X10567319Y-18484686D01*
X10567319Y-18484686D02*
X10576843Y-18475162D01*
X10653033Y-18570400D02*
X10653033Y-18703734D01*
X10653033Y-18589448D02*
X10662557Y-18579924D01*
X10662557Y-18579924D02*
X10681605Y-18570400D01*
X10681605Y-18570400D02*
X10710176Y-18570400D01*
X10710176Y-18570400D02*
X10729224Y-18579924D01*
X10729224Y-18579924D02*
X10738748Y-18598972D01*
X10738748Y-18598972D02*
X10738748Y-18703734D01*
X10862557Y-18703734D02*
X10843509Y-18694210D01*
X10843509Y-18694210D02*
X10833986Y-18684686D01*
X10833986Y-18684686D02*
X10824462Y-18665639D01*
X10824462Y-18665639D02*
X10824462Y-18608496D01*
X10824462Y-18608496D02*
X10833986Y-18589448D01*
X10833986Y-18589448D02*
X10843509Y-18579924D01*
X10843509Y-18579924D02*
X10862557Y-18570400D01*
X10862557Y-18570400D02*
X10891129Y-18570400D01*
X10891129Y-18570400D02*
X10910176Y-18579924D01*
X10910176Y-18579924D02*
X10919700Y-18589448D01*
X10919700Y-18589448D02*
X10929224Y-18608496D01*
X10929224Y-18608496D02*
X10929224Y-18665639D01*
X10929224Y-18665639D02*
X10919700Y-18684686D01*
X10919700Y-18684686D02*
X10910176Y-18694210D01*
X10910176Y-18694210D02*
X10891129Y-18703734D01*
X10891129Y-18703734D02*
X10862557Y-18703734D01*
X10986367Y-18570400D02*
X11062557Y-18570400D01*
X11014938Y-18503734D02*
X11014938Y-18675162D01*
X11014938Y-18675162D02*
X11024462Y-18694210D01*
X11024462Y-18694210D02*
X11043509Y-18703734D01*
X11043509Y-18703734D02*
X11062557Y-18703734D01*
X11281605Y-18570400D02*
X11281605Y-18770400D01*
X11281605Y-18579924D02*
X11300652Y-18570400D01*
X11300652Y-18570400D02*
X11338748Y-18570400D01*
X11338748Y-18570400D02*
X11357795Y-18579924D01*
X11357795Y-18579924D02*
X11367319Y-18589448D01*
X11367319Y-18589448D02*
X11376843Y-18608496D01*
X11376843Y-18608496D02*
X11376843Y-18665639D01*
X11376843Y-18665639D02*
X11367319Y-18684686D01*
X11367319Y-18684686D02*
X11357795Y-18694210D01*
X11357795Y-18694210D02*
X11338748Y-18703734D01*
X11338748Y-18703734D02*
X11300652Y-18703734D01*
X11300652Y-18703734D02*
X11281605Y-18694210D01*
X11491128Y-18703734D02*
X11472081Y-18694210D01*
X11472081Y-18694210D02*
X11462557Y-18675162D01*
X11462557Y-18675162D02*
X11462557Y-18503734D01*
X11653033Y-18703734D02*
X11653033Y-18598972D01*
X11653033Y-18598972D02*
X11643509Y-18579924D01*
X11643509Y-18579924D02*
X11624462Y-18570400D01*
X11624462Y-18570400D02*
X11586367Y-18570400D01*
X11586367Y-18570400D02*
X11567319Y-18579924D01*
X11653033Y-18694210D02*
X11633986Y-18703734D01*
X11633986Y-18703734D02*
X11586367Y-18703734D01*
X11586367Y-18703734D02*
X11567319Y-18694210D01*
X11567319Y-18694210D02*
X11557795Y-18675162D01*
X11557795Y-18675162D02*
X11557795Y-18656115D01*
X11557795Y-18656115D02*
X11567319Y-18637067D01*
X11567319Y-18637067D02*
X11586367Y-18627543D01*
X11586367Y-18627543D02*
X11633986Y-18627543D01*
X11633986Y-18627543D02*
X11653033Y-18618020D01*
X11719700Y-18570400D02*
X11795890Y-18570400D01*
X11748271Y-18503734D02*
X11748271Y-18675162D01*
X11748271Y-18675162D02*
X11757795Y-18694210D01*
X11757795Y-18694210D02*
X11776843Y-18703734D01*
X11776843Y-18703734D02*
X11795890Y-18703734D01*
X11938748Y-18694210D02*
X11919700Y-18703734D01*
X11919700Y-18703734D02*
X11881605Y-18703734D01*
X11881605Y-18703734D02*
X11862557Y-18694210D01*
X11862557Y-18694210D02*
X11853033Y-18675162D01*
X11853033Y-18675162D02*
X11853033Y-18598972D01*
X11853033Y-18598972D02*
X11862557Y-18579924D01*
X11862557Y-18579924D02*
X11881605Y-18570400D01*
X11881605Y-18570400D02*
X11919700Y-18570400D01*
X11919700Y-18570400D02*
X11938748Y-18579924D01*
X11938748Y-18579924D02*
X11948271Y-18598972D01*
X11948271Y-18598972D02*
X11948271Y-18618020D01*
X11948271Y-18618020D02*
X11853033Y-18637067D01*
X12119700Y-18703734D02*
X12119700Y-18503734D01*
X12119700Y-18694210D02*
X12100652Y-18703734D01*
X12100652Y-18703734D02*
X12062557Y-18703734D01*
X12062557Y-18703734D02*
X12043509Y-18694210D01*
X12043509Y-18694210D02*
X12033986Y-18684686D01*
X12033986Y-18684686D02*
X12024462Y-18665639D01*
X12024462Y-18665639D02*
X12024462Y-18608496D01*
X12024462Y-18608496D02*
X12033986Y-18589448D01*
X12033986Y-18589448D02*
X12043509Y-18579924D01*
X12043509Y-18579924D02*
X12062557Y-18570400D01*
X12062557Y-18570400D02*
X12100652Y-18570400D01*
X12100652Y-18570400D02*
X12119700Y-18579924D01*
X12195890Y-18779924D02*
X12205414Y-18770400D01*
X12205414Y-18770400D02*
X12224462Y-18741829D01*
X12224462Y-18741829D02*
X12233986Y-18722781D01*
X12233986Y-18722781D02*
X12243509Y-18694210D01*
X12243509Y-18694210D02*
X12253033Y-18646591D01*
X12253033Y-18646591D02*
X12253033Y-18608496D01*
X12253033Y-18608496D02*
X12243509Y-18560877D01*
X12243509Y-18560877D02*
X12233986Y-18532305D01*
X12233986Y-18532305D02*
X12224462Y-18513258D01*
X12224462Y-18513258D02*
X12205414Y-18484686D01*
X12205414Y-18484686D02*
X12195890Y-18475162D01*
X5410586Y-19002961D02*
X5410586Y-18861539D01*
X5269164Y-18861539D01*
X5269164Y-19002961D01*
X5410586Y-19002961D01*
X5681604Y-18823734D02*
X5805414Y-18823734D01*
X5805414Y-18823734D02*
X5738747Y-18899924D01*
X5738747Y-18899924D02*
X5767318Y-18899924D01*
X5767318Y-18899924D02*
X5786366Y-18909448D01*
X5786366Y-18909448D02*
X5795890Y-18918972D01*
X5795890Y-18918972D02*
X5805414Y-18938020D01*
X5805414Y-18938020D02*
X5805414Y-18985639D01*
X5805414Y-18985639D02*
X5795890Y-19004686D01*
X5795890Y-19004686D02*
X5786366Y-19014210D01*
X5786366Y-19014210D02*
X5767318Y-19023734D01*
X5767318Y-19023734D02*
X5710176Y-19023734D01*
X5710176Y-19023734D02*
X5691128Y-19014210D01*
X5691128Y-19014210D02*
X5681604Y-19004686D01*
X5891128Y-19004686D02*
X5900652Y-19014210D01*
X5900652Y-19014210D02*
X5891128Y-19023734D01*
X5891128Y-19023734D02*
X5881604Y-19014210D01*
X5881604Y-19014210D02*
X5891128Y-19004686D01*
X5891128Y-19004686D02*
X5891128Y-19023734D01*
X5995890Y-19023734D02*
X6033985Y-19023734D01*
X6033985Y-19023734D02*
X6053033Y-19014210D01*
X6053033Y-19014210D02*
X6062557Y-19004686D01*
X6062557Y-19004686D02*
X6081604Y-18976115D01*
X6081604Y-18976115D02*
X6091128Y-18938020D01*
X6091128Y-18938020D02*
X6091128Y-18861829D01*
X6091128Y-18861829D02*
X6081604Y-18842781D01*
X6081604Y-18842781D02*
X6072080Y-18833258D01*
X6072080Y-18833258D02*
X6053033Y-18823734D01*
X6053033Y-18823734D02*
X6014937Y-18823734D01*
X6014937Y-18823734D02*
X5995890Y-18833258D01*
X5995890Y-18833258D02*
X5986366Y-18842781D01*
X5986366Y-18842781D02*
X5976842Y-18861829D01*
X5976842Y-18861829D02*
X5976842Y-18909448D01*
X5976842Y-18909448D02*
X5986366Y-18928496D01*
X5986366Y-18928496D02*
X5995890Y-18938020D01*
X5995890Y-18938020D02*
X6014937Y-18947543D01*
X6014937Y-18947543D02*
X6053033Y-18947543D01*
X6053033Y-18947543D02*
X6072080Y-18938020D01*
X6072080Y-18938020D02*
X6081604Y-18928496D01*
X6081604Y-18928496D02*
X6091128Y-18909448D01*
X6205414Y-18909448D02*
X6186366Y-18899924D01*
X6186366Y-18899924D02*
X6176842Y-18890400D01*
X6176842Y-18890400D02*
X6167318Y-18871353D01*
X6167318Y-18871353D02*
X6167318Y-18861829D01*
X6167318Y-18861829D02*
X6176842Y-18842781D01*
X6176842Y-18842781D02*
X6186366Y-18833258D01*
X6186366Y-18833258D02*
X6205414Y-18823734D01*
X6205414Y-18823734D02*
X6243509Y-18823734D01*
X6243509Y-18823734D02*
X6262557Y-18833258D01*
X6262557Y-18833258D02*
X6272080Y-18842781D01*
X6272080Y-18842781D02*
X6281604Y-18861829D01*
X6281604Y-18861829D02*
X6281604Y-18871353D01*
X6281604Y-18871353D02*
X6272080Y-18890400D01*
X6272080Y-18890400D02*
X6262557Y-18899924D01*
X6262557Y-18899924D02*
X6243509Y-18909448D01*
X6243509Y-18909448D02*
X6205414Y-18909448D01*
X6205414Y-18909448D02*
X6186366Y-18918972D01*
X6186366Y-18918972D02*
X6176842Y-18928496D01*
X6176842Y-18928496D02*
X6167318Y-18947543D01*
X6167318Y-18947543D02*
X6167318Y-18985639D01*
X6167318Y-18985639D02*
X6176842Y-19004686D01*
X6176842Y-19004686D02*
X6186366Y-19014210D01*
X6186366Y-19014210D02*
X6205414Y-19023734D01*
X6205414Y-19023734D02*
X6243509Y-19023734D01*
X6243509Y-19023734D02*
X6262557Y-19014210D01*
X6262557Y-19014210D02*
X6272080Y-19004686D01*
X6272080Y-19004686D02*
X6281604Y-18985639D01*
X6281604Y-18985639D02*
X6281604Y-18947543D01*
X6281604Y-18947543D02*
X6272080Y-18928496D01*
X6272080Y-18928496D02*
X6262557Y-18918972D01*
X6262557Y-18918972D02*
X6243509Y-18909448D01*
X6395890Y-18909448D02*
X6376842Y-18899924D01*
X6376842Y-18899924D02*
X6367318Y-18890400D01*
X6367318Y-18890400D02*
X6357795Y-18871353D01*
X6357795Y-18871353D02*
X6357795Y-18861829D01*
X6357795Y-18861829D02*
X6367318Y-18842781D01*
X6367318Y-18842781D02*
X6376842Y-18833258D01*
X6376842Y-18833258D02*
X6395890Y-18823734D01*
X6395890Y-18823734D02*
X6433985Y-18823734D01*
X6433985Y-18823734D02*
X6453033Y-18833258D01*
X6453033Y-18833258D02*
X6462557Y-18842781D01*
X6462557Y-18842781D02*
X6472080Y-18861829D01*
X6472080Y-18861829D02*
X6472080Y-18871353D01*
X6472080Y-18871353D02*
X6462557Y-18890400D01*
X6462557Y-18890400D02*
X6453033Y-18899924D01*
X6453033Y-18899924D02*
X6433985Y-18909448D01*
X6433985Y-18909448D02*
X6395890Y-18909448D01*
X6395890Y-18909448D02*
X6376842Y-18918972D01*
X6376842Y-18918972D02*
X6367318Y-18928496D01*
X6367318Y-18928496D02*
X6357795Y-18947543D01*
X6357795Y-18947543D02*
X6357795Y-18985639D01*
X6357795Y-18985639D02*
X6367318Y-19004686D01*
X6367318Y-19004686D02*
X6376842Y-19014210D01*
X6376842Y-19014210D02*
X6395890Y-19023734D01*
X6395890Y-19023734D02*
X6433985Y-19023734D01*
X6433985Y-19023734D02*
X6453033Y-19014210D01*
X6453033Y-19014210D02*
X6462557Y-19004686D01*
X6462557Y-19004686D02*
X6472080Y-18985639D01*
X6472080Y-18985639D02*
X6472080Y-18947543D01*
X6472080Y-18947543D02*
X6462557Y-18928496D01*
X6462557Y-18928496D02*
X6453033Y-18918972D01*
X6453033Y-18918972D02*
X6433985Y-18909448D01*
X6557795Y-19023734D02*
X6557795Y-18890400D01*
X6557795Y-18909448D02*
X6567318Y-18899924D01*
X6567318Y-18899924D02*
X6586366Y-18890400D01*
X6586366Y-18890400D02*
X6614938Y-18890400D01*
X6614938Y-18890400D02*
X6633985Y-18899924D01*
X6633985Y-18899924D02*
X6643509Y-18918972D01*
X6643509Y-18918972D02*
X6643509Y-19023734D01*
X6643509Y-18918972D02*
X6653033Y-18899924D01*
X6653033Y-18899924D02*
X6672080Y-18890400D01*
X6672080Y-18890400D02*
X6700652Y-18890400D01*
X6700652Y-18890400D02*
X6719699Y-18899924D01*
X6719699Y-18899924D02*
X6729223Y-18918972D01*
X6729223Y-18918972D02*
X6729223Y-19023734D01*
X6824461Y-19023734D02*
X6824461Y-18890400D01*
X6824461Y-18909448D02*
X6833985Y-18899924D01*
X6833985Y-18899924D02*
X6853033Y-18890400D01*
X6853033Y-18890400D02*
X6881604Y-18890400D01*
X6881604Y-18890400D02*
X6900652Y-18899924D01*
X6900652Y-18899924D02*
X6910176Y-18918972D01*
X6910176Y-18918972D02*
X6910176Y-19023734D01*
X6910176Y-18918972D02*
X6919699Y-18899924D01*
X6919699Y-18899924D02*
X6938747Y-18890400D01*
X6938747Y-18890400D02*
X6967318Y-18890400D01*
X6967318Y-18890400D02*
X6986366Y-18899924D01*
X6986366Y-18899924D02*
X6995890Y-18918972D01*
X6995890Y-18918972D02*
X6995890Y-19023734D01*
X7386366Y-18814210D02*
X7214938Y-19071353D01*
X7643509Y-18823734D02*
X7662557Y-18823734D01*
X7662557Y-18823734D02*
X7681604Y-18833258D01*
X7681604Y-18833258D02*
X7691128Y-18842781D01*
X7691128Y-18842781D02*
X7700652Y-18861829D01*
X7700652Y-18861829D02*
X7710176Y-18899924D01*
X7710176Y-18899924D02*
X7710176Y-18947543D01*
X7710176Y-18947543D02*
X7700652Y-18985639D01*
X7700652Y-18985639D02*
X7691128Y-19004686D01*
X7691128Y-19004686D02*
X7681604Y-19014210D01*
X7681604Y-19014210D02*
X7662557Y-19023734D01*
X7662557Y-19023734D02*
X7643509Y-19023734D01*
X7643509Y-19023734D02*
X7624461Y-19014210D01*
X7624461Y-19014210D02*
X7614938Y-19004686D01*
X7614938Y-19004686D02*
X7605414Y-18985639D01*
X7605414Y-18985639D02*
X7595890Y-18947543D01*
X7595890Y-18947543D02*
X7595890Y-18899924D01*
X7595890Y-18899924D02*
X7605414Y-18861829D01*
X7605414Y-18861829D02*
X7614938Y-18842781D01*
X7614938Y-18842781D02*
X7624461Y-18833258D01*
X7624461Y-18833258D02*
X7643509Y-18823734D01*
X7795890Y-19004686D02*
X7805414Y-19014210D01*
X7805414Y-19014210D02*
X7795890Y-19023734D01*
X7795890Y-19023734D02*
X7786366Y-19014210D01*
X7786366Y-19014210D02*
X7795890Y-19004686D01*
X7795890Y-19004686D02*
X7795890Y-19023734D01*
X7995890Y-19023734D02*
X7881604Y-19023734D01*
X7938747Y-19023734D02*
X7938747Y-18823734D01*
X7938747Y-18823734D02*
X7919700Y-18852305D01*
X7919700Y-18852305D02*
X7900652Y-18871353D01*
X7900652Y-18871353D02*
X7881604Y-18880877D01*
X8176842Y-18823734D02*
X8081604Y-18823734D01*
X8081604Y-18823734D02*
X8072081Y-18918972D01*
X8072081Y-18918972D02*
X8081604Y-18909448D01*
X8081604Y-18909448D02*
X8100652Y-18899924D01*
X8100652Y-18899924D02*
X8148271Y-18899924D01*
X8148271Y-18899924D02*
X8167319Y-18909448D01*
X8167319Y-18909448D02*
X8176842Y-18918972D01*
X8176842Y-18918972D02*
X8186366Y-18938020D01*
X8186366Y-18938020D02*
X8186366Y-18985639D01*
X8186366Y-18985639D02*
X8176842Y-19004686D01*
X8176842Y-19004686D02*
X8167319Y-19014210D01*
X8167319Y-19014210D02*
X8148271Y-19023734D01*
X8148271Y-19023734D02*
X8100652Y-19023734D01*
X8100652Y-19023734D02*
X8081604Y-19014210D01*
X8081604Y-19014210D02*
X8072081Y-19004686D01*
X8253033Y-18823734D02*
X8386366Y-18823734D01*
X8386366Y-18823734D02*
X8300652Y-19023734D01*
X8500652Y-18823734D02*
X8519700Y-18823734D01*
X8519700Y-18823734D02*
X8538747Y-18833258D01*
X8538747Y-18833258D02*
X8548271Y-18842781D01*
X8548271Y-18842781D02*
X8557795Y-18861829D01*
X8557795Y-18861829D02*
X8567319Y-18899924D01*
X8567319Y-18899924D02*
X8567319Y-18947543D01*
X8567319Y-18947543D02*
X8557795Y-18985639D01*
X8557795Y-18985639D02*
X8548271Y-19004686D01*
X8548271Y-19004686D02*
X8538747Y-19014210D01*
X8538747Y-19014210D02*
X8519700Y-19023734D01*
X8519700Y-19023734D02*
X8500652Y-19023734D01*
X8500652Y-19023734D02*
X8481604Y-19014210D01*
X8481604Y-19014210D02*
X8472081Y-19004686D01*
X8472081Y-19004686D02*
X8462557Y-18985639D01*
X8462557Y-18985639D02*
X8453033Y-18947543D01*
X8453033Y-18947543D02*
X8453033Y-18899924D01*
X8453033Y-18899924D02*
X8462557Y-18861829D01*
X8462557Y-18861829D02*
X8472081Y-18842781D01*
X8472081Y-18842781D02*
X8481604Y-18833258D01*
X8481604Y-18833258D02*
X8500652Y-18823734D01*
X8643509Y-18823734D02*
X8643509Y-18861829D01*
X8719700Y-18823734D02*
X8719700Y-18861829D01*
X9014938Y-19099924D02*
X9005414Y-19090400D01*
X9005414Y-19090400D02*
X8986366Y-19061829D01*
X8986366Y-19061829D02*
X8976843Y-19042781D01*
X8976843Y-19042781D02*
X8967319Y-19014210D01*
X8967319Y-19014210D02*
X8957795Y-18966591D01*
X8957795Y-18966591D02*
X8957795Y-18928496D01*
X8957795Y-18928496D02*
X8967319Y-18880877D01*
X8967319Y-18880877D02*
X8976843Y-18852305D01*
X8976843Y-18852305D02*
X8986366Y-18833258D01*
X8986366Y-18833258D02*
X9005414Y-18804686D01*
X9005414Y-18804686D02*
X9014938Y-18795162D01*
X9186366Y-18823734D02*
X9091128Y-18823734D01*
X9091128Y-18823734D02*
X9081605Y-18918972D01*
X9081605Y-18918972D02*
X9091128Y-18909448D01*
X9091128Y-18909448D02*
X9110176Y-18899924D01*
X9110176Y-18899924D02*
X9157795Y-18899924D01*
X9157795Y-18899924D02*
X9176843Y-18909448D01*
X9176843Y-18909448D02*
X9186366Y-18918972D01*
X9186366Y-18918972D02*
X9195890Y-18938020D01*
X9195890Y-18938020D02*
X9195890Y-18985639D01*
X9195890Y-18985639D02*
X9186366Y-19004686D01*
X9186366Y-19004686D02*
X9176843Y-19014210D01*
X9176843Y-19014210D02*
X9157795Y-19023734D01*
X9157795Y-19023734D02*
X9110176Y-19023734D01*
X9110176Y-19023734D02*
X9091128Y-19014210D01*
X9091128Y-19014210D02*
X9081605Y-19004686D01*
X9367319Y-18890400D02*
X9367319Y-19023734D01*
X9319700Y-18814210D02*
X9272081Y-18957067D01*
X9272081Y-18957067D02*
X9395890Y-18957067D01*
X9624462Y-19023734D02*
X9624462Y-18823734D01*
X9710176Y-19023734D02*
X9710176Y-18918972D01*
X9710176Y-18918972D02*
X9700652Y-18899924D01*
X9700652Y-18899924D02*
X9681605Y-18890400D01*
X9681605Y-18890400D02*
X9653033Y-18890400D01*
X9653033Y-18890400D02*
X9633986Y-18899924D01*
X9633986Y-18899924D02*
X9624462Y-18909448D01*
X9833986Y-19023734D02*
X9814938Y-19014210D01*
X9814938Y-19014210D02*
X9805414Y-19004686D01*
X9805414Y-19004686D02*
X9795890Y-18985639D01*
X9795890Y-18985639D02*
X9795890Y-18928496D01*
X9795890Y-18928496D02*
X9805414Y-18909448D01*
X9805414Y-18909448D02*
X9814938Y-18899924D01*
X9814938Y-18899924D02*
X9833986Y-18890400D01*
X9833986Y-18890400D02*
X9862557Y-18890400D01*
X9862557Y-18890400D02*
X9881605Y-18899924D01*
X9881605Y-18899924D02*
X9891128Y-18909448D01*
X9891128Y-18909448D02*
X9900652Y-18928496D01*
X9900652Y-18928496D02*
X9900652Y-18985639D01*
X9900652Y-18985639D02*
X9891128Y-19004686D01*
X9891128Y-19004686D02*
X9881605Y-19014210D01*
X9881605Y-19014210D02*
X9862557Y-19023734D01*
X9862557Y-19023734D02*
X9833986Y-19023734D01*
X10014938Y-19023734D02*
X9995890Y-19014210D01*
X9995890Y-19014210D02*
X9986367Y-18995162D01*
X9986367Y-18995162D02*
X9986367Y-18823734D01*
X10167319Y-19014210D02*
X10148271Y-19023734D01*
X10148271Y-19023734D02*
X10110176Y-19023734D01*
X10110176Y-19023734D02*
X10091128Y-19014210D01*
X10091128Y-19014210D02*
X10081605Y-18995162D01*
X10081605Y-18995162D02*
X10081605Y-18918972D01*
X10081605Y-18918972D02*
X10091128Y-18899924D01*
X10091128Y-18899924D02*
X10110176Y-18890400D01*
X10110176Y-18890400D02*
X10148271Y-18890400D01*
X10148271Y-18890400D02*
X10167319Y-18899924D01*
X10167319Y-18899924D02*
X10176843Y-18918972D01*
X10176843Y-18918972D02*
X10176843Y-18938020D01*
X10176843Y-18938020D02*
X10081605Y-18957067D01*
X10253033Y-19014210D02*
X10272081Y-19023734D01*
X10272081Y-19023734D02*
X10310176Y-19023734D01*
X10310176Y-19023734D02*
X10329224Y-19014210D01*
X10329224Y-19014210D02*
X10338748Y-18995162D01*
X10338748Y-18995162D02*
X10338748Y-18985639D01*
X10338748Y-18985639D02*
X10329224Y-18966591D01*
X10329224Y-18966591D02*
X10310176Y-18957067D01*
X10310176Y-18957067D02*
X10281605Y-18957067D01*
X10281605Y-18957067D02*
X10262557Y-18947543D01*
X10262557Y-18947543D02*
X10253033Y-18928496D01*
X10253033Y-18928496D02*
X10253033Y-18918972D01*
X10253033Y-18918972D02*
X10262557Y-18899924D01*
X10262557Y-18899924D02*
X10281605Y-18890400D01*
X10281605Y-18890400D02*
X10310176Y-18890400D01*
X10310176Y-18890400D02*
X10329224Y-18899924D01*
X10405414Y-19099924D02*
X10414938Y-19090400D01*
X10414938Y-19090400D02*
X10433986Y-19061829D01*
X10433986Y-19061829D02*
X10443509Y-19042781D01*
X10443509Y-19042781D02*
X10453033Y-19014210D01*
X10453033Y-19014210D02*
X10462557Y-18966591D01*
X10462557Y-18966591D02*
X10462557Y-18928496D01*
X10462557Y-18928496D02*
X10453033Y-18880877D01*
X10453033Y-18880877D02*
X10443509Y-18852305D01*
X10443509Y-18852305D02*
X10433986Y-18833258D01*
X10433986Y-18833258D02*
X10414938Y-18804686D01*
X10414938Y-18804686D02*
X10405414Y-18795162D01*
X10767319Y-19099924D02*
X10757795Y-19090400D01*
X10757795Y-19090400D02*
X10738748Y-19061829D01*
X10738748Y-19061829D02*
X10729224Y-19042781D01*
X10729224Y-19042781D02*
X10719700Y-19014210D01*
X10719700Y-19014210D02*
X10710176Y-18966591D01*
X10710176Y-18966591D02*
X10710176Y-18928496D01*
X10710176Y-18928496D02*
X10719700Y-18880877D01*
X10719700Y-18880877D02*
X10729224Y-18852305D01*
X10729224Y-18852305D02*
X10738748Y-18833258D01*
X10738748Y-18833258D02*
X10757795Y-18804686D01*
X10757795Y-18804686D02*
X10767319Y-18795162D01*
X10843509Y-18890400D02*
X10843509Y-19023734D01*
X10843509Y-18909448D02*
X10853033Y-18899924D01*
X10853033Y-18899924D02*
X10872081Y-18890400D01*
X10872081Y-18890400D02*
X10900652Y-18890400D01*
X10900652Y-18890400D02*
X10919700Y-18899924D01*
X10919700Y-18899924D02*
X10929224Y-18918972D01*
X10929224Y-18918972D02*
X10929224Y-19023734D01*
X11053033Y-19023734D02*
X11033986Y-19014210D01*
X11033986Y-19014210D02*
X11024462Y-19004686D01*
X11024462Y-19004686D02*
X11014938Y-18985639D01*
X11014938Y-18985639D02*
X11014938Y-18928496D01*
X11014938Y-18928496D02*
X11024462Y-18909448D01*
X11024462Y-18909448D02*
X11033986Y-18899924D01*
X11033986Y-18899924D02*
X11053033Y-18890400D01*
X11053033Y-18890400D02*
X11081605Y-18890400D01*
X11081605Y-18890400D02*
X11100652Y-18899924D01*
X11100652Y-18899924D02*
X11110176Y-18909448D01*
X11110176Y-18909448D02*
X11119700Y-18928496D01*
X11119700Y-18928496D02*
X11119700Y-18985639D01*
X11119700Y-18985639D02*
X11110176Y-19004686D01*
X11110176Y-19004686D02*
X11100652Y-19014210D01*
X11100652Y-19014210D02*
X11081605Y-19023734D01*
X11081605Y-19023734D02*
X11053033Y-19023734D01*
X11176843Y-18890400D02*
X11253033Y-18890400D01*
X11205414Y-18823734D02*
X11205414Y-18995162D01*
X11205414Y-18995162D02*
X11214938Y-19014210D01*
X11214938Y-19014210D02*
X11233986Y-19023734D01*
X11233986Y-19023734D02*
X11253033Y-19023734D01*
X11472081Y-18890400D02*
X11472081Y-19090400D01*
X11472081Y-18899924D02*
X11491128Y-18890400D01*
X11491128Y-18890400D02*
X11529224Y-18890400D01*
X11529224Y-18890400D02*
X11548271Y-18899924D01*
X11548271Y-18899924D02*
X11557795Y-18909448D01*
X11557795Y-18909448D02*
X11567319Y-18928496D01*
X11567319Y-18928496D02*
X11567319Y-18985639D01*
X11567319Y-18985639D02*
X11557795Y-19004686D01*
X11557795Y-19004686D02*
X11548271Y-19014210D01*
X11548271Y-19014210D02*
X11529224Y-19023734D01*
X11529224Y-19023734D02*
X11491128Y-19023734D01*
X11491128Y-19023734D02*
X11472081Y-19014210D01*
X11681605Y-19023734D02*
X11662557Y-19014210D01*
X11662557Y-19014210D02*
X11653033Y-18995162D01*
X11653033Y-18995162D02*
X11653033Y-18823734D01*
X11843509Y-19023734D02*
X11843509Y-18918972D01*
X11843509Y-18918972D02*
X11833986Y-18899924D01*
X11833986Y-18899924D02*
X11814938Y-18890400D01*
X11814938Y-18890400D02*
X11776843Y-18890400D01*
X11776843Y-18890400D02*
X11757795Y-18899924D01*
X11843509Y-19014210D02*
X11824462Y-19023734D01*
X11824462Y-19023734D02*
X11776843Y-19023734D01*
X11776843Y-19023734D02*
X11757795Y-19014210D01*
X11757795Y-19014210D02*
X11748271Y-18995162D01*
X11748271Y-18995162D02*
X11748271Y-18976115D01*
X11748271Y-18976115D02*
X11757795Y-18957067D01*
X11757795Y-18957067D02*
X11776843Y-18947543D01*
X11776843Y-18947543D02*
X11824462Y-18947543D01*
X11824462Y-18947543D02*
X11843509Y-18938020D01*
X11910176Y-18890400D02*
X11986367Y-18890400D01*
X11938748Y-18823734D02*
X11938748Y-18995162D01*
X11938748Y-18995162D02*
X11948271Y-19014210D01*
X11948271Y-19014210D02*
X11967319Y-19023734D01*
X11967319Y-19023734D02*
X11986367Y-19023734D01*
X12129224Y-19014210D02*
X12110176Y-19023734D01*
X12110176Y-19023734D02*
X12072081Y-19023734D01*
X12072081Y-19023734D02*
X12053033Y-19014210D01*
X12053033Y-19014210D02*
X12043509Y-18995162D01*
X12043509Y-18995162D02*
X12043509Y-18918972D01*
X12043509Y-18918972D02*
X12053033Y-18899924D01*
X12053033Y-18899924D02*
X12072081Y-18890400D01*
X12072081Y-18890400D02*
X12110176Y-18890400D01*
X12110176Y-18890400D02*
X12129224Y-18899924D01*
X12129224Y-18899924D02*
X12138748Y-18918972D01*
X12138748Y-18918972D02*
X12138748Y-18938020D01*
X12138748Y-18938020D02*
X12043509Y-18957067D01*
X12310176Y-19023734D02*
X12310176Y-18823734D01*
X12310176Y-19014210D02*
X12291129Y-19023734D01*
X12291129Y-19023734D02*
X12253033Y-19023734D01*
X12253033Y-19023734D02*
X12233986Y-19014210D01*
X12233986Y-19014210D02*
X12224462Y-19004686D01*
X12224462Y-19004686D02*
X12214938Y-18985639D01*
X12214938Y-18985639D02*
X12214938Y-18928496D01*
X12214938Y-18928496D02*
X12224462Y-18909448D01*
X12224462Y-18909448D02*
X12233986Y-18899924D01*
X12233986Y-18899924D02*
X12253033Y-18890400D01*
X12253033Y-18890400D02*
X12291129Y-18890400D01*
X12291129Y-18890400D02*
X12310176Y-18899924D01*
X12386367Y-19099924D02*
X12395890Y-19090400D01*
X12395890Y-19090400D02*
X12414938Y-19061829D01*
X12414938Y-19061829D02*
X12424462Y-19042781D01*
X12424462Y-19042781D02*
X12433986Y-19014210D01*
X12433986Y-19014210D02*
X12443509Y-18966591D01*
X12443509Y-18966591D02*
X12443509Y-18928496D01*
X12443509Y-18928496D02*
X12433986Y-18880877D01*
X12433986Y-18880877D02*
X12424462Y-18852305D01*
X12424462Y-18852305D02*
X12414938Y-18833258D01*
X12414938Y-18833258D02*
X12395890Y-18804686D01*
X12395890Y-18804686D02*
X12386367Y-18795162D01*
M02*
