  0
SECTION
  2
HEADER
  9
$ANGBASE
  50
0.0
  9
$ANGDIR
  70
1
  9
$MEASUREMENT
  70
1
  9
$INSUNITS
  70
4
  0
ENDSEC
  0
SECTION
  2
TABLES
  0
TABLE
  2
LTYPE
  70
4
  0
LTYPE
  5
40F
  2
CONTINUOUS
  70
0
  3
Solid line
  72
65
  73
0
  40
0.0
  0
LTYPE
  5
410
  2
DASHDOT
 70
0
  3
Dash Dot ____ _ ____ _
 72
65
 73
4
 40
2.0
 49
1.25
 49
-0.25
 49
0.25
 49
-0.25
  0
LTYPE
  5
411
  2
DASHED
 70
0
  3
Dashed __ __ __ __ __
 72
65
 73
2
 40
0.75
 49
0.5
 49
-0.25
  0
LTYPE
  5
43B
  2
DOTTED
 70
0
  3
Dotted .  .  .  .
 72
65
 73
2
 40
0.2
 49
0.0
 49
-0.2
  0
ENDTAB
  0
TABLE
  2
STYLE
  70
4
  0
STYLE
  2
KICAD
  70
0
  40
0
  41
1
  42
1
  50
0
  71
0
  3
isocp.shx
  0
STYLE
  2
KICADB
  70
0
  40
0
  41
1
  42
1
  50
0
  71
0
  3
isocp.shx
  0
STYLE
  2
KICADI
  70
0
  40
0
  41
1
  42
1
  50
15
  71
0
  3
isocp.shx
  0
STYLE
  2
KICADBI
  70
0
  40
0
  41
1
  42
1
  50
15
  71
0
  3
isocp.shx
  0
ENDTAB
  0
TABLE
  2
LAYER
  70
1
  0
LAYER
  2
BLACK
  70
0
  62
250
  6
CONTINUOUS
  0
ENDTAB
  0
ENDSEC
  0
SECTION
  2
ENTITIES
0
LINE
8
BLACK
6
CONTINUOUS
10
54.4237499999999983
20
-73.8174999999999955
11
73.5737499999999898
21
-73.8174999999999955
0
LINE
8
BLACK
6
CONTINUOUS
10
54.4937499999999986
20
-153.7775000000000034
11
54.4237499999999983
21
-73.8174999999999955
0
LINE
8
BLACK
6
CONTINUOUS
10
54.4937499999999986
20
-153.7775000000000034
11
78.8037499999999937
21
-153.9274999999999807
0
LINE
8
BLACK
6
CONTINUOUS
10
73.5737499999999898
20
-73.8174999999999955
11
86.59375
21
-57.3574999999999946
0
LINE
8
BLACK
6
CONTINUOUS
10
78.7637500000000017
20
-148.9675000000000011
11
78.8037499999999937
21
-153.9274999999999807
0
LINE
8
BLACK
6
CONTINUOUS
10
100.2637500000000017
20
-145.4675000000000011
11
100.2637500000000017
21
-148.9675000000000011
0
LINE
8
BLACK
6
CONTINUOUS
10
100.2637500000000017
20
-148.9675000000000011
11
78.7637500000000017
21
-148.9675000000000011
0
LINE
8
BLACK
6
CONTINUOUS
10
114.7937499999999886
20
-145.4675000000000011
11
100.2637500000000017
21
-145.4675000000000011
0
LINE
8
BLACK
6
CONTINUOUS
10
114.7937499999999886
20
-160.3474999999999966
11
114.7937499999999886
21
-145.4675000000000011
0
LINE
8
BLACK
6
CONTINUOUS
10
132.6737499999999841
20
-163.0974999999999966
11
114.7937499999999886
21
-160.3474999999999966
0
LINE
8
BLACK
6
CONTINUOUS
10
153.9937500000000057
20
-167.9174999999999898
11
132.6737499999999841
21
-163.0974999999999966
0
LINE
8
BLACK
6
CONTINUOUS
10
153.9937500000000057
20
-167.9174999999999898
11
170.5199999999999818
21
-174.1074999999999875
0
LINE
8
BLACK
6
CONTINUOUS
10
179.9137499999999932
20
-153.0074999999999932
11
170.5199999999999818
21
-174.1074999999999875
0
LINE
8
BLACK
6
CONTINUOUS
10
182.6737499999999841
20
-57.1374999999999957
11
86.59375
21
-57.3574999999999946
0
LINE
8
BLACK
6
CONTINUOUS
10
193.8937499999999829
20
-144.5275000000000034
11
179.9137499999999932
21
-153.0074999999999932
0
LINE
8
BLACK
6
CONTINUOUS
10
194.3737500000000011
20
-70.6574999999999989
11
182.6737499999999841
21
-57.1374999999999957
0
LINE
8
BLACK
6
CONTINUOUS
10
194.3737500000000011
20
-70.6574999999999989
11
194.3999999999999773
21
-94.2674999999999983
0
LINE
8
BLACK
6
CONTINUOUS
10
194.3737500000000011
20
-140.9675000000000011
11
193.8937499999999829
21
-144.5275000000000034
0
LINE
8
BLACK
6
CONTINUOUS
10
194.3999999999999773
20
-94.2674999999999983
11
196.0499999999999829
21
-94.2674999999999983
0
LINE
8
BLACK
6
CONTINUOUS
10
194.3999999999999773
20
-95.8174999999999955
11
194.3999999999999773
21
-110.5174999999999983
0
LINE
8
BLACK
6
CONTINUOUS
10
194.3999999999999773
20
-95.8174999999999955
11
196.0499999999999829
21
-95.8174999999999955
0
LINE
8
BLACK
6
CONTINUOUS
10
194.3999999999999773
20
-110.5174999999999983
11
196.0499999999999829
21
-110.5174999999999983
0
LINE
8
BLACK
6
CONTINUOUS
10
194.3999999999999773
20
-112.0174999999999983
11
194.3999999999999773
21
-126.8674999999999926
0
LINE
8
BLACK
6
CONTINUOUS
10
194.3999999999999773
20
-112.0174999999999983
11
195.9499999999999886
21
-112.0174999999999983
0
LINE
8
BLACK
6
CONTINUOUS
10
194.3999999999999773
20
-126.8674999999999926
11
195.9499999999999886
21
-126.8674999999999926
0
LINE
8
BLACK
6
CONTINUOUS
10
194.3999999999999773
20
-128.3675000000000068
11
194.3737500000000011
21
-140.9675000000000011
0
LINE
8
BLACK
6
CONTINUOUS
10
194.3999999999999773
20
-128.3675000000000068
11
195.8999999999999773
21
-128.3675000000000068
0
LINE
8
BLACK
6
CONTINUOUS
10
195.8999999999999773
20
-128.3675000000000068
11
195.8787499999999966
21
-145.6074999999999875
0
LINE
8
BLACK
6
CONTINUOUS
10
195.9499999999999886
20
-112.0174999999999983
11
195.9499999999999886
21
-126.8674999999999926
0
LINE
8
BLACK
6
CONTINUOUS
10
196.0499999999999829
20
-95.8174999999999955
11
196.0499999999999829
21
-110.5174999999999983
0
LINE
8
BLACK
6
CONTINUOUS
10
196.1174999999999784
20
-70.4249999999999972
11
196.0499999999999829
21
-94.2674999999999983
0
LINE
8
BLACK
6
CONTINUOUS
10
206.4675000000000011
20
-58.1149999999999949
11
196.1174999999999784
21
-70.4249999999999972
0
LINE
8
BLACK
6
CONTINUOUS
10
211.2574999999999932
20
-152.5149999999999864
11
195.8787499999999966
21
-145.6074999999999875
0
LINE
8
BLACK
6
CONTINUOUS
10
211.2574999999999932
20
-152.5149999999999864
11
219.0474999999999852
21
-173.8449999999999989
0
LINE
8
BLACK
6
CONTINUOUS
10
219.0474999999999852
20
-173.8449999999999989
11
238.5374999999999943
21
-166.0449999999999875
0
LINE
8
BLACK
6
CONTINUOUS
10
238.5374999999999943
20
-166.0449999999999875
11
256.2975000000000136
21
-162.7849999999999966
0
LINE
8
BLACK
6
CONTINUOUS
10
256.2975000000000136
20
-162.7849999999999966
11
275.4875000000000114
21
-158.6049999999999898
0
LINE
8
BLACK
6
CONTINUOUS
10
275.4875000000000114
20
-142.0949999999999989
11
293.8075000000000045
21
-142.0949999999999989
0
LINE
8
BLACK
6
CONTINUOUS
10
275.4875000000000114
20
-158.6049999999999898
11
275.4875000000000114
21
-142.0949999999999989
0
LINE
8
BLACK
6
CONTINUOUS
10
293.8075000000000045
20
-142.0949999999999989
11
293.8075000000000045
21
-147.3349999999999795
0
LINE
8
BLACK
6
CONTINUOUS
10
293.8075000000000045
20
-147.3349999999999795
11
312.9674999999999727
21
-147.3349999999999795
0
LINE
8
BLACK
6
CONTINUOUS
10
304.8474999999999682
20
-58.1149999999999949
11
206.4675000000000011
21
-58.1149999999999949
0
LINE
8
BLACK
6
CONTINUOUS
10
312.9674999999999727
20
-147.3349999999999795
11
312.9674999999999727
21
-152.125
0
LINE
8
BLACK
6
CONTINUOUS
10
312.9674999999999727
20
-152.125
11
334.8874999999999886
21
-152.125
0
LINE
8
BLACK
6
CONTINUOUS
10
320.4375
20
-72.1850000000000023
11
304.8474999999999682
21
-58.1149999999999949
0
LINE
8
BLACK
6
CONTINUOUS
10
334.8874999999999886
20
-72.1850000000000023
11
320.4375
21
-72.1850000000000023
0
LINE
8
BLACK
6
CONTINUOUS
10
334.8874999999999886
20
-152.125
11
334.8874999999999886
21
-72.1850000000000023
0
LINE
8
BLACK
6
CONTINUOUS
10
172.8737500000000011
20
-146.2574999999999932
11
173.1737499999999841
21
-146.5575000000000045
0
LINE
8
BLACK
6
CONTINUOUS
10
173.1737499999999841
20
-146.2574999999999932
11
172.8737500000000011
21
-146.5575000000000045
0
LINE
8
BLACK
6
CONTINUOUS
10
175.2037499999999852
20
-105.3074999999999903
11
175.5037499999999966
21
-105.6075000000000017
0
LINE
8
BLACK
6
CONTINUOUS
10
175.5037499999999966
20
-105.3074999999999903
11
175.2037499999999852
21
-105.6075000000000017
0
LINE
8
BLACK
6
CONTINUOUS
10
175.3037499999999795
20
-114.0974999999999966
11
175.6037499999999909
21
-114.3974999999999937
0
LINE
8
BLACK
6
CONTINUOUS
10
175.6037499999999909
20
-114.0974999999999966
11
175.3037499999999795
21
-114.3974999999999937
0
LINE
8
BLACK
6
CONTINUOUS
10
175.4537499999999852
20
-94.6574999999999989
11
175.7537499999999966
21
-94.957499999999996
0
LINE
8
BLACK
6
CONTINUOUS
10
175.7537499999999966
20
-94.6574999999999989
11
175.4537499999999852
21
-94.957499999999996
0
LINE
8
BLACK
6
CONTINUOUS
10
176.1372189999999875
20
-88.0750239999999991
11
176.4372189999999989
21
-88.3750239999999962
0
LINE
8
BLACK
6
CONTINUOUS
10
176.4372189999999989
20
-88.0750239999999991
11
176.1372189999999875
21
-88.3750239999999962
0
LINE
8
BLACK
6
CONTINUOUS
10
177.0203589999999849
20
-83.2793289999999899
11
177.3203589999999963
21
-83.5793290000000013
0
LINE
8
BLACK
6
CONTINUOUS
10
177.3203589999999963
20
-83.2793289999999899
11
177.0203589999999849
21
-83.5793290000000013
0
LINE
8
BLACK
6
CONTINUOUS
10
179.4137499999999932
20
-77.5076179999999937
11
179.7137500000000045
21
-77.8076179999999908
0
LINE
8
BLACK
6
CONTINUOUS
10
179.7137500000000045
20
-77.5076179999999937
11
179.4137499999999932
21
-77.8076179999999908
0
LINE
8
BLACK
6
CONTINUOUS
10
179.4137499999999932
20
-80.0574999999999903
11
179.7137500000000045
21
-80.3575000000000017
0
LINE
8
BLACK
6
CONTINUOUS
10
179.7137500000000045
20
-80.0574999999999903
11
179.4137499999999932
21
-80.3575000000000017
0
LINE
8
BLACK
6
CONTINUOUS
10
181.8937499999999829
20
-93.9874999999999972
11
182.1937499999999943
21
-94.2874999999999943
0
LINE
8
BLACK
6
CONTINUOUS
10
182.1937499999999943
20
-93.9874999999999972
11
181.8937499999999829
21
-94.2874999999999943
0
LINE
8
BLACK
6
CONTINUOUS
10
186.8337499999999807
20
-94.6174999999999926
11
187.133749999999992
21
-94.9174999999999898
0
LINE
8
BLACK
6
CONTINUOUS
10
187.133749999999992
20
-94.6174999999999926
11
186.8337499999999807
21
-94.9174999999999898
0
LINE
8
BLACK
6
CONTINUOUS
10
188.8337499999999807
20
-76.8875000000000028
11
189.133749999999992
21
-77.1875
0
LINE
8
BLACK
6
CONTINUOUS
10
189.133749999999992
20
-76.8875000000000028
11
188.8337499999999807
21
-77.1875
0
LINE
8
BLACK
6
CONTINUOUS
10
201.3125
20
-88.1131809999999973
11
201.6124999999999829
21
-88.4131809999999945
0
LINE
8
BLACK
6
CONTINUOUS
10
201.6124999999999829
20
-88.1131809999999973
11
201.3125
21
-88.4131809999999945
0
LINE
8
BLACK
6
CONTINUOUS
10
217.1099999999999852
20
-139.7012499999999875
11
217.4099999999999966
21
-140.0012499999999989
0
LINE
8
BLACK
6
CONTINUOUS
10
217.4099999999999966
20
-139.7012499999999875
11
217.1099999999999852
21
-140.0012499999999989
0
LINE
8
BLACK
6
CONTINUOUS
10
218.5199999999999818
20
-118.4112499999999955
11
218.8199999999999932
21
-118.7112499999999926
0
LINE
8
BLACK
6
CONTINUOUS
10
218.8199999999999932
20
-118.4112499999999955
11
218.5199999999999818
21
-118.7112499999999926
0
LINE
8
BLACK
6
CONTINUOUS
10
231.0052149999999926
20
-93.8800729999999959
11
231.3052149999999756
21
-94.180072999999993
0
LINE
8
BLACK
6
CONTINUOUS
10
231.3052149999999756
20
-93.8800729999999959
11
231.0052149999999926
21
-94.180072999999993
0
LINE
8
BLACK
6
CONTINUOUS
10
231.0374999999999943
20
-81.3412500000000023
11
231.3374999999999773
21
-81.6412499999999994
0
LINE
8
BLACK
6
CONTINUOUS
10
231.3374999999999773
20
-81.3412500000000023
11
231.0374999999999943
21
-81.6412499999999994
0
LINE
8
BLACK
6
CONTINUOUS
10
231.9499999999999886
20
-61.0700000000000003
11
232.25
21
-61.3699999999999974
0
LINE
8
BLACK
6
CONTINUOUS
10
232.25
20
-61.0700000000000003
11
231.9499999999999886
21
-61.3699999999999974
0
LINE
8
BLACK
6
CONTINUOUS
10
232.0699999999999932
20
-73.6512499999999903
11
232.3699999999999761
21
-73.9512500000000017
0
LINE
8
BLACK
6
CONTINUOUS
10
232.3699999999999761
20
-73.6512499999999903
11
232.0699999999999932
21
-73.9512500000000017
0
LINE
8
BLACK
6
CONTINUOUS
10
250.2580140000000029
20
-155.0592639999999847
11
250.5580139999999858
21
-155.359263999999996
0
LINE
8
BLACK
6
CONTINUOUS
10
250.5580139999999858
20
-155.0592639999999847
11
250.2580140000000029
21
-155.359263999999996
0
LINE
8
BLACK
6
CONTINUOUS
10
250.5199999999999818
20
-68.9212500000000006
11
250.8199999999999932
21
-69.2212499999999977
0
LINE
8
BLACK
6
CONTINUOUS
10
250.8199999999999932
20
-68.9212500000000006
11
250.5199999999999818
21
-69.2212499999999977
0
LINE
8
BLACK
6
CONTINUOUS
10
250.6299999999999955
20
-61.6699999999999946
11
250.9299999999999784
21
-61.9699999999999989
0
LINE
8
BLACK
6
CONTINUOUS
10
250.9299999999999784
20
-61.6699999999999946
11
250.6299999999999955
21
-61.9699999999999989
0
LINE
8
BLACK
6
CONTINUOUS
10
251.6742649999999912
20
-156.2355149999999924
11
251.9742650000000026
21
-156.5355150000000037
0
LINE
8
BLACK
6
CONTINUOUS
10
251.9742650000000026
20
-156.2355149999999924
11
251.6742649999999912
21
-156.5355150000000037
0
LINE
8
BLACK
6
CONTINUOUS
10
269.75
20
-62.269999999999996
11
270.0500000000000114
21
-62.5700000000000003
0
LINE
8
BLACK
6
CONTINUOUS
10
270.0500000000000114
20
-62.269999999999996
11
269.75
21
-62.5700000000000003
0
LINE
8
BLACK
6
CONTINUOUS
10
271.1499999999999773
20
-66.0099999999999909
11
271.4499999999999886
21
-66.3100000000000023
0
LINE
8
BLACK
6
CONTINUOUS
10
271.4499999999999886
20
-66.0099999999999909
11
271.1499999999999773
21
-66.3100000000000023
0
LINE
8
BLACK
6
CONTINUOUS
10
289.2599999999999909
20
-64.051249999999996
11
289.5600000000000023
21
-64.3512499999999932
0
LINE
8
BLACK
6
CONTINUOUS
10
289.5600000000000023
20
-64.051249999999996
11
289.2599999999999909
21
-64.3512499999999932
0
LINE
8
BLACK
6
CONTINUOUS
10
289.2599999999999909
20
-66.3512499999999932
11
289.5600000000000023
21
-66.6512499999999903
0
LINE
8
BLACK
6
CONTINUOUS
10
289.5600000000000023
20
-66.3512499999999932
11
289.2599999999999909
21
-66.6512499999999903
0
LINE
8
BLACK
6
CONTINUOUS
10
303.6299999999999955
20
-64.761250000000004
11
303.9300000000000068
21
-65.0612500000000011
0
LINE
8
BLACK
6
CONTINUOUS
10
303.9300000000000068
20
-64.761250000000004
11
303.6299999999999955
21
-65.0612500000000011
0
LINE
8
BLACK
6
CONTINUOUS
10
304.1599999999999682
20
-67.4212500000000006
11
304.4599999999999795
21
-67.7212499999999977
0
LINE
8
BLACK
6
CONTINUOUS
10
304.4599999999999795
20
-67.4212500000000006
11
304.1599999999999682
21
-67.7212499999999977
0
CIRCLE
8
BLACK
10
178.3637499999999818
20
-78.8612499999999983
40
1.25
0
CIRCLE
8
BLACK
10
178.3637499999999818
20
-82.2612499999999898
40
1.25
0
CIRCLE
8
BLACK
10
203.9975000000000023
20
-77.2249999999999943
40
1.25
0
CIRCLE
8
BLACK
10
203.9975000000000023
20
-80.625
40
1.25
0
LINE
8
BLACK
6
CONTINUOUS
10
65.4987500000000011
20
-78.7312500000000028
11
65.4987500000000011
21
-81.7312500000000028
0
LINE
8
BLACK
6
CONTINUOUS
10
63.998749999999994
20
-80.2312500000000028
11
66.9987500000000011
21
-80.2312500000000028
0
LINE
8
BLACK
6
CONTINUOUS
10
65.4987500000000011
20
-97.78125
11
65.4987500000000011
21
-100.78125
0
LINE
8
BLACK
6
CONTINUOUS
10
63.998749999999994
20
-99.28125
11
66.9987500000000011
21
-99.28125
0
LINE
8
BLACK
6
CONTINUOUS
10
65.4987500000000011
20
-116.8312499999999972
11
65.4987500000000011
21
-119.8312499999999972
0
LINE
8
BLACK
6
CONTINUOUS
10
63.998749999999994
20
-118.3312499999999972
11
66.9987500000000011
21
-118.3312499999999972
0
LINE
8
BLACK
6
CONTINUOUS
10
65.4987500000000011
20
-135.8812499999999943
11
65.4987500000000011
21
-138.8812499999999943
0
LINE
8
BLACK
6
CONTINUOUS
10
63.998749999999994
20
-137.3812499999999943
11
66.9987500000000011
21
-137.3812499999999943
0
LINE
8
BLACK
6
CONTINUOUS
10
71.8487499999999955
20
-81.2712499999999949
11
71.8487499999999955
21
-84.2712499999999949
0
LINE
8
BLACK
6
CONTINUOUS
10
70.3487499999999955
20
-82.7712499999999949
11
73.3487499999999955
21
-82.7712499999999949
0
LINE
8
BLACK
6
CONTINUOUS
10
71.8487499999999955
20
-100.321249999999992
11
71.8487499999999955
21
-103.321249999999992
0
LINE
8
BLACK
6
CONTINUOUS
10
70.3487499999999955
20
-101.821249999999992
11
73.3487499999999955
21
-101.821249999999992
0
LINE
8
BLACK
6
CONTINUOUS
10
71.8487499999999955
20
-119.3712499999999892
11
71.8487499999999955
21
-122.3712499999999892
0
LINE
8
BLACK
6
CONTINUOUS
10
70.3487499999999955
20
-120.8712499999999892
11
73.3487499999999955
21
-120.8712499999999892
0
LINE
8
BLACK
6
CONTINUOUS
10
71.8487499999999955
20
-138.4212499999999864
11
71.8487499999999955
21
-141.4212499999999864
0
LINE
8
BLACK
6
CONTINUOUS
10
70.3487499999999955
20
-139.9212499999999864
11
73.3487499999999955
21
-139.9212499999999864
0
LINE
8
BLACK
6
CONTINUOUS
10
84.5487499999999983
20
-73.96875
11
84.5487499999999983
21
-76.96875
0
LINE
8
BLACK
6
CONTINUOUS
10
83.0487499999999983
20
-75.46875
11
86.0487499999999983
21
-75.46875
0
LINE
8
BLACK
6
CONTINUOUS
10
84.5487499999999983
20
-93.071249999999992
11
84.5487499999999983
21
-96.071249999999992
0
LINE
8
BLACK
6
CONTINUOUS
10
83.0487499999999983
20
-94.571249999999992
11
86.0487499999999983
21
-94.571249999999992
0
LINE
8
BLACK
6
CONTINUOUS
10
84.5487499999999983
20
-112.0687499999999943
11
84.5487499999999983
21
-115.0687499999999943
0
LINE
8
BLACK
6
CONTINUOUS
10
83.0487499999999983
20
-113.5687499999999943
11
86.0487499999999983
21
-113.5687499999999943
0
LINE
8
BLACK
6
CONTINUOUS
10
84.5487499999999983
20
-131.1187500000000057
11
84.5487499999999983
21
-134.1187500000000057
0
LINE
8
BLACK
6
CONTINUOUS
10
83.0487499999999983
20
-132.6187500000000057
11
86.0487499999999983
21
-132.6187500000000057
0
LINE
8
BLACK
6
CONTINUOUS
10
90.8987499999999926
20
-76.508749999999992
11
90.8987499999999926
21
-79.508749999999992
0
LINE
8
BLACK
6
CONTINUOUS
10
89.3987499999999926
20
-78.008749999999992
11
92.3987499999999926
21
-78.008749999999992
0
LINE
8
BLACK
6
CONTINUOUS
10
90.8987499999999926
20
-95.6112499999999983
11
90.8987499999999926
21
-98.6112499999999983
0
LINE
8
BLACK
6
CONTINUOUS
10
89.3987499999999926
20
-97.1112499999999983
11
92.3987499999999926
21
-97.1112499999999983
0
LINE
8
BLACK
6
CONTINUOUS
10
90.8987499999999926
20
-114.6087500000000006
11
90.8987499999999926
21
-117.6087500000000006
0
LINE
8
BLACK
6
CONTINUOUS
10
89.3987499999999926
20
-116.1087500000000006
11
92.3987499999999926
21
-116.1087500000000006
0
LINE
8
BLACK
6
CONTINUOUS
10
90.8987499999999926
20
-133.6587499999999977
11
90.8987499999999926
21
-136.6587499999999977
0
LINE
8
BLACK
6
CONTINUOUS
10
89.3987499999999926
20
-135.1587499999999977
11
92.3987499999999926
21
-135.1587499999999977
0
LINE
8
BLACK
6
CONTINUOUS
10
103.5987499999999955
20
-69.5237499999999926
11
103.5987499999999955
21
-72.5237499999999926
0
LINE
8
BLACK
6
CONTINUOUS
10
102.0987499999999955
20
-71.0237499999999926
11
105.0987499999999955
21
-71.0237499999999926
0
LINE
8
BLACK
6
CONTINUOUS
10
103.5987499999999955
20
-88.5737499999999898
11
103.5987499999999955
21
-91.5737499999999898
0
LINE
8
BLACK
6
CONTINUOUS
10
102.0987499999999955
20
-90.0737499999999898
11
105.0987499999999955
21
-90.0737499999999898
0
LINE
8
BLACK
6
CONTINUOUS
10
103.5987499999999955
20
-107.6237500000000011
11
103.5987499999999955
21
-110.6237500000000011
0
LINE
8
BLACK
6
CONTINUOUS
10
102.0987499999999955
20
-109.1237500000000011
11
105.0987499999999955
21
-109.1237500000000011
0
LINE
8
BLACK
6
CONTINUOUS
10
103.5987499999999955
20
-126.6737499999999983
11
103.5987499999999955
21
-129.6737499999999841
0
LINE
8
BLACK
6
CONTINUOUS
10
102.0987499999999955
20
-128.1737499999999841
11
105.0987499999999955
21
-128.1737499999999841
0
LINE
8
BLACK
6
CONTINUOUS
10
109.9487499999999898
20
-72.0637499999999989
11
109.9487499999999898
21
-75.0637499999999989
0
LINE
8
BLACK
6
CONTINUOUS
10
108.4487499999999898
20
-73.5637499999999989
11
111.4487499999999898
21
-73.5637499999999989
0
LINE
8
BLACK
6
CONTINUOUS
10
109.9487499999999898
20
-91.113749999999996
11
109.9487499999999898
21
-94.113749999999996
0
LINE
8
BLACK
6
CONTINUOUS
10
108.4487499999999898
20
-92.613749999999996
11
111.4487499999999898
21
-92.613749999999996
0
LINE
8
BLACK
6
CONTINUOUS
10
109.9487499999999898
20
-110.1637499999999932
11
109.9487499999999898
21
-113.1637499999999932
0
LINE
8
BLACK
6
CONTINUOUS
10
108.4487499999999898
20
-111.6637499999999932
11
111.4487499999999898
21
-111.6637499999999932
0
LINE
8
BLACK
6
CONTINUOUS
10
109.9487499999999898
20
-129.2137500000000045
11
109.9487499999999898
21
-132.2137500000000045
0
LINE
8
BLACK
6
CONTINUOUS
10
108.4487499999999898
20
-130.7137500000000045
11
111.4487499999999898
21
-130.7137500000000045
0
LINE
8
BLACK
6
CONTINUOUS
10
122.6487499999999926
20
-64.761250000000004
11
122.6487499999999926
21
-67.761250000000004
0
LINE
8
BLACK
6
CONTINUOUS
10
121.1487499999999926
20
-66.261250000000004
11
124.1487499999999926
21
-66.261250000000004
0
LINE
8
BLACK
6
CONTINUOUS
10
122.6487499999999926
20
-83.863749999999996
11
122.6487499999999926
21
-86.863749999999996
0
LINE
8
BLACK
6
CONTINUOUS
10
121.1487499999999926
20
-85.363749999999996
11
124.1487499999999926
21
-85.363749999999996
0
LINE
8
BLACK
6
CONTINUOUS
10
122.6487499999999926
20
-102.8612499999999983
11
122.6487499999999926
21
-105.8612499999999983
0
LINE
8
BLACK
6
CONTINUOUS
10
121.1487499999999926
20
-104.3612499999999983
11
124.1487499999999926
21
-104.3612499999999983
0
LINE
8
BLACK
6
CONTINUOUS
10
122.6487499999999926
20
-121.9112499999999955
11
122.6487499999999926
21
-124.9112499999999955
0
LINE
8
BLACK
6
CONTINUOUS
10
121.1487499999999926
20
-123.4112499999999955
11
124.1487499999999926
21
-123.4112499999999955
0
LINE
8
BLACK
6
CONTINUOUS
10
125.0300000000000011
20
-143.0250000000000057
11
125.0300000000000011
21
-146.0250000000000057
0
LINE
8
BLACK
6
CONTINUOUS
10
123.5300000000000011
20
-144.5250000000000057
11
126.5300000000000011
21
-144.5250000000000057
0
LINE
8
BLACK
6
CONTINUOUS
10
128.9987500000000011
20
-67.301249999999996
11
128.9987500000000011
21
-70.301249999999996
0
LINE
8
BLACK
6
CONTINUOUS
10
127.4987500000000011
20
-68.801249999999996
11
130.4987500000000011
21
-68.801249999999996
0
LINE
8
BLACK
6
CONTINUOUS
10
128.9987500000000011
20
-86.4037500000000023
11
128.9987500000000011
21
-89.4037500000000023
0
LINE
8
BLACK
6
CONTINUOUS
10
127.4987500000000011
20
-87.9037500000000023
11
130.4987500000000011
21
-87.9037500000000023
0
LINE
8
BLACK
6
CONTINUOUS
10
128.9987500000000011
20
-105.4012499999999903
11
128.9987500000000011
21
-108.4012499999999903
0
LINE
8
BLACK
6
CONTINUOUS
10
127.4987500000000011
20
-106.9012499999999903
11
130.4987500000000011
21
-106.9012499999999903
0
LINE
8
BLACK
6
CONTINUOUS
10
128.9987500000000011
20
-124.4512499999999875
11
128.9987500000000011
21
-127.4512499999999875
0
LINE
8
BLACK
6
CONTINUOUS
10
127.4987500000000011
20
-125.9512499999999875
11
130.4987500000000011
21
-125.9512499999999875
0
LINE
8
BLACK
6
CONTINUOUS
10
131.3799999999999955
20
-145.5649999999999977
11
131.3799999999999955
21
-148.5649999999999977
0
LINE
8
BLACK
6
CONTINUOUS
10
129.8799999999999955
20
-147.0649999999999977
11
132.8799999999999955
21
-147.0649999999999977
0
LINE
8
BLACK
6
CONTINUOUS
10
141.6987499999999898
20
-69.2062499999999972
11
141.6987499999999898
21
-72.2062499999999972
0
LINE
8
BLACK
6
CONTINUOUS
10
140.1987499999999898
20
-70.7062499999999972
11
143.1987499999999898
21
-70.7062499999999972
0
LINE
8
BLACK
6
CONTINUOUS
10
141.6987499999999898
20
-88.3087499999999892
11
141.6987499999999898
21
-91.3087499999999892
0
LINE
8
BLACK
6
CONTINUOUS
10
140.1987499999999898
20
-89.8087499999999892
11
143.1987499999999898
21
-89.8087499999999892
0
LINE
8
BLACK
6
CONTINUOUS
10
141.6987499999999898
20
-107.3062499999999915
11
141.6987499999999898
21
-110.3062499999999915
0
LINE
8
BLACK
6
CONTINUOUS
10
140.1987499999999898
20
-108.8062499999999915
11
143.1987499999999898
21
-108.8062499999999915
0
LINE
8
BLACK
6
CONTINUOUS
10
141.6987499999999898
20
-126.3562499999999886
11
141.6987499999999898
21
-129.3562499999999886
0
LINE
8
BLACK
6
CONTINUOUS
10
140.1987499999999898
20
-127.8562499999999886
11
143.1987499999999898
21
-127.8562499999999886
0
LINE
8
BLACK
6
CONTINUOUS
10
145.0007209999999986
20
-147.106110000000001
11
145.0007209999999986
21
-150.106110000000001
0
LINE
8
BLACK
6
CONTINUOUS
10
143.5007209999999986
20
-148.606110000000001
11
146.5007209999999986
21
-148.606110000000001
0
LINE
8
BLACK
6
CONTINUOUS
10
148.0487499999999841
20
-71.7462500000000034
11
148.0487499999999841
21
-74.7462500000000034
0
LINE
8
BLACK
6
CONTINUOUS
10
146.5487499999999841
20
-73.2462500000000034
11
149.5487499999999841
21
-73.2462500000000034
0
LINE
8
BLACK
6
CONTINUOUS
10
148.0487499999999841
20
-90.8487499999999955
11
148.0487499999999841
21
-93.8487499999999955
0
LINE
8
BLACK
6
CONTINUOUS
10
146.5487499999999841
20
-92.3487499999999955
11
149.5487499999999841
21
-92.3487499999999955
0
LINE
8
BLACK
6
CONTINUOUS
10
148.0487499999999841
20
-109.8462499999999977
11
148.0487499999999841
21
-112.8462499999999977
0
LINE
8
BLACK
6
CONTINUOUS
10
146.5487499999999841
20
-111.3462499999999977
11
149.5487499999999841
21
-111.3462499999999977
0
LINE
8
BLACK
6
CONTINUOUS
10
148.0487499999999841
20
-128.8962499999999807
11
148.0487499999999841
21
-131.8962499999999807
0
LINE
8
BLACK
6
CONTINUOUS
10
146.5487499999999841
20
-130.3962499999999807
11
149.5487499999999841
21
-130.3962499999999807
0
LINE
8
BLACK
6
CONTINUOUS
10
150.8131840000000068
20
-150.7101879999999881
11
150.8131840000000068
21
-153.7101879999999881
0
LINE
8
BLACK
6
CONTINUOUS
10
149.3131840000000068
20
-152.2101879999999881
11
152.3131840000000068
21
-152.2101879999999881
0
LINE
8
BLACK
6
CONTINUOUS
10
160.7487500000000011
20
-73.96875
11
160.7487500000000011
21
-76.96875
0
LINE
8
BLACK
6
CONTINUOUS
10
159.2487500000000011
20
-75.46875
11
162.2487500000000011
21
-75.46875
0
LINE
8
BLACK
6
CONTINUOUS
10
160.7487500000000011
20
-93.0187499999999972
11
160.7487500000000011
21
-96.0187499999999972
0
LINE
8
BLACK
6
CONTINUOUS
10
159.2487500000000011
20
-94.5187499999999972
11
162.2487500000000011
21
-94.5187499999999972
0
LINE
8
BLACK
6
CONTINUOUS
10
160.7487500000000011
20
-112.0687499999999943
11
160.7487500000000011
21
-115.0687499999999943
0
LINE
8
BLACK
6
CONTINUOUS
10
159.2487500000000011
20
-113.5687499999999943
11
162.2487500000000011
21
-113.5687499999999943
0
LINE
8
BLACK
6
CONTINUOUS
10
160.7487500000000011
20
-131.1187500000000057
11
160.7487500000000011
21
-134.1187500000000057
0
LINE
8
BLACK
6
CONTINUOUS
10
159.2487500000000011
20
-132.6187500000000057
11
162.2487500000000011
21
-132.6187500000000057
0
LINE
8
BLACK
6
CONTINUOUS
10
165.0206429999999784
20
-151.6701300000000003
11
165.0206429999999784
21
-154.6701300000000003
0
LINE
8
BLACK
6
CONTINUOUS
10
163.5206429999999784
20
-153.1701300000000003
11
166.5206429999999784
21
-153.1701300000000003
0
LINE
8
BLACK
6
CONTINUOUS
10
167.0987499999999955
20
-76.508749999999992
11
167.0987499999999955
21
-79.508749999999992
0
LINE
8
BLACK
6
CONTINUOUS
10
165.5987499999999955
20
-78.008749999999992
11
168.5987499999999955
21
-78.008749999999992
0
LINE
8
BLACK
6
CONTINUOUS
10
167.0987499999999955
20
-95.5587499999999892
11
167.0987499999999955
21
-98.5587499999999892
0
LINE
8
BLACK
6
CONTINUOUS
10
165.5987499999999955
20
-97.0587499999999892
11
168.5987499999999955
21
-97.0587499999999892
0
LINE
8
BLACK
6
CONTINUOUS
10
167.0987499999999955
20
-114.6087500000000006
11
167.0987499999999955
21
-117.6087500000000006
0
LINE
8
BLACK
6
CONTINUOUS
10
165.5987499999999955
20
-116.1087500000000006
11
168.5987499999999955
21
-116.1087500000000006
0
LINE
8
BLACK
6
CONTINUOUS
10
167.0987499999999955
20
-133.6587499999999977
11
167.0987499999999955
21
-136.6587499999999977
0
LINE
8
BLACK
6
CONTINUOUS
10
165.5987499999999955
20
-135.1587499999999977
11
168.5987499999999955
21
-135.1587499999999977
0
LINE
8
BLACK
6
CONTINUOUS
10
170.1189599999999871
20
-156.2287769999999796
11
170.1189599999999871
21
-159.2287769999999796
0
LINE
8
BLACK
6
CONTINUOUS
10
168.6189599999999871
20
-157.7287769999999796
11
171.6189599999999871
21
-157.7287769999999796
0
LINE
8
BLACK
6
CONTINUOUS
10
221.471966999999978
20
-152.7513429999999914
11
221.471966999999978
21
-155.7513429999999914
0
LINE
8
BLACK
6
CONTINUOUS
10
219.971966999999978
20
-154.2513429999999914
11
222.971966999999978
21
-154.2513429999999914
0
LINE
8
BLACK
6
CONTINUOUS
10
225.4375
20
-72.9949999999999903
11
225.4375
21
-75.9949999999999903
0
LINE
8
BLACK
6
CONTINUOUS
10
223.9375
20
-74.4949999999999903
11
226.9375
21
-74.4949999999999903
0
LINE
8
BLACK
6
CONTINUOUS
10
225.4375
20
-92.0450000000000017
11
225.4375
21
-95.0450000000000017
0
LINE
8
BLACK
6
CONTINUOUS
10
223.9375
20
-93.5450000000000017
11
226.9375
21
-93.5450000000000017
0
LINE
8
BLACK
6
CONTINUOUS
10
225.4375
20
-111.0949999999999989
11
225.4375
21
-114.0949999999999989
0
LINE
8
BLACK
6
CONTINUOUS
10
223.9375
20
-112.5949999999999989
11
226.9375
21
-112.5949999999999989
0
LINE
8
BLACK
6
CONTINUOUS
10
225.4375
20
-130.1449999999999818
11
225.4375
21
-133.1449999999999818
0
LINE
8
BLACK
6
CONTINUOUS
10
223.9375
20
-131.6449999999999818
11
226.9375
21
-131.6449999999999818
0
LINE
8
BLACK
6
CONTINUOUS
10
228.3077480000000037
20
-152.9663339999999891
11
228.3077480000000037
21
-155.9663339999999891
0
LINE
8
BLACK
6
CONTINUOUS
10
226.8077480000000037
20
-154.4663339999999891
11
229.8077480000000037
21
-154.4663339999999891
0
LINE
8
BLACK
6
CONTINUOUS
10
231.7874999999999943
20
-75.5349999999999966
11
231.7874999999999943
21
-78.5349999999999966
0
LINE
8
BLACK
6
CONTINUOUS
10
230.2874999999999943
20
-77.0349999999999966
11
233.2874999999999943
21
-77.0349999999999966
0
LINE
8
BLACK
6
CONTINUOUS
10
231.7874999999999943
20
-94.5849999999999937
11
231.7874999999999943
21
-97.5849999999999937
0
LINE
8
BLACK
6
CONTINUOUS
10
230.2874999999999943
20
-96.0849999999999937
11
233.2874999999999943
21
-96.0849999999999937
0
LINE
8
BLACK
6
CONTINUOUS
10
231.7874999999999943
20
-113.6349999999999909
11
231.7874999999999943
21
-116.6349999999999909
0
LINE
8
BLACK
6
CONTINUOUS
10
230.2874999999999943
20
-115.1349999999999909
11
233.2874999999999943
21
-115.1349999999999909
0
LINE
8
BLACK
6
CONTINUOUS
10
231.7874999999999943
20
-132.6850000000000023
11
231.7874999999999943
21
-135.6850000000000023
0
LINE
8
BLACK
6
CONTINUOUS
10
230.2874999999999943
20
-134.1850000000000023
11
233.2874999999999943
21
-134.1850000000000023
0
LINE
8
BLACK
6
CONTINUOUS
10
241.2627059999999801
20
-147.3319929999999829
11
241.2627059999999801
21
-150.3319929999999829
0
LINE
8
BLACK
6
CONTINUOUS
10
239.7627059999999801
20
-148.8319929999999829
11
242.7627059999999801
21
-148.8319929999999829
0
LINE
8
BLACK
6
CONTINUOUS
10
244.4874999999999829
20
-68.2325000000000017
11
244.4874999999999829
21
-71.2325000000000017
0
LINE
8
BLACK
6
CONTINUOUS
10
242.9874999999999829
20
-69.7325000000000017
11
245.9874999999999829
21
-69.7325000000000017
0
LINE
8
BLACK
6
CONTINUOUS
10
244.4874999999999829
20
-87.2824999999999989
11
244.4874999999999829
21
-90.2824999999999989
0
LINE
8
BLACK
6
CONTINUOUS
10
242.9874999999999829
20
-88.7824999999999989
11
245.9874999999999829
21
-88.7824999999999989
0
LINE
8
BLACK
6
CONTINUOUS
10
244.4874999999999829
20
-106.332499999999996
11
244.4874999999999829
21
-109.332499999999996
0
LINE
8
BLACK
6
CONTINUOUS
10
242.9874999999999829
20
-107.832499999999996
11
245.9874999999999829
21
-107.832499999999996
0
LINE
8
BLACK
6
CONTINUOUS
10
244.4874999999999829
20
-125.3824999999999932
11
244.4874999999999829
21
-128.3824999999999932
0
LINE
8
BLACK
6
CONTINUOUS
10
242.9874999999999829
20
-126.8824999999999932
11
245.9874999999999829
21
-126.8824999999999932
0
LINE
8
BLACK
6
CONTINUOUS
10
247.9573010000000011
20
-148.7307389999999998
11
247.9573010000000011
21
-151.7307389999999998
0
LINE
8
BLACK
6
CONTINUOUS
10
246.4573010000000011
20
-150.2307389999999998
11
249.4573010000000011
21
-150.2307389999999998
0
LINE
8
BLACK
6
CONTINUOUS
10
250.8374999999999773
20
-70.7724999999999937
11
250.8374999999999773
21
-73.7724999999999937
0
LINE
8
BLACK
6
CONTINUOUS
10
249.3374999999999773
20
-72.2724999999999937
11
252.3374999999999773
21
-72.2724999999999937
0
LINE
8
BLACK
6
CONTINUOUS
10
250.8374999999999773
20
-89.8224999999999909
11
250.8374999999999773
21
-92.8224999999999909
0
LINE
8
BLACK
6
CONTINUOUS
10
249.3374999999999773
20
-91.3224999999999909
11
252.3374999999999773
21
-91.3224999999999909
0
LINE
8
BLACK
6
CONTINUOUS
10
250.8374999999999773
20
-108.8724999999999881
11
250.8374999999999773
21
-111.8724999999999881
0
LINE
8
BLACK
6
CONTINUOUS
10
249.3374999999999773
20
-110.3724999999999881
11
252.3374999999999773
21
-110.3724999999999881
0
LINE
8
BLACK
6
CONTINUOUS
10
250.8374999999999773
20
-127.9224999999999994
11
250.8374999999999773
21
-130.9224999999999852
0
LINE
8
BLACK
6
CONTINUOUS
10
249.3374999999999773
20
-129.4224999999999852
11
252.3374999999999773
21
-129.4224999999999852
0
LINE
8
BLACK
6
CONTINUOUS
10
261.15625
20
-142.0512499999999818
11
261.15625
21
-145.0512499999999818
0
LINE
8
BLACK
6
CONTINUOUS
10
259.65625
20
-143.5512499999999818
11
262.65625
21
-143.5512499999999818
0
LINE
8
BLACK
6
CONTINUOUS
10
263.5374999999999659
20
-63.4699999999999989
11
263.5374999999999659
21
-66.4699999999999989
0
LINE
8
BLACK
6
CONTINUOUS
10
262.0374999999999659
20
-64.9699999999999989
11
265.0374999999999659
21
-64.9699999999999989
0
LINE
8
BLACK
6
CONTINUOUS
10
263.5374999999999659
20
-82.519999999999996
11
263.5374999999999659
21
-85.519999999999996
0
LINE
8
BLACK
6
CONTINUOUS
10
262.0374999999999659
20
-84.019999999999996
11
265.0374999999999659
21
-84.019999999999996
0
LINE
8
BLACK
6
CONTINUOUS
10
263.5374999999999659
20
-101.5699999999999932
11
263.5374999999999659
21
-104.5699999999999932
0
LINE
8
BLACK
6
CONTINUOUS
10
262.0374999999999659
20
-103.0699999999999932
11
265.0374999999999659
21
-103.0699999999999932
0
LINE
8
BLACK
6
CONTINUOUS
10
263.5374999999999659
20
-120.6199999999999903
11
263.5374999999999659
21
-123.6199999999999903
0
LINE
8
BLACK
6
CONTINUOUS
10
262.0374999999999659
20
-122.1199999999999903
11
265.0374999999999659
21
-122.1199999999999903
0
LINE
8
BLACK
6
CONTINUOUS
10
267.5062499999999659
20
-144.5912500000000023
11
267.5062499999999659
21
-147.5912500000000023
0
LINE
8
BLACK
6
CONTINUOUS
10
266.0062499999999659
20
-146.0912500000000023
11
269.0062499999999659
21
-146.0912500000000023
0
LINE
8
BLACK
6
CONTINUOUS
10
269.8874999999999886
20
-66.0099999999999909
11
269.8874999999999886
21
-69.0099999999999909
0
LINE
8
BLACK
6
CONTINUOUS
10
268.3874999999999886
20
-67.5099999999999909
11
271.3874999999999886
21
-67.5099999999999909
0
LINE
8
BLACK
6
CONTINUOUS
10
269.8874999999999886
20
-85.0600000000000023
11
269.8874999999999886
21
-88.0600000000000023
0
LINE
8
BLACK
6
CONTINUOUS
10
268.3874999999999886
20
-86.5600000000000023
11
271.3874999999999886
21
-86.5600000000000023
0
LINE
8
BLACK
6
CONTINUOUS
10
269.8874999999999886
20
-104.1099999999999994
11
269.8874999999999886
21
-107.1099999999999994
0
LINE
8
BLACK
6
CONTINUOUS
10
268.3874999999999886
20
-105.6099999999999994
11
271.3874999999999886
21
-105.6099999999999994
0
LINE
8
BLACK
6
CONTINUOUS
10
269.8874999999999886
20
-123.1599999999999966
11
269.8874999999999886
21
-126.1599999999999966
0
LINE
8
BLACK
6
CONTINUOUS
10
268.3874999999999886
20
-124.6599999999999966
11
271.3874999999999886
21
-124.6599999999999966
0
LINE
8
BLACK
6
CONTINUOUS
10
282.5874999999999773
20
-67.914999999999992
11
282.5874999999999773
21
-70.914999999999992
0
LINE
8
BLACK
6
CONTINUOUS
10
281.0874999999999773
20
-69.414999999999992
11
284.0874999999999773
21
-69.414999999999992
0
LINE
8
BLACK
6
CONTINUOUS
10
282.5874999999999773
20
-86.9649999999999892
11
282.5874999999999773
21
-89.9649999999999892
0
LINE
8
BLACK
6
CONTINUOUS
10
281.0874999999999773
20
-88.4649999999999892
11
284.0874999999999773
21
-88.4649999999999892
0
LINE
8
BLACK
6
CONTINUOUS
10
282.5874999999999773
20
-106.0150000000000006
11
282.5874999999999773
21
-109.0150000000000006
0
LINE
8
BLACK
6
CONTINUOUS
10
281.0874999999999773
20
-107.5150000000000006
11
284.0874999999999773
21
-107.5150000000000006
0
LINE
8
BLACK
6
CONTINUOUS
10
282.5874999999999773
20
-125.0649999999999977
11
282.5874999999999773
21
-128.0649999999999977
0
LINE
8
BLACK
6
CONTINUOUS
10
281.0874999999999773
20
-126.5649999999999977
11
284.0874999999999773
21
-126.5649999999999977
0
LINE
8
BLACK
6
CONTINUOUS
10
288.9375
20
-70.4549999999999983
11
288.9375
21
-73.4549999999999983
0
LINE
8
BLACK
6
CONTINUOUS
10
287.4375
20
-71.9549999999999983
11
290.4375
21
-71.9549999999999983
0
LINE
8
BLACK
6
CONTINUOUS
10
288.9375
20
-89.5049999999999955
11
288.9375
21
-92.5049999999999955
0
LINE
8
BLACK
6
CONTINUOUS
10
287.4375
20
-91.0049999999999955
11
290.4375
21
-91.0049999999999955
0
LINE
8
BLACK
6
CONTINUOUS
10
288.9375
20
-108.5549999999999926
11
288.9375
21
-111.5549999999999926
0
LINE
8
BLACK
6
CONTINUOUS
10
287.4375
20
-110.0549999999999926
11
290.4375
21
-110.0549999999999926
0
LINE
8
BLACK
6
CONTINUOUS
10
288.9375
20
-127.6049999999999898
11
288.9375
21
-130.6049999999999898
0
LINE
8
BLACK
6
CONTINUOUS
10
287.4375
20
-129.1049999999999898
11
290.4375
21
-129.1049999999999898
0
LINE
8
BLACK
6
CONTINUOUS
10
301.6374999999999886
20
-73.3125
11
301.6374999999999886
21
-76.3125
0
LINE
8
BLACK
6
CONTINUOUS
10
300.1374999999999886
20
-74.8125
11
303.1374999999999886
21
-74.8125
0
LINE
8
BLACK
6
CONTINUOUS
10
301.6374999999999886
20
-92.3624999999999972
11
301.6374999999999886
21
-95.3624999999999972
0
LINE
8
BLACK
6
CONTINUOUS
10
300.1374999999999886
20
-93.8624999999999972
11
303.1374999999999886
21
-93.8624999999999972
0
LINE
8
BLACK
6
CONTINUOUS
10
301.6374999999999886
20
-111.4124999999999943
11
301.6374999999999886
21
-114.4124999999999943
0
LINE
8
BLACK
6
CONTINUOUS
10
300.1374999999999886
20
-112.9124999999999943
11
303.1374999999999886
21
-112.9124999999999943
0
LINE
8
BLACK
6
CONTINUOUS
10
301.6374999999999886
20
-130.4625000000000057
11
301.6374999999999886
21
-133.4625000000000057
0
LINE
8
BLACK
6
CONTINUOUS
10
300.1374999999999886
20
-131.9625000000000057
11
303.1374999999999886
21
-131.9625000000000057
0
LINE
8
BLACK
6
CONTINUOUS
10
307.9875000000000114
20
-75.852499999999992
11
307.9875000000000114
21
-78.852499999999992
0
LINE
8
BLACK
6
CONTINUOUS
10
306.4875000000000114
20
-77.352499999999992
11
309.4875000000000114
21
-77.352499999999992
0
LINE
8
BLACK
6
CONTINUOUS
10
307.9875000000000114
20
-94.9024999999999892
11
307.9875000000000114
21
-97.9024999999999892
0
LINE
8
BLACK
6
CONTINUOUS
10
306.4875000000000114
20
-96.4024999999999892
11
309.4875000000000114
21
-96.4024999999999892
0
LINE
8
BLACK
6
CONTINUOUS
10
307.9875000000000114
20
-113.9525000000000006
11
307.9875000000000114
21
-116.9525000000000006
0
LINE
8
BLACK
6
CONTINUOUS
10
306.4875000000000114
20
-115.4525000000000006
11
309.4875000000000114
21
-115.4525000000000006
0
LINE
8
BLACK
6
CONTINUOUS
10
307.9875000000000114
20
-133.0024999999999977
11
307.9875000000000114
21
-136.0024999999999977
0
LINE
8
BLACK
6
CONTINUOUS
10
306.4875000000000114
20
-134.5024999999999977
11
309.4875000000000114
21
-134.5024999999999977
0
LINE
8
BLACK
6
CONTINUOUS
10
320.6875
20
-77.7574999999999932
11
320.6875
21
-80.7574999999999932
0
LINE
8
BLACK
6
CONTINUOUS
10
319.1875
20
-79.2574999999999932
11
322.1875
21
-79.2574999999999932
0
LINE
8
BLACK
6
CONTINUOUS
10
320.6875
20
-96.8074999999999903
11
320.6875
21
-99.8074999999999903
0
LINE
8
BLACK
6
CONTINUOUS
10
319.1875
20
-98.3074999999999903
11
322.1875
21
-98.3074999999999903
0
LINE
8
BLACK
6
CONTINUOUS
10
320.6875
20
-115.8575000000000017
11
320.6875
21
-118.8575000000000017
0
LINE
8
BLACK
6
CONTINUOUS
10
319.1875
20
-117.3575000000000017
11
322.1875
21
-117.3575000000000017
0
LINE
8
BLACK
6
CONTINUOUS
10
320.6875
20
-134.9074999999999989
11
320.6875
21
-137.9074999999999989
0
LINE
8
BLACK
6
CONTINUOUS
10
319.1875
20
-136.4074999999999989
11
322.1875
21
-136.4074999999999989
0
LINE
8
BLACK
6
CONTINUOUS
10
327.0374999999999659
20
-80.2974999999999994
11
327.0374999999999659
21
-83.2974999999999994
0
LINE
8
BLACK
6
CONTINUOUS
10
325.5374999999999659
20
-81.7974999999999994
11
328.5374999999999659
21
-81.7974999999999994
0
LINE
8
BLACK
6
CONTINUOUS
10
327.0374999999999659
20
-99.3474999999999966
11
327.0374999999999659
21
-102.3474999999999966
0
LINE
8
BLACK
6
CONTINUOUS
10
325.5374999999999659
20
-100.8474999999999966
11
328.5374999999999659
21
-100.8474999999999966
0
LINE
8
BLACK
6
CONTINUOUS
10
327.0374999999999659
20
-118.3974999999999937
11
327.0374999999999659
21
-121.3974999999999937
0
LINE
8
BLACK
6
CONTINUOUS
10
325.5374999999999659
20
-119.8974999999999937
11
328.5374999999999659
21
-119.8974999999999937
0
LINE
8
BLACK
6
CONTINUOUS
10
327.0374999999999659
20
-137.4474999999999909
11
327.0374999999999659
21
-140.4474999999999909
0
LINE
8
BLACK
6
CONTINUOUS
10
325.5374999999999659
20
-138.9474999999999909
11
328.5374999999999659
21
-138.9474999999999909
0
LINE
8
BLACK
6
CONTINUOUS
10
57.0065179999999998
20
-177.247337999999985
11
57.0065179999999998
21
-175.247337999999985
0
LINE
8
BLACK
6
CONTINUOUS
10
57.0065179999999998
20
-175.247337999999985
11
57.4827079999999953
21
-175.247337999999985
0
LINE
8
BLACK
6
CONTINUOUS
10
57.4827079999999953
20
-175.247337999999985
11
57.7684229999999985
21
-175.3425759999999798
0
LINE
8
BLACK
6
CONTINUOUS
10
57.7684229999999985
20
-175.3425759999999798
11
57.9588989999999953
21
-175.5330519999999979
0
LINE
8
BLACK
6
CONTINUOUS
10
57.9588989999999953
20
-175.5330519999999979
11
58.0541369999999972
21
-175.7235279999999875
0
LINE
8
BLACK
6
CONTINUOUS
10
58.0541369999999972
20
-175.7235279999999875
11
58.1493749999999991
21
-176.1044799999999952
0
LINE
8
BLACK
6
CONTINUOUS
10
58.1493749999999991
20
-176.1044799999999952
11
58.1493749999999991
21
-176.3901950000000056
0
LINE
8
BLACK
6
CONTINUOUS
10
58.1493749999999991
20
-176.3901950000000056
11
58.0541369999999972
21
-176.7711469999999849
0
LINE
8
BLACK
6
CONTINUOUS
10
58.0541369999999972
20
-176.7711469999999849
11
57.9588989999999953
21
-176.961623000000003
0
LINE
8
BLACK
6
CONTINUOUS
10
57.9588989999999953
20
-176.961623000000003
11
57.7684229999999985
21
-177.1520999999999901
0
LINE
8
BLACK
6
CONTINUOUS
10
57.7684229999999985
20
-177.1520999999999901
11
57.4827079999999953
21
-177.247337999999985
0
LINE
8
BLACK
6
CONTINUOUS
10
57.4827079999999953
20
-177.247337999999985
11
57.0065179999999998
21
-177.247337999999985
0
LINE
8
BLACK
6
CONTINUOUS
10
59.0065179999999998
20
-177.247337999999985
11
59.0065179999999998
21
-175.9140040000000056
0
LINE
8
BLACK
6
CONTINUOUS
10
59.0065179999999998
20
-176.2949569999999824
11
59.1017559999999946
21
-176.1044799999999952
0
LINE
8
BLACK
6
CONTINUOUS
10
59.1017559999999946
20
-176.1044799999999952
11
59.1969939999999966
21
-176.0092420000000004
0
LINE
8
BLACK
6
CONTINUOUS
10
59.1969939999999966
20
-176.0092420000000004
11
59.3874700000000004
21
-175.9140040000000056
0
LINE
8
BLACK
6
CONTINUOUS
10
59.3874700000000004
20
-175.9140040000000056
11
59.5779469999999947
21
-175.9140040000000056
0
LINE
8
BLACK
6
CONTINUOUS
10
60.244612999999994
20
-177.247337999999985
11
60.244612999999994
21
-175.9140040000000056
0
LINE
8
BLACK
6
CONTINUOUS
10
60.244612999999994
20
-175.247337999999985
11
60.1493749999999991
21
-175.3425759999999798
0
LINE
8
BLACK
6
CONTINUOUS
10
60.1493749999999991
20
-175.3425759999999798
11
60.244612999999994
21
-175.437814000000003
0
LINE
8
BLACK
6
CONTINUOUS
10
60.244612999999994
20
-175.437814000000003
11
60.3398509999999959
21
-175.3425759999999798
0
LINE
8
BLACK
6
CONTINUOUS
10
60.3398509999999959
20
-175.3425759999999798
11
60.244612999999994
21
-175.247337999999985
0
LINE
8
BLACK
6
CONTINUOUS
10
60.244612999999994
20
-175.247337999999985
11
60.244612999999994
21
-175.437814000000003
0
LINE
8
BLACK
6
CONTINUOUS
10
61.4827079999999953
20
-177.247337999999985
11
61.2922319999999985
21
-177.1520999999999901
0
LINE
8
BLACK
6
CONTINUOUS
10
61.2922319999999985
20
-177.1520999999999901
11
61.1969939999999966
21
-176.961623000000003
0
LINE
8
BLACK
6
CONTINUOUS
10
61.1969939999999966
20
-176.961623000000003
11
61.1969939999999966
21
-175.247337999999985
0
LINE
8
BLACK
6
CONTINUOUS
10
62.5303269999999998
20
-177.247337999999985
11
62.3398509999999959
21
-177.1520999999999901
0
LINE
8
BLACK
6
CONTINUOUS
10
62.3398509999999959
20
-177.1520999999999901
11
62.244612999999994
21
-176.961623000000003
0
LINE
8
BLACK
6
CONTINUOUS
10
62.244612999999994
20
-176.961623000000003
11
62.244612999999994
21
-175.247337999999985
0
LINE
8
BLACK
6
CONTINUOUS
10
64.8160419999999959
20
-177.247337999999985
11
64.8160419999999959
21
-175.247337999999985
0
LINE
8
BLACK
6
CONTINUOUS
10
64.8160419999999959
20
-175.247337999999985
11
65.4827089999999998
21
-176.6759089999999901
0
LINE
8
BLACK
6
CONTINUOUS
10
65.4827089999999998
20
-176.6759089999999901
11
66.149374999999992
21
-175.247337999999985
0
LINE
8
BLACK
6
CONTINUOUS
10
66.149374999999992
20
-175.247337999999985
11
66.149374999999992
21
-177.247337999999985
0
LINE
8
BLACK
6
CONTINUOUS
10
67.9588990000000024
20
-177.247337999999985
11
67.9588990000000024
21
-176.1997189999999875
0
LINE
8
BLACK
6
CONTINUOUS
10
67.9588990000000024
20
-176.1997189999999875
11
67.8636609999999934
21
-176.0092420000000004
0
LINE
8
BLACK
6
CONTINUOUS
10
67.8636609999999934
20
-176.0092420000000004
11
67.6731850000000037
21
-175.9140040000000056
0
LINE
8
BLACK
6
CONTINUOUS
10
67.6731850000000037
20
-175.9140040000000056
11
67.2922319999999985
21
-175.9140040000000056
0
LINE
8
BLACK
6
CONTINUOUS
10
67.2922319999999985
20
-175.9140040000000056
11
67.1017559999999946
21
-176.0092420000000004
0
LINE
8
BLACK
6
CONTINUOUS
10
67.9588990000000024
20
-177.1520999999999901
11
67.7684229999999985
21
-177.247337999999985
0
LINE
8
BLACK
6
CONTINUOUS
10
67.7684229999999985
20
-177.247337999999985
11
67.2922319999999985
21
-177.247337999999985
0
LINE
8
BLACK
6
CONTINUOUS
10
67.2922319999999985
20
-177.247337999999985
11
67.1017559999999946
21
-177.1520999999999901
0
LINE
8
BLACK
6
CONTINUOUS
10
67.1017559999999946
20
-177.1520999999999901
11
67.0065179999999998
21
-176.961623000000003
0
LINE
8
BLACK
6
CONTINUOUS
10
67.0065179999999998
20
-176.961623000000003
11
67.0065179999999998
21
-176.7711469999999849
0
LINE
8
BLACK
6
CONTINUOUS
10
67.0065179999999998
20
-176.7711469999999849
11
67.1017559999999946
21
-176.5806709999999953
0
LINE
8
BLACK
6
CONTINUOUS
10
67.1017559999999946
20
-176.5806709999999953
11
67.2922319999999985
21
-176.4854330000000004
0
LINE
8
BLACK
6
CONTINUOUS
10
67.2922319999999985
20
-176.4854330000000004
11
67.7684229999999985
21
-176.4854330000000004
0
LINE
8
BLACK
6
CONTINUOUS
10
67.7684229999999985
20
-176.4854330000000004
11
67.9588990000000024
21
-176.3901950000000056
0
LINE
8
BLACK
6
CONTINUOUS
10
68.9112799999999908
20
-175.9140040000000056
11
68.9112799999999908
21
-177.9140040000000056
0
LINE
8
BLACK
6
CONTINUOUS
10
68.9112799999999908
20
-176.0092420000000004
11
69.1017559999999946
21
-175.9140040000000056
0
LINE
8
BLACK
6
CONTINUOUS
10
69.1017559999999946
20
-175.9140040000000056
11
69.4827089999999998
21
-175.9140040000000056
0
LINE
8
BLACK
6
CONTINUOUS
10
69.4827089999999998
20
-175.9140040000000056
11
69.6731850000000037
21
-176.0092420000000004
0
LINE
8
BLACK
6
CONTINUOUS
10
69.6731850000000037
20
-176.0092420000000004
11
69.7684229999999985
21
-176.1044799999999952
0
LINE
8
BLACK
6
CONTINUOUS
10
69.7684229999999985
20
-176.1044799999999952
11
69.8636609999999934
21
-176.2949569999999824
0
LINE
8
BLACK
6
CONTINUOUS
10
69.8636609999999934
20
-176.2949569999999824
11
69.8636609999999934
21
-176.8663849999999798
0
LINE
8
BLACK
6
CONTINUOUS
10
69.8636609999999934
20
-176.8663849999999798
11
69.7684229999999985
21
-177.0568609999999978
0
LINE
8
BLACK
6
CONTINUOUS
10
69.7684229999999985
20
-177.0568609999999978
11
69.6731850000000037
21
-177.1520999999999901
0
LINE
8
BLACK
6
CONTINUOUS
10
69.6731850000000037
20
-177.1520999999999901
11
69.4827089999999998
21
-177.247337999999985
0
LINE
8
BLACK
6
CONTINUOUS
10
69.4827089999999998
20
-177.247337999999985
11
69.1017559999999946
21
-177.247337999999985
0
LINE
8
BLACK
6
CONTINUOUS
10
69.1017559999999946
20
-177.247337999999985
11
68.9112799999999908
21
-177.1520999999999901
0
LINE
8
BLACK
6
CONTINUOUS
10
70.7208040000000011
20
-177.0568609999999978
11
70.8160419999999959
21
-177.1520999999999901
0
LINE
8
BLACK
6
CONTINUOUS
10
70.8160419999999959
20
-177.1520999999999901
11
70.7208040000000011
21
-177.247337999999985
0
LINE
8
BLACK
6
CONTINUOUS
10
70.7208040000000011
20
-177.247337999999985
11
70.6255659999999921
21
-177.1520999999999901
0
LINE
8
BLACK
6
CONTINUOUS
10
70.6255659999999921
20
-177.1520999999999901
11
70.7208040000000011
21
-177.0568609999999978
0
LINE
8
BLACK
6
CONTINUOUS
10
70.7208040000000011
20
-177.0568609999999978
11
70.7208040000000011
21
-177.247337999999985
0
LINE
8
BLACK
6
CONTINUOUS
10
70.7208040000000011
20
-176.0092420000000004
11
70.8160419999999959
21
-176.1044799999999952
0
LINE
8
BLACK
6
CONTINUOUS
10
70.8160419999999959
20
-176.1044799999999952
11
70.7208040000000011
21
-176.1997189999999875
0
LINE
8
BLACK
6
CONTINUOUS
10
70.7208040000000011
20
-176.1997189999999875
11
70.6255659999999921
21
-176.1044799999999952
0
LINE
8
BLACK
6
CONTINUOUS
10
70.6255659999999921
20
-176.1044799999999952
11
70.7208040000000011
21
-176.0092420000000004
0
LINE
8
BLACK
6
CONTINUOUS
10
70.7208040000000011
20
-176.0092420000000004
11
70.7208040000000011
21
-176.1997189999999875
0
LINE
8
BLACK
6
CONTINUOUS
10
54.0987499999999955
20
-180.3824999999999932
11
54.3987499999999997
21
-180.6825000000000045
0
LINE
8
BLACK
6
CONTINUOUS
10
54.3987499999999997
20
-180.3824999999999932
11
54.0987499999999955
21
-180.6825000000000045
0
LINE
8
BLACK
6
CONTINUOUS
10
57.3874700000000004
20
-179.447338000000002
11
57.5779469999999947
21
-179.447338000000002
0
LINE
8
BLACK
6
CONTINUOUS
10
57.5779469999999947
20
-179.447338000000002
11
57.7684229999999985
21
-179.5425759999999968
0
LINE
8
BLACK
6
CONTINUOUS
10
57.7684229999999985
20
-179.5425759999999968
11
57.8636610000000005
21
-179.6378139999999917
0
LINE
8
BLACK
6
CONTINUOUS
10
57.8636610000000005
20
-179.6378139999999917
11
57.9588989999999953
21
-179.8282899999999813
0
LINE
8
BLACK
6
CONTINUOUS
10
57.9588989999999953
20
-179.8282899999999813
11
58.0541369999999972
21
-180.209241999999989
0
LINE
8
BLACK
6
CONTINUOUS
10
58.0541369999999972
20
-180.209241999999989
11
58.0541369999999972
21
-180.6854329999999891
0
LINE
8
BLACK
6
CONTINUOUS
10
58.0541369999999972
20
-180.6854329999999891
11
57.9588989999999953
21
-181.0663849999999968
0
LINE
8
BLACK
6
CONTINUOUS
10
57.9588989999999953
20
-181.0663849999999968
11
57.8636610000000005
21
-181.2568609999999865
0
LINE
8
BLACK
6
CONTINUOUS
10
57.8636610000000005
20
-181.2568609999999865
11
57.7684229999999985
21
-181.3520999999999788
0
LINE
8
BLACK
6
CONTINUOUS
10
57.7684229999999985
20
-181.3520999999999788
11
57.5779469999999947
21
-181.447338000000002
0
LINE
8
BLACK
6
CONTINUOUS
10
57.5779469999999947
20
-181.447338000000002
11
57.3874700000000004
21
-181.447338000000002
0
LINE
8
BLACK
6
CONTINUOUS
10
57.3874700000000004
20
-181.447338000000002
11
57.1969939999999966
21
-181.3520999999999788
0
LINE
8
BLACK
6
CONTINUOUS
10
57.1969939999999966
20
-181.3520999999999788
11
57.1017559999999946
21
-181.2568609999999865
0
LINE
8
BLACK
6
CONTINUOUS
10
57.1017559999999946
20
-181.2568609999999865
11
57.0065179999999998
21
-181.0663849999999968
0
LINE
8
BLACK
6
CONTINUOUS
10
57.0065179999999998
20
-181.0663849999999968
11
56.9112799999999979
21
-180.6854329999999891
0
LINE
8
BLACK
6
CONTINUOUS
10
56.9112799999999979
20
-180.6854329999999891
11
56.9112799999999979
21
-180.209241999999989
0
LINE
8
BLACK
6
CONTINUOUS
10
56.9112799999999979
20
-180.209241999999989
11
57.0065179999999998
21
-179.8282899999999813
0
LINE
8
BLACK
6
CONTINUOUS
10
57.0065179999999998
20
-179.8282899999999813
11
57.1017559999999946
21
-179.6378139999999917
0
LINE
8
BLACK
6
CONTINUOUS
10
57.1017559999999946
20
-179.6378139999999917
11
57.1969939999999966
21
-179.5425759999999968
0
LINE
8
BLACK
6
CONTINUOUS
10
57.1969939999999966
20
-179.5425759999999968
11
57.3874700000000004
21
-179.447338000000002
0
LINE
8
BLACK
6
CONTINUOUS
10
58.9112799999999979
20
-181.2568609999999865
11
59.0065179999999998
21
-181.3520999999999788
0
LINE
8
BLACK
6
CONTINUOUS
10
59.0065179999999998
20
-181.3520999999999788
11
58.9112799999999979
21
-181.447338000000002
0
LINE
8
BLACK
6
CONTINUOUS
10
58.9112799999999979
20
-181.447338000000002
11
58.8160419999999959
21
-181.3520999999999788
0
LINE
8
BLACK
6
CONTINUOUS
10
58.8160419999999959
20
-181.3520999999999788
11
58.9112799999999979
21
-181.2568609999999865
0
LINE
8
BLACK
6
CONTINUOUS
10
58.9112799999999979
20
-181.2568609999999865
11
58.9112799999999979
21
-181.447338000000002
0
LINE
8
BLACK
6
CONTINUOUS
10
59.6731849999999966
20
-179.447338000000002
11
60.9112799999999979
21
-179.447338000000002
0
LINE
8
BLACK
6
CONTINUOUS
10
60.9112799999999979
20
-179.447338000000002
11
60.244612999999994
21
-180.209241999999989
0
LINE
8
BLACK
6
CONTINUOUS
10
60.244612999999994
20
-180.209241999999989
11
60.5303279999999972
21
-180.209241999999989
0
LINE
8
BLACK
6
CONTINUOUS
10
60.5303279999999972
20
-180.209241999999989
11
60.720803999999994
21
-180.3044799999999839
0
LINE
8
BLACK
6
CONTINUOUS
10
60.720803999999994
20
-180.3044799999999839
11
60.8160419999999959
21
-180.3997190000000046
0
LINE
8
BLACK
6
CONTINUOUS
10
60.8160419999999959
20
-180.3997190000000046
11
60.9112799999999979
21
-180.5901949999999943
0
LINE
8
BLACK
6
CONTINUOUS
10
60.9112799999999979
20
-180.5901949999999943
11
60.9112799999999979
21
-181.0663849999999968
0
LINE
8
BLACK
6
CONTINUOUS
10
60.9112799999999979
20
-181.0663849999999968
11
60.8160419999999959
21
-181.2568609999999865
0
LINE
8
BLACK
6
CONTINUOUS
10
60.8160419999999959
20
-181.2568609999999865
11
60.720803999999994
21
-181.3520999999999788
0
LINE
8
BLACK
6
CONTINUOUS
10
60.720803999999994
20
-181.3520999999999788
11
60.5303279999999972
21
-181.447338000000002
0
LINE
8
BLACK
6
CONTINUOUS
10
60.5303279999999972
20
-181.447338000000002
11
59.9588989999999953
21
-181.447338000000002
0
LINE
8
BLACK
6
CONTINUOUS
10
59.9588989999999953
20
-181.447338000000002
11
59.7684229999999985
21
-181.3520999999999788
0
LINE
8
BLACK
6
CONTINUOUS
10
59.7684229999999985
20
-181.3520999999999788
11
59.6731849999999966
21
-181.2568609999999865
0
LINE
8
BLACK
6
CONTINUOUS
10
62.1493749999999991
20
-179.447338000000002
11
62.3398520000000005
21
-179.447338000000002
0
LINE
8
BLACK
6
CONTINUOUS
10
62.3398520000000005
20
-179.447338000000002
11
62.5303279999999972
21
-179.5425759999999968
0
LINE
8
BLACK
6
CONTINUOUS
10
62.5303279999999972
20
-179.5425759999999968
11
62.6255659999999992
21
-179.6378139999999917
0
LINE
8
BLACK
6
CONTINUOUS
10
62.6255659999999992
20
-179.6378139999999917
11
62.720803999999994
21
-179.8282899999999813
0
LINE
8
BLACK
6
CONTINUOUS
10
62.720803999999994
20
-179.8282899999999813
11
62.8160419999999959
21
-180.209241999999989
0
LINE
8
BLACK
6
CONTINUOUS
10
62.8160419999999959
20
-180.209241999999989
11
62.8160419999999959
21
-180.6854329999999891
0
LINE
8
BLACK
6
CONTINUOUS
10
62.8160419999999959
20
-180.6854329999999891
11
62.720803999999994
21
-181.0663849999999968
0
LINE
8
BLACK
6
CONTINUOUS
10
62.720803999999994
20
-181.0663849999999968
11
62.6255659999999992
21
-181.2568609999999865
0
LINE
8
BLACK
6
CONTINUOUS
10
62.6255659999999992
20
-181.2568609999999865
11
62.5303279999999972
21
-181.3520999999999788
0
LINE
8
BLACK
6
CONTINUOUS
10
62.5303279999999972
20
-181.3520999999999788
11
62.3398520000000005
21
-181.447338000000002
0
LINE
8
BLACK
6
CONTINUOUS
10
62.3398520000000005
20
-181.447338000000002
11
62.1493749999999991
21
-181.447338000000002
0
LINE
8
BLACK
6
CONTINUOUS
10
62.1493749999999991
20
-181.447338000000002
11
61.9588989999999953
21
-181.3520999999999788
0
LINE
8
BLACK
6
CONTINUOUS
10
61.9588989999999953
20
-181.3520999999999788
11
61.8636610000000005
21
-181.2568609999999865
0
LINE
8
BLACK
6
CONTINUOUS
10
61.8636610000000005
20
-181.2568609999999865
11
61.7684229999999985
21
-181.0663849999999968
0
LINE
8
BLACK
6
CONTINUOUS
10
61.7684229999999985
20
-181.0663849999999968
11
61.6731849999999966
21
-180.6854329999999891
0
LINE
8
BLACK
6
CONTINUOUS
10
61.6731849999999966
20
-180.6854329999999891
11
61.6731849999999966
21
-180.209241999999989
0
LINE
8
BLACK
6
CONTINUOUS
10
61.6731849999999966
20
-180.209241999999989
11
61.7684229999999985
21
-179.8282899999999813
0
LINE
8
BLACK
6
CONTINUOUS
10
61.7684229999999985
20
-179.8282899999999813
11
61.8636610000000005
21
-179.6378139999999917
0
LINE
8
BLACK
6
CONTINUOUS
10
61.8636610000000005
20
-179.6378139999999917
11
61.9588989999999953
21
-179.5425759999999968
0
LINE
8
BLACK
6
CONTINUOUS
10
61.9588989999999953
20
-179.5425759999999968
11
62.1493749999999991
21
-179.447338000000002
0
LINE
8
BLACK
6
CONTINUOUS
10
64.0541369999999972
20
-179.447338000000002
11
64.2446139999999986
21
-179.447338000000002
0
LINE
8
BLACK
6
CONTINUOUS
10
64.2446139999999986
20
-179.447338000000002
11
64.4350900000000024
21
-179.5425759999999968
0
LINE
8
BLACK
6
CONTINUOUS
10
64.4350900000000024
20
-179.5425759999999968
11
64.5303279999999972
21
-179.6378139999999917
0
LINE
8
BLACK
6
CONTINUOUS
10
64.5303279999999972
20
-179.6378139999999917
11
64.6255659999999921
21
-179.8282899999999813
0
LINE
8
BLACK
6
CONTINUOUS
10
64.6255659999999921
20
-179.8282899999999813
11
64.7208040000000011
21
-180.209241999999989
0
LINE
8
BLACK
6
CONTINUOUS
10
64.7208040000000011
20
-180.209241999999989
11
64.7208040000000011
21
-180.6854329999999891
0
LINE
8
BLACK
6
CONTINUOUS
10
64.7208040000000011
20
-180.6854329999999891
11
64.6255659999999921
21
-181.0663849999999968
0
LINE
8
BLACK
6
CONTINUOUS
10
64.6255659999999921
20
-181.0663849999999968
11
64.5303279999999972
21
-181.2568609999999865
0
LINE
8
BLACK
6
CONTINUOUS
10
64.5303279999999972
20
-181.2568609999999865
11
64.4350900000000024
21
-181.3520999999999788
0
LINE
8
BLACK
6
CONTINUOUS
10
64.4350900000000024
20
-181.3520999999999788
11
64.2446139999999986
21
-181.447338000000002
0
LINE
8
BLACK
6
CONTINUOUS
10
64.2446139999999986
20
-181.447338000000002
11
64.0541369999999972
21
-181.447338000000002
0
LINE
8
BLACK
6
CONTINUOUS
10
64.0541369999999972
20
-181.447338000000002
11
63.8636610000000005
21
-181.3520999999999788
0
LINE
8
BLACK
6
CONTINUOUS
10
63.8636610000000005
20
-181.3520999999999788
11
63.7684229999999985
21
-181.2568609999999865
0
LINE
8
BLACK
6
CONTINUOUS
10
63.7684229999999985
20
-181.2568609999999865
11
63.6731849999999966
21
-181.0663849999999968
0
LINE
8
BLACK
6
CONTINUOUS
10
63.6731849999999966
20
-181.0663849999999968
11
63.5779469999999947
21
-180.6854329999999891
0
LINE
8
BLACK
6
CONTINUOUS
10
63.5779469999999947
20
-180.6854329999999891
11
63.5779469999999947
21
-180.209241999999989
0
LINE
8
BLACK
6
CONTINUOUS
10
63.5779469999999947
20
-180.209241999999989
11
63.6731849999999966
21
-179.8282899999999813
0
LINE
8
BLACK
6
CONTINUOUS
10
63.6731849999999966
20
-179.8282899999999813
11
63.7684229999999985
21
-179.6378139999999917
0
LINE
8
BLACK
6
CONTINUOUS
10
63.7684229999999985
20
-179.6378139999999917
11
63.8636610000000005
21
-179.5425759999999968
0
LINE
8
BLACK
6
CONTINUOUS
10
63.8636610000000005
20
-179.5425759999999968
11
64.0541369999999972
21
-179.447338000000002
0
LINE
8
BLACK
6
CONTINUOUS
10
65.5779469999999947
20
-181.447338000000002
11
65.5779469999999947
21
-180.1140039999999942
0
LINE
8
BLACK
6
CONTINUOUS
10
65.5779469999999947
20
-180.3044799999999839
11
65.6731850000000037
21
-180.209241999999989
0
LINE
8
BLACK
6
CONTINUOUS
10
65.6731850000000037
20
-180.209241999999989
11
65.8636609999999934
21
-180.1140039999999942
0
LINE
8
BLACK
6
CONTINUOUS
10
65.8636609999999934
20
-180.1140039999999942
11
66.1493760000000037
21
-180.1140039999999942
0
LINE
8
BLACK
6
CONTINUOUS
10
66.1493760000000037
20
-180.1140039999999942
11
66.3398519999999934
21
-180.209241999999989
0
LINE
8
BLACK
6
CONTINUOUS
10
66.3398519999999934
20
-180.209241999999989
11
66.4350900000000024
21
-180.3997190000000046
0
LINE
8
BLACK
6
CONTINUOUS
10
66.4350900000000024
20
-180.3997190000000046
11
66.4350900000000024
21
-181.447338000000002
0
LINE
8
BLACK
6
CONTINUOUS
10
66.4350900000000024
20
-180.3997190000000046
11
66.5303279999999972
21
-180.209241999999989
0
LINE
8
BLACK
6
CONTINUOUS
10
66.5303279999999972
20
-180.209241999999989
11
66.7208040000000011
21
-180.1140039999999942
0
LINE
8
BLACK
6
CONTINUOUS
10
66.7208040000000011
20
-180.1140039999999942
11
67.0065179999999998
21
-180.1140039999999942
0
LINE
8
BLACK
6
CONTINUOUS
10
67.0065179999999998
20
-180.1140039999999942
11
67.1969950000000011
21
-180.209241999999989
0
LINE
8
BLACK
6
CONTINUOUS
10
67.1969950000000011
20
-180.209241999999989
11
67.292232999999996
21
-180.3997190000000046
0
LINE
8
BLACK
6
CONTINUOUS
10
67.292232999999996
20
-180.3997190000000046
11
67.292232999999996
21
-181.447338000000002
0
LINE
8
BLACK
6
CONTINUOUS
10
68.2446139999999986
20
-181.447338000000002
11
68.2446139999999986
21
-180.1140039999999942
0
LINE
8
BLACK
6
CONTINUOUS
10
68.2446139999999986
20
-180.3044799999999839
11
68.3398519999999934
21
-180.209241999999989
0
LINE
8
BLACK
6
CONTINUOUS
10
68.3398519999999934
20
-180.209241999999989
11
68.5303279999999972
21
-180.1140039999999942
0
LINE
8
BLACK
6
CONTINUOUS
10
68.5303279999999972
20
-180.1140039999999942
11
68.8160429999999934
21
-180.1140039999999942
0
LINE
8
BLACK
6
CONTINUOUS
10
68.8160429999999934
20
-180.1140039999999942
11
69.0065189999999973
21
-180.209241999999989
0
LINE
8
BLACK
6
CONTINUOUS
10
69.0065189999999973
20
-180.209241999999989
11
69.1017569999999921
21
-180.3997190000000046
0
LINE
8
BLACK
6
CONTINUOUS
10
69.1017569999999921
20
-180.3997190000000046
11
69.1017569999999921
21
-181.447338000000002
0
LINE
8
BLACK
6
CONTINUOUS
10
69.1017569999999921
20
-180.3997190000000046
11
69.1969950000000011
21
-180.209241999999989
0
LINE
8
BLACK
6
CONTINUOUS
10
69.1969950000000011
20
-180.209241999999989
11
69.3874709999999908
21
-180.1140039999999942
0
LINE
8
BLACK
6
CONTINUOUS
10
69.3874709999999908
20
-180.1140039999999942
11
69.6731850000000037
21
-180.1140039999999942
0
LINE
8
BLACK
6
CONTINUOUS
10
69.6731850000000037
20
-180.1140039999999942
11
69.8636619999999908
21
-180.209241999999989
0
LINE
8
BLACK
6
CONTINUOUS
10
69.8636619999999908
20
-180.209241999999989
11
69.9588999999999999
21
-180.3997190000000046
0
LINE
8
BLACK
6
CONTINUOUS
10
69.9588999999999999
20
-180.3997190000000046
11
69.9588999999999999
21
-181.447338000000002
0
LINE
8
BLACK
6
CONTINUOUS
10
73.8636619999999908
20
-179.3520999999999788
11
72.1493770000000012
21
-181.9235280000000046
0
LINE
8
BLACK
6
CONTINUOUS
10
76.4350909999999999
20
-179.447338000000002
11
76.6255680000000012
21
-179.447338000000002
0
LINE
8
BLACK
6
CONTINUOUS
10
76.6255680000000012
20
-179.447338000000002
11
76.8160439999999909
21
-179.5425759999999968
0
LINE
8
BLACK
6
CONTINUOUS
10
76.8160439999999909
20
-179.5425759999999968
11
76.9112819999999999
21
-179.6378139999999917
0
LINE
8
BLACK
6
CONTINUOUS
10
76.9112819999999999
20
-179.6378139999999917
11
77.0065199999999948
21
-179.8282899999999813
0
LINE
8
BLACK
6
CONTINUOUS
10
77.0065199999999948
20
-179.8282899999999813
11
77.1017579999999896
21
-180.209241999999989
0
LINE
8
BLACK
6
CONTINUOUS
10
77.1017579999999896
20
-180.209241999999989
11
77.1017579999999896
21
-180.6854329999999891
0
LINE
8
BLACK
6
CONTINUOUS
10
77.1017579999999896
20
-180.6854329999999891
11
77.0065199999999948
21
-181.0663849999999968
0
LINE
8
BLACK
6
CONTINUOUS
10
77.0065199999999948
20
-181.0663849999999968
11
76.9112819999999999
21
-181.2568609999999865
0
LINE
8
BLACK
6
CONTINUOUS
10
76.9112819999999999
20
-181.2568609999999865
11
76.8160439999999909
21
-181.3520999999999788
0
LINE
8
BLACK
6
CONTINUOUS
10
76.8160439999999909
20
-181.3520999999999788
11
76.6255680000000012
21
-181.447338000000002
0
LINE
8
BLACK
6
CONTINUOUS
10
76.6255680000000012
20
-181.447338000000002
11
76.4350909999999999
21
-181.447338000000002
0
LINE
8
BLACK
6
CONTINUOUS
10
76.4350909999999999
20
-181.447338000000002
11
76.244614999999996
21
-181.3520999999999788
0
LINE
8
BLACK
6
CONTINUOUS
10
76.244614999999996
20
-181.3520999999999788
11
76.1493770000000012
21
-181.2568609999999865
0
LINE
8
BLACK
6
CONTINUOUS
10
76.1493770000000012
20
-181.2568609999999865
11
76.0541389999999922
21
-181.0663849999999968
0
LINE
8
BLACK
6
CONTINUOUS
10
76.0541389999999922
20
-181.0663849999999968
11
75.9589009999999973
21
-180.6854329999999891
0
LINE
8
BLACK
6
CONTINUOUS
10
75.9589009999999973
20
-180.6854329999999891
11
75.9589009999999973
21
-180.209241999999989
0
LINE
8
BLACK
6
CONTINUOUS
10
75.9589009999999973
20
-180.209241999999989
11
76.0541389999999922
21
-179.8282899999999813
0
LINE
8
BLACK
6
CONTINUOUS
10
76.0541389999999922
20
-179.8282899999999813
11
76.1493770000000012
21
-179.6378139999999917
0
LINE
8
BLACK
6
CONTINUOUS
10
76.1493770000000012
20
-179.6378139999999917
11
76.244614999999996
21
-179.5425759999999968
0
LINE
8
BLACK
6
CONTINUOUS
10
76.244614999999996
20
-179.5425759999999968
11
76.4350909999999999
21
-179.447338000000002
0
LINE
8
BLACK
6
CONTINUOUS
10
77.9589009999999973
20
-181.2568609999999865
11
78.0541389999999922
21
-181.3520999999999788
0
LINE
8
BLACK
6
CONTINUOUS
10
78.0541389999999922
20
-181.3520999999999788
11
77.9589009999999973
21
-181.447338000000002
0
LINE
8
BLACK
6
CONTINUOUS
10
77.9589009999999973
20
-181.447338000000002
11
77.8636630000000025
21
-181.3520999999999788
0
LINE
8
BLACK
6
CONTINUOUS
10
77.8636630000000025
20
-181.3520999999999788
11
77.9589009999999973
21
-181.2568609999999865
0
LINE
8
BLACK
6
CONTINUOUS
10
77.9589009999999973
20
-181.2568609999999865
11
77.9589009999999973
21
-181.447338000000002
0
LINE
8
BLACK
6
CONTINUOUS
10
79.2922339999999934
20
-179.447338000000002
11
79.4827109999999948
21
-179.447338000000002
0
LINE
8
BLACK
6
CONTINUOUS
10
79.4827109999999948
20
-179.447338000000002
11
79.6731869999999986
21
-179.5425759999999968
0
LINE
8
BLACK
6
CONTINUOUS
10
79.6731869999999986
20
-179.5425759999999968
11
79.7684249999999935
21
-179.6378139999999917
0
LINE
8
BLACK
6
CONTINUOUS
10
79.7684249999999935
20
-179.6378139999999917
11
79.8636630000000025
21
-179.8282899999999813
0
LINE
8
BLACK
6
CONTINUOUS
10
79.8636630000000025
20
-179.8282899999999813
11
79.9589009999999973
21
-180.209241999999989
0
LINE
8
BLACK
6
CONTINUOUS
10
79.9589009999999973
20
-180.209241999999989
11
79.9589009999999973
21
-180.6854329999999891
0
LINE
8
BLACK
6
CONTINUOUS
10
79.9589009999999973
20
-180.6854329999999891
11
79.8636630000000025
21
-181.0663849999999968
0
LINE
8
BLACK
6
CONTINUOUS
10
79.8636630000000025
20
-181.0663849999999968
11
79.7684249999999935
21
-181.2568609999999865
0
LINE
8
BLACK
6
CONTINUOUS
10
79.7684249999999935
20
-181.2568609999999865
11
79.6731869999999986
21
-181.3520999999999788
0
LINE
8
BLACK
6
CONTINUOUS
10
79.6731869999999986
20
-181.3520999999999788
11
79.4827109999999948
21
-181.447338000000002
0
LINE
8
BLACK
6
CONTINUOUS
10
79.4827109999999948
20
-181.447338000000002
11
79.2922339999999934
21
-181.447338000000002
0
LINE
8
BLACK
6
CONTINUOUS
10
79.2922339999999934
20
-181.447338000000002
11
79.1017579999999896
21
-181.3520999999999788
0
LINE
8
BLACK
6
CONTINUOUS
10
79.1017579999999896
20
-181.3520999999999788
11
79.0065199999999948
21
-181.2568609999999865
0
LINE
8
BLACK
6
CONTINUOUS
10
79.0065199999999948
20
-181.2568609999999865
11
78.9112819999999999
21
-181.0663849999999968
0
LINE
8
BLACK
6
CONTINUOUS
10
78.9112819999999999
20
-181.0663849999999968
11
78.8160439999999909
21
-180.6854329999999891
0
LINE
8
BLACK
6
CONTINUOUS
10
78.8160439999999909
20
-180.6854329999999891
11
78.8160439999999909
21
-180.209241999999989
0
LINE
8
BLACK
6
CONTINUOUS
10
78.8160439999999909
20
-180.209241999999989
11
78.9112819999999999
21
-179.8282899999999813
0
LINE
8
BLACK
6
CONTINUOUS
10
78.9112819999999999
20
-179.8282899999999813
11
79.0065199999999948
21
-179.6378139999999917
0
LINE
8
BLACK
6
CONTINUOUS
10
79.0065199999999948
20
-179.6378139999999917
11
79.1017579999999896
21
-179.5425759999999968
0
LINE
8
BLACK
6
CONTINUOUS
10
79.1017579999999896
20
-179.5425759999999968
11
79.2922339999999934
21
-179.447338000000002
0
LINE
8
BLACK
6
CONTINUOUS
10
81.8636630000000025
20
-181.447338000000002
11
80.7208059999999961
21
-181.447338000000002
0
LINE
8
BLACK
6
CONTINUOUS
10
81.2922339999999934
20
-181.447338000000002
11
81.2922339999999934
21
-179.447338000000002
0
LINE
8
BLACK
6
CONTINUOUS
10
81.2922339999999934
20
-179.447338000000002
11
81.1017579999999896
21
-179.7330519999999865
0
LINE
8
BLACK
6
CONTINUOUS
10
81.1017579999999896
20
-179.7330519999999865
11
80.9112819999999999
21
-179.9235280000000046
0
LINE
8
BLACK
6
CONTINUOUS
10
80.9112819999999999
20
-179.9235280000000046
11
80.7208059999999961
21
-180.0187659999999994
0
LINE
8
BLACK
6
CONTINUOUS
10
83.7684249999999935
20
-181.447338000000002
11
82.6255680000000012
21
-181.447338000000002
0
LINE
8
BLACK
6
CONTINUOUS
10
83.1969959999999986
20
-181.447338000000002
11
83.1969959999999986
21
-179.447338000000002
0
LINE
8
BLACK
6
CONTINUOUS
10
83.1969959999999986
20
-179.447338000000002
11
83.0065199999999948
21
-179.7330519999999865
0
LINE
8
BLACK
6
CONTINUOUS
10
83.0065199999999948
20
-179.7330519999999865
11
82.8160439999999909
21
-179.9235280000000046
0
LINE
8
BLACK
6
CONTINUOUS
10
82.8160439999999909
20
-179.9235280000000046
11
82.6255680000000012
21
-180.0187659999999994
0
LINE
8
BLACK
6
CONTINUOUS
10
84.9112819999999999
20
-180.3044799999999839
11
84.7208059999999961
21
-180.209241999999989
0
LINE
8
BLACK
6
CONTINUOUS
10
84.7208059999999961
20
-180.209241999999989
11
84.6255680000000012
21
-180.1140039999999942
0
LINE
8
BLACK
6
CONTINUOUS
10
84.6255680000000012
20
-180.1140039999999942
11
84.5303299999999922
21
-179.9235280000000046
0
LINE
8
BLACK
6
CONTINUOUS
10
84.5303299999999922
20
-179.9235280000000046
11
84.5303299999999922
21
-179.8282899999999813
0
LINE
8
BLACK
6
CONTINUOUS
10
84.5303299999999922
20
-179.8282899999999813
11
84.6255680000000012
21
-179.6378139999999917
0
LINE
8
BLACK
6
CONTINUOUS
10
84.6255680000000012
20
-179.6378139999999917
11
84.7208059999999961
21
-179.5425759999999968
0
LINE
8
BLACK
6
CONTINUOUS
10
84.7208059999999961
20
-179.5425759999999968
11
84.9112819999999999
21
-179.447338000000002
0
LINE
8
BLACK
6
CONTINUOUS
10
84.9112819999999999
20
-179.447338000000002
11
85.2922349999999909
21
-179.447338000000002
0
LINE
8
BLACK
6
CONTINUOUS
10
85.2922349999999909
20
-179.447338000000002
11
85.4827109999999948
21
-179.5425759999999968
0
LINE
8
BLACK
6
CONTINUOUS
10
85.4827109999999948
20
-179.5425759999999968
11
85.5779489999999896
21
-179.6378139999999917
0
LINE
8
BLACK
6
CONTINUOUS
10
85.5779489999999896
20
-179.6378139999999917
11
85.6731869999999986
21
-179.8282899999999813
0
LINE
8
BLACK
6
CONTINUOUS
10
85.6731869999999986
20
-179.8282899999999813
11
85.6731869999999986
21
-179.9235280000000046
0
LINE
8
BLACK
6
CONTINUOUS
10
85.6731869999999986
20
-179.9235280000000046
11
85.5779489999999896
21
-180.1140039999999942
0
LINE
8
BLACK
6
CONTINUOUS
10
85.5779489999999896
20
-180.1140039999999942
11
85.4827109999999948
21
-180.209241999999989
0
LINE
8
BLACK
6
CONTINUOUS
10
85.4827109999999948
20
-180.209241999999989
11
85.2922349999999909
21
-180.3044799999999839
0
LINE
8
BLACK
6
CONTINUOUS
10
85.2922349999999909
20
-180.3044799999999839
11
84.9112819999999999
21
-180.3044799999999839
0
LINE
8
BLACK
6
CONTINUOUS
10
84.9112819999999999
20
-180.3044799999999839
11
84.7208059999999961
21
-180.3997190000000046
0
LINE
8
BLACK
6
CONTINUOUS
10
84.7208059999999961
20
-180.3997190000000046
11
84.6255680000000012
21
-180.4949569999999994
0
LINE
8
BLACK
6
CONTINUOUS
10
84.6255680000000012
20
-180.4949569999999994
11
84.5303299999999922
21
-180.6854329999999891
0
LINE
8
BLACK
6
CONTINUOUS
10
84.5303299999999922
20
-180.6854329999999891
11
84.5303299999999922
21
-181.0663849999999968
0
LINE
8
BLACK
6
CONTINUOUS
10
84.5303299999999922
20
-181.0663849999999968
11
84.6255680000000012
21
-181.2568609999999865
0
LINE
8
BLACK
6
CONTINUOUS
10
84.6255680000000012
20
-181.2568609999999865
11
84.7208059999999961
21
-181.3520999999999788
0
LINE
8
BLACK
6
CONTINUOUS
10
84.7208059999999961
20
-181.3520999999999788
11
84.9112819999999999
21
-181.447338000000002
0
LINE
8
BLACK
6
CONTINUOUS
10
84.9112819999999999
20
-181.447338000000002
11
85.2922349999999909
21
-181.447338000000002
0
LINE
8
BLACK
6
CONTINUOUS
10
85.2922349999999909
20
-181.447338000000002
11
85.4827109999999948
21
-181.3520999999999788
0
LINE
8
BLACK
6
CONTINUOUS
10
85.4827109999999948
20
-181.3520999999999788
11
85.5779489999999896
21
-181.2568609999999865
0
LINE
8
BLACK
6
CONTINUOUS
10
85.5779489999999896
20
-181.2568609999999865
11
85.6731869999999986
21
-181.0663849999999968
0
LINE
8
BLACK
6
CONTINUOUS
10
85.6731869999999986
20
-181.0663849999999968
11
85.6731869999999986
21
-180.6854329999999891
0
LINE
8
BLACK
6
CONTINUOUS
10
85.6731869999999986
20
-180.6854329999999891
11
85.5779489999999896
21
-180.4949569999999994
0
LINE
8
BLACK
6
CONTINUOUS
10
85.5779489999999896
20
-180.4949569999999994
11
85.4827109999999948
21
-180.3997190000000046
0
LINE
8
BLACK
6
CONTINUOUS
10
85.4827109999999948
20
-180.3997190000000046
11
85.2922349999999909
21
-180.3044799999999839
0
LINE
8
BLACK
6
CONTINUOUS
10
86.4350919999999974
20
-179.447338000000002
11
86.4350919999999974
21
-179.8282899999999813
0
LINE
8
BLACK
6
CONTINUOUS
10
87.1969969999999961
20
-179.447338000000002
11
87.1969969999999961
21
-179.8282899999999813
0
LINE
8
BLACK
6
CONTINUOUS
10
90.1493789999999962
20
-182.209241999999989
11
90.0541399999999896
21
-182.1140039999999942
0
LINE
8
BLACK
6
CONTINUOUS
10
90.0541399999999896
20
-182.1140039999999942
11
89.863664
21
-181.8282899999999813
0
LINE
8
BLACK
6
CONTINUOUS
10
89.863664
20
-181.8282899999999813
11
89.7684259999999909
21
-181.6378139999999917
0
LINE
8
BLACK
6
CONTINUOUS
10
89.7684259999999909
20
-181.6378139999999917
11
89.6731879999999961
21
-181.3520999999999788
0
LINE
8
BLACK
6
CONTINUOUS
10
89.6731879999999961
20
-181.3520999999999788
11
89.5779500000000013
21
-180.8759089999999787
0
LINE
8
BLACK
6
CONTINUOUS
10
89.5779500000000013
20
-180.8759089999999787
11
89.5779500000000013
21
-180.4949569999999994
0
LINE
8
BLACK
6
CONTINUOUS
10
89.5779500000000013
20
-180.4949569999999994
11
89.6731879999999961
21
-180.0187659999999994
0
LINE
8
BLACK
6
CONTINUOUS
10
89.6731879999999961
20
-180.0187659999999994
11
89.7684259999999909
21
-179.7330519999999865
0
LINE
8
BLACK
6
CONTINUOUS
10
89.7684259999999909
20
-179.7330519999999865
11
89.863664
21
-179.5425759999999968
0
LINE
8
BLACK
6
CONTINUOUS
10
89.863664
20
-179.5425759999999968
11
90.0541399999999896
21
-179.2568609999999865
0
LINE
8
BLACK
6
CONTINUOUS
10
90.0541399999999896
20
-179.2568609999999865
11
90.1493789999999962
21
-179.1616229999999916
0
LINE
8
BLACK
6
CONTINUOUS
10
90.8160450000000026
20
-179.6378139999999917
11
90.9112829999999974
21
-179.5425759999999968
0
LINE
8
BLACK
6
CONTINUOUS
10
90.9112829999999974
20
-179.5425759999999968
11
91.1017590000000013
21
-179.447338000000002
0
LINE
8
BLACK
6
CONTINUOUS
10
91.1017590000000013
20
-179.447338000000002
11
91.5779500000000013
21
-179.447338000000002
0
LINE
8
BLACK
6
CONTINUOUS
10
91.5779500000000013
20
-179.447338000000002
11
91.7684259999999909
21
-179.5425759999999968
0
LINE
8
BLACK
6
CONTINUOUS
10
91.7684259999999909
20
-179.5425759999999968
11
91.863664
21
-179.6378139999999917
0
LINE
8
BLACK
6
CONTINUOUS
10
91.863664
20
-179.6378139999999917
11
91.9589019999999948
21
-179.8282899999999813
0
LINE
8
BLACK
6
CONTINUOUS
10
91.9589019999999948
20
-179.8282899999999813
11
91.9589019999999948
21
-180.0187659999999994
0
LINE
8
BLACK
6
CONTINUOUS
10
91.9589019999999948
20
-180.0187659999999994
11
91.863664
21
-180.3044799999999839
0
LINE
8
BLACK
6
CONTINUOUS
10
91.863664
20
-180.3044799999999839
11
90.7208069999999935
21
-181.447338000000002
0
LINE
8
BLACK
6
CONTINUOUS
10
90.7208069999999935
20
-181.447338000000002
11
91.9589019999999948
21
-181.447338000000002
0
LINE
8
BLACK
6
CONTINUOUS
10
93.1017590000000013
20
-180.3044799999999839
11
92.9112829999999974
21
-180.209241999999989
0
LINE
8
BLACK
6
CONTINUOUS
10
92.9112829999999974
20
-180.209241999999989
11
92.8160450000000026
21
-180.1140039999999942
0
LINE
8
BLACK
6
CONTINUOUS
10
92.8160450000000026
20
-180.1140039999999942
11
92.7208069999999935
21
-179.9235280000000046
0
LINE
8
BLACK
6
CONTINUOUS
10
92.7208069999999935
20
-179.9235280000000046
11
92.7208069999999935
21
-179.8282899999999813
0
LINE
8
BLACK
6
CONTINUOUS
10
92.7208069999999935
20
-179.8282899999999813
11
92.8160450000000026
21
-179.6378139999999917
0
LINE
8
BLACK
6
CONTINUOUS
10
92.8160450000000026
20
-179.6378139999999917
11
92.9112829999999974
21
-179.5425759999999968
0
LINE
8
BLACK
6
CONTINUOUS
10
92.9112829999999974
20
-179.5425759999999968
11
93.1017590000000013
21
-179.447338000000002
0
LINE
8
BLACK
6
CONTINUOUS
10
93.1017590000000013
20
-179.447338000000002
11
93.4827119999999923
21
-179.447338000000002
0
LINE
8
BLACK
6
CONTINUOUS
10
93.4827119999999923
20
-179.447338000000002
11
93.6731879999999961
21
-179.5425759999999968
0
LINE
8
BLACK
6
CONTINUOUS
10
93.6731879999999961
20
-179.5425759999999968
11
93.7684259999999909
21
-179.6378139999999917
0
LINE
8
BLACK
6
CONTINUOUS
10
93.7684259999999909
20
-179.6378139999999917
11
93.863664
21
-179.8282899999999813
0
LINE
8
BLACK
6
CONTINUOUS
10
93.863664
20
-179.8282899999999813
11
93.863664
21
-179.9235280000000046
0
LINE
8
BLACK
6
CONTINUOUS
10
93.863664
20
-179.9235280000000046
11
93.7684259999999909
21
-180.1140039999999942
0
LINE
8
BLACK
6
CONTINUOUS
10
93.7684259999999909
20
-180.1140039999999942
11
93.6731879999999961
21
-180.209241999999989
0
LINE
8
BLACK
6
CONTINUOUS
10
93.6731879999999961
20
-180.209241999999989
11
93.4827119999999923
21
-180.3044799999999839
0
LINE
8
BLACK
6
CONTINUOUS
10
93.4827119999999923
20
-180.3044799999999839
11
93.1017590000000013
21
-180.3044799999999839
0
LINE
8
BLACK
6
CONTINUOUS
10
93.1017590000000013
20
-180.3044799999999839
11
92.9112829999999974
21
-180.3997190000000046
0
LINE
8
BLACK
6
CONTINUOUS
10
92.9112829999999974
20
-180.3997190000000046
11
92.8160450000000026
21
-180.4949569999999994
0
LINE
8
BLACK
6
CONTINUOUS
10
92.8160450000000026
20
-180.4949569999999994
11
92.7208069999999935
21
-180.6854329999999891
0
LINE
8
BLACK
6
CONTINUOUS
10
92.7208069999999935
20
-180.6854329999999891
11
92.7208069999999935
21
-181.0663849999999968
0
LINE
8
BLACK
6
CONTINUOUS
10
92.7208069999999935
20
-181.0663849999999968
11
92.8160450000000026
21
-181.2568609999999865
0
LINE
8
BLACK
6
CONTINUOUS
10
92.8160450000000026
20
-181.2568609999999865
11
92.9112829999999974
21
-181.3520999999999788
0
LINE
8
BLACK
6
CONTINUOUS
10
92.9112829999999974
20
-181.3520999999999788
11
93.1017590000000013
21
-181.447338000000002
0
LINE
8
BLACK
6
CONTINUOUS
10
93.1017590000000013
20
-181.447338000000002
11
93.4827119999999923
21
-181.447338000000002
0
LINE
8
BLACK
6
CONTINUOUS
10
93.4827119999999923
20
-181.447338000000002
11
93.6731879999999961
21
-181.3520999999999788
0
LINE
8
BLACK
6
CONTINUOUS
10
93.6731879999999961
20
-181.3520999999999788
11
93.7684259999999909
21
-181.2568609999999865
0
LINE
8
BLACK
6
CONTINUOUS
10
93.7684259999999909
20
-181.2568609999999865
11
93.863664
21
-181.0663849999999968
0
LINE
8
BLACK
6
CONTINUOUS
10
93.863664
20
-181.0663849999999968
11
93.863664
21
-180.6854329999999891
0
LINE
8
BLACK
6
CONTINUOUS
10
93.863664
20
-180.6854329999999891
11
93.7684259999999909
21
-180.4949569999999994
0
LINE
8
BLACK
6
CONTINUOUS
10
93.7684259999999909
20
-180.4949569999999994
11
93.6731879999999961
21
-180.3997190000000046
0
LINE
8
BLACK
6
CONTINUOUS
10
93.6731879999999961
20
-180.3997190000000046
11
93.4827119999999923
21
-180.3044799999999839
0
LINE
8
BLACK
6
CONTINUOUS
10
96.244616999999991
20
-181.447338000000002
11
96.244616999999991
21
-179.447338000000002
0
LINE
8
BLACK
6
CONTINUOUS
10
97.1017599999999987
20
-181.447338000000002
11
97.1017599999999987
21
-180.3997190000000046
0
LINE
8
BLACK
6
CONTINUOUS
10
97.1017599999999987
20
-180.3997190000000046
11
97.0065219999999897
21
-180.209241999999989
0
LINE
8
BLACK
6
CONTINUOUS
10
97.0065219999999897
20
-180.209241999999989
11
96.816046
21
-180.1140039999999942
0
LINE
8
BLACK
6
CONTINUOUS
10
96.816046
20
-180.1140039999999942
11
96.5303309999999897
21
-180.1140039999999942
0
LINE
8
BLACK
6
CONTINUOUS
10
96.5303309999999897
20
-180.1140039999999942
11
96.339855
21
-180.209241999999989
0
LINE
8
BLACK
6
CONTINUOUS
10
96.339855
20
-180.209241999999989
11
96.244616999999991
21
-180.3044799999999839
0
LINE
8
BLACK
6
CONTINUOUS
10
98.339855
20
-181.447338000000002
11
98.1493789999999962
21
-181.3520999999999788
0
LINE
8
BLACK
6
CONTINUOUS
10
98.1493789999999962
20
-181.3520999999999788
11
98.0541410000000013
21
-181.2568609999999865
0
LINE
8
BLACK
6
CONTINUOUS
10
98.0541410000000013
20
-181.2568609999999865
11
97.9589029999999923
21
-181.0663849999999968
0
LINE
8
BLACK
6
CONTINUOUS
10
97.9589029999999923
20
-181.0663849999999968
11
97.9589029999999923
21
-180.4949569999999994
0
LINE
8
BLACK
6
CONTINUOUS
10
97.9589029999999923
20
-180.4949569999999994
11
98.0541410000000013
21
-180.3044799999999839
0
LINE
8
BLACK
6
CONTINUOUS
10
98.0541410000000013
20
-180.3044799999999839
11
98.1493789999999962
21
-180.209241999999989
0
LINE
8
BLACK
6
CONTINUOUS
10
98.1493789999999962
20
-180.209241999999989
11
98.339855
21
-180.1140039999999942
0
LINE
8
BLACK
6
CONTINUOUS
10
98.339855
20
-180.1140039999999942
11
98.6255699999999962
21
-180.1140039999999942
0
LINE
8
BLACK
6
CONTINUOUS
10
98.6255699999999962
20
-180.1140039999999942
11
98.816046
21
-180.209241999999989
0
LINE
8
BLACK
6
CONTINUOUS
10
98.816046
20
-180.209241999999989
11
98.9112839999999949
21
-180.3044799999999839
0
LINE
8
BLACK
6
CONTINUOUS
10
98.9112839999999949
20
-180.3044799999999839
11
99.0065219999999897
21
-180.4949569999999994
0
LINE
8
BLACK
6
CONTINUOUS
10
99.0065219999999897
20
-180.4949569999999994
11
99.0065219999999897
21
-181.0663849999999968
0
LINE
8
BLACK
6
CONTINUOUS
10
99.0065219999999897
20
-181.0663849999999968
11
98.9112839999999949
21
-181.2568609999999865
0
LINE
8
BLACK
6
CONTINUOUS
10
98.9112839999999949
20
-181.2568609999999865
11
98.816046
21
-181.3520999999999788
0
LINE
8
BLACK
6
CONTINUOUS
10
98.816046
20
-181.3520999999999788
11
98.6255699999999962
21
-181.447338000000002
0
LINE
8
BLACK
6
CONTINUOUS
10
98.6255699999999962
20
-181.447338000000002
11
98.339855
21
-181.447338000000002
0
LINE
8
BLACK
6
CONTINUOUS
10
100.1493789999999962
20
-181.447338000000002
11
99.9589029999999923
21
-181.3520999999999788
0
LINE
8
BLACK
6
CONTINUOUS
10
99.9589029999999923
20
-181.3520999999999788
11
99.8636649999999975
21
-181.1616229999999916
0
LINE
8
BLACK
6
CONTINUOUS
10
99.8636649999999975
20
-181.1616229999999916
11
99.8636649999999975
21
-179.447338000000002
0
LINE
8
BLACK
6
CONTINUOUS
10
101.6731889999999936
20
-181.3520999999999788
11
101.4827129999999897
21
-181.447338000000002
0
LINE
8
BLACK
6
CONTINUOUS
10
101.4827129999999897
20
-181.447338000000002
11
101.1017599999999987
21
-181.447338000000002
0
LINE
8
BLACK
6
CONTINUOUS
10
101.1017599999999987
20
-181.447338000000002
11
100.9112839999999949
21
-181.3520999999999788
0
LINE
8
BLACK
6
CONTINUOUS
10
100.9112839999999949
20
-181.3520999999999788
11
100.816046
21
-181.1616229999999916
0
LINE
8
BLACK
6
CONTINUOUS
10
100.816046
20
-181.1616229999999916
11
100.816046
21
-180.3997190000000046
0
LINE
8
BLACK
6
CONTINUOUS
10
100.816046
20
-180.3997190000000046
11
100.9112839999999949
21
-180.209241999999989
0
LINE
8
BLACK
6
CONTINUOUS
10
100.9112839999999949
20
-180.209241999999989
11
101.1017599999999987
21
-180.1140039999999942
0
LINE
8
BLACK
6
CONTINUOUS
10
101.1017599999999987
20
-180.1140039999999942
11
101.4827129999999897
21
-180.1140039999999942
0
LINE
8
BLACK
6
CONTINUOUS
10
101.4827129999999897
20
-180.1140039999999942
11
101.6731889999999936
21
-180.209241999999989
0
LINE
8
BLACK
6
CONTINUOUS
10
101.6731889999999936
20
-180.209241999999989
11
101.7684269999999884
21
-180.3997190000000046
0
LINE
8
BLACK
6
CONTINUOUS
10
101.7684269999999884
20
-180.3997190000000046
11
101.7684269999999884
21
-180.5901949999999943
0
LINE
8
BLACK
6
CONTINUOUS
10
101.7684269999999884
20
-180.5901949999999943
11
100.816046
21
-180.7806709999999839
0
LINE
8
BLACK
6
CONTINUOUS
10
102.5303320000000014
20
-181.3520999999999788
11
102.720807999999991
21
-181.447338000000002
0
LINE
8
BLACK
6
CONTINUOUS
10
102.720807999999991
20
-181.447338000000002
11
103.1017599999999987
21
-181.447338000000002
0
LINE
8
BLACK
6
CONTINUOUS
10
103.1017599999999987
20
-181.447338000000002
11
103.2922370000000001
21
-181.3520999999999788
0
LINE
8
BLACK
6
CONTINUOUS
10
103.2922370000000001
20
-181.3520999999999788
11
103.3874749999999949
21
-181.1616229999999916
0
LINE
8
BLACK
6
CONTINUOUS
10
103.3874749999999949
20
-181.1616229999999916
11
103.3874749999999949
21
-181.0663849999999968
0
LINE
8
BLACK
6
CONTINUOUS
10
103.3874749999999949
20
-181.0663849999999968
11
103.2922370000000001
21
-180.8759089999999787
0
LINE
8
BLACK
6
CONTINUOUS
10
103.2922370000000001
20
-180.8759089999999787
11
103.1017599999999987
21
-180.7806709999999839
0
LINE
8
BLACK
6
CONTINUOUS
10
103.1017599999999987
20
-180.7806709999999839
11
102.816046
21
-180.7806709999999839
0
LINE
8
BLACK
6
CONTINUOUS
10
102.816046
20
-180.7806709999999839
11
102.6255699999999962
21
-180.6854329999999891
0
LINE
8
BLACK
6
CONTINUOUS
10
102.6255699999999962
20
-180.6854329999999891
11
102.5303320000000014
21
-180.4949569999999994
0
LINE
8
BLACK
6
CONTINUOUS
10
102.5303320000000014
20
-180.4949569999999994
11
102.5303320000000014
21
-180.3997190000000046
0
LINE
8
BLACK
6
CONTINUOUS
10
102.5303320000000014
20
-180.3997190000000046
11
102.6255699999999962
21
-180.209241999999989
0
LINE
8
BLACK
6
CONTINUOUS
10
102.6255699999999962
20
-180.209241999999989
11
102.816046
21
-180.1140039999999942
0
LINE
8
BLACK
6
CONTINUOUS
10
102.816046
20
-180.1140039999999942
11
103.1017599999999987
21
-180.1140039999999942
0
LINE
8
BLACK
6
CONTINUOUS
10
103.1017599999999987
20
-180.1140039999999942
11
103.2922370000000001
21
-180.209241999999989
0
LINE
8
BLACK
6
CONTINUOUS
10
104.0541419999999988
20
-182.209241999999989
11
104.1493799999999936
21
-182.1140039999999942
0
LINE
8
BLACK
6
CONTINUOUS
10
104.1493799999999936
20
-182.1140039999999942
11
104.3398559999999975
21
-181.8282899999999813
0
LINE
8
BLACK
6
CONTINUOUS
10
104.3398559999999975
20
-181.8282899999999813
11
104.4350939999999923
21
-181.6378139999999917
0
LINE
8
BLACK
6
CONTINUOUS
10
104.4350939999999923
20
-181.6378139999999917
11
104.5303320000000014
21
-181.3520999999999788
0
LINE
8
BLACK
6
CONTINUOUS
10
104.5303320000000014
20
-181.3520999999999788
11
104.6255699999999962
21
-180.8759089999999787
0
LINE
8
BLACK
6
CONTINUOUS
10
104.6255699999999962
20
-180.8759089999999787
11
104.6255699999999962
21
-180.4949569999999994
0
LINE
8
BLACK
6
CONTINUOUS
10
104.6255699999999962
20
-180.4949569999999994
11
104.5303320000000014
21
-180.0187659999999994
0
LINE
8
BLACK
6
CONTINUOUS
10
104.5303320000000014
20
-180.0187659999999994
11
104.4350939999999923
21
-179.7330519999999865
0
LINE
8
BLACK
6
CONTINUOUS
10
104.4350939999999923
20
-179.7330519999999865
11
104.3398559999999975
21
-179.5425759999999968
0
LINE
8
BLACK
6
CONTINUOUS
10
104.3398559999999975
20
-179.5425759999999968
11
104.1493799999999936
21
-179.2568609999999865
0
LINE
8
BLACK
6
CONTINUOUS
10
104.1493799999999936
20
-179.2568609999999865
11
104.0541419999999988
21
-179.1616229999999916
0
CIRCLE
8
BLACK
10
53.3987499999999997
20
-183.1724999999999852
40
1.
0
LINE
8
BLACK
6
CONTINUOUS
10
56.9112799999999979
20
-182.277813999999978
11
57.0065179999999998
21
-182.1825759999999832
0
LINE
8
BLACK
6
CONTINUOUS
10
57.0065179999999998
20
-182.1825759999999832
11
57.1969939999999966
21
-182.0873379999999884
0
LINE
8
BLACK
6
CONTINUOUS
10
57.1969939999999966
20
-182.0873379999999884
11
57.6731849999999966
21
-182.0873379999999884
0
LINE
8
BLACK
6
CONTINUOUS
10
57.6731849999999966
20
-182.0873379999999884
11
57.8636610000000005
21
-182.1825759999999832
0
LINE
8
BLACK
6
CONTINUOUS
10
57.8636610000000005
20
-182.1825759999999832
11
57.9588989999999953
21
-182.277813999999978
0
LINE
8
BLACK
6
CONTINUOUS
10
57.9588989999999953
20
-182.277813999999978
11
58.0541369999999972
21
-182.4682899999999961
0
LINE
8
BLACK
6
CONTINUOUS
10
58.0541369999999972
20
-182.4682899999999961
11
58.0541369999999972
21
-182.6587659999999858
0
LINE
8
BLACK
6
CONTINUOUS
10
58.0541369999999972
20
-182.6587659999999858
11
57.9588989999999953
21
-182.9444799999999987
0
LINE
8
BLACK
6
CONTINUOUS
10
57.9588989999999953
20
-182.9444799999999987
11
56.8160419999999959
21
-184.0873379999999884
0
LINE
8
BLACK
6
CONTINUOUS
10
56.8160419999999959
20
-184.0873379999999884
11
58.0541369999999972
21
-184.0873379999999884
0
LINE
8
BLACK
6
CONTINUOUS
10
58.9112799999999979
20
-183.8968610000000012
11
59.0065179999999998
21
-183.9920999999999935
0
LINE
8
BLACK
6
CONTINUOUS
10
59.0065179999999998
20
-183.9920999999999935
11
58.9112799999999979
21
-184.0873379999999884
0
LINE
8
BLACK
6
CONTINUOUS
10
58.9112799999999979
20
-184.0873379999999884
11
58.8160419999999959
21
-183.9920999999999935
0
LINE
8
BLACK
6
CONTINUOUS
10
58.8160419999999959
20
-183.9920999999999935
11
58.9112799999999979
21
-183.8968610000000012
0
LINE
8
BLACK
6
CONTINUOUS
10
58.9112799999999979
20
-183.8968610000000012
11
58.9112799999999979
21
-184.0873379999999884
0
LINE
8
BLACK
6
CONTINUOUS
10
60.8160419999999959
20
-182.0873379999999884
11
59.8636610000000005
21
-182.0873379999999884
0
LINE
8
BLACK
6
CONTINUOUS
10
59.8636610000000005
20
-182.0873379999999884
11
59.7684229999999985
21
-183.039718999999991
0
LINE
8
BLACK
6
CONTINUOUS
10
59.7684229999999985
20
-183.039718999999991
11
59.8636610000000005
21
-182.9444799999999987
0
LINE
8
BLACK
6
CONTINUOUS
10
59.8636610000000005
20
-182.9444799999999987
11
60.0541369999999972
21
-182.8492420000000038
0
LINE
8
BLACK
6
CONTINUOUS
10
60.0541369999999972
20
-182.8492420000000038
11
60.5303279999999972
21
-182.8492420000000038
0
LINE
8
BLACK
6
CONTINUOUS
10
60.5303279999999972
20
-182.8492420000000038
11
60.720803999999994
21
-182.9444799999999987
0
LINE
8
BLACK
6
CONTINUOUS
10
60.720803999999994
20
-182.9444799999999987
11
60.8160419999999959
21
-183.039718999999991
0
LINE
8
BLACK
6
CONTINUOUS
10
60.8160419999999959
20
-183.039718999999991
11
60.9112799999999979
21
-183.2301949999999806
0
LINE
8
BLACK
6
CONTINUOUS
10
60.9112799999999979
20
-183.2301949999999806
11
60.9112799999999979
21
-183.7063849999999832
0
LINE
8
BLACK
6
CONTINUOUS
10
60.9112799999999979
20
-183.7063849999999832
11
60.8160419999999959
21
-183.8968610000000012
0
LINE
8
BLACK
6
CONTINUOUS
10
60.8160419999999959
20
-183.8968610000000012
11
60.720803999999994
21
-183.9920999999999935
0
LINE
8
BLACK
6
CONTINUOUS
10
60.720803999999994
20
-183.9920999999999935
11
60.5303279999999972
21
-184.0873379999999884
0
LINE
8
BLACK
6
CONTINUOUS
10
60.5303279999999972
20
-184.0873379999999884
11
60.0541369999999972
21
-184.0873379999999884
0
LINE
8
BLACK
6
CONTINUOUS
10
60.0541369999999972
20
-184.0873379999999884
11
59.8636610000000005
21
-183.9920999999999935
0
LINE
8
BLACK
6
CONTINUOUS
10
59.8636610000000005
20
-183.9920999999999935
11
59.7684229999999985
21
-183.8968610000000012
0
LINE
8
BLACK
6
CONTINUOUS
10
62.1493749999999991
20
-182.0873379999999884
11
62.3398520000000005
21
-182.0873379999999884
0
LINE
8
BLACK
6
CONTINUOUS
10
62.3398520000000005
20
-182.0873379999999884
11
62.5303279999999972
21
-182.1825759999999832
0
LINE
8
BLACK
6
CONTINUOUS
10
62.5303279999999972
20
-182.1825759999999832
11
62.6255659999999992
21
-182.277813999999978
0
LINE
8
BLACK
6
CONTINUOUS
10
62.6255659999999992
20
-182.277813999999978
11
62.720803999999994
21
-182.4682899999999961
0
LINE
8
BLACK
6
CONTINUOUS
10
62.720803999999994
20
-182.4682899999999961
11
62.8160419999999959
21
-182.8492420000000038
0
LINE
8
BLACK
6
CONTINUOUS
10
62.8160419999999959
20
-182.8492420000000038
11
62.8160419999999959
21
-183.3254330000000039
0
LINE
8
BLACK
6
CONTINUOUS
10
62.8160419999999959
20
-183.3254330000000039
11
62.720803999999994
21
-183.7063849999999832
0
LINE
8
BLACK
6
CONTINUOUS
10
62.720803999999994
20
-183.7063849999999832
11
62.6255659999999992
21
-183.8968610000000012
0
LINE
8
BLACK
6
CONTINUOUS
10
62.6255659999999992
20
-183.8968610000000012
11
62.5303279999999972
21
-183.9920999999999935
0
LINE
8
BLACK
6
CONTINUOUS
10
62.5303279999999972
20
-183.9920999999999935
11
62.3398520000000005
21
-184.0873379999999884
0
LINE
8
BLACK
6
CONTINUOUS
10
62.3398520000000005
20
-184.0873379999999884
11
62.1493749999999991
21
-184.0873379999999884
0
LINE
8
BLACK
6
CONTINUOUS
10
62.1493749999999991
20
-184.0873379999999884
11
61.9588989999999953
21
-183.9920999999999935
0
LINE
8
BLACK
6
CONTINUOUS
10
61.9588989999999953
20
-183.9920999999999935
11
61.8636610000000005
21
-183.8968610000000012
0
LINE
8
BLACK
6
CONTINUOUS
10
61.8636610000000005
20
-183.8968610000000012
11
61.7684229999999985
21
-183.7063849999999832
0
LINE
8
BLACK
6
CONTINUOUS
10
61.7684229999999985
20
-183.7063849999999832
11
61.6731849999999966
21
-183.3254330000000039
0
LINE
8
BLACK
6
CONTINUOUS
10
61.6731849999999966
20
-183.3254330000000039
11
61.6731849999999966
21
-182.8492420000000038
0
LINE
8
BLACK
6
CONTINUOUS
10
61.6731849999999966
20
-182.8492420000000038
11
61.7684229999999985
21
-182.4682899999999961
0
LINE
8
BLACK
6
CONTINUOUS
10
61.7684229999999985
20
-182.4682899999999961
11
61.8636610000000005
21
-182.277813999999978
0
LINE
8
BLACK
6
CONTINUOUS
10
61.8636610000000005
20
-182.277813999999978
11
61.9588989999999953
21
-182.1825759999999832
0
LINE
8
BLACK
6
CONTINUOUS
10
61.9588989999999953
20
-182.1825759999999832
11
62.1493749999999991
21
-182.0873379999999884
0
LINE
8
BLACK
6
CONTINUOUS
10
64.0541369999999972
20
-182.0873379999999884
11
64.2446139999999986
21
-182.0873379999999884
0
LINE
8
BLACK
6
CONTINUOUS
10
64.2446139999999986
20
-182.0873379999999884
11
64.4350900000000024
21
-182.1825759999999832
0
LINE
8
BLACK
6
CONTINUOUS
10
64.4350900000000024
20
-182.1825759999999832
11
64.5303279999999972
21
-182.277813999999978
0
LINE
8
BLACK
6
CONTINUOUS
10
64.5303279999999972
20
-182.277813999999978
11
64.6255659999999921
21
-182.4682899999999961
0
LINE
8
BLACK
6
CONTINUOUS
10
64.6255659999999921
20
-182.4682899999999961
11
64.7208040000000011
21
-182.8492420000000038
0
LINE
8
BLACK
6
CONTINUOUS
10
64.7208040000000011
20
-182.8492420000000038
11
64.7208040000000011
21
-183.3254330000000039
0
LINE
8
BLACK
6
CONTINUOUS
10
64.7208040000000011
20
-183.3254330000000039
11
64.6255659999999921
21
-183.7063849999999832
0
LINE
8
BLACK
6
CONTINUOUS
10
64.6255659999999921
20
-183.7063849999999832
11
64.5303279999999972
21
-183.8968610000000012
0
LINE
8
BLACK
6
CONTINUOUS
10
64.5303279999999972
20
-183.8968610000000012
11
64.4350900000000024
21
-183.9920999999999935
0
LINE
8
BLACK
6
CONTINUOUS
10
64.4350900000000024
20
-183.9920999999999935
11
64.2446139999999986
21
-184.0873379999999884
0
LINE
8
BLACK
6
CONTINUOUS
10
64.2446139999999986
20
-184.0873379999999884
11
64.0541369999999972
21
-184.0873379999999884
0
LINE
8
BLACK
6
CONTINUOUS
10
64.0541369999999972
20
-184.0873379999999884
11
63.8636610000000005
21
-183.9920999999999935
0
LINE
8
BLACK
6
CONTINUOUS
10
63.8636610000000005
20
-183.9920999999999935
11
63.7684229999999985
21
-183.8968610000000012
0
LINE
8
BLACK
6
CONTINUOUS
10
63.7684229999999985
20
-183.8968610000000012
11
63.6731849999999966
21
-183.7063849999999832
0
LINE
8
BLACK
6
CONTINUOUS
10
63.6731849999999966
20
-183.7063849999999832
11
63.5779469999999947
21
-183.3254330000000039
0
LINE
8
BLACK
6
CONTINUOUS
10
63.5779469999999947
20
-183.3254330000000039
11
63.5779469999999947
21
-182.8492420000000038
0
LINE
8
BLACK
6
CONTINUOUS
10
63.5779469999999947
20
-182.8492420000000038
11
63.6731849999999966
21
-182.4682899999999961
0
LINE
8
BLACK
6
CONTINUOUS
10
63.6731849999999966
20
-182.4682899999999961
11
63.7684229999999985
21
-182.277813999999978
0
LINE
8
BLACK
6
CONTINUOUS
10
63.7684229999999985
20
-182.277813999999978
11
63.8636610000000005
21
-182.1825759999999832
0
LINE
8
BLACK
6
CONTINUOUS
10
63.8636610000000005
20
-182.1825759999999832
11
64.0541369999999972
21
-182.0873379999999884
0
LINE
8
BLACK
6
CONTINUOUS
10
65.5779469999999947
20
-184.0873379999999884
11
65.5779469999999947
21
-182.7540039999999806
0
LINE
8
BLACK
6
CONTINUOUS
10
65.5779469999999947
20
-182.9444799999999987
11
65.6731850000000037
21
-182.8492420000000038
0
LINE
8
BLACK
6
CONTINUOUS
10
65.6731850000000037
20
-182.8492420000000038
11
65.8636609999999934
21
-182.7540039999999806
0
LINE
8
BLACK
6
CONTINUOUS
10
65.8636609999999934
20
-182.7540039999999806
11
66.1493760000000037
21
-182.7540039999999806
0
LINE
8
BLACK
6
CONTINUOUS
10
66.1493760000000037
20
-182.7540039999999806
11
66.3398519999999934
21
-182.8492420000000038
0
LINE
8
BLACK
6
CONTINUOUS
10
66.3398519999999934
20
-182.8492420000000038
11
66.4350900000000024
21
-183.039718999999991
0
LINE
8
BLACK
6
CONTINUOUS
10
66.4350900000000024
20
-183.039718999999991
11
66.4350900000000024
21
-184.0873379999999884
0
LINE
8
BLACK
6
CONTINUOUS
10
66.4350900000000024
20
-183.039718999999991
11
66.5303279999999972
21
-182.8492420000000038
0
LINE
8
BLACK
6
CONTINUOUS
10
66.5303279999999972
20
-182.8492420000000038
11
66.7208040000000011
21
-182.7540039999999806
0
LINE
8
BLACK
6
CONTINUOUS
10
66.7208040000000011
20
-182.7540039999999806
11
67.0065179999999998
21
-182.7540039999999806
0
LINE
8
BLACK
6
CONTINUOUS
10
67.0065179999999998
20
-182.7540039999999806
11
67.1969950000000011
21
-182.8492420000000038
0
LINE
8
BLACK
6
CONTINUOUS
10
67.1969950000000011
20
-182.8492420000000038
11
67.292232999999996
21
-183.039718999999991
0
LINE
8
BLACK
6
CONTINUOUS
10
67.292232999999996
20
-183.039718999999991
11
67.292232999999996
21
-184.0873379999999884
0
LINE
8
BLACK
6
CONTINUOUS
10
68.2446139999999986
20
-184.0873379999999884
11
68.2446139999999986
21
-182.7540039999999806
0
LINE
8
BLACK
6
CONTINUOUS
10
68.2446139999999986
20
-182.9444799999999987
11
68.3398519999999934
21
-182.8492420000000038
0
LINE
8
BLACK
6
CONTINUOUS
10
68.3398519999999934
20
-182.8492420000000038
11
68.5303279999999972
21
-182.7540039999999806
0
LINE
8
BLACK
6
CONTINUOUS
10
68.5303279999999972
20
-182.7540039999999806
11
68.8160429999999934
21
-182.7540039999999806
0
LINE
8
BLACK
6
CONTINUOUS
10
68.8160429999999934
20
-182.7540039999999806
11
69.0065189999999973
21
-182.8492420000000038
0
LINE
8
BLACK
6
CONTINUOUS
10
69.0065189999999973
20
-182.8492420000000038
11
69.1017569999999921
21
-183.039718999999991
0
LINE
8
BLACK
6
CONTINUOUS
10
69.1017569999999921
20
-183.039718999999991
11
69.1017569999999921
21
-184.0873379999999884
0
LINE
8
BLACK
6
CONTINUOUS
10
69.1017569999999921
20
-183.039718999999991
11
69.1969950000000011
21
-182.8492420000000038
0
LINE
8
BLACK
6
CONTINUOUS
10
69.1969950000000011
20
-182.8492420000000038
11
69.3874709999999908
21
-182.7540039999999806
0
LINE
8
BLACK
6
CONTINUOUS
10
69.3874709999999908
20
-182.7540039999999806
11
69.6731850000000037
21
-182.7540039999999806
0
LINE
8
BLACK
6
CONTINUOUS
10
69.6731850000000037
20
-182.7540039999999806
11
69.8636619999999908
21
-182.8492420000000038
0
LINE
8
BLACK
6
CONTINUOUS
10
69.8636619999999908
20
-182.8492420000000038
11
69.9588999999999999
21
-183.039718999999991
0
LINE
8
BLACK
6
CONTINUOUS
10
69.9588999999999999
20
-183.039718999999991
11
69.9588999999999999
21
-184.0873379999999884
0
LINE
8
BLACK
6
CONTINUOUS
10
73.8636619999999908
20
-181.9920999999999935
11
72.1493770000000012
21
-184.5635279999999909
0
LINE
8
BLACK
6
CONTINUOUS
10
76.4350909999999999
20
-182.0873379999999884
11
76.6255680000000012
21
-182.0873379999999884
0
LINE
8
BLACK
6
CONTINUOUS
10
76.6255680000000012
20
-182.0873379999999884
11
76.8160439999999909
21
-182.1825759999999832
0
LINE
8
BLACK
6
CONTINUOUS
10
76.8160439999999909
20
-182.1825759999999832
11
76.9112819999999999
21
-182.277813999999978
0
LINE
8
BLACK
6
CONTINUOUS
10
76.9112819999999999
20
-182.277813999999978
11
77.0065199999999948
21
-182.4682899999999961
0
LINE
8
BLACK
6
CONTINUOUS
10
77.0065199999999948
20
-182.4682899999999961
11
77.1017579999999896
21
-182.8492420000000038
0
LINE
8
BLACK
6
CONTINUOUS
10
77.1017579999999896
20
-182.8492420000000038
11
77.1017579999999896
21
-183.3254330000000039
0
LINE
8
BLACK
6
CONTINUOUS
10
77.1017579999999896
20
-183.3254330000000039
11
77.0065199999999948
21
-183.7063849999999832
0
LINE
8
BLACK
6
CONTINUOUS
10
77.0065199999999948
20
-183.7063849999999832
11
76.9112819999999999
21
-183.8968610000000012
0
LINE
8
BLACK
6
CONTINUOUS
10
76.9112819999999999
20
-183.8968610000000012
11
76.8160439999999909
21
-183.9920999999999935
0
LINE
8
BLACK
6
CONTINUOUS
10
76.8160439999999909
20
-183.9920999999999935
11
76.6255680000000012
21
-184.0873379999999884
0
LINE
8
BLACK
6
CONTINUOUS
10
76.6255680000000012
20
-184.0873379999999884
11
76.4350909999999999
21
-184.0873379999999884
0
LINE
8
BLACK
6
CONTINUOUS
10
76.4350909999999999
20
-184.0873379999999884
11
76.244614999999996
21
-183.9920999999999935
0
LINE
8
BLACK
6
CONTINUOUS
10
76.244614999999996
20
-183.9920999999999935
11
76.1493770000000012
21
-183.8968610000000012
0
LINE
8
BLACK
6
CONTINUOUS
10
76.1493770000000012
20
-183.8968610000000012
11
76.0541389999999922
21
-183.7063849999999832
0
LINE
8
BLACK
6
CONTINUOUS
10
76.0541389999999922
20
-183.7063849999999832
11
75.9589009999999973
21
-183.3254330000000039
0
LINE
8
BLACK
6
CONTINUOUS
10
75.9589009999999973
20
-183.3254330000000039
11
75.9589009999999973
21
-182.8492420000000038
0
LINE
8
BLACK
6
CONTINUOUS
10
75.9589009999999973
20
-182.8492420000000038
11
76.0541389999999922
21
-182.4682899999999961
0
LINE
8
BLACK
6
CONTINUOUS
10
76.0541389999999922
20
-182.4682899999999961
11
76.1493770000000012
21
-182.277813999999978
0
LINE
8
BLACK
6
CONTINUOUS
10
76.1493770000000012
20
-182.277813999999978
11
76.244614999999996
21
-182.1825759999999832
0
LINE
8
BLACK
6
CONTINUOUS
10
76.244614999999996
20
-182.1825759999999832
11
76.4350909999999999
21
-182.0873379999999884
0
LINE
8
BLACK
6
CONTINUOUS
10
77.9589009999999973
20
-183.8968610000000012
11
78.0541389999999922
21
-183.9920999999999935
0
LINE
8
BLACK
6
CONTINUOUS
10
78.0541389999999922
20
-183.9920999999999935
11
77.9589009999999973
21
-184.0873379999999884
0
LINE
8
BLACK
6
CONTINUOUS
10
77.9589009999999973
20
-184.0873379999999884
11
77.8636630000000025
21
-183.9920999999999935
0
LINE
8
BLACK
6
CONTINUOUS
10
77.8636630000000025
20
-183.9920999999999935
11
77.9589009999999973
21
-183.8968610000000012
0
LINE
8
BLACK
6
CONTINUOUS
10
77.9589009999999973
20
-183.8968610000000012
11
77.9589009999999973
21
-184.0873379999999884
0
LINE
8
BLACK
6
CONTINUOUS
10
79.2922339999999934
20
-182.0873379999999884
11
79.4827109999999948
21
-182.0873379999999884
0
LINE
8
BLACK
6
CONTINUOUS
10
79.4827109999999948
20
-182.0873379999999884
11
79.6731869999999986
21
-182.1825759999999832
0
LINE
8
BLACK
6
CONTINUOUS
10
79.6731869999999986
20
-182.1825759999999832
11
79.7684249999999935
21
-182.277813999999978
0
LINE
8
BLACK
6
CONTINUOUS
10
79.7684249999999935
20
-182.277813999999978
11
79.8636630000000025
21
-182.4682899999999961
0
LINE
8
BLACK
6
CONTINUOUS
10
79.8636630000000025
20
-182.4682899999999961
11
79.9589009999999973
21
-182.8492420000000038
0
LINE
8
BLACK
6
CONTINUOUS
10
79.9589009999999973
20
-182.8492420000000038
11
79.9589009999999973
21
-183.3254330000000039
0
LINE
8
BLACK
6
CONTINUOUS
10
79.9589009999999973
20
-183.3254330000000039
11
79.8636630000000025
21
-183.7063849999999832
0
LINE
8
BLACK
6
CONTINUOUS
10
79.8636630000000025
20
-183.7063849999999832
11
79.7684249999999935
21
-183.8968610000000012
0
LINE
8
BLACK
6
CONTINUOUS
10
79.7684249999999935
20
-183.8968610000000012
11
79.6731869999999986
21
-183.9920999999999935
0
LINE
8
BLACK
6
CONTINUOUS
10
79.6731869999999986
20
-183.9920999999999935
11
79.4827109999999948
21
-184.0873379999999884
0
LINE
8
BLACK
6
CONTINUOUS
10
79.4827109999999948
20
-184.0873379999999884
11
79.2922339999999934
21
-184.0873379999999884
0
LINE
8
BLACK
6
CONTINUOUS
10
79.2922339999999934
20
-184.0873379999999884
11
79.1017579999999896
21
-183.9920999999999935
0
LINE
8
BLACK
6
CONTINUOUS
10
79.1017579999999896
20
-183.9920999999999935
11
79.0065199999999948
21
-183.8968610000000012
0
LINE
8
BLACK
6
CONTINUOUS
10
79.0065199999999948
20
-183.8968610000000012
11
78.9112819999999999
21
-183.7063849999999832
0
LINE
8
BLACK
6
CONTINUOUS
10
78.9112819999999999
20
-183.7063849999999832
11
78.8160439999999909
21
-183.3254330000000039
0
LINE
8
BLACK
6
CONTINUOUS
10
78.8160439999999909
20
-183.3254330000000039
11
78.8160439999999909
21
-182.8492420000000038
0
LINE
8
BLACK
6
CONTINUOUS
10
78.8160439999999909
20
-182.8492420000000038
11
78.9112819999999999
21
-182.4682899999999961
0
LINE
8
BLACK
6
CONTINUOUS
10
78.9112819999999999
20
-182.4682899999999961
11
79.0065199999999948
21
-182.277813999999978
0
LINE
8
BLACK
6
CONTINUOUS
10
79.0065199999999948
20
-182.277813999999978
11
79.1017579999999896
21
-182.1825759999999832
0
LINE
8
BLACK
6
CONTINUOUS
10
79.1017579999999896
20
-182.1825759999999832
11
79.2922339999999934
21
-182.0873379999999884
0
LINE
8
BLACK
6
CONTINUOUS
10
80.9112819999999999
20
-184.0873379999999884
11
81.2922339999999934
21
-184.0873379999999884
0
LINE
8
BLACK
6
CONTINUOUS
10
81.2922339999999934
20
-184.0873379999999884
11
81.4827109999999948
21
-183.9920999999999935
0
LINE
8
BLACK
6
CONTINUOUS
10
81.4827109999999948
20
-183.9920999999999935
11
81.5779489999999896
21
-183.8968610000000012
0
LINE
8
BLACK
6
CONTINUOUS
10
81.5779489999999896
20
-183.8968610000000012
11
81.7684249999999935
21
-183.6111469999999883
0
LINE
8
BLACK
6
CONTINUOUS
10
81.7684249999999935
20
-183.6111469999999883
11
81.8636630000000025
21
-183.2301949999999806
0
LINE
8
BLACK
6
CONTINUOUS
10
81.8636630000000025
20
-183.2301949999999806
11
81.8636630000000025
21
-182.4682899999999961
0
LINE
8
BLACK
6
CONTINUOUS
10
81.8636630000000025
20
-182.4682899999999961
11
81.7684249999999935
21
-182.277813999999978
0
LINE
8
BLACK
6
CONTINUOUS
10
81.7684249999999935
20
-182.277813999999978
11
81.6731869999999986
21
-182.1825759999999832
0
LINE
8
BLACK
6
CONTINUOUS
10
81.6731869999999986
20
-182.1825759999999832
11
81.4827109999999948
21
-182.0873379999999884
0
LINE
8
BLACK
6
CONTINUOUS
10
81.4827109999999948
20
-182.0873379999999884
11
81.1017579999999896
21
-182.0873379999999884
0
LINE
8
BLACK
6
CONTINUOUS
10
81.1017579999999896
20
-182.0873379999999884
11
80.9112819999999999
21
-182.1825759999999832
0
LINE
8
BLACK
6
CONTINUOUS
10
80.9112819999999999
20
-182.1825759999999832
11
80.8160439999999909
21
-182.277813999999978
0
LINE
8
BLACK
6
CONTINUOUS
10
80.8160439999999909
20
-182.277813999999978
11
80.7208059999999961
21
-182.4682899999999961
0
LINE
8
BLACK
6
CONTINUOUS
10
80.7208059999999961
20
-182.4682899999999961
11
80.7208059999999961
21
-182.9444799999999987
0
LINE
8
BLACK
6
CONTINUOUS
10
80.7208059999999961
20
-182.9444799999999987
11
80.8160439999999909
21
-183.1349569999999858
0
LINE
8
BLACK
6
CONTINUOUS
10
80.8160439999999909
20
-183.1349569999999858
11
80.9112819999999999
21
-183.2301949999999806
0
LINE
8
BLACK
6
CONTINUOUS
10
80.9112819999999999
20
-183.2301949999999806
11
81.1017579999999896
21
-183.3254330000000039
0
LINE
8
BLACK
6
CONTINUOUS
10
81.1017579999999896
20
-183.3254330000000039
11
81.4827109999999948
21
-183.3254330000000039
0
LINE
8
BLACK
6
CONTINUOUS
10
81.4827109999999948
20
-183.3254330000000039
11
81.6731869999999986
21
-183.2301949999999806
0
LINE
8
BLACK
6
CONTINUOUS
10
81.6731869999999986
20
-183.2301949999999806
11
81.7684249999999935
21
-183.1349569999999858
0
LINE
8
BLACK
6
CONTINUOUS
10
81.7684249999999935
20
-183.1349569999999858
11
81.8636630000000025
21
-182.9444799999999987
0
LINE
8
BLACK
6
CONTINUOUS
10
83.0065199999999948
20
-182.9444799999999987
11
82.8160439999999909
21
-182.8492420000000038
0
LINE
8
BLACK
6
CONTINUOUS
10
82.8160439999999909
20
-182.8492420000000038
11
82.7208059999999961
21
-182.7540039999999806
0
LINE
8
BLACK
6
CONTINUOUS
10
82.7208059999999961
20
-182.7540039999999806
11
82.6255680000000012
21
-182.5635279999999909
0
LINE
8
BLACK
6
CONTINUOUS
10
82.6255680000000012
20
-182.5635279999999909
11
82.6255680000000012
21
-182.4682899999999961
0
LINE
8
BLACK
6
CONTINUOUS
10
82.6255680000000012
20
-182.4682899999999961
11
82.7208059999999961
21
-182.277813999999978
0
LINE
8
BLACK
6
CONTINUOUS
10
82.7208059999999961
20
-182.277813999999978
11
82.8160439999999909
21
-182.1825759999999832
0
LINE
8
BLACK
6
CONTINUOUS
10
82.8160439999999909
20
-182.1825759999999832
11
83.0065199999999948
21
-182.0873379999999884
0
LINE
8
BLACK
6
CONTINUOUS
10
83.0065199999999948
20
-182.0873379999999884
11
83.387473
21
-182.0873379999999884
0
LINE
8
BLACK
6
CONTINUOUS
10
83.387473
20
-182.0873379999999884
11
83.5779489999999896
21
-182.1825759999999832
0
LINE
8
BLACK
6
CONTINUOUS
10
83.5779489999999896
20
-182.1825759999999832
11
83.6731869999999986
21
-182.277813999999978
0
LINE
8
BLACK
6
CONTINUOUS
10
83.6731869999999986
20
-182.277813999999978
11
83.7684249999999935
21
-182.4682899999999961
0
LINE
8
BLACK
6
CONTINUOUS
10
83.7684249999999935
20
-182.4682899999999961
11
83.7684249999999935
21
-182.5635279999999909
0
LINE
8
BLACK
6
CONTINUOUS
10
83.7684249999999935
20
-182.5635279999999909
11
83.6731869999999986
21
-182.7540039999999806
0
LINE
8
BLACK
6
CONTINUOUS
10
83.6731869999999986
20
-182.7540039999999806
11
83.5779489999999896
21
-182.8492420000000038
0
LINE
8
BLACK
6
CONTINUOUS
10
83.5779489999999896
20
-182.8492420000000038
11
83.387473
21
-182.9444799999999987
0
LINE
8
BLACK
6
CONTINUOUS
10
83.387473
20
-182.9444799999999987
11
83.0065199999999948
21
-182.9444799999999987
0
LINE
8
BLACK
6
CONTINUOUS
10
83.0065199999999948
20
-182.9444799999999987
11
82.8160439999999909
21
-183.039718999999991
0
LINE
8
BLACK
6
CONTINUOUS
10
82.8160439999999909
20
-183.039718999999991
11
82.7208059999999961
21
-183.1349569999999858
0
LINE
8
BLACK
6
CONTINUOUS
10
82.7208059999999961
20
-183.1349569999999858
11
82.6255680000000012
21
-183.3254330000000039
0
LINE
8
BLACK
6
CONTINUOUS
10
82.6255680000000012
20
-183.3254330000000039
11
82.6255680000000012
21
-183.7063849999999832
0
LINE
8
BLACK
6
CONTINUOUS
10
82.6255680000000012
20
-183.7063849999999832
11
82.7208059999999961
21
-183.8968610000000012
0
LINE
8
BLACK
6
CONTINUOUS
10
82.7208059999999961
20
-183.8968610000000012
11
82.8160439999999909
21
-183.9920999999999935
0
LINE
8
BLACK
6
CONTINUOUS
10
82.8160439999999909
20
-183.9920999999999935
11
83.0065199999999948
21
-184.0873379999999884
0
LINE
8
BLACK
6
CONTINUOUS
10
83.0065199999999948
20
-184.0873379999999884
11
83.387473
21
-184.0873379999999884
0
LINE
8
BLACK
6
CONTINUOUS
10
83.387473
20
-184.0873379999999884
11
83.5779489999999896
21
-183.9920999999999935
0
LINE
8
BLACK
6
CONTINUOUS
10
83.5779489999999896
20
-183.9920999999999935
11
83.6731869999999986
21
-183.8968610000000012
0
LINE
8
BLACK
6
CONTINUOUS
10
83.6731869999999986
20
-183.8968610000000012
11
83.7684249999999935
21
-183.7063849999999832
0
LINE
8
BLACK
6
CONTINUOUS
10
83.7684249999999935
20
-183.7063849999999832
11
83.7684249999999935
21
-183.3254330000000039
0
LINE
8
BLACK
6
CONTINUOUS
10
83.7684249999999935
20
-183.3254330000000039
11
83.6731869999999986
21
-183.1349569999999858
0
LINE
8
BLACK
6
CONTINUOUS
10
83.6731869999999986
20
-183.1349569999999858
11
83.5779489999999896
21
-183.039718999999991
0
LINE
8
BLACK
6
CONTINUOUS
10
83.5779489999999896
20
-183.039718999999991
11
83.387473
21
-182.9444799999999987
0
LINE
8
BLACK
6
CONTINUOUS
10
85.4827109999999948
20
-182.7540039999999806
11
85.4827109999999948
21
-184.0873379999999884
0
LINE
8
BLACK
6
CONTINUOUS
10
85.0065199999999948
20
-181.9920999999999935
11
84.5303299999999922
21
-183.4206709999999987
0
LINE
8
BLACK
6
CONTINUOUS
10
84.5303299999999922
20
-183.4206709999999987
11
85.7684249999999935
21
-183.4206709999999987
0
LINE
8
BLACK
6
CONTINUOUS
10
86.4350919999999974
20
-182.0873379999999884
11
86.4350919999999974
21
-182.4682899999999961
0
LINE
8
BLACK
6
CONTINUOUS
10
87.1969969999999961
20
-182.0873379999999884
11
87.1969969999999961
21
-182.4682899999999961
0
LINE
8
BLACK
6
CONTINUOUS
10
90.1493789999999962
20
-184.8492420000000038
11
90.0541399999999896
21
-184.7540039999999806
0
LINE
8
BLACK
6
CONTINUOUS
10
90.0541399999999896
20
-184.7540039999999806
11
89.863664
21
-184.4682899999999961
0
LINE
8
BLACK
6
CONTINUOUS
10
89.863664
20
-184.4682899999999961
11
89.7684259999999909
21
-184.277813999999978
0
LINE
8
BLACK
6
CONTINUOUS
10
89.7684259999999909
20
-184.277813999999978
11
89.6731879999999961
21
-183.9920999999999935
0
LINE
8
BLACK
6
CONTINUOUS
10
89.6731879999999961
20
-183.9920999999999935
11
89.5779500000000013
21
-183.5159089999999935
0
LINE
8
BLACK
6
CONTINUOUS
10
89.5779500000000013
20
-183.5159089999999935
11
89.5779500000000013
21
-183.1349569999999858
0
LINE
8
BLACK
6
CONTINUOUS
10
89.5779500000000013
20
-183.1349569999999858
11
89.6731879999999961
21
-182.6587659999999858
0
LINE
8
BLACK
6
CONTINUOUS
10
89.6731879999999961
20
-182.6587659999999858
11
89.7684259999999909
21
-182.3730520000000013
0
LINE
8
BLACK
6
CONTINUOUS
10
89.7684259999999909
20
-182.3730520000000013
11
89.863664
21
-182.1825759999999832
0
LINE
8
BLACK
6
CONTINUOUS
10
89.863664
20
-182.1825759999999832
11
90.0541399999999896
21
-181.8968610000000012
0
LINE
8
BLACK
6
CONTINUOUS
10
90.0541399999999896
20
-181.8968610000000012
11
90.1493789999999962
21
-181.801622999999978
0
LINE
8
BLACK
6
CONTINUOUS
10
91.7684259999999909
20
-182.7540039999999806
11
91.7684259999999909
21
-184.0873379999999884
0
LINE
8
BLACK
6
CONTINUOUS
10
91.2922349999999909
20
-181.9920999999999935
11
90.8160450000000026
21
-183.4206709999999987
0
LINE
8
BLACK
6
CONTINUOUS
10
90.8160450000000026
20
-183.4206709999999987
11
92.0541399999999896
21
-183.4206709999999987
0
LINE
8
BLACK
6
CONTINUOUS
10
94.339855
20
-184.0873379999999884
11
94.339855
21
-182.0873379999999884
0
LINE
8
BLACK
6
CONTINUOUS
10
95.1969979999999936
20
-184.0873379999999884
11
95.1969979999999936
21
-183.039718999999991
0
LINE
8
BLACK
6
CONTINUOUS
10
95.1969979999999936
20
-183.039718999999991
11
95.1017599999999987
21
-182.8492420000000038
0
LINE
8
BLACK
6
CONTINUOUS
10
95.1017599999999987
20
-182.8492420000000038
11
94.9112839999999949
21
-182.7540039999999806
0
LINE
8
BLACK
6
CONTINUOUS
10
94.9112839999999949
20
-182.7540039999999806
11
94.6255689999999987
21
-182.7540039999999806
0
LINE
8
BLACK
6
CONTINUOUS
10
94.6255689999999987
20
-182.7540039999999806
11
94.4350929999999948
21
-182.8492420000000038
0
LINE
8
BLACK
6
CONTINUOUS
10
94.4350929999999948
20
-182.8492420000000038
11
94.339855
21
-182.9444799999999987
0
LINE
8
BLACK
6
CONTINUOUS
10
96.4350929999999948
20
-184.0873379999999884
11
96.244616999999991
21
-183.9920999999999935
0
LINE
8
BLACK
6
CONTINUOUS
10
96.244616999999991
20
-183.9920999999999935
11
96.1493789999999962
21
-183.8968610000000012
0
LINE
8
BLACK
6
CONTINUOUS
10
96.1493789999999962
20
-183.8968610000000012
11
96.0541410000000013
21
-183.7063849999999832
0
LINE
8
BLACK
6
CONTINUOUS
10
96.0541410000000013
20
-183.7063849999999832
11
96.0541410000000013
21
-183.1349569999999858
0
LINE
8
BLACK
6
CONTINUOUS
10
96.0541410000000013
20
-183.1349569999999858
11
96.1493789999999962
21
-182.9444799999999987
0
LINE
8
BLACK
6
CONTINUOUS
10
96.1493789999999962
20
-182.9444799999999987
11
96.244616999999991
21
-182.8492420000000038
0
LINE
8
BLACK
6
CONTINUOUS
10
96.244616999999991
20
-182.8492420000000038
11
96.4350929999999948
21
-182.7540039999999806
0
LINE
8
BLACK
6
CONTINUOUS
10
96.4350929999999948
20
-182.7540039999999806
11
96.720807999999991
21
-182.7540039999999806
0
LINE
8
BLACK
6
CONTINUOUS
10
96.720807999999991
20
-182.7540039999999806
11
96.9112839999999949
21
-182.8492420000000038
0
LINE
8
BLACK
6
CONTINUOUS
10
96.9112839999999949
20
-182.8492420000000038
11
97.0065219999999897
21
-182.9444799999999987
0
LINE
8
BLACK
6
CONTINUOUS
10
97.0065219999999897
20
-182.9444799999999987
11
97.1017599999999987
21
-183.1349569999999858
0
LINE
8
BLACK
6
CONTINUOUS
10
97.1017599999999987
20
-183.1349569999999858
11
97.1017599999999987
21
-183.7063849999999832
0
LINE
8
BLACK
6
CONTINUOUS
10
97.1017599999999987
20
-183.7063849999999832
11
97.0065219999999897
21
-183.8968610000000012
0
LINE
8
BLACK
6
CONTINUOUS
10
97.0065219999999897
20
-183.8968610000000012
11
96.9112839999999949
21
-183.9920999999999935
0
LINE
8
BLACK
6
CONTINUOUS
10
96.9112839999999949
20
-183.9920999999999935
11
96.720807999999991
21
-184.0873379999999884
0
LINE
8
BLACK
6
CONTINUOUS
10
96.720807999999991
20
-184.0873379999999884
11
96.4350929999999948
21
-184.0873379999999884
0
LINE
8
BLACK
6
CONTINUOUS
10
98.244616999999991
20
-184.0873379999999884
11
98.0541410000000013
21
-183.9920999999999935
0
LINE
8
BLACK
6
CONTINUOUS
10
98.0541410000000013
20
-183.9920999999999935
11
97.9589029999999923
21
-183.801622999999978
0
LINE
8
BLACK
6
CONTINUOUS
10
97.9589029999999923
20
-183.801622999999978
11
97.9589029999999923
21
-182.0873379999999884
0
LINE
8
BLACK
6
CONTINUOUS
10
99.7684269999999884
20
-183.9920999999999935
11
99.5779509999999988
21
-184.0873379999999884
0
LINE
8
BLACK
6
CONTINUOUS
10
99.5779509999999988
20
-184.0873379999999884
11
99.1969979999999936
21
-184.0873379999999884
0
LINE
8
BLACK
6
CONTINUOUS
10
99.1969979999999936
20
-184.0873379999999884
11
99.0065219999999897
21
-183.9920999999999935
0
LINE
8
BLACK
6
CONTINUOUS
10
99.0065219999999897
20
-183.9920999999999935
11
98.9112839999999949
21
-183.801622999999978
0
LINE
8
BLACK
6
CONTINUOUS
10
98.9112839999999949
20
-183.801622999999978
11
98.9112839999999949
21
-183.039718999999991
0
LINE
8
BLACK
6
CONTINUOUS
10
98.9112839999999949
20
-183.039718999999991
11
99.0065219999999897
21
-182.8492420000000038
0
LINE
8
BLACK
6
CONTINUOUS
10
99.0065219999999897
20
-182.8492420000000038
11
99.1969979999999936
21
-182.7540039999999806
0
LINE
8
BLACK
6
CONTINUOUS
10
99.1969979999999936
20
-182.7540039999999806
11
99.5779509999999988
21
-182.7540039999999806
0
LINE
8
BLACK
6
CONTINUOUS
10
99.5779509999999988
20
-182.7540039999999806
11
99.7684269999999884
21
-182.8492420000000038
0
LINE
8
BLACK
6
CONTINUOUS
10
99.7684269999999884
20
-182.8492420000000038
11
99.8636649999999975
21
-183.039718999999991
0
LINE
8
BLACK
6
CONTINUOUS
10
99.8636649999999975
20
-183.039718999999991
11
99.8636649999999975
21
-183.2301949999999806
0
LINE
8
BLACK
6
CONTINUOUS
10
99.8636649999999975
20
-183.2301949999999806
11
98.9112839999999949
21
-183.4206709999999987
0
LINE
8
BLACK
6
CONTINUOUS
10
100.6255699999999962
20
-183.9920999999999935
11
100.816046
21
-184.0873379999999884
0
LINE
8
BLACK
6
CONTINUOUS
10
100.816046
20
-184.0873379999999884
11
101.1969979999999936
21
-184.0873379999999884
0
LINE
8
BLACK
6
CONTINUOUS
10
101.1969979999999936
20
-184.0873379999999884
11
101.3874749999999949
21
-183.9920999999999935
0
LINE
8
BLACK
6
CONTINUOUS
10
101.3874749999999949
20
-183.9920999999999935
11
101.4827129999999897
21
-183.801622999999978
0
LINE
8
BLACK
6
CONTINUOUS
10
101.4827129999999897
20
-183.801622999999978
11
101.4827129999999897
21
-183.7063849999999832
0
LINE
8
BLACK
6
CONTINUOUS
10
101.4827129999999897
20
-183.7063849999999832
11
101.3874749999999949
21
-183.5159089999999935
0
LINE
8
BLACK
6
CONTINUOUS
10
101.3874749999999949
20
-183.5159089999999935
11
101.1969979999999936
21
-183.4206709999999987
0
LINE
8
BLACK
6
CONTINUOUS
10
101.1969979999999936
20
-183.4206709999999987
11
100.9112839999999949
21
-183.4206709999999987
0
LINE
8
BLACK
6
CONTINUOUS
10
100.9112839999999949
20
-183.4206709999999987
11
100.720807999999991
21
-183.3254330000000039
0
LINE
8
BLACK
6
CONTINUOUS
10
100.720807999999991
20
-183.3254330000000039
11
100.6255699999999962
21
-183.1349569999999858
0
LINE
8
BLACK
6
CONTINUOUS
10
100.6255699999999962
20
-183.1349569999999858
11
100.6255699999999962
21
-183.039718999999991
0
LINE
8
BLACK
6
CONTINUOUS
10
100.6255699999999962
20
-183.039718999999991
11
100.720807999999991
21
-182.8492420000000038
0
LINE
8
BLACK
6
CONTINUOUS
10
100.720807999999991
20
-182.8492420000000038
11
100.9112839999999949
21
-182.7540039999999806
0
LINE
8
BLACK
6
CONTINUOUS
10
100.9112839999999949
20
-182.7540039999999806
11
101.1969979999999936
21
-182.7540039999999806
0
LINE
8
BLACK
6
CONTINUOUS
10
101.1969979999999936
20
-182.7540039999999806
11
101.3874749999999949
21
-182.8492420000000038
0
LINE
8
BLACK
6
CONTINUOUS
10
102.1493799999999936
20
-184.8492420000000038
11
102.2446179999999885
21
-184.7540039999999806
0
LINE
8
BLACK
6
CONTINUOUS
10
102.2446179999999885
20
-184.7540039999999806
11
102.4350939999999923
21
-184.4682899999999961
0
LINE
8
BLACK
6
CONTINUOUS
10
102.4350939999999923
20
-184.4682899999999961
11
102.5303320000000014
21
-184.277813999999978
0
LINE
8
BLACK
6
CONTINUOUS
10
102.5303320000000014
20
-184.277813999999978
11
102.6255699999999962
21
-183.9920999999999935
0
LINE
8
BLACK
6
CONTINUOUS
10
102.6255699999999962
20
-183.9920999999999935
11
102.720807999999991
21
-183.5159089999999935
0
LINE
8
BLACK
6
CONTINUOUS
10
102.720807999999991
20
-183.5159089999999935
11
102.720807999999991
21
-183.1349569999999858
0
LINE
8
BLACK
6
CONTINUOUS
10
102.720807999999991
20
-183.1349569999999858
11
102.6255699999999962
21
-182.6587659999999858
0
LINE
8
BLACK
6
CONTINUOUS
10
102.6255699999999962
20
-182.6587659999999858
11
102.5303320000000014
21
-182.3730520000000013
0
LINE
8
BLACK
6
CONTINUOUS
10
102.5303320000000014
20
-182.3730520000000013
11
102.4350939999999923
21
-182.1825759999999832
0
LINE
8
BLACK
6
CONTINUOUS
10
102.4350939999999923
20
-182.1825759999999832
11
102.2446179999999885
21
-181.8968610000000012
0
LINE
8
BLACK
6
CONTINUOUS
10
102.2446179999999885
20
-181.8968610000000012
11
102.1493799999999936
21
-181.801622999999978
0
LINE
8
BLACK
6
CONTINUOUS
10
53.3987499999999997
20
-185.3725000000000023
11
53.3987499999999997
21
-187.3725000000000023
0
LINE
8
BLACK
6
CONTINUOUS
10
52.3987499999999997
20
-186.3725000000000023
11
54.3987499999999997
21
-186.3725000000000023
0
LINE
8
BLACK
6
CONTINUOUS
10
56.8160419999999959
20
-185.2873380000000054
11
58.0541369999999972
21
-185.2873380000000054
0
LINE
8
BLACK
6
CONTINUOUS
10
58.0541369999999972
20
-185.2873380000000054
11
57.3874700000000004
21
-186.0492419999999925
0
LINE
8
BLACK
6
CONTINUOUS
10
57.3874700000000004
20
-186.0492419999999925
11
57.6731849999999966
21
-186.0492419999999925
0
LINE
8
BLACK
6
CONTINUOUS
10
57.6731849999999966
20
-186.0492419999999925
11
57.8636610000000005
21
-186.1444799999999873
0
LINE
8
BLACK
6
CONTINUOUS
10
57.8636610000000005
20
-186.1444799999999873
11
57.9588989999999953
21
-186.2397189999999796
0
LINE
8
BLACK
6
CONTINUOUS
10
57.9588989999999953
20
-186.2397189999999796
11
58.0541369999999972
21
-186.4301949999999977
0
LINE
8
BLACK
6
CONTINUOUS
10
58.0541369999999972
20
-186.4301949999999977
11
58.0541369999999972
21
-186.9063850000000002
0
LINE
8
BLACK
6
CONTINUOUS
10
58.0541369999999972
20
-186.9063850000000002
11
57.9588989999999953
21
-187.0968609999999899
0
LINE
8
BLACK
6
CONTINUOUS
10
57.9588989999999953
20
-187.0968609999999899
11
57.8636610000000005
21
-187.1920999999999822
0
LINE
8
BLACK
6
CONTINUOUS
10
57.8636610000000005
20
-187.1920999999999822
11
57.6731849999999966
21
-187.2873380000000054
0
LINE
8
BLACK
6
CONTINUOUS
10
57.6731849999999966
20
-187.2873380000000054
11
57.1017559999999946
21
-187.2873380000000054
0
LINE
8
BLACK
6
CONTINUOUS
10
57.1017559999999946
20
-187.2873380000000054
11
56.9112799999999979
21
-187.1920999999999822
0
LINE
8
BLACK
6
CONTINUOUS
10
56.9112799999999979
20
-187.1920999999999822
11
56.8160419999999959
21
-187.0968609999999899
0
LINE
8
BLACK
6
CONTINUOUS
10
58.9112799999999979
20
-187.0968609999999899
11
59.0065179999999998
21
-187.1920999999999822
0
LINE
8
BLACK
6
CONTINUOUS
10
59.0065179999999998
20
-187.1920999999999822
11
58.9112799999999979
21
-187.2873380000000054
0
LINE
8
BLACK
6
CONTINUOUS
10
58.9112799999999979
20
-187.2873380000000054
11
58.8160419999999959
21
-187.1920999999999822
0
LINE
8
BLACK
6
CONTINUOUS
10
58.8160419999999959
20
-187.1920999999999822
11
58.9112799999999979
21
-187.0968609999999899
0
LINE
8
BLACK
6
CONTINUOUS
10
58.9112799999999979
20
-187.0968609999999899
11
58.9112799999999979
21
-187.2873380000000054
0
LINE
8
BLACK
6
CONTINUOUS
10
60.244612999999994
20
-185.2873380000000054
11
60.4350899999999953
21
-185.2873380000000054
0
LINE
8
BLACK
6
CONTINUOUS
10
60.4350899999999953
20
-185.2873380000000054
11
60.6255659999999992
21
-185.3825760000000002
0
LINE
8
BLACK
6
CONTINUOUS
10
60.6255659999999992
20
-185.3825760000000002
11
60.720803999999994
21
-185.4778139999999951
0
LINE
8
BLACK
6
CONTINUOUS
10
60.720803999999994
20
-185.4778139999999951
11
60.8160419999999959
21
-185.6682899999999847
0
LINE
8
BLACK
6
CONTINUOUS
10
60.8160419999999959
20
-185.6682899999999847
11
60.9112799999999979
21
-186.0492419999999925
0
LINE
8
BLACK
6
CONTINUOUS
10
60.9112799999999979
20
-186.0492419999999925
11
60.9112799999999979
21
-186.5254329999999925
0
LINE
8
BLACK
6
CONTINUOUS
10
60.9112799999999979
20
-186.5254329999999925
11
60.8160419999999959
21
-186.9063850000000002
0
LINE
8
BLACK
6
CONTINUOUS
10
60.8160419999999959
20
-186.9063850000000002
11
60.720803999999994
21
-187.0968609999999899
0
LINE
8
BLACK
6
CONTINUOUS
10
60.720803999999994
20
-187.0968609999999899
11
60.6255659999999992
21
-187.1920999999999822
0
LINE
8
BLACK
6
CONTINUOUS
10
60.6255659999999992
20
-187.1920999999999822
11
60.4350899999999953
21
-187.2873380000000054
0
LINE
8
BLACK
6
CONTINUOUS
10
60.4350899999999953
20
-187.2873380000000054
11
60.244612999999994
21
-187.2873380000000054
0
LINE
8
BLACK
6
CONTINUOUS
10
60.244612999999994
20
-187.2873380000000054
11
60.0541369999999972
21
-187.1920999999999822
0
LINE
8
BLACK
6
CONTINUOUS
10
60.0541369999999972
20
-187.1920999999999822
11
59.9588989999999953
21
-187.0968609999999899
0
LINE
8
BLACK
6
CONTINUOUS
10
59.9588989999999953
20
-187.0968609999999899
11
59.8636610000000005
21
-186.9063850000000002
0
LINE
8
BLACK
6
CONTINUOUS
10
59.8636610000000005
20
-186.9063850000000002
11
59.7684229999999985
21
-186.5254329999999925
0
LINE
8
BLACK
6
CONTINUOUS
10
59.7684229999999985
20
-186.5254329999999925
11
59.7684229999999985
21
-186.0492419999999925
0
LINE
8
BLACK
6
CONTINUOUS
10
59.7684229999999985
20
-186.0492419999999925
11
59.8636610000000005
21
-185.6682899999999847
0
LINE
8
BLACK
6
CONTINUOUS
10
59.8636610000000005
20
-185.6682899999999847
11
59.9588989999999953
21
-185.4778139999999951
0
LINE
8
BLACK
6
CONTINUOUS
10
59.9588989999999953
20
-185.4778139999999951
11
60.0541369999999972
21
-185.3825760000000002
0
LINE
8
BLACK
6
CONTINUOUS
10
60.0541369999999972
20
-185.3825760000000002
11
60.244612999999994
21
-185.2873380000000054
0
LINE
8
BLACK
6
CONTINUOUS
10
62.1493749999999991
20
-185.2873380000000054
11
62.3398520000000005
21
-185.2873380000000054
0
LINE
8
BLACK
6
CONTINUOUS
10
62.3398520000000005
20
-185.2873380000000054
11
62.5303279999999972
21
-185.3825760000000002
0
LINE
8
BLACK
6
CONTINUOUS
10
62.5303279999999972
20
-185.3825760000000002
11
62.6255659999999992
21
-185.4778139999999951
0
LINE
8
BLACK
6
CONTINUOUS
10
62.6255659999999992
20
-185.4778139999999951
11
62.720803999999994
21
-185.6682899999999847
0
LINE
8
BLACK
6
CONTINUOUS
10
62.720803999999994
20
-185.6682899999999847
11
62.8160419999999959
21
-186.0492419999999925
0
LINE
8
BLACK
6
CONTINUOUS
10
62.8160419999999959
20
-186.0492419999999925
11
62.8160419999999959
21
-186.5254329999999925
0
LINE
8
BLACK
6
CONTINUOUS
10
62.8160419999999959
20
-186.5254329999999925
11
62.720803999999994
21
-186.9063850000000002
0
LINE
8
BLACK
6
CONTINUOUS
10
62.720803999999994
20
-186.9063850000000002
11
62.6255659999999992
21
-187.0968609999999899
0
LINE
8
BLACK
6
CONTINUOUS
10
62.6255659999999992
20
-187.0968609999999899
11
62.5303279999999972
21
-187.1920999999999822
0
LINE
8
BLACK
6
CONTINUOUS
10
62.5303279999999972
20
-187.1920999999999822
11
62.3398520000000005
21
-187.2873380000000054
0
LINE
8
BLACK
6
CONTINUOUS
10
62.3398520000000005
20
-187.2873380000000054
11
62.1493749999999991
21
-187.2873380000000054
0
LINE
8
BLACK
6
CONTINUOUS
10
62.1493749999999991
20
-187.2873380000000054
11
61.9588989999999953
21
-187.1920999999999822
0
LINE
8
BLACK
6
CONTINUOUS
10
61.9588989999999953
20
-187.1920999999999822
11
61.8636610000000005
21
-187.0968609999999899
0
LINE
8
BLACK
6
CONTINUOUS
10
61.8636610000000005
20
-187.0968609999999899
11
61.7684229999999985
21
-186.9063850000000002
0
LINE
8
BLACK
6
CONTINUOUS
10
61.7684229999999985
20
-186.9063850000000002
11
61.6731849999999966
21
-186.5254329999999925
0
LINE
8
BLACK
6
CONTINUOUS
10
61.6731849999999966
20
-186.5254329999999925
11
61.6731849999999966
21
-186.0492419999999925
0
LINE
8
BLACK
6
CONTINUOUS
10
61.6731849999999966
20
-186.0492419999999925
11
61.7684229999999985
21
-185.6682899999999847
0
LINE
8
BLACK
6
CONTINUOUS
10
61.7684229999999985
20
-185.6682899999999847
11
61.8636610000000005
21
-185.4778139999999951
0
LINE
8
BLACK
6
CONTINUOUS
10
61.8636610000000005
20
-185.4778139999999951
11
61.9588989999999953
21
-185.3825760000000002
0
LINE
8
BLACK
6
CONTINUOUS
10
61.9588989999999953
20
-185.3825760000000002
11
62.1493749999999991
21
-185.2873380000000054
0
LINE
8
BLACK
6
CONTINUOUS
10
64.0541369999999972
20
-185.2873380000000054
11
64.2446139999999986
21
-185.2873380000000054
0
LINE
8
BLACK
6
CONTINUOUS
10
64.2446139999999986
20
-185.2873380000000054
11
64.4350900000000024
21
-185.3825760000000002
0
LINE
8
BLACK
6
CONTINUOUS
10
64.4350900000000024
20
-185.3825760000000002
11
64.5303279999999972
21
-185.4778139999999951
0
LINE
8
BLACK
6
CONTINUOUS
10
64.5303279999999972
20
-185.4778139999999951
11
64.6255659999999921
21
-185.6682899999999847
0
LINE
8
BLACK
6
CONTINUOUS
10
64.6255659999999921
20
-185.6682899999999847
11
64.7208040000000011
21
-186.0492419999999925
0
LINE
8
BLACK
6
CONTINUOUS
10
64.7208040000000011
20
-186.0492419999999925
11
64.7208040000000011
21
-186.5254329999999925
0
LINE
8
BLACK
6
CONTINUOUS
10
64.7208040000000011
20
-186.5254329999999925
11
64.6255659999999921
21
-186.9063850000000002
0
LINE
8
BLACK
6
CONTINUOUS
10
64.6255659999999921
20
-186.9063850000000002
11
64.5303279999999972
21
-187.0968609999999899
0
LINE
8
BLACK
6
CONTINUOUS
10
64.5303279999999972
20
-187.0968609999999899
11
64.4350900000000024
21
-187.1920999999999822
0
LINE
8
BLACK
6
CONTINUOUS
10
64.4350900000000024
20
-187.1920999999999822
11
64.2446139999999986
21
-187.2873380000000054
0
LINE
8
BLACK
6
CONTINUOUS
10
64.2446139999999986
20
-187.2873380000000054
11
64.0541369999999972
21
-187.2873380000000054
0
LINE
8
BLACK
6
CONTINUOUS
10
64.0541369999999972
20
-187.2873380000000054
11
63.8636610000000005
21
-187.1920999999999822
0
LINE
8
BLACK
6
CONTINUOUS
10
63.8636610000000005
20
-187.1920999999999822
11
63.7684229999999985
21
-187.0968609999999899
0
LINE
8
BLACK
6
CONTINUOUS
10
63.7684229999999985
20
-187.0968609999999899
11
63.6731849999999966
21
-186.9063850000000002
0
LINE
8
BLACK
6
CONTINUOUS
10
63.6731849999999966
20
-186.9063850000000002
11
63.5779469999999947
21
-186.5254329999999925
0
LINE
8
BLACK
6
CONTINUOUS
10
63.5779469999999947
20
-186.5254329999999925
11
63.5779469999999947
21
-186.0492419999999925
0
LINE
8
BLACK
6
CONTINUOUS
10
63.5779469999999947
20
-186.0492419999999925
11
63.6731849999999966
21
-185.6682899999999847
0
LINE
8
BLACK
6
CONTINUOUS
10
63.6731849999999966
20
-185.6682899999999847
11
63.7684229999999985
21
-185.4778139999999951
0
LINE
8
BLACK
6
CONTINUOUS
10
63.7684229999999985
20
-185.4778139999999951
11
63.8636610000000005
21
-185.3825760000000002
0
LINE
8
BLACK
6
CONTINUOUS
10
63.8636610000000005
20
-185.3825760000000002
11
64.0541369999999972
21
-185.2873380000000054
0
LINE
8
BLACK
6
CONTINUOUS
10
65.5779469999999947
20
-187.2873380000000054
11
65.5779469999999947
21
-185.9540039999999976
0
LINE
8
BLACK
6
CONTINUOUS
10
65.5779469999999947
20
-186.1444799999999873
11
65.6731850000000037
21
-186.0492419999999925
0
LINE
8
BLACK
6
CONTINUOUS
10
65.6731850000000037
20
-186.0492419999999925
11
65.8636609999999934
21
-185.9540039999999976
0
LINE
8
BLACK
6
CONTINUOUS
10
65.8636609999999934
20
-185.9540039999999976
11
66.1493760000000037
21
-185.9540039999999976
0
LINE
8
BLACK
6
CONTINUOUS
10
66.1493760000000037
20
-185.9540039999999976
11
66.3398519999999934
21
-186.0492419999999925
0
LINE
8
BLACK
6
CONTINUOUS
10
66.3398519999999934
20
-186.0492419999999925
11
66.4350900000000024
21
-186.2397189999999796
0
LINE
8
BLACK
6
CONTINUOUS
10
66.4350900000000024
20
-186.2397189999999796
11
66.4350900000000024
21
-187.2873380000000054
0
LINE
8
BLACK
6
CONTINUOUS
10
66.4350900000000024
20
-186.2397189999999796
11
66.5303279999999972
21
-186.0492419999999925
0
LINE
8
BLACK
6
CONTINUOUS
10
66.5303279999999972
20
-186.0492419999999925
11
66.7208040000000011
21
-185.9540039999999976
0
LINE
8
BLACK
6
CONTINUOUS
10
66.7208040000000011
20
-185.9540039999999976
11
67.0065179999999998
21
-185.9540039999999976
0
LINE
8
BLACK
6
CONTINUOUS
10
67.0065179999999998
20
-185.9540039999999976
11
67.1969950000000011
21
-186.0492419999999925
0
LINE
8
BLACK
6
CONTINUOUS
10
67.1969950000000011
20
-186.0492419999999925
11
67.292232999999996
21
-186.2397189999999796
0
LINE
8
BLACK
6
CONTINUOUS
10
67.292232999999996
20
-186.2397189999999796
11
67.292232999999996
21
-187.2873380000000054
0
LINE
8
BLACK
6
CONTINUOUS
10
68.2446139999999986
20
-187.2873380000000054
11
68.2446139999999986
21
-185.9540039999999976
0
LINE
8
BLACK
6
CONTINUOUS
10
68.2446139999999986
20
-186.1444799999999873
11
68.3398519999999934
21
-186.0492419999999925
0
LINE
8
BLACK
6
CONTINUOUS
10
68.3398519999999934
20
-186.0492419999999925
11
68.5303279999999972
21
-185.9540039999999976
0
LINE
8
BLACK
6
CONTINUOUS
10
68.5303279999999972
20
-185.9540039999999976
11
68.8160429999999934
21
-185.9540039999999976
0
LINE
8
BLACK
6
CONTINUOUS
10
68.8160429999999934
20
-185.9540039999999976
11
69.0065189999999973
21
-186.0492419999999925
0
LINE
8
BLACK
6
CONTINUOUS
10
69.0065189999999973
20
-186.0492419999999925
11
69.1017569999999921
21
-186.2397189999999796
0
LINE
8
BLACK
6
CONTINUOUS
10
69.1017569999999921
20
-186.2397189999999796
11
69.1017569999999921
21
-187.2873380000000054
0
LINE
8
BLACK
6
CONTINUOUS
10
69.1017569999999921
20
-186.2397189999999796
11
69.1969950000000011
21
-186.0492419999999925
0
LINE
8
BLACK
6
CONTINUOUS
10
69.1969950000000011
20
-186.0492419999999925
11
69.3874709999999908
21
-185.9540039999999976
0
LINE
8
BLACK
6
CONTINUOUS
10
69.3874709999999908
20
-185.9540039999999976
11
69.6731850000000037
21
-185.9540039999999976
0
LINE
8
BLACK
6
CONTINUOUS
10
69.6731850000000037
20
-185.9540039999999976
11
69.8636619999999908
21
-186.0492419999999925
0
LINE
8
BLACK
6
CONTINUOUS
10
69.8636619999999908
20
-186.0492419999999925
11
69.9588999999999999
21
-186.2397189999999796
0
LINE
8
BLACK
6
CONTINUOUS
10
69.9588999999999999
20
-186.2397189999999796
11
69.9588999999999999
21
-187.2873380000000054
0
LINE
8
BLACK
6
CONTINUOUS
10
73.8636619999999908
20
-185.1920999999999822
11
72.1493770000000012
21
-187.7635279999999796
0
LINE
8
BLACK
6
CONTINUOUS
10
76.4350909999999999
20
-185.2873380000000054
11
76.6255680000000012
21
-185.2873380000000054
0
LINE
8
BLACK
6
CONTINUOUS
10
76.6255680000000012
20
-185.2873380000000054
11
76.8160439999999909
21
-185.3825760000000002
0
LINE
8
BLACK
6
CONTINUOUS
10
76.8160439999999909
20
-185.3825760000000002
11
76.9112819999999999
21
-185.4778139999999951
0
LINE
8
BLACK
6
CONTINUOUS
10
76.9112819999999999
20
-185.4778139999999951
11
77.0065199999999948
21
-185.6682899999999847
0
LINE
8
BLACK
6
CONTINUOUS
10
77.0065199999999948
20
-185.6682899999999847
11
77.1017579999999896
21
-186.0492419999999925
0
LINE
8
BLACK
6
CONTINUOUS
10
77.1017579999999896
20
-186.0492419999999925
11
77.1017579999999896
21
-186.5254329999999925
0
LINE
8
BLACK
6
CONTINUOUS
10
77.1017579999999896
20
-186.5254329999999925
11
77.0065199999999948
21
-186.9063850000000002
0
LINE
8
BLACK
6
CONTINUOUS
10
77.0065199999999948
20
-186.9063850000000002
11
76.9112819999999999
21
-187.0968609999999899
0
LINE
8
BLACK
6
CONTINUOUS
10
76.9112819999999999
20
-187.0968609999999899
11
76.8160439999999909
21
-187.1920999999999822
0
LINE
8
BLACK
6
CONTINUOUS
10
76.8160439999999909
20
-187.1920999999999822
11
76.6255680000000012
21
-187.2873380000000054
0
LINE
8
BLACK
6
CONTINUOUS
10
76.6255680000000012
20
-187.2873380000000054
11
76.4350909999999999
21
-187.2873380000000054
0
LINE
8
BLACK
6
CONTINUOUS
10
76.4350909999999999
20
-187.2873380000000054
11
76.244614999999996
21
-187.1920999999999822
0
LINE
8
BLACK
6
CONTINUOUS
10
76.244614999999996
20
-187.1920999999999822
11
76.1493770000000012
21
-187.0968609999999899
0
LINE
8
BLACK
6
CONTINUOUS
10
76.1493770000000012
20
-187.0968609999999899
11
76.0541389999999922
21
-186.9063850000000002
0
LINE
8
BLACK
6
CONTINUOUS
10
76.0541389999999922
20
-186.9063850000000002
11
75.9589009999999973
21
-186.5254329999999925
0
LINE
8
BLACK
6
CONTINUOUS
10
75.9589009999999973
20
-186.5254329999999925
11
75.9589009999999973
21
-186.0492419999999925
0
LINE
8
BLACK
6
CONTINUOUS
10
75.9589009999999973
20
-186.0492419999999925
11
76.0541389999999922
21
-185.6682899999999847
0
LINE
8
BLACK
6
CONTINUOUS
10
76.0541389999999922
20
-185.6682899999999847
11
76.1493770000000012
21
-185.4778139999999951
0
LINE
8
BLACK
6
CONTINUOUS
10
76.1493770000000012
20
-185.4778139999999951
11
76.244614999999996
21
-185.3825760000000002
0
LINE
8
BLACK
6
CONTINUOUS
10
76.244614999999996
20
-185.3825760000000002
11
76.4350909999999999
21
-185.2873380000000054
0
LINE
8
BLACK
6
CONTINUOUS
10
77.9589009999999973
20
-187.0968609999999899
11
78.0541389999999922
21
-187.1920999999999822
0
LINE
8
BLACK
6
CONTINUOUS
10
78.0541389999999922
20
-187.1920999999999822
11
77.9589009999999973
21
-187.2873380000000054
0
LINE
8
BLACK
6
CONTINUOUS
10
77.9589009999999973
20
-187.2873380000000054
11
77.8636630000000025
21
-187.1920999999999822
0
LINE
8
BLACK
6
CONTINUOUS
10
77.8636630000000025
20
-187.1920999999999822
11
77.9589009999999973
21
-187.0968609999999899
0
LINE
8
BLACK
6
CONTINUOUS
10
77.9589009999999973
20
-187.0968609999999899
11
77.9589009999999973
21
-187.2873380000000054
0
LINE
8
BLACK
6
CONTINUOUS
10
79.9589009999999973
20
-187.2873380000000054
11
78.8160439999999909
21
-187.2873380000000054
0
LINE
8
BLACK
6
CONTINUOUS
10
79.3874720000000025
20
-187.2873380000000054
11
79.3874720000000025
21
-185.2873380000000054
0
LINE
8
BLACK
6
CONTINUOUS
10
79.3874720000000025
20
-185.2873380000000054
11
79.1969959999999986
21
-185.5730519999999899
0
LINE
8
BLACK
6
CONTINUOUS
10
79.1969959999999986
20
-185.5730519999999899
11
79.0065199999999948
21
-185.7635279999999796
0
LINE
8
BLACK
6
CONTINUOUS
10
79.0065199999999948
20
-185.7635279999999796
11
78.8160439999999909
21
-185.8587660000000028
0
LINE
8
BLACK
6
CONTINUOUS
10
81.8636630000000025
20
-187.2873380000000054
11
80.7208059999999961
21
-187.2873380000000054
0
LINE
8
BLACK
6
CONTINUOUS
10
81.2922339999999934
20
-187.2873380000000054
11
81.2922339999999934
21
-185.2873380000000054
0
LINE
8
BLACK
6
CONTINUOUS
10
81.2922339999999934
20
-185.2873380000000054
11
81.1017579999999896
21
-185.5730519999999899
0
LINE
8
BLACK
6
CONTINUOUS
10
81.1017579999999896
20
-185.5730519999999899
11
80.9112819999999999
21
-185.7635279999999796
0
LINE
8
BLACK
6
CONTINUOUS
10
80.9112819999999999
20
-185.7635279999999796
11
80.7208059999999961
21
-185.8587660000000028
0
LINE
8
BLACK
6
CONTINUOUS
10
83.0065199999999948
20
-186.1444799999999873
11
82.8160439999999909
21
-186.0492419999999925
0
LINE
8
BLACK
6
CONTINUOUS
10
82.8160439999999909
20
-186.0492419999999925
11
82.7208059999999961
21
-185.9540039999999976
0
LINE
8
BLACK
6
CONTINUOUS
10
82.7208059999999961
20
-185.9540039999999976
11
82.6255680000000012
21
-185.7635279999999796
0
LINE
8
BLACK
6
CONTINUOUS
10
82.6255680000000012
20
-185.7635279999999796
11
82.6255680000000012
21
-185.6682899999999847
0
LINE
8
BLACK
6
CONTINUOUS
10
82.6255680000000012
20
-185.6682899999999847
11
82.7208059999999961
21
-185.4778139999999951
0
LINE
8
BLACK
6
CONTINUOUS
10
82.7208059999999961
20
-185.4778139999999951
11
82.8160439999999909
21
-185.3825760000000002
0
LINE
8
BLACK
6
CONTINUOUS
10
82.8160439999999909
20
-185.3825760000000002
11
83.0065199999999948
21
-185.2873380000000054
0
LINE
8
BLACK
6
CONTINUOUS
10
83.0065199999999948
20
-185.2873380000000054
11
83.387473
21
-185.2873380000000054
0
LINE
8
BLACK
6
CONTINUOUS
10
83.387473
20
-185.2873380000000054
11
83.5779489999999896
21
-185.3825760000000002
0
LINE
8
BLACK
6
CONTINUOUS
10
83.5779489999999896
20
-185.3825760000000002
11
83.6731869999999986
21
-185.4778139999999951
0
LINE
8
BLACK
6
CONTINUOUS
10
83.6731869999999986
20
-185.4778139999999951
11
83.7684249999999935
21
-185.6682899999999847
0
LINE
8
BLACK
6
CONTINUOUS
10
83.7684249999999935
20
-185.6682899999999847
11
83.7684249999999935
21
-185.7635279999999796
0
LINE
8
BLACK
6
CONTINUOUS
10
83.7684249999999935
20
-185.7635279999999796
11
83.6731869999999986
21
-185.9540039999999976
0
LINE
8
BLACK
6
CONTINUOUS
10
83.6731869999999986
20
-185.9540039999999976
11
83.5779489999999896
21
-186.0492419999999925
0
LINE
8
BLACK
6
CONTINUOUS
10
83.5779489999999896
20
-186.0492419999999925
11
83.387473
21
-186.1444799999999873
0
LINE
8
BLACK
6
CONTINUOUS
10
83.387473
20
-186.1444799999999873
11
83.0065199999999948
21
-186.1444799999999873
0
LINE
8
BLACK
6
CONTINUOUS
10
83.0065199999999948
20
-186.1444799999999873
11
82.8160439999999909
21
-186.2397189999999796
0
LINE
8
BLACK
6
CONTINUOUS
10
82.8160439999999909
20
-186.2397189999999796
11
82.7208059999999961
21
-186.3349570000000028
0
LINE
8
BLACK
6
CONTINUOUS
10
82.7208059999999961
20
-186.3349570000000028
11
82.6255680000000012
21
-186.5254329999999925
0
LINE
8
BLACK
6
CONTINUOUS
10
82.6255680000000012
20
-186.5254329999999925
11
82.6255680000000012
21
-186.9063850000000002
0
LINE
8
BLACK
6
CONTINUOUS
10
82.6255680000000012
20
-186.9063850000000002
11
82.7208059999999961
21
-187.0968609999999899
0
LINE
8
BLACK
6
CONTINUOUS
10
82.7208059999999961
20
-187.0968609999999899
11
82.8160439999999909
21
-187.1920999999999822
0
LINE
8
BLACK
6
CONTINUOUS
10
82.8160439999999909
20
-187.1920999999999822
11
83.0065199999999948
21
-187.2873380000000054
0
LINE
8
BLACK
6
CONTINUOUS
10
83.0065199999999948
20
-187.2873380000000054
11
83.387473
21
-187.2873380000000054
0
LINE
8
BLACK
6
CONTINUOUS
10
83.387473
20
-187.2873380000000054
11
83.5779489999999896
21
-187.1920999999999822
0
LINE
8
BLACK
6
CONTINUOUS
10
83.5779489999999896
20
-187.1920999999999822
11
83.6731869999999986
21
-187.0968609999999899
0
LINE
8
BLACK
6
CONTINUOUS
10
83.6731869999999986
20
-187.0968609999999899
11
83.7684249999999935
21
-186.9063850000000002
0
LINE
8
BLACK
6
CONTINUOUS
10
83.7684249999999935
20
-186.9063850000000002
11
83.7684249999999935
21
-186.5254329999999925
0
LINE
8
BLACK
6
CONTINUOUS
10
83.7684249999999935
20
-186.5254329999999925
11
83.6731869999999986
21
-186.3349570000000028
0
LINE
8
BLACK
6
CONTINUOUS
10
83.6731869999999986
20
-186.3349570000000028
11
83.5779489999999896
21
-186.2397189999999796
0
LINE
8
BLACK
6
CONTINUOUS
10
83.5779489999999896
20
-186.2397189999999796
11
83.387473
21
-186.1444799999999873
0
LINE
8
BLACK
6
CONTINUOUS
10
85.6731869999999986
20
-187.2873380000000054
11
84.5303299999999922
21
-187.2873380000000054
0
LINE
8
BLACK
6
CONTINUOUS
10
85.1017579999999896
20
-187.2873380000000054
11
85.1017579999999896
21
-185.2873380000000054
0
LINE
8
BLACK
6
CONTINUOUS
10
85.1017579999999896
20
-185.2873380000000054
11
84.9112819999999999
21
-185.5730519999999899
0
LINE
8
BLACK
6
CONTINUOUS
10
84.9112819999999999
20
-185.5730519999999899
11
84.7208059999999961
21
-185.7635279999999796
0
LINE
8
BLACK
6
CONTINUOUS
10
84.7208059999999961
20
-185.7635279999999796
11
84.5303299999999922
21
-185.8587660000000028
0
LINE
8
BLACK
6
CONTINUOUS
10
86.4350919999999974
20
-185.2873380000000054
11
86.4350919999999974
21
-185.6682899999999847
0
LINE
8
BLACK
6
CONTINUOUS
10
87.1969969999999961
20
-185.2873380000000054
11
87.1969969999999961
21
-185.6682899999999847
0
LINE
8
BLACK
6
CONTINUOUS
10
90.1493789999999962
20
-188.0492419999999925
11
90.0541399999999896
21
-187.9540039999999976
0
LINE
8
BLACK
6
CONTINUOUS
10
90.0541399999999896
20
-187.9540039999999976
11
89.863664
21
-187.6682899999999847
0
LINE
8
BLACK
6
CONTINUOUS
10
89.863664
20
-187.6682899999999847
11
89.7684259999999909
21
-187.4778139999999951
0
LINE
8
BLACK
6
CONTINUOUS
10
89.7684259999999909
20
-187.4778139999999951
11
89.6731879999999961
21
-187.1920999999999822
0
LINE
8
BLACK
6
CONTINUOUS
10
89.6731879999999961
20
-187.1920999999999822
11
89.5779500000000013
21
-186.7159089999999821
0
LINE
8
BLACK
6
CONTINUOUS
10
89.5779500000000013
20
-186.7159089999999821
11
89.5779500000000013
21
-186.3349570000000028
0
LINE
8
BLACK
6
CONTINUOUS
10
89.5779500000000013
20
-186.3349570000000028
11
89.6731879999999961
21
-185.8587660000000028
0
LINE
8
BLACK
6
CONTINUOUS
10
89.6731879999999961
20
-185.8587660000000028
11
89.7684259999999909
21
-185.5730519999999899
0
LINE
8
BLACK
6
CONTINUOUS
10
89.7684259999999909
20
-185.5730519999999899
11
89.863664
21
-185.3825760000000002
0
LINE
8
BLACK
6
CONTINUOUS
10
89.863664
20
-185.3825760000000002
11
90.0541399999999896
21
-185.0968609999999899
0
LINE
8
BLACK
6
CONTINUOUS
10
90.0541399999999896
20
-185.0968609999999899
11
90.1493789999999962
21
-185.001622999999995
0
LINE
8
BLACK
6
CONTINUOUS
10
91.9589019999999948
20
-187.2873380000000054
11
90.8160450000000026
21
-187.2873380000000054
0
LINE
8
BLACK
6
CONTINUOUS
10
91.387473
20
-187.2873380000000054
11
91.387473
21
-185.2873380000000054
0
LINE
8
BLACK
6
CONTINUOUS
10
91.387473
20
-185.2873380000000054
11
91.1969969999999961
21
-185.5730519999999899
0
LINE
8
BLACK
6
CONTINUOUS
10
91.1969969999999961
20
-185.5730519999999899
11
91.0065209999999922
21
-185.7635279999999796
0
LINE
8
BLACK
6
CONTINUOUS
10
91.0065209999999922
20
-185.7635279999999796
11
90.8160450000000026
21
-185.8587660000000028
0
LINE
8
BLACK
6
CONTINUOUS
10
93.1969969999999961
20
-185.2873380000000054
11
93.3874739999999974
21
-185.2873380000000054
0
LINE
8
BLACK
6
CONTINUOUS
10
93.3874739999999974
20
-185.2873380000000054
11
93.5779500000000013
21
-185.3825760000000002
0
LINE
8
BLACK
6
CONTINUOUS
10
93.5779500000000013
20
-185.3825760000000002
11
93.6731879999999961
21
-185.4778139999999951
0
LINE
8
BLACK
6
CONTINUOUS
10
93.6731879999999961
20
-185.4778139999999951
11
93.7684259999999909
21
-185.6682899999999847
0
LINE
8
BLACK
6
CONTINUOUS
10
93.7684259999999909
20
-185.6682899999999847
11
93.863664
21
-186.0492419999999925
0
LINE
8
BLACK
6
CONTINUOUS
10
93.863664
20
-186.0492419999999925
11
93.863664
21
-186.5254329999999925
0
LINE
8
BLACK
6
CONTINUOUS
10
93.863664
20
-186.5254329999999925
11
93.7684259999999909
21
-186.9063850000000002
0
LINE
8
BLACK
6
CONTINUOUS
10
93.7684259999999909
20
-186.9063850000000002
11
93.6731879999999961
21
-187.0968609999999899
0
LINE
8
BLACK
6
CONTINUOUS
10
93.6731879999999961
20
-187.0968609999999899
11
93.5779500000000013
21
-187.1920999999999822
0
LINE
8
BLACK
6
CONTINUOUS
10
93.5779500000000013
20
-187.1920999999999822
11
93.3874739999999974
21
-187.2873380000000054
0
LINE
8
BLACK
6
CONTINUOUS
10
93.3874739999999974
20
-187.2873380000000054
11
93.1969969999999961
21
-187.2873380000000054
0
LINE
8
BLACK
6
CONTINUOUS
10
93.1969969999999961
20
-187.2873380000000054
11
93.0065209999999922
21
-187.1920999999999822
0
LINE
8
BLACK
6
CONTINUOUS
10
93.0065209999999922
20
-187.1920999999999822
11
92.9112829999999974
21
-187.0968609999999899
0
LINE
8
BLACK
6
CONTINUOUS
10
92.9112829999999974
20
-187.0968609999999899
11
92.8160450000000026
21
-186.9063850000000002
0
LINE
8
BLACK
6
CONTINUOUS
10
92.8160450000000026
20
-186.9063850000000002
11
92.7208069999999935
21
-186.5254329999999925
0
LINE
8
BLACK
6
CONTINUOUS
10
92.7208069999999935
20
-186.5254329999999925
11
92.7208069999999935
21
-186.0492419999999925
0
LINE
8
BLACK
6
CONTINUOUS
10
92.7208069999999935
20
-186.0492419999999925
11
92.8160450000000026
21
-185.6682899999999847
0
LINE
8
BLACK
6
CONTINUOUS
10
92.8160450000000026
20
-185.6682899999999847
11
92.9112829999999974
21
-185.4778139999999951
0
LINE
8
BLACK
6
CONTINUOUS
10
92.9112829999999974
20
-185.4778139999999951
11
93.0065209999999922
21
-185.3825760000000002
0
LINE
8
BLACK
6
CONTINUOUS
10
93.0065209999999922
20
-185.3825760000000002
11
93.1969969999999961
21
-185.2873380000000054
0
LINE
8
BLACK
6
CONTINUOUS
10
95.0065209999999922
20
-186.1444799999999873
11
94.8160450000000026
21
-186.0492419999999925
0
LINE
8
BLACK
6
CONTINUOUS
10
94.8160450000000026
20
-186.0492419999999925
11
94.7208069999999935
21
-185.9540039999999976
0
LINE
8
BLACK
6
CONTINUOUS
10
94.7208069999999935
20
-185.9540039999999976
11
94.6255689999999987
21
-185.7635279999999796
0
LINE
8
BLACK
6
CONTINUOUS
10
94.6255689999999987
20
-185.7635279999999796
11
94.6255689999999987
21
-185.6682899999999847
0
LINE
8
BLACK
6
CONTINUOUS
10
94.6255689999999987
20
-185.6682899999999847
11
94.7208069999999935
21
-185.4778139999999951
0
LINE
8
BLACK
6
CONTINUOUS
10
94.7208069999999935
20
-185.4778139999999951
11
94.8160450000000026
21
-185.3825760000000002
0
LINE
8
BLACK
6
CONTINUOUS
10
94.8160450000000026
20
-185.3825760000000002
11
95.0065209999999922
21
-185.2873380000000054
0
LINE
8
BLACK
6
CONTINUOUS
10
95.0065209999999922
20
-185.2873380000000054
11
95.3874739999999974
21
-185.2873380000000054
0
LINE
8
BLACK
6
CONTINUOUS
10
95.3874739999999974
20
-185.2873380000000054
11
95.5779500000000013
21
-185.3825760000000002
0
LINE
8
BLACK
6
CONTINUOUS
10
95.5779500000000013
20
-185.3825760000000002
11
95.6731879999999961
21
-185.4778139999999951
0
LINE
8
BLACK
6
CONTINUOUS
10
95.6731879999999961
20
-185.4778139999999951
11
95.7684259999999909
21
-185.6682899999999847
0
LINE
8
BLACK
6
CONTINUOUS
10
95.7684259999999909
20
-185.6682899999999847
11
95.7684259999999909
21
-185.7635279999999796
0
LINE
8
BLACK
6
CONTINUOUS
10
95.7684259999999909
20
-185.7635279999999796
11
95.6731879999999961
21
-185.9540039999999976
0
LINE
8
BLACK
6
CONTINUOUS
10
95.6731879999999961
20
-185.9540039999999976
11
95.5779500000000013
21
-186.0492419999999925
0
LINE
8
BLACK
6
CONTINUOUS
10
95.5779500000000013
20
-186.0492419999999925
11
95.3874739999999974
21
-186.1444799999999873
0
LINE
8
BLACK
6
CONTINUOUS
10
95.3874739999999974
20
-186.1444799999999873
11
95.0065209999999922
21
-186.1444799999999873
0
LINE
8
BLACK
6
CONTINUOUS
10
95.0065209999999922
20
-186.1444799999999873
11
94.8160450000000026
21
-186.2397189999999796
0
LINE
8
BLACK
6
CONTINUOUS
10
94.8160450000000026
20
-186.2397189999999796
11
94.7208069999999935
21
-186.3349570000000028
0
LINE
8
BLACK
6
CONTINUOUS
10
94.7208069999999935
20
-186.3349570000000028
11
94.6255689999999987
21
-186.5254329999999925
0
LINE
8
BLACK
6
CONTINUOUS
10
94.6255689999999987
20
-186.5254329999999925
11
94.6255689999999987
21
-186.9063850000000002
0
LINE
8
BLACK
6
CONTINUOUS
10
94.6255689999999987
20
-186.9063850000000002
11
94.7208069999999935
21
-187.0968609999999899
0
LINE
8
BLACK
6
CONTINUOUS
10
94.7208069999999935
20
-187.0968609999999899
11
94.8160450000000026
21
-187.1920999999999822
0
LINE
8
BLACK
6
CONTINUOUS
10
94.8160450000000026
20
-187.1920999999999822
11
95.0065209999999922
21
-187.2873380000000054
0
LINE
8
BLACK
6
CONTINUOUS
10
95.0065209999999922
20
-187.2873380000000054
11
95.3874739999999974
21
-187.2873380000000054
0
LINE
8
BLACK
6
CONTINUOUS
10
95.3874739999999974
20
-187.2873380000000054
11
95.5779500000000013
21
-187.1920999999999822
0
LINE
8
BLACK
6
CONTINUOUS
10
95.5779500000000013
20
-187.1920999999999822
11
95.6731879999999961
21
-187.0968609999999899
0
LINE
8
BLACK
6
CONTINUOUS
10
95.6731879999999961
20
-187.0968609999999899
11
95.7684259999999909
21
-186.9063850000000002
0
LINE
8
BLACK
6
CONTINUOUS
10
95.7684259999999909
20
-186.9063850000000002
11
95.7684259999999909
21
-186.5254329999999925
0
LINE
8
BLACK
6
CONTINUOUS
10
95.7684259999999909
20
-186.5254329999999925
11
95.6731879999999961
21
-186.3349570000000028
0
LINE
8
BLACK
6
CONTINUOUS
10
95.6731879999999961
20
-186.3349570000000028
11
95.5779500000000013
21
-186.2397189999999796
0
LINE
8
BLACK
6
CONTINUOUS
10
95.5779500000000013
20
-186.2397189999999796
11
95.3874739999999974
21
-186.1444799999999873
0
LINE
8
BLACK
6
CONTINUOUS
10
98.1493789999999962
20
-187.2873380000000054
11
98.1493789999999962
21
-185.2873380000000054
0
LINE
8
BLACK
6
CONTINUOUS
10
99.0065219999999897
20
-187.2873380000000054
11
99.0065219999999897
21
-186.2397189999999796
0
LINE
8
BLACK
6
CONTINUOUS
10
99.0065219999999897
20
-186.2397189999999796
11
98.9112839999999949
21
-186.0492419999999925
0
LINE
8
BLACK
6
CONTINUOUS
10
98.9112839999999949
20
-186.0492419999999925
11
98.720807999999991
21
-185.9540039999999976
0
LINE
8
BLACK
6
CONTINUOUS
10
98.720807999999991
20
-185.9540039999999976
11
98.4350929999999948
21
-185.9540039999999976
0
LINE
8
BLACK
6
CONTINUOUS
10
98.4350929999999948
20
-185.9540039999999976
11
98.244616999999991
21
-186.0492419999999925
0
LINE
8
BLACK
6
CONTINUOUS
10
98.244616999999991
20
-186.0492419999999925
11
98.1493789999999962
21
-186.1444799999999873
0
LINE
8
BLACK
6
CONTINUOUS
10
100.244616999999991
20
-187.2873380000000054
11
100.0541410000000013
21
-187.1920999999999822
0
LINE
8
BLACK
6
CONTINUOUS
10
100.0541410000000013
20
-187.1920999999999822
11
99.9589029999999923
21
-187.0968609999999899
0
LINE
8
BLACK
6
CONTINUOUS
10
99.9589029999999923
20
-187.0968609999999899
11
99.8636649999999975
21
-186.9063850000000002
0
LINE
8
BLACK
6
CONTINUOUS
10
99.8636649999999975
20
-186.9063850000000002
11
99.8636649999999975
21
-186.3349570000000028
0
LINE
8
BLACK
6
CONTINUOUS
10
99.8636649999999975
20
-186.3349570000000028
11
99.9589029999999923
21
-186.1444799999999873
0
LINE
8
BLACK
6
CONTINUOUS
10
99.9589029999999923
20
-186.1444799999999873
11
100.0541410000000013
21
-186.0492419999999925
0
LINE
8
BLACK
6
CONTINUOUS
10
100.0541410000000013
20
-186.0492419999999925
11
100.244616999999991
21
-185.9540039999999976
0
LINE
8
BLACK
6
CONTINUOUS
10
100.244616999999991
20
-185.9540039999999976
11
100.5303320000000014
21
-185.9540039999999976
0
LINE
8
BLACK
6
CONTINUOUS
10
100.5303320000000014
20
-185.9540039999999976
11
100.720807999999991
21
-186.0492419999999925
0
LINE
8
BLACK
6
CONTINUOUS
10
100.720807999999991
20
-186.0492419999999925
11
100.816046
21
-186.1444799999999873
0
LINE
8
BLACK
6
CONTINUOUS
10
100.816046
20
-186.1444799999999873
11
100.9112839999999949
21
-186.3349570000000028
0
LINE
8
BLACK
6
CONTINUOUS
10
100.9112839999999949
20
-186.3349570000000028
11
100.9112839999999949
21
-186.9063850000000002
0
LINE
8
BLACK
6
CONTINUOUS
10
100.9112839999999949
20
-186.9063850000000002
11
100.816046
21
-187.0968609999999899
0
LINE
8
BLACK
6
CONTINUOUS
10
100.816046
20
-187.0968609999999899
11
100.720807999999991
21
-187.1920999999999822
0
LINE
8
BLACK
6
CONTINUOUS
10
100.720807999999991
20
-187.1920999999999822
11
100.5303320000000014
21
-187.2873380000000054
0
LINE
8
BLACK
6
CONTINUOUS
10
100.5303320000000014
20
-187.2873380000000054
11
100.244616999999991
21
-187.2873380000000054
0
LINE
8
BLACK
6
CONTINUOUS
10
102.0541410000000013
20
-187.2873380000000054
11
101.8636649999999975
21
-187.1920999999999822
0
LINE
8
BLACK
6
CONTINUOUS
10
101.8636649999999975
20
-187.1920999999999822
11
101.7684269999999884
21
-187.001622999999995
0
LINE
8
BLACK
6
CONTINUOUS
10
101.7684269999999884
20
-187.001622999999995
11
101.7684269999999884
21
-185.2873380000000054
0
LINE
8
BLACK
6
CONTINUOUS
10
103.5779509999999988
20
-187.1920999999999822
11
103.3874749999999949
21
-187.2873380000000054
0
LINE
8
BLACK
6
CONTINUOUS
10
103.3874749999999949
20
-187.2873380000000054
11
103.0065219999999897
21
-187.2873380000000054
0
LINE
8
BLACK
6
CONTINUOUS
10
103.0065219999999897
20
-187.2873380000000054
11
102.816046
21
-187.1920999999999822
0
LINE
8
BLACK
6
CONTINUOUS
10
102.816046
20
-187.1920999999999822
11
102.720807999999991
21
-187.001622999999995
0
LINE
8
BLACK
6
CONTINUOUS
10
102.720807999999991
20
-187.001622999999995
11
102.720807999999991
21
-186.2397189999999796
0
LINE
8
BLACK
6
CONTINUOUS
10
102.720807999999991
20
-186.2397189999999796
11
102.816046
21
-186.0492419999999925
0
LINE
8
BLACK
6
CONTINUOUS
10
102.816046
20
-186.0492419999999925
11
103.0065219999999897
21
-185.9540039999999976
0
LINE
8
BLACK
6
CONTINUOUS
10
103.0065219999999897
20
-185.9540039999999976
11
103.3874749999999949
21
-185.9540039999999976
0
LINE
8
BLACK
6
CONTINUOUS
10
103.3874749999999949
20
-185.9540039999999976
11
103.5779509999999988
21
-186.0492419999999925
0
LINE
8
BLACK
6
CONTINUOUS
10
103.5779509999999988
20
-186.0492419999999925
11
103.6731889999999936
21
-186.2397189999999796
0
LINE
8
BLACK
6
CONTINUOUS
10
103.6731889999999936
20
-186.2397189999999796
11
103.6731889999999936
21
-186.4301949999999977
0
LINE
8
BLACK
6
CONTINUOUS
10
103.6731889999999936
20
-186.4301949999999977
11
102.720807999999991
21
-186.6206709999999873
0
LINE
8
BLACK
6
CONTINUOUS
10
104.4350939999999923
20
-187.1920999999999822
11
104.6255699999999962
21
-187.2873380000000054
0
LINE
8
BLACK
6
CONTINUOUS
10
104.6255699999999962
20
-187.2873380000000054
11
105.0065219999999897
21
-187.2873380000000054
0
LINE
8
BLACK
6
CONTINUOUS
10
105.0065219999999897
20
-187.2873380000000054
11
105.196998999999991
21
-187.1920999999999822
0
LINE
8
BLACK
6
CONTINUOUS
10
105.196998999999991
20
-187.1920999999999822
11
105.2922370000000001
21
-187.001622999999995
0
LINE
8
BLACK
6
CONTINUOUS
10
105.2922370000000001
20
-187.001622999999995
11
105.2922370000000001
21
-186.9063850000000002
0
LINE
8
BLACK
6
CONTINUOUS
10
105.2922370000000001
20
-186.9063850000000002
11
105.196998999999991
21
-186.7159089999999821
0
LINE
8
BLACK
6
CONTINUOUS
10
105.196998999999991
20
-186.7159089999999821
11
105.0065219999999897
21
-186.6206709999999873
0
LINE
8
BLACK
6
CONTINUOUS
10
105.0065219999999897
20
-186.6206709999999873
11
104.720807999999991
21
-186.6206709999999873
0
LINE
8
BLACK
6
CONTINUOUS
10
104.720807999999991
20
-186.6206709999999873
11
104.5303320000000014
21
-186.5254329999999925
0
LINE
8
BLACK
6
CONTINUOUS
10
104.5303320000000014
20
-186.5254329999999925
11
104.4350939999999923
21
-186.3349570000000028
0
LINE
8
BLACK
6
CONTINUOUS
10
104.4350939999999923
20
-186.3349570000000028
11
104.4350939999999923
21
-186.2397189999999796
0
LINE
8
BLACK
6
CONTINUOUS
10
104.4350939999999923
20
-186.2397189999999796
11
104.5303320000000014
21
-186.0492419999999925
0
LINE
8
BLACK
6
CONTINUOUS
10
104.5303320000000014
20
-186.0492419999999925
11
104.720807999999991
21
-185.9540039999999976
0
LINE
8
BLACK
6
CONTINUOUS
10
104.720807999999991
20
-185.9540039999999976
11
105.0065219999999897
21
-185.9540039999999976
0
LINE
8
BLACK
6
CONTINUOUS
10
105.0065219999999897
20
-185.9540039999999976
11
105.196998999999991
21
-186.0492419999999925
0
LINE
8
BLACK
6
CONTINUOUS
10
105.9589039999999898
20
-188.0492419999999925
11
106.0541419999999988
21
-187.9540039999999976
0
LINE
8
BLACK
6
CONTINUOUS
10
106.0541419999999988
20
-187.9540039999999976
11
106.2446179999999885
21
-187.6682899999999847
0
LINE
8
BLACK
6
CONTINUOUS
10
106.2446179999999885
20
-187.6682899999999847
11
106.3398559999999975
21
-187.4778139999999951
0
LINE
8
BLACK
6
CONTINUOUS
10
106.3398559999999975
20
-187.4778139999999951
11
106.4350939999999923
21
-187.1920999999999822
0
LINE
8
BLACK
6
CONTINUOUS
10
106.4350939999999923
20
-187.1920999999999822
11
106.5303320000000014
21
-186.7159089999999821
0
LINE
8
BLACK
6
CONTINUOUS
10
106.5303320000000014
20
-186.7159089999999821
11
106.5303320000000014
21
-186.3349570000000028
0
LINE
8
BLACK
6
CONTINUOUS
10
106.5303320000000014
20
-186.3349570000000028
11
106.4350939999999923
21
-185.8587660000000028
0
LINE
8
BLACK
6
CONTINUOUS
10
106.4350939999999923
20
-185.8587660000000028
11
106.3398559999999975
21
-185.5730519999999899
0
LINE
8
BLACK
6
CONTINUOUS
10
106.3398559999999975
20
-185.5730519999999899
11
106.2446179999999885
21
-185.3825760000000002
0
LINE
8
BLACK
6
CONTINUOUS
10
106.2446179999999885
20
-185.3825760000000002
11
106.0541419999999988
21
-185.0968609999999899
0
LINE
8
BLACK
6
CONTINUOUS
10
106.0541419999999988
20
-185.0968609999999899
11
105.9589039999999898
21
-185.001622999999995
  0
ENDSEC
  0
EOF
